<?xml version="1.0" encoding="UTF-8" standalone="no"?>
<!-- Generator: Adobe Illustrator 27.5.0, SVG Export Plug-In . SVG Version: 6.00 Build 0)  -->

<svg
   version="1.1"
   x="0px"
   y="0px"
   viewBox="0 0 500 500"
   style="enable-background:new 0 0 500 500;"
   xml:space="preserve"
   id="svg129"
   sodipodi:docname="4986678_2628946.svg"
   inkscape:version="1.4 (86a8ad7, 2024-10-11)"
   xmlns:inkscape="http://www.inkscape.org/namespaces/inkscape"
   xmlns:sodipodi="http://sodipodi.sourceforge.net/DTD/sodipodi-0.dtd"
   xmlns="http://www.w3.org/2000/svg"
   xmlns:svg="http://www.w3.org/2000/svg"><defs
   id="defs129" /><sodipodi:namedview
   id="namedview129"
   pagecolor="#ffffff"
   bordercolor="#000000"
   borderopacity="0.25"
   inkscape:showpageshadow="2"
   inkscape:pageopacity="0.0"
   inkscape:pagecheckerboard="0"
   inkscape:deskcolor="#d1d1d1"
   inkscape:zoom="1.614"
   inkscape:cx="250"
   inkscape:cy="250"
   inkscape:window-width="1920"
   inkscape:window-height="1009"
   inkscape:window-x="-8"
   inkscape:window-y="-8"
   inkscape:window-maximized="1"
   inkscape:current-layer="svg129" />

<g
   id="OBJECTS">
	<g
   id="g6">
		<path
   style="fill:#C90A05;"
   d="M154.265,91.386l21.85-14.53l-14.513,19.617c-2.237,3.024,0.185,7.265,3.926,6.874l24.252-2.53    l-19.292,9.652c-3.908,1.955-3.457,7.67,0.708,8.99l23.508,7.445l-21.268-1.154c-3.916-0.212-5.658,4.841-2.443,7.087    l20.944,14.63l-23.928-10.433c-3.244-1.414-6.457,2.049-4.803,5.178l9.487,17.95l-16.655-14.946    c-2.827-2.537-7.335-0.724-7.619,3.064l-1.815,24.237l-7.912-24.977c-1.232-3.889-6.361-4.727-8.762-1.429    c-6.722,9.232-16.887,23.143-16.762,22.679c0.115-0.431,3.462-15.111,5.979-26.165c1.26-5.533-3.788-10.433-9.281-9.007    c-10.81,2.806-24.92,6.485-24.452,6.457c0.429-0.026,11.26-5.881,20.555-10.944c4.527-2.466,3.502-9.239-1.551-10.258    l-23.002-4.638l21.075-2.172c4.546-0.469,6.093-6.316,2.372-8.97L90.58,92.903l17.754,5.158c5.57,1.618,10.511-3.975,8.217-9.303    l-8.465-19.666l17.349,18.735c3.994,4.313,11.203,1.451,11.15-4.427l-0.163-18.383l5.268,21.468    C143.052,92.033,149.508,94.549,154.265,91.386z"
   id="path1" />
		<path
   style="fill:#FD0C05;"
   d="M148.798,76.093l24.057-27.264l-12.415,31.451c-1.914,4.848,2.845,9.659,7.714,7.799l31.563-12.058    l-22.376,19.819c-4.532,4.014-1.886,11.505,4.162,11.782l34.132,1.562l-28.885,6.06c-5.319,1.116-5.844,8.504-0.737,10.362    l33.27,12.098l-35.763-5.411c-4.849-0.734-7.912,5.052-4.579,8.649l19.118,20.639l-27.641-14.055    c-4.691-2.385-10.078,1.653-9.104,6.825l6.235,33.096l-19.522-30.609c-3.04-4.766-10.205-4.054-12.241,1.219    c-5.699,14.763-14.332,37.021-14.332,36.354c0-0.618-0.768-21.467-1.35-37.166c-0.291-7.858-8.801-12.612-15.645-8.74    c-13.469,7.621-31.043,17.592-30.427,17.387c0.564-0.188,12.971-11.899,23.605-22c5.179-4.92,1.385-13.621-5.744-13.178    L59.44,132.73l27.437-10.442c5.919-2.253,5.898-10.633-0.031-12.857l-22.763-8.536l25.613,0.557    c8.035,0.175,12.65-9.08,7.675-15.392L79.006,62.757l29.924,18.879c6.888,4.346,15.516-2.064,13.345-9.913l-6.791-24.552    l14.728,26.856C134.018,80.969,143.56,82.03,148.798,76.093z"
   id="path2" />
		<path
   style="fill:#ED0B05;"
   d="M127.128,156.985c-0.351-9.468-8.046-16.884-17.517-16.884c-0.898,0-1.795,0.071-2.682,0.21    c0.329-2.444,0.037-4.986-0.925-7.397c-1.823-4.565-5.687-7.816-10.299-8.875c1.685-2.32,2.636-5.164,2.629-8.207    c-0.007-3.1-1.01-5.993-2.769-8.331c3.972-1.432,7.289-4.366,9.217-8.34c1.72-3.547,2.103-7.448,1.216-11.097    c2.376,1.316,5.011,2.007,7.676,2.007c4.948,0,9.714-2.38,12.748-6.368c0.425-0.558,0.809-1.139,1.152-1.737    c3.376,3.178,7.887,5.022,12.672,5.022h0.001c4.766,0,9.334-1.853,12.754-5.134c-0.137,2.782,0.62,5.569,2.226,7.928    c2.443,3.592,6.463,5.736,10.753,5.736c1.124,0,2.239-0.146,3.33-0.437c-1.491,3.196-1.717,6.91-0.486,10.392    c1.428,4.043,4.578,7.095,8.484,8.436c-1.048,1.679-1.701,3.633-1.851,5.738c-0.178,2.517,0.384,4.919,1.537,6.981    c-2.376,1.27-4.322,3.327-5.452,5.915c-1.091,2.501-1.314,5.166-0.725,7.663c-1.067-0.275-2.165-0.412-3.28-0.412    c-3.985,0-7.743,1.775-10.31,4.871c-2.05,2.473-3.115,5.569-3.055,8.74l-0.222-0.348c-2.571-4.032-6.953-6.439-11.724-6.439    c-5.808,0-10.911,3.494-13,8.905c-0.689,1.782-1.343,3.48-1.967,5.091C127.218,159.447,127.173,158.237,127.128,156.985z"
   id="path3" />
		<path
   style="fill:#F3D709;"
   d="M158.237,140.92l23.609,18.078l-17.387-25.234c-1.545-2.243-0.035-5.312,2.685-5.456l23.375-1.236    l-22.262-4.29c-1.138-0.219-1.117-1.856,0.027-2.045l37.391-6.192l-43.813-1.101l0,0c-0.674-0.416,0.057-0.653,0.057-0.653l0,0    l10.871-4.098l-12.1-1.054l0,0c-0.529-0.234-0.163-0.677-0.163-0.677l0,0l34.636-17.062l-34.637,11.677    c-0.68,0.229-1.218-0.599-0.733-1.127l9.701-10.557l-11.996,6.472c-1.11,0.598-2.346-0.552-1.829-1.701l14.276-31.741    c0,0-16.428,21.384-22.173,28.655c-0.838,1.061-2.502,0.757-2.945-0.52l-4.983-14.392l-4.381,12.886    c-0.403,1.186-2.091,1.151-2.446-0.05l-9.091-30.841l1.986,34.524c0.039,0.679-0.796,1.03-1.254,0.527l-17.143-18.834    l11.656,21.652c0.309,0.575-0.337,1.191-0.896,0.854l-32.168-19.37l30.696,28.845c0.375,0.352,0.006,0.966-0.481,0.801    l-19.62-6.67l18.533,10.412c0.502,0.282,0.261,1.049-0.313,0.993l-30.524-2.994l29.022,8.051c0.64,0.178,0.693,1.065,0.079,1.318    l-35.843,14.737l36.65-3.037c0.832-0.069,1.476,0.718,1.242,1.52l-10.174,34.915l24.266-27.631    c0.427-0.486,1.227-0.163,1.198,0.482l-0.832,18.57l7.865-16.198c0.343-0.707,1.383-0.596,1.569,0.167l8.862,36.296l4.359-35.334    C152.992,140.587,156.1,139.283,158.237,140.92z"
   id="path4" />
		<path
   style="fill:#FBF607;"
   d="M143.993,141.184c-0.607-2.483-2.815-4.212-5.371-4.212c-1.243,0-2.41,0.405-3.351,1.126    c-0.246-0.773-0.664-1.49-1.23-2.08c-1.011-1.057-2.429-1.661-3.892-1.661c-1.539,0-3.005,0.663-4.026,1.824l-10.348,11.781    l4.272-14.66c0.515-1.766,0.164-3.697-0.94-5.169c-1.104-1.473-2.861-2.352-4.699-2.352h-0.193l-6.799,0.558l7.865-3.233    c2.135-0.881,3.467-3.016,3.327-5.311c-0.04-0.636-0.189-1.245-0.433-1.805c0.885-0.689,1.55-1.661,1.849-2.805    c0.2-0.769,0.218-1.549,0.077-2.29c0.501-0.494,0.905-1.098,1.177-1.785c0.785-1.979,0.289-4.199-1.262-5.661l-1.365-1.281    c1.849-0.016,3.584-1.011,4.536-2.608c0.216-0.364,0.387-0.744,0.51-1.133c0.48,0.137,0.983,0.211,1.491,0.211    c1.485,0,2.923-0.62,3.942-1.7c0.8-0.847,1.301-1.938,1.433-3.087c1.022,0.799,2.305,1.258,3.687,1.258    c2.541,0,4.799-1.606,5.634-4.004l0.516,1.487c0.892,2.581,3.326,4.318,6.054,4.318c1.663-0.002,3.228-0.641,4.408-1.778    c-0.016,1.162,0.307,2.318,0.96,3.327c0.749,1.158,1.844,2.004,3.1,2.435c-0.005,0.739,0.143,1.483,0.452,2.185    c0.262,0.597,0.625,1.13,1.062,1.583c-0.668,1.139-0.888,2.503-0.583,3.78c0.237,0.998,0.764,1.878,1.51,2.558    c-0.221,0.469-0.372,0.982-0.437,1.521c-0.236,1.94,0.712,3.823,2.472,4.91l1.078,0.666l3.505,0.089    c-0.773,0.965-1.236,2.185-1.253,3.503c-0.014,1.046,0.255,2.039,0.742,2.897c-1.48,0.794-2.709,2.039-3.476,3.594    c-1.303,2.652-1.072,5.809,0.605,8.242l0.591,0.86l-0.108-0.082c-1.44-1.105-3.154-1.689-4.955-1.689    c-4.124,0-7.616,3.084-8.119,7.173l-1.226,9.937L143.993,141.184z"
   id="path5" />
		<path
   style="fill:#F8F8F8;"
   d="M140.86,102.767l5.422-10.76v12.337c0,0.714,0.896,1.033,1.347,0.479l4.548-5.582l-1.844,6.586    c-0.201,0.719,0.644,1.268,1.219,0.792l9.556-7.914l-7.612,11.61c-0.424,0.646,0.184,1.472,0.927,1.259l14.991-4.294    l-15.801,10.588c-0.807,0.54-0.738,1.748,0.124,2.194l13.98,7.226l-16.589-3.066c-0.685-0.127-1.275,0.492-1.117,1.171    l4.978,21.277l-12.875-17.273c-0.165-0.222-0.514-0.149-0.577,0.12l-1.866,8.012l-1.548-8.455c0,0-7.145,23.103-6.907,22.746    c0.213-0.32,0.04-20.56,0.001-24.822c-0.002-0.211-0.278-0.277-0.378-0.091c-1.077,2.006-4.128,7.659-4.03,7.169    c0.101-0.505,1.832-7.875,2.354-10.092c0.078-0.334-0.152-0.66-0.493-0.699l-19.366-2.19l19.507-4.245    c0.176-0.038,0.177-0.288,0.001-0.328l-12.363-2.81l12.883-0.904c0.257-0.018,0.366-0.338,0.172-0.508l-13.651-12.045l14.914,6.96    c0.433,0.202,0.896-0.217,0.738-0.668l-5.887-16.772l9.976,14.058c0.143,0.201,0.459,0.087,0.441-0.158l-0.533-7.469l4.684,6.612    C140.36,103.059,140.727,103.031,140.86,102.767z"
   id="path6" />
	</g>
	<g
   id="g33">
		<g
   id="g22">
			<path
   style="fill:#FD0C05;"
   d="M154.934,278.229l31.834-34.273l-16.429,39.537c-2.532,6.094,3.765,12.142,10.208,9.804     l41.768-15.158l-29.611,24.914c-5.998,5.046-2.496,14.463,5.508,14.81l45.168,1.963l-38.224,7.618     c-7.039,1.403-7.734,10.691-0.975,13.025l44.027,15.208l-47.326-6.803c-6.417-0.922-10.47,6.35-6.06,10.873l25.299,25.945     l-36.577-17.668c-6.208-2.999-13.337,2.078-12.048,8.58l8.251,41.604l-25.835-38.479c-4.022-5.991-13.505-5.096-16.198,1.533     c-7.541,18.559-18.966,46.538-18.966,45.7c0-0.777-1.017-26.986-1.786-46.721c-0.385-9.878-11.647-15.855-20.703-10.987     c-17.824,9.58-41.08,22.115-40.265,21.856c0.747-0.236,17.165-14.958,31.236-27.656c6.853-6.184,1.833-17.122-7.601-16.566     l-42.945,2.534l36.308-13.127c7.833-2.832,7.806-13.367-0.042-16.163l-30.123-10.731l33.894,0.7     c10.633,0.22,16.74-11.414,10.156-19.349l-24.302-29.291l39.6,23.732c9.115,5.463,20.533-2.594,17.659-12.462l-8.987-30.863     l19.49,33.761C135.375,284.359,148.002,285.692,154.934,278.229z"
   id="path7" />
			<path
   style="fill:#F6910B;"
   d="M212.548,313.148c1.823-9.48-4.852-18.816-15.421-22.656c-2.115-6.571-8.687-12.046-17.281-13.537     c-2.506-0.435-4.971-0.475-7.326-0.208c-2.116-3.604-6.198-6.433-11.271-7.313c-7.345-1.274-14.273,1.958-16.664,7.399     c-2.781-1.994-6.172-3.465-9.98-4.125c-11.396-1.977-22.079,3.933-23.861,13.201c-0.297,1.543-0.306,3.079-0.099,4.581     c-4.264,2.401-7.34,6.173-8.225,10.776c-1.122,5.836,1.542,11.61,6.507,15.594c-0.206,0.588-0.383,1.189-0.503,1.813     c-1.583,8.236,5.182,16.324,15.18,18.331c2.197,8.436,10.407,15.584,21.294,17.473c9.583,1.663,18.747-1.181,24.351-6.762     c1.045,0.323,2.118,0.603,3.237,0.798c11.624,2.017,22.521-4.012,24.338-13.465c0.438-2.28,0.297-4.548-0.316-6.71     C204.718,326.286,211.105,320.651,212.548,313.148z"
   id="path8" />
			<path
   style="fill:#F6910B;"
   d="M68.86,347.776c-1.823-9.48,4.853-18.816,15.42-22.656c2.115-6.571,8.687-12.046,17.281-13.537     c2.506-0.435,4.971-0.475,7.326-0.208c2.116-3.604,6.198-6.433,11.271-7.313c7.345-1.274,14.273,1.958,16.663,7.399     c2.781-1.994,6.172-3.465,9.98-4.125c11.396-1.977,22.079,3.933,23.861,13.201c0.297,1.543,0.305,3.079,0.099,4.581     c4.264,2.401,7.34,6.173,8.225,10.776c1.122,5.836-1.542,11.61-6.507,15.594c0.206,0.588,0.383,1.189,0.503,1.813     c1.583,8.236-5.182,16.324-15.18,18.331c-2.197,8.435-10.406,15.584-21.294,17.473c-9.583,1.663-18.747-1.181-24.351-6.762     c-1.045,0.323-2.118,0.603-3.236,0.797c-11.624,2.017-22.521-4.012-24.338-13.465c-0.438-2.28-0.297-4.548,0.316-6.71     C76.69,360.914,70.302,355.278,68.86,347.776z"
   id="path9" />
			<path
   style="fill:#EC5F05;"
   d="M68.085,320.128c-1.621-8.431,4.315-16.733,13.713-20.148c1.881-5.844,7.725-10.712,15.368-12.039     c2.229-0.387,4.421-0.423,6.515-0.185c1.882-3.205,5.511-5.721,10.023-6.503c6.532-1.133,12.692,1.741,14.819,6.58     c2.473-1.773,5.488-3.081,8.875-3.669c10.134-1.758,19.634,3.498,21.219,11.74c0.264,1.372,0.272,2.738,0.088,4.074     c3.792,2.135,6.527,5.49,7.314,9.582c0.998,5.19-1.372,10.325-5.786,13.867c0.183,0.523,0.341,1.057,0.448,1.612     c1.408,7.324-4.608,14.517-13.499,16.301c-1.954,7.502-9.254,13.859-18.936,15.538c-8.522,1.479-16.672-1.051-21.655-6.014     c-0.93,0.287-1.883,0.537-2.878,0.709c-10.337,1.793-20.027-3.567-21.643-11.974c-0.39-2.027-0.264-4.044,0.281-5.967     C75.048,331.812,69.368,326.8,68.085,320.128z"
   id="path10" />
			<path
   style="fill:#EC5F05;"
   d="M98.218,351.062c-1.961-10.199,5.22-20.243,16.589-24.374c2.275-7.069,9.345-12.959,18.591-14.563     c2.696-0.468,5.348-0.511,7.882-0.224c2.276-3.878,6.667-6.921,12.125-7.867c7.902-1.371,15.355,2.107,17.927,7.96     c2.992-2.146,6.64-3.727,10.736-4.438c12.26-2.127,23.752,4.231,25.669,14.202c0.319,1.66,0.329,3.312,0.106,4.928     c4.587,2.583,7.896,6.641,8.848,11.592c1.207,6.278-1.659,12.49-7,16.775c0.221,0.633,0.412,1.279,0.541,1.95     c1.704,8.861-5.575,17.561-16.331,19.72c-2.364,9.075-11.195,16.765-22.908,18.797c-10.309,1.789-20.168-1.271-26.196-7.275     c-1.125,0.347-2.278,0.649-3.482,0.858c-12.505,2.17-24.228-4.316-26.183-14.485c-0.472-2.453-0.319-4.893,0.34-7.218     C106.641,365.197,99.77,359.134,98.218,351.062z"
   id="path11" />
			<path
   style="fill:#F73102;"
   d="M145.086,366.316l15.644,32.97l-4.288-37.046c-0.381-3.293,3.184-5.709,6.338-4.295l27.102,12.152     l-22.493-17.427c-1.15-0.891-0.133-2.631,1.271-2.174l45.91,14.924l-48.724-26.436l0,0c-0.507-0.834,0.461-0.666,0.461-0.666l0,0     l14.742,1.879l-13.001-8.104l0,0c-0.455-0.556,0.227-0.819,0.227-0.819l0,0l49.4,1.696l-46.134-7.463     c-0.906-0.146-1.01-1.343-0.142-1.629l17.344-5.713l-17.451,0.015c-1.614,0.001-2.31-1.943-1.029-2.876l35.356-25.762     c0,0-31.497,13.429-42.385,17.905c-1.588,0.653-3.281-0.632-3.004-2.254l3.116-18.286l-12.759,11.275     c-1.174,1.037-3.056,0.027-2.727-1.463l8.467-38.269l-18.712,38.117c-0.368,0.749-1.523,0.644-1.734-0.158l-7.896-30.052     l0,29.907c0,0.794-1.102,1.081-1.529,0.398l-24.51-39.289l17.1,48.586c0.209,0.593-0.58,1.038-1.028,0.58l-18.07-18.453     l14.574,21.834c0.395,0.591-0.343,1.274-0.955,0.883l-32.594-20.804l27.832,25.353c0.614,0.559,0.135,1.54-0.711,1.456     l-49.35-4.881l43.16,17.876c0.98,0.406,1.228,1.62,0.477,2.344L69.722,363.67l44.124-15.6c0.776-0.274,1.482,0.532,1.058,1.207     l-12.208,19.407l18.697-12.812c0.816-0.559,1.921,0.159,1.667,1.084l-12.036,43.98l26.357-35.327     C139.375,362.935,143.67,363.331,145.086,366.316z"
   id="path12" />
			<path
   style="fill:#FF8017;"
   d="M156.151,366.863l25.781,30.749l-14.968-37.934c-1.33-3.372,1.744-6.825,5.465-6.138l31.978,5.902     l-28.611-12.632c-1.463-0.646-0.882-2.738,0.725-2.614l52.574,4.034l-58.786-15.444l0,0c-0.769-0.749,0.297-0.819,0.297-0.819     l0,0l16.06-1.774l-15.982-5.227l0,0c-0.636-0.47,0.007-0.92,0.007-0.92l0,0l52.518-10.79l-50.704,3.883     c-0.996,0.076-1.443-1.158-0.609-1.68l16.658-10.434l-18.38,4.459c-1.7,0.412-2.981-1.459-1.895-2.768l29.977-36.14     c0,0-29.391,22.165-39.599,29.652c-1.489,1.092-3.634,0.17-3.801-1.61l-1.876-20.056l-10.26,15.125     c-0.944,1.392-3.212,0.806-3.285-0.848l-1.877-42.469l-8.958,44.917c-0.176,0.883-1.423,1.066-1.871,0.275l-16.796-29.648     l8.437,31.505c0.224,0.836-0.856,1.419-1.498,0.808L79.97,263.079l31.72,46.828c0.387,0.571-0.318,1.241-0.92,0.873     l-24.242-14.839l21.513,19.29c0.583,0.523-0.002,1.429-0.757,1.174L67.08,302.788l36.471,19.622     c0.804,0.433,0.577,1.588-0.338,1.715l-53.364,7.422l50.509,7.843c1.147,0.178,1.75,1.394,1.164,2.348l-25.509,41.524     l42.081-27.667c0.74-0.486,1.711,0.183,1.455,1.002l-7.385,23.552l16.081-18.257c0.702-0.797,2.068-0.322,2.062,0.717     l-0.272,49.393l17.799-43.924C149.181,364.756,153.816,364.078,156.151,366.863z"
   id="path13" />
			<path
   style="fill:#F9D912;"
   d="M197.736,328.509c0-9.637-8.333-17.682-19.455-19.656c-3.323-6.103-10.824-10.368-19.56-10.368     c-2.548,0-4.98,0.381-7.247,1.045c-2.763-3.185-7.314-5.27-12.471-5.27c-7.466,0-13.67,4.362-14.993,10.123     c-3.113-1.487-6.727-2.355-10.598-2.355c-11.585,0-20.976,7.637-20.976,17.059c0,1.569,0.282,3.081,0.769,4.523     c-3.74,3.09-6.053,7.326-6.053,12.004c0,5.933,3.713,11.158,9.35,14.229c-0.091,0.614-0.152,1.235-0.152,1.869     c0,8.372,8.185,15.174,18.4,15.442c3.757,7.923,13.185,13.554,24.252,13.554c9.741,0,18.219-4.362,22.675-10.809     c1.089,0.139,2.197,0.232,3.335,0.232c11.816,0,21.395-7.79,21.395-17.4c0-2.318-0.569-4.525-1.58-6.547     C192.519,342.77,197.736,336.136,197.736,328.509z"
   id="path14" />
			<path
   style="fill:#F5E182;"
   d="M176.85,329.493c0-7.809-5.78-14.327-13.495-15.926c-2.305-4.945-7.508-8.401-13.568-8.401     c-1.767,0-3.455,0.309-5.027,0.847c-1.917-2.58-5.073-4.27-8.65-4.27c-5.179,0-9.483,3.535-10.4,8.202     c-2.159-1.205-4.666-1.908-7.351-1.908c-8.036,0-14.55,6.188-14.55,13.822c0,1.271,0.195,2.496,0.534,3.665     c-2.594,2.504-4.199,5.936-4.199,9.726c0,4.807,2.576,9.041,6.486,11.529c-0.063,0.497-0.106,1.001-0.106,1.514     c0,6.784,5.678,12.295,12.764,12.512c2.606,6.42,9.146,10.982,16.823,10.982c6.757,0,12.638-3.534,15.729-8.758     c0.756,0.113,1.524,0.188,2.313,0.188c8.197,0,14.841-6.312,14.841-14.098c0-1.878-0.394-3.666-1.096-5.305     C173.231,341.048,176.85,335.673,176.85,329.493z"
   id="path15" />
			<g
   id="g21">
				<path
   style="fill:#F8F0C1;"
   d="M117.277,290.139c0,0,8.952,29.728,7.072,30.43C120.948,321.837,117.277,290.139,117.277,290.139      z"
   id="path16" />
				<path
   style="fill:#F8F0C1;"
   d="M70.253,330.374c0,0,39.394,0.091,39.457,2.642C109.825,337.633,70.253,330.374,70.253,330.374z"
   id="path17" />
				<path
   style="fill:#F8F0C1;"
   d="M163.501,296.917c0,0-9.633,26.734-11.492,26.278      C148.644,322.369,163.501,296.917,163.501,296.917z"
   id="path18" />
				<path
   style="fill:#F8F0C1;"
   d="M203.265,330.325c0,0-40.419,5.921-41.197,3.537C160.66,329.547,203.265,330.325,203.265,330.325      z"
   id="path19" />
				<path
   style="fill:#F8F0C1;"
   d="M171.645,361.988c0,0-19.775-12.276-19.086-13.564      C153.807,346.092,171.645,361.988,171.645,361.988z"
   id="path20" />
				<path
   style="fill:#F8F0C1;"
   d="M106.274,378.44c0,0,10.853-29.088,12.773-28.51C122.524,350.977,106.274,378.44,106.274,378.44z      "
   id="path21" />
			</g>
			<path
   style="fill:#FCFFFD;"
   d="M133.646,332.96c0,0,5.826-22.007,5.641-21.378c-0.41,1.395,4.835,21.378,4.835,21.378     l10.864-10.709l-6.596,14.237l12.804,13.427c0,0-13.58-7.74-13.774-5.529c-0.194,2.212-6.014,20.44-5.238,17.223     c0.776-3.217-2.895-16.117-2.895-16.117s-13.789,10.301-13.013,8.652c0.776-1.649,6.208-10.126,6.208-10.126l-16.684-11.058     H133.646z"
   id="path22" />
		</g>
		<g
   id="g32">
			<g
   id="g25">
				<g
   id="g23">
					<path
   style="fill:#F6910B;"
   d="M61.586,284.914l-4.733-5.224c-1.375-1.518-1.729-3.702-0.904-5.576l2.246-5.103l-1.272,1.32       c-2.057,2.134-5.656,1.147-6.343-1.736c-0.486-2.038-0.909-4.011-1-5.03c-0.251,1.255-0.96,3.976-1.632,6.473       c-0.814,3.027-3.561,5.129-6.695,5.129h-4.458l7.076,4.937c1.142,0.797,1.475,2.341,0.761,3.537       c-0.86,1.441-1.88,3.179-2.115,3.705c-0.191,0.426,1.228-0.537,2.847-1.726c2.079-1.528,5.037-0.354,5.51,2.183       c0.3,1.608,0.493,3.128,0.331,3.835c-0.316,1.378,1.368-4.089,2.291-7.491v0v0c0.112-0.412,0.212-0.792,0.296-1.128       c0.309-0.642,0.939-1.276,2.233-1.038l0,0C58.253,282.915,61.586,284.914,61.586,284.914z"
   id="path23" />
				</g>
				<g
   id="g24">
					<path
   style="fill:#E3860A;"
   d="M54.384,280.729l-1.983-2.189c-0.576-0.636-0.724-1.551-0.379-2.336l0.941-2.138l-0.533,0.553       c-0.862,0.894-2.37,0.48-2.658-0.727c-0.204-0.854-0.381-1.68-0.419-2.107c-0.105,0.526-0.402,1.666-0.684,2.712       c-0.341,1.268-1.492,2.149-2.805,2.149h-1.868l2.965,2.068c0.479,0.334,0.618,0.981,0.319,1.482       c-0.36,0.604-0.788,1.332-0.886,1.552c-0.08,0.179,0.514-0.225,1.193-0.723c0.871-0.64,2.111-0.148,2.309,0.914       c0.126,0.674,0.206,1.311,0.139,1.607c-0.132,0.577,0.573-1.713,0.96-3.138l0,0v0c0.047-0.173,0.089-0.332,0.124-0.473       c0.13-0.269,0.394-0.534,0.936-0.435l0,0C52.987,279.891,54.384,280.729,54.384,280.729z"
   id="path24" />
				</g>
			</g>
			<g
   id="g28">
				<g
   id="g26">
					<path
   style="fill:#F6910B;"
   d="M145.91,255.196l1.428-9.685c0.415-2.814,2.445-5.12,5.183-5.889l7.455-2.093l-2.538-0.2       c-4.103-0.323-6.22-5.054-3.735-8.335c1.757-2.319,3.499-4.514,4.512-5.51c-1.568,0.838-5.112,2.478-8.382,3.96       c-3.965,1.797-8.643,0.706-11.408-2.656l-3.933-4.782l0.948,11.945c0.153,1.929-1.209,3.647-3.122,3.936       c-2.304,0.349-5.068,0.788-5.84,1c-0.625,0.172,1.659,0.843,4.363,1.53c3.473,0.882,4.824,5.09,2.521,7.836       c-1.46,1.741-2.92,3.289-3.821,3.738c-1.757,0.877,5.592-2.14,10.055-4.152v0l0,0c0.541-0.244,1.037-0.472,1.471-0.677       c0.962-0.235,2.197-0.118,3.084,1.479l0,0C145.113,249.857,145.91,255.196,145.91,255.196z"
   id="path25" />
				</g>
				<g
   id="g27">
					<path
   style="fill:#E3860A;"
   d="M143.974,243.346l0.567-3.844c0.165-1.117,0.971-2.033,2.057-2.338l2.959-0.831l-1.007-0.079       c-1.629-0.128-2.469-2.006-1.482-3.309c0.697-0.92,1.389-1.792,1.791-2.187c-0.622,0.333-2.029,0.984-3.327,1.572       c-1.574,0.713-3.431,0.28-4.529-1.054l-1.561-1.898l0.376,4.741c0.061,0.766-0.48,1.448-1.239,1.563       c-0.915,0.138-2.012,0.313-2.318,0.397c-0.248,0.068,0.659,0.335,1.732,0.607c1.379,0.35,1.915,2.021,1.001,3.11       c-0.58,0.691-1.159,1.305-1.517,1.484c-0.697,0.348,2.22-0.849,3.992-1.648l0,0l0,0c0.215-0.097,0.412-0.187,0.584-0.269       c0.382-0.093,0.872-0.047,1.224,0.587l0,0C143.658,241.226,143.974,243.346,143.974,243.346z"
   id="path26" />
				</g>
			</g>
			<g
   id="g31">
				<g
   id="g29">
					<path
   style="fill:#F6910B;"
   d="M205.529,267.4l0.878-5.957c0.255-1.73,1.504-3.149,3.188-3.622l4.585-1.288l-1.561-0.123       c-2.524-0.199-3.826-3.109-2.297-5.126c1.08-1.426,2.152-2.776,2.775-3.389c-0.964,0.516-3.144,1.524-5.155,2.436       c-2.439,1.105-5.315,0.434-7.016-1.633l-2.419-2.941l0.583,7.346c0.094,1.186-0.744,2.243-1.92,2.421       c-1.417,0.214-3.117,0.485-3.592,0.615c-0.385,0.106,1.021,0.518,2.683,0.941c2.136,0.543,2.967,3.131,1.55,4.819       c-0.898,1.071-1.796,2.023-2.35,2.299c-1.08,0.539,3.439-1.316,6.184-2.553l0,0l0,0c0.333-0.15,0.638-0.29,0.905-0.417       c0.591-0.144,1.351-0.073,1.896,0.91l0,0C205.04,264.116,205.529,267.4,205.529,267.4z"
   id="path28" />
				</g>
				<g
   id="g30">
					<path
   style="fill:#E3860A;"
   d="M204.456,260.827l0.401-2.717c0.116-0.789,0.686-1.437,1.454-1.652l2.092-0.587l-0.712-0.056       c-1.151-0.091-1.745-1.418-1.048-2.338c0.493-0.65,0.982-1.266,1.266-1.546c-0.44,0.235-1.434,0.695-2.352,1.111       c-1.112,0.504-2.425,0.198-3.201-0.745l-1.104-1.342l0.266,3.351c0.043,0.541-0.339,1.023-0.876,1.104       c-0.646,0.098-1.422,0.221-1.638,0.281c-0.176,0.048,0.465,0.237,1.224,0.429c0.974,0.248,1.353,1.428,0.707,2.199       c-0.41,0.488-0.819,0.923-1.072,1.049c-0.493,0.246,1.569-0.6,2.821-1.165v0v0c0.152-0.068,0.291-0.132,0.413-0.19       c0.27-0.066,0.616-0.033,0.865,0.415l0,0C204.232,259.329,204.456,260.827,204.456,260.827z"
   id="path29" />
				</g>
			</g>
			<path
   style="fill:#FF8017;"
   d="M88.9,388c0,0-3.759,6.898,1.109,10.777c4.868,3.88,7.896-1.184,7.896-1.184     S87.639,401.494,88.9,388z"
   id="path31" />
			<path
   style="fill:#FF8017;"
   d="M186.58,393.017c0,0,10.068,5.65,16.531-1.043c6.464-6.693-0.897-11.219-0.897-11.219     S206.973,395.456,186.58,393.017z"
   id="path32" />
		</g>
	</g>
	<g
   id="g97">
		<g
   id="g45">
			<g
   id="g35">
				<path
   style="fill:#C90A05;"
   d="M423.916,223.684c-0.207,0-0.409,0.024-0.607,0.063c0.375-0.554,0.607-1.237,0.607-1.985      c0-1.828-1.329-3.309-2.969-3.309c-1.605,0-2.904,1.422-2.959,3.197c-0.701-0.661-1.606-1.062-2.596-1.062      c-2.221,0-4.022,2.007-4.022,4.484c0,2.476,1.801,4.484,4.022,4.484c0.144,0,0.287-0.009,0.427-0.026      c0.66,1.47,2.02,2.481,3.595,2.481c1.053,0,2.009-0.455,2.726-1.193c0.519,0.349,1.125,0.553,1.775,0.553      c1.904,0,3.447-1.721,3.447-3.843S425.82,223.684,423.916,223.684z"
   id="path33" />
				<path
   style="fill:#F73102;"
   d="M424.55,224.464c-0.211,0-0.417,0.021-0.618,0.056c0.382-0.494,0.618-1.101,0.618-1.767      c0-1.628-1.354-2.947-3.024-2.947c-1.635,0-2.958,1.267-3.014,2.847c-0.714-0.589-1.636-0.945-2.644-0.945      c-2.263,0-4.098,1.787-4.098,3.992s1.835,3.992,4.098,3.992c0.147,0,0.292-0.008,0.435-0.023c0.673,1.309,2.058,2.21,3.662,2.21      c1.073,0,2.046-0.405,2.777-1.063c0.529,0.311,1.146,0.492,1.808,0.492c1.94,0,3.512-1.532,3.512-3.422      S426.489,224.464,424.55,224.464z"
   id="path34" />
				<path
   style="fill:#F9D912;"
   d="M423.018,224.791c-0.157,0-0.31,0.016-0.459,0.043c0.284-0.377,0.459-0.84,0.459-1.348      c0-1.241-1.006-2.248-2.248-2.248c-1.215,0-2.199,0.966-2.24,2.171c-0.531-0.449-1.216-0.721-1.966-0.721      c-1.682,0-3.045,1.363-3.045,3.045s1.363,3.045,3.045,3.045c0.109,0,0.217-0.006,0.324-0.018c0.5,0.998,1.529,1.685,2.722,1.685      c0.797,0,1.521-0.309,2.064-0.811c0.393,0.237,0.852,0.376,1.344,0.376c1.442,0,2.61-1.169,2.61-2.61      C425.628,225.96,424.46,224.791,423.018,224.791z"
   id="path35" />
			</g>
			<g
   id="g38">
				<path
   style="fill:#C90A05;"
   d="M313.154,209.195c-0.378,0.156-0.728,0.352-1.059,0.572c0.267-1.294,0.174-2.713-0.39-4.077      c-1.378-3.334-4.919-5.035-7.91-3.799c-2.928,1.21-4.225,4.784-2.987,8.062c-1.777-0.678-3.73-0.726-5.535,0.02      c-4.052,1.675-5.824,6.694-3.957,11.211c1.867,4.517,6.665,6.821,10.717,5.147c0.263-0.109,0.516-0.233,0.76-0.369      c2.312,2.183,5.555,3.003,8.428,1.816c1.921-0.794,3.322-2.344,4.073-4.232c1.21,0.245,2.469,0.161,3.655-0.329      c3.473-1.435,4.992-5.737,3.392-9.609C320.739,209.735,316.627,207.76,313.154,209.195z"
   id="path36" />
				<path
   style="fill:#F73102;"
   d="M314.897,210.14c-0.385,0.159-0.744,0.353-1.085,0.568c0.326-1.189,0.297-2.474-0.205-3.689      c-1.227-2.969-4.691-4.355-7.738-3.095c-2.982,1.233-4.441,4.541-3.352,7.465c-1.746-0.536-3.697-0.492-5.536,0.269      c-4.128,1.706-6.127,6.349-4.464,10.371c1.662,4.022,6.356,5.9,10.484,4.194c0.268-0.111,0.527-0.235,0.776-0.37      c2.213,1.88,5.419,2.479,8.346,1.27c1.957-0.809,3.428-2.282,4.264-4.032c1.198,0.168,2.461,0.034,3.669-0.465      c3.538-1.462,5.251-5.442,3.827-8.89C322.458,210.287,318.435,208.678,314.897,210.14z"
   id="path37" />
				<path
   style="fill:#F9D912;"
   d="M312.35,211.891c-0.286,0.118-0.553,0.263-0.805,0.424c0.235-0.901,0.204-1.878-0.178-2.805      c-0.936-2.264-3.53-3.341-5.794-2.406c-2.217,0.916-3.283,3.42-2.449,5.649c-1.306-0.419-2.761-0.399-4.129,0.166      c-3.068,1.268-4.527,4.783-3.259,7.851c1.268,3.068,4.783,4.527,7.851,3.259c0.199-0.082,0.391-0.175,0.577-0.276      c1.664,1.444,4.06,1.921,6.235,1.022c1.455-0.601,2.542-1.71,3.154-3.035c0.895,0.136,1.837,0.043,2.734-0.328      c2.63-1.087,3.88-4.099,2.794-6.729S314.979,210.804,312.35,211.891z"
   id="path38" />
			</g>
			<g
   id="g41">
				<path
   style="fill:#C90A05;"
   d="M300.861,330.408c0.332,0.083,0.664,0.126,0.995,0.146c-0.811,0.694-1.439,1.64-1.723,2.779      c-0.692,2.781,0.874,5.566,3.499,6.22c2.569,0.639,5.188-1.008,5.947-3.686c0.871,1.286,2.168,2.256,3.753,2.65      c3.556,0.885,7.199-1.452,8.137-5.221c0.938-3.768-1.184-7.541-4.74-8.426c-0.231-0.057-0.463-0.1-0.694-0.131      c-0.5-2.5-2.294-4.581-4.815-5.209c-1.686-0.42-3.388-0.108-4.816,0.73c-0.699-0.737-1.591-1.29-2.632-1.549      c-3.048-0.759-6.171,1.245-6.975,4.475C295.994,326.415,297.813,329.649,300.861,330.408z"
   id="path39" />
				<path
   style="fill:#F73102;"
   d="M300.142,328.968c0.338,0.084,0.676,0.134,1.01,0.161c-0.799,0.599-1.406,1.43-1.659,2.443      c-0.617,2.477,1.051,5.024,3.725,5.69c2.618,0.652,5.216-0.749,5.903-3.131c0.92,1.181,2.261,2.091,3.875,2.493      c3.623,0.902,7.236-1.087,8.072-4.443c0.835-3.356-1.424-6.807-5.047-7.709c-0.236-0.059-0.471-0.104-0.706-0.138      c-0.581-2.26-2.457-4.182-5.025-4.822c-1.718-0.428-3.43-0.199-4.848,0.511c-0.729-0.683-1.648-1.206-2.708-1.47      c-3.105-0.773-6.203,0.932-6.919,3.808C295.1,325.237,297.037,328.195,300.142,328.968z"
   id="path40" />
				<path
   style="fill:#F9D912;"
   d="M302.718,329.081c0.251,0.063,0.502,0.099,0.751,0.118c-0.598,0.46-1.053,1.095-1.246,1.868      c-0.47,1.889,0.759,3.822,2.747,4.316c1.945,0.484,3.886-0.594,4.408-2.412c0.679,0.895,1.673,1.582,2.873,1.881      c2.693,0.67,5.392-0.861,6.029-3.421c0.637-2.559-1.029-5.178-3.721-5.848c-0.175-0.044-0.35-0.077-0.525-0.102      c-0.422-1.718-1.81-3.174-3.719-3.65c-1.276-0.318-2.552-0.136-3.611,0.411c-0.539-0.517-1.221-0.911-2.009-1.107      c-2.308-0.574-4.621,0.738-5.167,2.932C298.982,326.262,300.41,328.507,302.718,329.081z"
   id="path41" />
			</g>
			<g
   id="g44">
				<path
   style="fill:#C90A05;"
   d="M416.633,335.891c0.183-0.15,0.345-0.316,0.493-0.492c0.049,0.738,0.315,1.479,0.83,2.108      c1.258,1.537,3.454,1.82,4.904,0.633c1.42-1.162,1.589-3.299,0.416-4.83c1.075,0.049,2.151-0.27,3.027-0.987      c1.965-1.608,2.176-4.6,0.471-6.682c-1.704-2.082-4.679-2.466-6.644-0.858c-0.128,0.104-0.247,0.215-0.36,0.331      c-1.596-0.758-3.495-0.624-4.888,0.516c-0.932,0.763-1.464,1.837-1.59,2.977c-0.699,0.082-1.376,0.349-1.951,0.82      c-1.684,1.379-1.865,3.943-0.404,5.728C412.4,336.94,414.949,337.269,416.633,335.891z"
   id="path42" />
				<path
   style="fill:#F73102;"
   d="M415.536,335.694c0.187-0.153,0.354-0.32,0.508-0.495c0.001,0.692,0.211,1.373,0.67,1.933      c1.12,1.368,3.226,1.497,4.703,0.288c1.446-1.184,1.745-3.207,0.707-4.576c1.037-0.022,2.098-0.389,2.99-1.12      c2.002-1.639,2.394-4.47,0.876-6.324c-1.518-1.854-4.371-2.029-6.372-0.39c-0.13,0.107-0.253,0.219-0.369,0.335      c-1.496-0.613-3.341-0.368-4.76,0.794c-0.949,0.777-1.531,1.822-1.725,2.904c-0.681,0.122-1.352,0.416-1.938,0.895      c-1.716,1.405-2.052,3.831-0.751,5.421C411.375,336.949,413.821,337.098,415.536,335.694z"
   id="path43" />
				<path
   style="fill:#F9D912;"
   d="M416.666,334.31c0.139-0.114,0.263-0.238,0.377-0.368c0.008,0.522,0.172,1.039,0.522,1.466      c0.854,1.044,2.437,1.161,3.535,0.263c1.075-0.88,1.28-2.404,0.487-3.448c0.779-0.006,1.572-0.274,2.235-0.817      c1.488-1.218,1.755-3.351,0.597-4.766c-1.158-1.414-3.302-1.573-4.79-0.356c-0.097,0.079-0.188,0.163-0.274,0.249      c-1.129-0.477-2.513-0.31-3.568,0.554c-0.705,0.577-1.133,1.361-1.268,2.176c-0.511,0.085-1.012,0.301-1.447,0.657      c-1.275,1.044-1.504,2.873-0.512,4.085C413.553,335.217,415.391,335.354,416.666,334.31z"
   id="path44" />
			</g>
		</g>
		<g
   id="g96">
			<path
   style="fill:#A9110C;"
   d="M431.046,284.33c-0.824-4.169-3.279-7.595-6.565-9.748c3.067-4.208,4.438-9.641,3.348-15.158     c-2.067-10.459-12.19-17.257-22.61-15.182c-2.089,0.416-4.028,1.161-5.782,2.164c-4.233-7.073-12.568-11.075-21.095-9.378     c-1.561,0.311-3.041,0.801-4.43,1.436c-2.421-7.382-10-11.965-17.789-10.415c-5.594,1.114-9.884,5.11-11.649,10.145     c-4.491-3.394-10.346-4.929-16.293-3.745c-6.111,1.216-11.038,5.049-13.865,10.106c-3.539-1.299-7.467-1.672-11.433-0.882     c-11.529,2.295-19.022,13.536-16.736,25.108c1.639,8.296,7.86,14.509,15.499,16.516c-1.809,4.191-2.417,8.955-1.464,13.775     c2.493,12.62,14.708,20.821,27.281,18.318c3.167-0.631,6.054-1.881,8.562-3.599c4.257,8.46,13.737,13.405,23.452,11.471     c7.949-1.582,14.001-7.361,16.334-14.585c4.084,5.694,11.232,8.796,18.536,7.342c8.504-1.693,14.466-9.011,14.817-17.336     c2.961,1.575,6.46,2.177,10.004,1.472C427.35,300.526,432.669,292.546,431.046,284.33z"
   id="path45" />
			<path
   style="fill:#C90A05;"
   d="M370.895,241.016l30.099-23.09l-15.862,27.046c-2.445,4.169,3.316,8.484,9.338,6.995l39.043-9.652     l-27.893,16.654c-5.65,3.373-2.537,9.964,4.895,10.367l41.945,2.271l-35.637,4.503c-6.562,0.829-7.348,7.247-1.102,9     l40.685,11.42l-43.878-5.666c-5.949-0.768-9.825,4.186-5.795,7.407l23.12,18.477l-33.726-12.973     c-5.724-2.202-12.425,1.17-11.325,5.698l7.042,28.976l-23.429-27.166c-3.648-4.229-12.474-3.801-15.076,0.734     c-7.287,12.699-18.325,31.843-18.313,31.263c0.012-0.538-0.539-18.707-0.957-32.388c-0.21-6.848-10.585-11.214-19.075-8.026     c-16.707,6.274-38.508,14.484-37.747,14.322c0.698-0.149,16.176-10.011,29.444-18.52c6.462-4.144,1.961-11.819-6.814-11.625     l-39.947,0.888l33.939-8.357c7.322-1.803,7.455-9.099,0.204-11.193l-27.832-8.039l31.487,1.169     c9.878,0.367,15.728-7.566,9.729-13.194l-22.143-20.774l36.443,17.233c8.389,3.967,19.12-1.382,16.598-8.273l-7.887-21.553     l17.604,23.771C352.627,244.865,364.341,246.043,370.895,241.016z"
   id="path46" />
			<g
   id="g58">
				<g
   id="g49">
					<path
   style="fill:#F73102;"
   d="M328.059,416.588c0,0,15.741-52.285,20.355-109.412h28.863c0,0,3.076,90.531,14.868,109.412       H328.059z"
   id="path47" />
					<path
   style="fill:#C90A05;"
   d="M350.408,323.248c0.062-0.438,0.701-0.509,0.869-0.097l3.922,9.629v-13.263       c0-0.199,0.302-0.231,0.347-0.037c0.483,2.109,1.316,5.577,1.476,5.124c0.16-0.453,1.61-4.714,2.462-7.22       c0.111-0.325,0.618-0.247,0.618,0.095v21.541l3.562-14.814c0.113-0.471,0.815-0.491,0.959-0.028l1.741,5.59l1.137-10.56       c0.024-0.223,0.371-0.218,0.387,0.006l1.438,19.591c0,0,1.602-14.967,2.061-19.682c0.029-0.301,0.475-0.343,0.572-0.055       l7.174,21.443c-1.359-18.714-1.856-33.335-1.856-33.335h-28.863c-0.689,8.527-1.627,16.945-2.722,25.099l1.76,11.91       L350.408,323.248z"
   id="path48" />
					<path
   style="fill:#C90A05;"
   d="M392.145,416.588c-1.733-2.776-3.279-7.101-4.653-12.458l-1.281,4.197       c-0.134,0.439-1.569,0.524-1.95,0.116l-8.914-9.542l0.147,13.263c0.002,0.199-0.677,0.238-0.779,0.045       c-1.107-2.098-3.017-5.547-3.371-5.091c-0.354,0.456-3.563,4.749-5.449,7.274c-0.245,0.328-1.385,0.261-1.388-0.081       l-0.239-21.54l-7.835,14.892c-0.249,0.473-1.825,0.51-2.154,0.05l-3.972-5.551l-2.437,10.585       c-0.052,0.224-0.83,0.226-0.869,0.003l-3.446-19.558c0,0-3.432,15.001-4.41,19.727c-0.063,0.302-1.063,0.354-1.283,0.068       l-6.484-8.441c-1.993,7.638-3.318,12.043-3.318,12.043H392.145z"
   id="path49" />
				</g>
				<g
   id="g57">
					<path
   style="fill:#FDF1EB;"
   d="M347.769,343.748c-0.325,2.75-0.704,5.492-1.091,8.233c-0.386,2.741-0.817,5.475-1.224,8.213       c-0.447,2.731-0.872,5.466-1.339,8.194l-0.71,4.091c-0.255,1.361-0.493,2.724-0.763,4.082c0.157-1.376,0.347-2.747,0.519-4.121       l0.572-4.112c0.387-2.741,0.817-5.474,1.224-8.212c0.448-2.731,0.871-5.466,1.34-8.193       C346.764,349.194,347.239,346.467,347.769,343.748z"
   id="path50" />
					<path
   style="fill:#FDF1EB;"
   d="M357.795,334.52c-0.306,4.79-0.706,9.573-1.136,14.353c-0.427,4.78-0.936,9.553-1.452,14.325       c-0.553,4.768-1.136,9.533-1.827,14.284c-0.698,4.748-1.445,9.497-2.535,14.174l0.625-3.544l0.549-3.555       c0.342-2.374,0.684-4.747,0.978-7.128c0.611-4.757,1.197-9.518,1.711-14.288c0.557-4.765,1.059-9.536,1.568-14.306       L357.795,334.52z"
   id="path51" />
					<path
   style="fill:#FDF1EB;"
   d="M367.365,354.116c0.208,3.796,0.363,7.592,0.512,11.389l0.393,11.392l0.3,11.395l0.256,11.397       c-0.312-3.789-0.47-7.588-0.643-11.384c-0.166-3.797-0.281-7.595-0.415-11.392c-0.094-3.799-0.208-7.597-0.275-11.396       C367.423,361.717,367.365,357.917,367.365,354.116z"
   id="path52" />
					<path
   style="fill:#FDF1EB;"
   d="M371.448,334.52c0.472,2.983,0.874,5.974,1.261,8.968c0.387,2.994,0.719,5.994,1.067,8.992       c0.308,3.003,0.624,6.004,0.889,9.012c0.266,3.007,0.503,6.016,0.676,9.031l-0.547-4.495l-0.515-4.497l-1.003-8.996       l-0.95-9.002l-0.457-4.504L371.448,334.52z"
   id="path53" />
					<path
   style="fill:#C90A05;"
   d="M348.794,352.521c-0.243,2.927-0.559,5.846-0.897,8.763c-0.337,2.917-0.736,5.826-1.127,8.736       c-0.433,2.904-0.871,5.809-1.387,8.701c-0.523,2.889-1.079,5.781-1.887,8.606c0.138-0.722,0.3-1.437,0.431-2.158       c0.126-0.723,0.264-1.443,0.378-2.167c0.248-1.445,0.479-2.893,0.696-4.344c0.436-2.901,0.877-5.801,1.271-8.708l1.243-8.715       C347.932,358.329,348.345,355.423,348.794,352.521z"
   id="path54" />
					<path
   style="fill:#C90A05;"
   d="M357.795,369.924c-0.134,2.366-0.323,4.725-0.52,7.085c-0.196,2.359-0.437,4.714-0.654,7.071       c-0.257,2.353-0.492,4.708-0.77,7.06l-0.426,3.526c-0.16,1.173-0.303,2.348-0.479,3.52c0.062-1.183,0.156-2.363,0.233-3.545       l0.286-3.54c0.197-2.359,0.437-4.714,0.654-7.071c0.258-2.353,0.492-4.708,0.771-7.059       C357.168,374.619,357.454,372.268,357.795,369.924z"
   id="path55" />
					<path
   style="fill:#C90A05;"
   d="M362.413,339.476c0.082,2.538,0.108,5.076,0.126,7.614c0.019,2.538-0.007,5.075-0.008,7.613       c-0.042,2.537-0.062,5.075-0.125,7.612l-0.104,3.805c-0.053,1.268-0.089,2.537-0.157,3.805       c-0.046-1.269-0.059-2.538-0.09-3.807l-0.037-3.807c-0.018-2.538,0.007-5.075,0.009-7.613c0.043-2.537,0.062-5.074,0.125-7.611       C362.216,344.549,362.287,342.012,362.413,339.476z"
   id="path56" />
					<path
   style="fill:#C90A05;"
   d="M378.188,359.129l0.574,7.43c0.196,2.475,0.373,4.951,0.605,7.421       c0.202,2.473,0.458,4.94,0.743,7.404c0.156,1.229,0.312,2.46,0.525,3.68c0.186,1.227,0.456,2.434,0.8,3.63       c-0.901-2.326-1.309-4.807-1.708-7.258c-0.365-2.462-0.618-4.937-0.86-7.412c-0.191-2.479-0.376-4.958-0.489-7.441       C378.264,364.1,378.184,361.615,378.188,359.129z"
   id="path57" />
				</g>
			</g>
			<path
   style="fill:#E8CD09;"
   d="M425.255,287.858c-0.769-3.469-3.06-6.319-6.126-8.111c2.862-3.501,4.141-8.022,3.124-12.612     c-1.928-8.702-11.374-14.358-21.098-12.632c-1.949,0.346-3.759,0.966-5.395,1.801c-3.95-5.885-11.727-9.215-19.684-7.803     c-1.457,0.259-2.838,0.666-4.133,1.195c-2.259-6.143-9.331-9.955-16.599-8.665c-5.22,0.926-9.223,4.252-10.87,8.441     c-4.19-2.824-9.653-4.101-15.203-3.116c-5.702,1.012-10.299,4.201-12.938,8.409c-3.302-1.081-6.967-1.391-10.669-0.734     c-10.758,1.91-17.75,11.263-15.616,20.891c1.53,6.903,7.335,12.072,14.462,13.742c-1.689,3.487-2.255,7.451-1.366,11.461     c2.327,10.5,13.724,17.324,25.456,15.242c2.955-0.525,5.649-1.565,7.989-2.995c3.972,7.039,12.818,11.153,21.883,9.544     c7.417-1.316,13.064-6.124,15.241-12.135c3.811,4.737,10.48,7.318,17.296,6.109c7.935-1.409,13.498-7.498,13.826-14.424     c2.763,1.31,6.028,1.812,9.334,1.225C421.806,301.333,426.77,294.693,425.255,287.858z"
   id="path58" />
			<g
   id="g76">
				<path
   style="fill:#F9D912;"
   d="M416.618,277.471c-0.688-3.469-2.738-6.319-5.483-8.11c2.561-3.501,3.706-8.022,2.796-12.612      c-1.726-8.703-10.18-14.358-18.882-12.632c-1.745,0.346-3.364,0.966-4.829,1.801c-3.535-5.885-10.496-9.215-17.617-7.803      c-1.304,0.259-2.54,0.667-3.699,1.195c-2.022-6.143-8.351-9.955-14.856-8.665c-4.672,0.926-8.255,4.252-9.729,8.441      c-3.75-2.824-8.64-4.101-13.607-3.116c-5.103,1.012-9.218,4.201-11.579,8.409c-2.956-1.081-6.236-1.391-9.548-0.734      c-9.628,1.91-15.886,11.263-13.976,20.891c1.369,6.903,6.564,12.072,12.943,13.742c-1.511,3.487-2.018,7.451-1.223,11.461      c2.083,10.5,12.283,17.324,22.783,15.242c2.645-0.525,5.056-1.565,7.15-2.995c3.555,7.039,11.472,11.153,19.585,9.544      c6.638-1.316,11.692-6.124,13.641-12.135c3.411,4.737,9.379,7.318,15.479,6.108c7.102-1.409,12.081-7.498,12.374-14.424      c2.473,1.31,5.395,1.812,8.354,1.225C413.531,290.947,417.973,284.307,416.618,277.471z"
   id="path59" />
				<g
   id="g75">
					<path
   style="fill:#FDF1EB;"
   d="M325.147,249.424c0.906-1.698,2.233-3.181,3.814-4.345c0.789-0.587,1.668-1.062,2.593-1.43       c0.93-0.359,1.918-0.578,2.916-0.66c2.007-0.15,4.019,0.347,5.755,1.25c1.752,0.889,3.28,2.126,4.562,3.553       c-1.561-1.115-3.172-2.129-4.891-2.84c-0.856-0.363-1.741-0.634-2.639-0.801c-0.895-0.187-1.811-0.23-2.714-0.16       c-1.812,0.115-3.569,0.766-5.146,1.737C327.823,246.711,326.393,247.969,325.147,249.424z"
   id="path60" />
					<path
   style="fill:#FDF1EB;"
   d="M301.383,259.708c0.013-1.477,0.368-2.947,0.945-4.328c0.58-1.381,1.428-2.68,2.551-3.725       c0.568-0.513,1.19-0.969,1.86-1.342c0.682-0.349,1.394-0.636,2.132-0.817c1.478-0.348,3.005-0.346,4.442-0.029       c-1.468,0.102-2.891,0.326-4.218,0.782c-1.317,0.48-2.526,1.188-3.531,2.143c-0.517,0.46-0.974,0.99-1.391,1.55       c-0.427,0.555-0.791,1.159-1.14,1.777C302.357,256.967,301.808,258.302,301.383,259.708z"
   id="path61" />
					<path
   style="fill:#FDF1EB;"
   d="M368.825,243.969c1.18-0.845,2.586-1.38,4.05-1.616c1.466-0.241,3.025-0.104,4.445,0.446       c1.418,0.554,2.655,1.52,3.566,2.689c0.925,1.162,1.585,2.493,1.98,3.884c-0.777-1.219-1.6-2.376-2.569-3.365       c-0.485-0.492-0.999-0.947-1.564-1.323c-0.551-0.394-1.15-0.713-1.779-0.948c-1.248-0.502-2.619-0.673-3.997-0.605       C371.578,243.212,370.189,243.499,368.825,243.969z"
   id="path62" />
					<path
   style="fill:#FDF1EB;"
   d="M350.847,236.653c1.051-0.708,2.256-1.177,3.501-1.469c0.623-0.154,1.264-0.233,1.91-0.282       c0.647-0.035,1.299-0.003,1.948,0.077c1.293,0.18,2.567,0.644,3.636,1.397c1.078,0.738,1.932,1.755,2.502,2.877       c-0.91-0.876-1.855-1.654-2.913-2.208c-0.526-0.28-1.073-0.511-1.637-0.684c-0.56-0.186-1.139-0.314-1.727-0.386       c-1.173-0.176-2.38-0.148-3.587-0.02C353.273,236.092,352.064,236.328,350.847,236.653z"
   id="path63" />
					<path
   style="fill:#FDF1EB;"
   d="M355.041,264.459c1.414-1.013,3.053-1.707,4.757-2.142c1.707-0.434,3.513-0.564,5.286-0.318       c0.883,0.138,1.754,0.36,2.593,0.671c0.829,0.336,1.628,0.742,2.365,1.239c1.463,1.008,2.692,2.31,3.604,3.784       c-1.24-1.212-2.565-2.287-4.018-3.116c-1.465-0.804-3.045-1.359-4.687-1.582c-1.639-0.246-3.323-0.172-4.984,0.089       C358.296,263.36,356.648,263.816,355.041,264.459z"
   id="path64" />
					<path
   style="fill:#FDF1EB;"
   d="M387.418,252.045c1.762-1.699,3.933-2.993,6.294-3.792c1.181-0.403,2.426-0.64,3.685-0.713       c1.261-0.064,2.536,0.072,3.763,0.391c1.219,0.34,2.401,0.835,3.463,1.515c0.276,0.154,0.517,0.358,0.776,0.535       c0.256,0.182,0.512,0.363,0.744,0.574l0.712,0.609l0.655,0.666c1.732,1.79,3.058,3.904,4.061,6.129       c-1.368-2.022-2.848-3.955-4.61-5.568c-1.746-1.615-3.791-2.908-6.059-3.488c-2.254-0.623-4.674-0.514-6.966,0.099       C391.641,249.628,389.435,250.675,387.418,252.045z"
   id="path65" />
					<path
   style="fill:#C90A05;"
   d="M391.876,290.935c-0.458,1.895-1.339,3.692-2.519,5.284c-1.177,1.593-2.739,2.956-4.589,3.803       c-1.86,0.815-3.957,1.069-5.924,0.735c-1.972-0.315-3.824-1.074-5.464-2.117c1.825,0.668,3.683,1.183,5.555,1.337       c1.868,0.159,3.741-0.123,5.422-0.873c1.684-0.752,3.15-1.96,4.391-3.376C389.984,294.301,391.028,292.68,391.876,290.935z"
   id="path66" />
					<path
   style="fill:#C90A05;"
   d="M364.032,303.465c-1.302,1.417-2.958,2.52-4.78,3.251c-0.911,0.371-1.88,0.611-2.869,0.736       c-0.99,0.115-2.001,0.08-2.988-0.091c-1.98-0.357-3.804-1.342-5.259-2.651c-1.473-1.299-2.644-2.879-3.528-4.582       c1.232,1.471,2.538,2.855,4.025,3.974c0.738,0.565,1.527,1.049,2.354,1.436c0.82,0.405,1.696,0.676,2.587,0.834       c1.783,0.342,3.647,0.152,5.417-0.393C360.762,305.421,362.461,304.561,364.032,303.465z"
   id="path67" />
					<path
   style="fill:#C90A05;"
   d="M412.119,273.331c0.644,1.29,1.001,2.717,1.15,4.166c0.151,1.451,0.054,2.946-0.343,4.38       c-0.4,1.43-1.121,2.785-2.125,3.876c-0.995,1.097-2.251,1.92-3.591,2.429c1.138-0.877,2.173-1.824,2.985-2.928       c0.806-1.104,1.411-2.335,1.763-3.648c0.382-1.306,0.517-2.684,0.53-4.07C412.488,276.147,412.364,274.744,412.119,273.331z"
   id="path68" />
					<path
   style="fill:#C90A05;"
   d="M320.958,300.421c-1.239-0.267-2.412-0.81-3.486-1.505c-0.543-0.342-1.044-0.75-1.527-1.182       c-0.473-0.442-0.903-0.934-1.295-1.457c-0.766-1.057-1.315-2.297-1.513-3.589c-0.215-1.289-0.074-2.609,0.34-3.798       c-0.001,1.263,0.094,2.483,0.427,3.63c0.163,0.573,0.375,1.128,0.642,1.654c0.254,0.532,0.563,1.039,0.919,1.513       c0.686,0.967,1.543,1.818,2.471,2.599C318.872,299.062,319.88,299.769,320.958,300.421z"
   id="path69" />
					<path
   style="fill:#C90A05;"
   d="M334.979,296.432c-1.323,0.082-2.673-0.188-3.917-0.747c-0.626-0.275-1.211-0.655-1.745-1.104       c-0.528-0.457-0.982-1.007-1.344-1.612c-0.344-0.614-0.611-1.275-0.746-1.958c-0.118-0.683-0.198-1.374-0.132-2.053       c0.078-1.359,0.459-2.66,1.04-3.846c-0.181,1.308-0.325,2.595-0.255,3.85c0.067,1.249,0.34,2.469,0.961,3.5       c0.592,1.046,1.515,1.886,2.583,2.529C332.5,295.629,333.705,296.099,334.979,296.432z"
   id="path70" />
					<path
   style="fill:#C90A05;"
   d="M391.54,268.154c1.518,1.222,2.769,2.786,3.706,4.531c0.939,1.744,1.506,3.738,1.483,5.772       c-0.056,2.03-0.72,4.036-1.861,5.672c-1.126,1.649-2.602,3.001-4.245,4.039c1.382-1.366,2.64-2.827,3.578-4.454       c0.94-1.622,1.484-3.436,1.523-5.277c0.038-1.844-0.43-3.685-1.181-5.411C393.778,271.301,392.758,269.665,391.54,268.154z"
   id="path71" />
					<path
   style="fill:#C90A05;"
   d="M350.845,288.89c1.245,0.773,2.529,1.423,3.844,1.965c1.32,0.527,2.679,0.929,4.064,1.133       c1.381,0.242,2.793,0.23,4.184,0.033c1.413-0.148,2.75-0.649,4.143-1.127c-1.185,0.844-2.519,1.589-3.994,1.898l-0.547,0.143       c-0.184,0.04-0.372,0.048-0.559,0.074c-0.374,0.038-0.749,0.095-1.125,0.116l-1.132-0.022c-0.378,0.001-0.749-0.081-1.123-0.12       c-1.487-0.239-2.929-0.717-4.243-1.418C353.048,290.863,351.827,289.987,350.845,288.89z"
   id="path72" />
					<path
   style="fill:#C90A05;"
   d="M348.096,268.022c-0.87,0.121-1.682,0.317-2.423,0.633c-0.737,0.319-1.398,0.746-1.938,1.305       c-0.527,0.568-0.981,1.217-1.331,1.958c-0.111,0.174-0.159,0.377-0.245,0.566l-0.245,0.58c-0.135,0.4-0.259,0.808-0.436,1.22       c-0.046-0.435-0.051-0.877-0.048-1.323c0.07-0.434,0.1-0.889,0.238-1.319c0.241-0.872,0.702-1.708,1.35-2.389       c0.655-0.681,1.526-1.133,2.416-1.343C346.327,267.699,347.262,267.727,348.096,268.022z"
   id="path73" />
					<path
   style="fill:#FDF1EB;"
   d="M317.007,278.033c-0.257-0.774-0.54-1.55-0.726-2.358c-0.185-0.806-0.319-1.631-0.36-2.469       c-0.098-1.67,0.163-3.411,0.921-4.97c0.387-0.771,0.888-1.489,1.484-2.112c0.613-0.607,1.303-1.125,2.045-1.534       c1.494-0.805,3.137-1.229,4.775-1.334c-1.559,0.515-3.055,1.138-4.366,2.005c-1.297,0.88-2.378,2.028-3.035,3.418       c-0.689,1.374-0.978,2.939-1.042,4.52c-0.026,0.793-0.004,1.595,0.063,2.399C316.814,276.405,316.965,277.206,317.007,278.033z       "
   id="path74" />
					<path
   style="fill:#FDF1EB;"
   d="M371.886,274.985c0.609,0.453,1.06,1.091,1.385,1.777c0.324,0.689,0.542,1.442,0.593,2.21       c0.051,0.765-0.003,1.544-0.228,2.273c-0.081,0.371-0.256,0.715-0.401,1.059c-0.172,0.335-0.379,0.653-0.604,0.951       c0.018-0.384,0.096-0.736,0.131-1.094c0.028-0.359,0.093-0.703,0.101-1.054c0.07-0.693,0.036-1.377-0.001-2.054       c-0.045-0.679-0.164-1.35-0.325-2.024C372.369,276.354,372.158,275.684,371.886,274.985z"
   id="path75" />
				</g>
			</g>
			<g
   id="g77">
				<path
   style="fill:#C90A05;"
   d="M333.442,403.293c-0.042-4.533-3.185-8.194-7.06-8.194c-1.658,0-3.179,0.674-4.384,1.796      c-1.098-2.493-3.312-4.201-5.87-4.201c-3.392,0-6.184,2.999-6.561,6.858c-1.346-1.979-3.417-3.251-5.743-3.251      c-1.841,0-3.52,0.8-4.809,2.112c0-0.036,0.005-0.071,0.005-0.107c0-4.996-3.454-9.047-7.714-9.047      c-2.566,0-4.832,1.475-6.235,3.734c-0.937-0.814-2.093-1.301-3.349-1.301c-2.997,0-5.424,2.75-5.605,6.211      c-0.745-0.195-1.516-0.305-2.31-0.305c-5.851,0-10.594,5.562-10.594,12.424c0,6.861,4.743,12.424,10.594,12.424      c0.782,0,1.542-0.106,2.276-0.295v0.74h58.39v-19.507L333.442,403.293z"
   id="path76" />
				<path
   style="fill:#A9110C;"
   d="M334.64,405.69c-0.042-4.533-3.185-8.194-7.06-8.194c-1.658,0-3.179,0.674-4.384,1.796      c-1.098-2.493-3.312-4.201-5.87-4.201c-3.392,0-6.183,2.999-6.561,6.858c-1.346-1.979-3.417-3.251-5.743-3.251      c-1.841,0-3.52,0.8-4.809,2.112c0-0.036,0.004-0.071,0.004-0.107c0-4.997-3.454-9.047-7.714-9.047      c-2.566,0-4.832,1.475-6.235,3.734c-0.937-0.814-2.093-1.301-3.349-1.301c-2.997,0-5.424,2.75-5.605,6.211      c-0.745-0.194-1.516-0.305-2.31-0.305c-5.851,0-10.594,5.562-10.594,12.424c0,6.861,4.743,12.424,10.594,12.424      c0.782,0,1.542-0.106,2.276-0.295v0.74h58.39v-19.507L334.64,405.69z"
   id="path77" />
			</g>
			<g
   id="g79">
				<path
   style="fill:#C90A05;"
   d="M439.012,396.858c-0.022,0-0.042,0.004-0.064,0.004c-0.319-3.976-2.806-7.085-5.863-7.085      c-1.32,0-2.534,0.584-3.519,1.56c-1.474-2.709-3.856-4.477-6.551-4.477c-4.477,0-8.106,4.856-8.106,10.846      c0,0.043,0.004,0.085,0.005,0.129c-1.355-1.573-3.119-2.531-5.053-2.531c-2.445,0-4.62,1.524-6.035,3.897      c-0.396-4.627-3.33-8.222-6.894-8.222c-2.688,0-5.014,2.047-6.168,5.036c-1.266-1.344-2.865-2.153-4.606-2.153      c-4.072,0-7.375,4.389-7.419,9.824l-1.081,0.107v23.386h61.356v-0.533c6.148,0,11.132-6.668,11.132-14.894      C450.144,403.526,445.16,396.858,439.012,396.858z"
   id="path78" />
				<path
   style="fill:#A9110C;"
   d="M437.813,399.255c-0.022,0-0.042,0.004-0.064,0.004c-0.319-3.976-2.806-7.085-5.863-7.085      c-1.32,0-2.534,0.584-3.519,1.56c-1.474-2.709-3.856-4.477-6.551-4.477c-4.477,0-8.106,4.856-8.106,10.846      c0,0.043,0.004,0.085,0.005,0.129c-1.355-1.573-3.119-2.531-5.053-2.531c-2.445,0-4.62,1.524-6.035,3.897      c-0.396-4.627-3.33-8.222-6.894-8.222c-2.688,0-5.014,2.047-6.168,5.036c-1.266-1.344-2.865-2.153-4.606-2.153      c-4.072,0-7.375,4.389-7.419,9.824l-1.081,0.107v23.386h61.356v-0.533c6.148,0,11.132-6.668,11.132-14.894      C448.945,405.924,443.961,399.255,437.813,399.255z"
   id="path79" />
			</g>
			<g
   id="g95">
				<path
   style="fill:#F9D912;"
   d="M444.768,427.688c0-5.575-4.456-10.16-10.171-10.725c-1.174-5.966-6.429-10.469-12.739-10.469      c-1.868,0-3.643,0.398-5.249,1.108c-0.973-8.132-7.89-14.438-16.284-14.438c-9.061,0-16.406,7.345-16.406,16.406      c0,0.007,0.001,0.014,0.001,0.022c-0.227-0.013-0.454-0.022-0.684-0.022c-4.362,0-8.161,2.405-10.149,5.96      c-1.218-6.694-7.073-11.771-14.119-11.771c-1.99,0-3.884,0.405-5.607,1.137c-2.786-4.767-7.955-7.972-13.876-7.972      c-6.21,0-11.592,3.526-14.266,8.682c-2.344-3.386-6.254-5.606-10.685-5.606c-5.741,0-10.609,3.727-12.325,8.892      c-0.156,0.309-0.128,0.936-0.128,0.936c-2.518-2.419-7.022-4.359-10.789-4.359c-7.055,0-12.875,5.218-13.853,12.002      c-1.137-0.363-2.35-0.568-3.616-0.568c-6.274,0-11.36,4.828-11.36,10.784c0,5.956,5.086,10.784,11.36,10.784h161.022v-0.096      C440.44,437.704,444.768,433.181,444.768,427.688z"
   id="path80" />
				<g
   id="g94">
					<path
   style="fill:#FDF1EB;"
   d="M281.347,418.259c0.635-1.843,1.682-3.549,3.006-5.023c1.322-1.474,3.006-2.684,4.927-3.353       c1.929-0.636,4.041-0.691,5.967-0.173c1.934,0.5,3.706,1.43,5.24,2.623c-1.754-0.837-3.555-1.525-5.404-1.855       c-1.845-0.334-3.736-0.23-5.48,0.357c-1.748,0.59-3.32,1.654-4.69,2.946C283.548,415.087,282.356,416.601,281.347,418.259z"
   id="path81" />
					<path
   style="fill:#FDF1EB;"
   d="M331.192,408.347c1.162-1.534,2.705-2.791,4.449-3.692c0.872-0.456,1.814-0.787,2.785-1.005       c0.974-0.209,1.985-0.27,2.984-0.194c2.005,0.167,3.914,0.974,5.487,2.139c1.59,1.153,2.906,2.614,3.948,4.226       c-1.366-1.347-2.798-2.6-4.385-3.573c-0.788-0.493-1.62-0.899-2.481-1.205c-0.855-0.325-1.753-0.512-2.655-0.584       c-1.807-0.171-3.645,0.196-5.355,0.907C334.261,406.088,332.65,407.106,331.192,408.347z"
   id="path82" />
					<path
   style="fill:#FDF1EB;"
   d="M298.038,428c0.829-1.389,2.004-2.572,3.358-3.508c1.355-0.939,2.951-1.576,4.62-1.788       c1.67-0.195,3.388,0.056,4.911,0.698c1.53,0.631,2.895,1.572,4.029,2.717c-1.391-0.814-2.812-1.521-4.293-1.977       c-0.743-0.215-1.491-0.401-2.253-0.457c-0.757-0.078-1.521-0.091-2.274,0.017c-1.509,0.174-2.971,0.703-4.328,1.454       C300.455,425.92,299.189,426.877,298.038,428z"
   id="path83" />
					<path
   style="fill:#FDF1EB;"
   d="M306.475,408.176c0.871-1.149,1.992-2.102,3.225-2.878c1.234-0.778,2.617-1.354,4.079-1.633       c1.459-0.275,2.994-0.23,4.416,0.187c1.425,0.406,2.719,1.166,3.769,2.142c-1.29-0.631-2.598-1.139-3.948-1.378       c-1.347-0.233-2.718-0.23-4.051,0.037c-1.339,0.237-2.635,0.726-3.884,1.328C308.834,406.597,307.632,407.33,306.475,408.176z"
   id="path84" />
					<path
   style="fill:#FDF1EB;"
   d="M321.109,418.259c0.972-1.112,2.199-1.997,3.536-2.668c1.339-0.67,2.829-1.103,4.362-1.165       c0.765-0.02,1.534,0.04,2.285,0.193c0.745,0.18,1.472,0.426,2.15,0.769c1.348,0.699,2.505,1.696,3.389,2.871       c-1.18-0.879-2.406-1.636-3.71-2.154c-1.312-0.493-2.691-0.744-4.075-0.674c-0.692,0.013-1.383,0.117-2.065,0.271       c-0.686,0.143-1.355,0.364-2.022,0.606C323.633,416.814,322.346,417.469,321.109,418.259z"
   id="path85" />
					<path
   style="fill:#FDF1EB;"
   d="M329.309,432.444c0.798-1.213,1.918-2.216,3.2-2.963c1.282-0.751,2.786-1.183,4.308-1.18       c1.523,0.007,3.023,0.465,4.293,1.229c1.281,0.753,2.375,1.758,3.243,2.914c-1.163-0.859-2.347-1.643-3.606-2.217       c-0.629-0.285-1.273-0.525-1.935-0.673c-0.656-0.17-1.329-0.253-2.001-0.246c-1.345-0.02-2.686,0.312-3.947,0.871       C331.606,430.748,330.413,431.515,329.309,432.444z"
   id="path86" />
					<path
   style="fill:#FDF1EB;"
   d="M360.244,408.176c1.259,0.148,2.478,0.577,3.613,1.167c0.573,0.289,1.111,0.647,1.633,1.031       c0.513,0.395,0.988,0.844,1.428,1.327c0.864,0.979,1.528,2.161,1.848,3.429c0.337,1.262,0.322,2.59,0.023,3.813       c-0.12-1.257-0.329-2.463-0.771-3.573c-0.217-0.555-0.48-1.087-0.796-1.585c-0.303-0.506-0.659-0.98-1.058-1.418       c-0.775-0.897-1.709-1.663-2.708-2.352C362.45,409.331,361.38,408.722,360.244,408.176z"
   id="path87" />
					<path
   style="fill:#FDF1EB;"
   d="M352.843,427.87c1.414-1.013,3.053-1.707,4.757-2.142c1.707-0.434,3.513-0.564,5.286-0.318       c0.883,0.138,1.754,0.36,2.593,0.67c0.829,0.336,1.628,0.742,2.365,1.239c1.463,1.008,2.692,2.31,3.604,3.784       c-1.24-1.212-2.565-2.287-4.018-3.116c-1.465-0.805-3.045-1.359-4.687-1.582c-1.639-0.246-3.323-0.172-4.984,0.089       C356.097,426.771,354.45,427.228,352.843,427.87z"
   id="path88" />
					<path
   style="fill:#FDF1EB;"
   d="M373.574,418.943c0.463-1.303,1.212-2.499,2.11-3.568c0.898-1.073,1.99-2.004,3.234-2.7       c1.244-0.69,2.651-1.122,4.073-1.183c1.419-0.076,2.832,0.218,4.084,0.786c-1.368-0.164-2.71-0.215-4.006-0.005       c-0.647,0.1-1.28,0.263-1.891,0.48c-0.616,0.205-1.208,0.479-1.773,0.801c-1.146,0.619-2.184,1.445-3.151,2.356       C375.293,416.832,374.401,417.844,373.574,418.943z"
   id="path89" />
					<path
   style="fill:#FDF1EB;"
   d="M388.1,405.994c1.129-2.171,2.776-4.09,4.76-5.598c0.991-0.758,2.096-1.378,3.267-1.849       c1.175-0.462,2.427-0.739,3.691-0.827c1.264-0.065,2.542,0.027,3.765,0.333c0.31,0.058,0.604,0.175,0.906,0.26       c0.301,0.091,0.601,0.181,0.888,0.307l0.869,0.351l0.833,0.423c2.212,1.146,4.141,2.727,5.801,4.518       c-1.941-1.481-3.959-2.843-6.143-3.811c-2.169-0.975-4.519-1.55-6.854-1.378c-2.335,0.127-4.594,1.001-6.572,2.312       C391.335,402.359,389.577,404.053,388.1,405.994z"
   id="path90" />
					<path
   style="fill:#FDF1EB;"
   d="M419.716,411.828c1.19-0.389,2.487-0.461,3.749-0.286c0.314,0.055,0.633,0.099,0.943,0.178       l0.926,0.271c0.299,0.119,0.593,0.254,0.89,0.381c0.293,0.135,0.565,0.313,0.849,0.468c1.074,0.708,2.073,1.577,2.754,2.663       l0.274,0.39c0.083,0.135,0.154,0.278,0.226,0.419l0.425,0.846c0.241,0.582,0.419,1.188,0.584,1.784       c-0.372-0.511-0.664-1.047-1.016-1.543l-0.545-0.725c-0.093-0.118-0.173-0.245-0.267-0.361l-0.303-0.33       c-0.204-0.217-0.398-0.441-0.595-0.661l-0.658-0.59c-0.207-0.21-0.45-0.374-0.685-0.548c-0.237-0.172-0.463-0.359-0.725-0.491       c-0.979-0.64-2.081-1.078-3.229-1.385C422.163,412.007,420.96,411.853,419.716,411.828z"
   id="path91" />
					<path
   style="fill:#FDF1EB;"
   d="M385.124,428.603c0.347-1.419,1.05-2.758,2.018-3.902c0.48-0.578,1.055-1.083,1.689-1.514       c0.64-0.423,1.357-0.74,2.107-0.939c1.514-0.387,3.116-0.191,4.504,0.356c1.403,0.533,2.641,1.371,3.696,2.374       c-1.296-0.661-2.595-1.269-3.94-1.628c-0.669-0.187-1.349-0.297-2.024-0.326c-0.675-0.044-1.347,0.03-1.99,0.198       c-1.298,0.312-2.471,1.061-3.473,2.014C386.712,426.201,385.854,427.348,385.124,428.603z"
   id="path92" />
					<path
   style="fill:#FDF1EB;"
   d="M403.652,411.712c0.687-0.847,1.702-1.425,2.793-1.7c1.096-0.29,2.274-0.224,3.361,0.073       c1.103,0.289,2.062,0.896,2.941,1.548c0.419,0.354,0.813,0.735,1.194,1.119c0.344,0.424,0.686,0.843,0.99,1.288       c-0.465-0.29-0.891-0.605-1.315-0.915l-1.316-0.845c-0.23-0.118-0.457-0.237-0.678-0.365l-0.334-0.187       c-0.114-0.055-0.234-0.098-0.35-0.148c-0.233-0.097-0.461-0.205-0.691-0.307l-0.716-0.219       C407.628,410.494,405.546,410.672,403.652,411.712z"
   id="path93" />
					<path
   style="fill:#FDF1EB;"
   d="M407.924,431.418c1.185-1.123,2.626-1.973,4.164-2.582c1.54-0.609,3.214-0.935,4.899-0.896       c0.841,0.036,1.679,0.154,2.495,0.362c0.81,0.229,1.595,0.537,2.332,0.93c1.463,0.807,2.73,1.913,3.712,3.211       c-1.282-1.004-2.623-1.874-4.055-2.504c-1.442-0.603-2.966-0.96-4.514-0.993c-1.547-0.055-3.102,0.2-4.617,0.63       C410.828,430.022,409.348,430.637,407.924,431.418z"
   id="path94" />
				</g>
			</g>
		</g>
	</g>
	<g
   id="g119">
		<g
   id="g104">
			<path
   style="fill:#F5D80C;"
   d="M315.942,175.408c-0.656-14.306-15.031-25.511-32.724-25.511c-1.678,0-3.353,0.107-5.009,0.318     c0.616-3.692,0.068-7.533-1.729-11.177c-3.404-6.897-10.624-11.81-19.239-13.411c3.148-3.506,4.924-7.803,4.911-12.401     c-0.013-4.685-1.887-9.054-5.172-12.588c7.42-2.164,13.616-6.596,17.219-12.602c3.212-5.359,3.928-11.253,2.272-16.768     c4.439,1.988,9.361,3.032,14.34,3.032c9.243,0,18.147-3.596,23.814-9.622c0.795-0.844,1.511-1.722,2.152-2.624     c6.307,4.802,14.733,7.589,23.673,7.589h0.002c8.903,0,17.437-2.8,23.825-7.758c-0.257,4.204,1.158,8.415,4.159,11.979     c4.563,5.428,12.073,8.667,20.087,8.667c2.099,0,4.182-0.221,6.221-0.66c-2.785,4.83-3.208,10.441-0.908,15.703     c2.667,6.109,8.553,10.721,15.849,12.747c-1.958,2.538-3.178,5.49-3.458,8.671c-0.333,3.803,0.718,7.433,2.872,10.548     c-4.439,1.919-8.074,5.027-10.186,8.937c-2.039,3.779-2.456,7.806-1.355,11.578c-1.994-0.415-4.044-0.622-6.127-0.622     c-7.444,0-14.464,2.683-19.26,7.36c-3.83,3.737-5.819,8.415-5.706,13.207l-0.415-0.525c-4.802-6.092-12.99-9.729-21.902-9.729     c-10.85,0-20.382,5.279-24.285,13.455c-1.286,2.693-2.509,5.258-3.674,7.692C316.111,179.128,316.027,177.299,315.942,175.408z"
   id="path97" />
			<path
   style="fill:#EBCF09;"
   d="M318.233,168.291c-0.57-12.421-13.05-22.15-28.412-22.15c-1.457,0-2.911,0.093-4.35,0.276     c0.534-3.206,0.059-6.541-1.501-9.704c-2.956-5.988-9.224-10.254-16.704-11.644c2.733-3.044,4.275-6.775,4.264-10.767     c-0.011-4.067-1.638-7.861-4.49-10.929c6.443-1.879,11.822-5.727,14.95-10.941c2.789-4.653,3.41-9.771,1.973-14.558     c3.854,1.726,8.127,2.632,12.451,2.632c8.025,0,15.755-3.122,20.676-8.354c0.69-0.732,1.312-1.495,1.869-2.278     c5.476,4.169,12.792,6.589,20.554,6.589h0.002c7.73,0,15.139-2.431,20.686-6.736c-0.223,3.65,1.006,7.306,3.611,10.401     c3.962,4.713,10.482,7.525,17.44,7.525c1.822,0,3.631-0.192,5.401-0.573c-2.418,4.193-2.785,9.065-0.789,13.634     c2.316,5.304,7.426,9.308,13.761,11.067c-1.7,2.203-2.759,4.767-3.002,7.528c-0.289,3.302,0.624,6.454,2.494,9.158     c-3.854,1.666-7.01,4.364-8.844,7.759c-1.77,3.281-2.132,6.778-1.176,10.053c-1.731-0.36-3.511-0.54-5.32-0.54     c-6.463,0-12.558,2.329-16.722,6.391c-3.325,3.245-5.053,7.306-4.954,11.466l-0.36-0.456c-4.169-5.289-11.278-8.447-19.016-8.447     c-9.421,0-17.697,4.584-21.085,11.682c-1.117,2.338-2.178,4.566-3.19,6.679C318.38,171.521,318.308,169.933,318.233,168.291z"
   id="path98" />
			<path
   style="fill:#C90A05;"
   d="M388.046,94.755c1.423-7.739-2.814-16.611-10.92-21.531c-5.838-3.543-12.362-4.236-17.673-2.417     c0.001-0.073,0.006-0.144,0.006-0.217c0-10.02-9.066-18.143-20.25-18.143c-11.184,0-20.25,8.123-20.25,18.143     c0,7.667,5.311,14.219,12.815,16.875c-0.64,7.423,2.634,16.284,9.323,23.315c8.499,8.934,19.807,12.074,27.548,8.337     c2.947,3.089,7.167,5.026,11.856,5.026c8.908,0,16.129-6.984,16.129-15.6C396.63,102.564,393.151,97.373,388.046,94.755z"
   id="path99" />
			<path
   style="fill:#F73102;"
   d="M371.297,103.003c1.443-3.137,2.254-6.624,2.254-10.303c0-13.634-11.053-24.687-24.687-24.687     c-9.123,0-17.085,4.953-21.358,12.312c-3.732-3.926-9.001-6.378-14.846-6.378c-11.314,0-20.485,9.172-20.485,20.485     c0,0.964,0.072,1.91,0.2,2.839c-1.531-0.465-3.154-0.717-4.836-0.717c-9.184,0-16.63,7.446-16.63,16.63     c0,9.184,7.446,16.63,16.63,16.63c0.126,0,0.251-0.007,0.376-0.01c0.825,4.634,3.022,9.072,6.603,12.653     c8.635,8.635,22.247,9.251,31.599,1.86c2.607,1.632,5.59,2.559,8.759,2.559c4.839,0,9.242-2.161,12.539-5.694     c4.3,4.844,10.571,7.901,17.558,7.901c12.965,0,23.474-10.51,23.474-23.474C388.449,114.836,381.189,105.765,371.297,103.003z"
   id="path100" />
			<g
   id="g103">
				<path
   style="fill:#AE0F0C;"
   d="M313.77,112.833c0.64,1.277,1.418,2.454,2.328,3.494c0.901,1.046,1.952,1.936,3.099,2.619      c1.15,0.675,2.389,1.196,3.706,1.391c0.641,0.173,1.315,0.17,1.977,0.227c0.666,0.032,1.339-0.067,2.009-0.067l0.453,0      l0.246,0.273c0.787,0.875,1.804,1.681,2.816,2.37c1.03,0.689,2.148,1.227,3.319,1.592c1.174,0.373,2.42,0.455,3.658,0.31      c1.265-0.092,2.445-0.628,3.651-1.16c-1.012,0.818-2.158,1.598-3.496,1.923c-1.312,0.352-2.751,0.453-4.107,0.143      c-1.365-0.265-2.655-0.818-3.837-1.514c-1.191-0.71-2.236-1.547-3.229-2.586l0.699,0.273c-0.747,0.034-1.493,0.102-2.243,0.059      c-0.75-0.074-1.505-0.094-2.24-0.3c-1.478-0.313-2.894-0.958-4.105-1.841c-1.224-0.872-2.247-1.984-3.04-3.215      C314.661,115.58,314.053,114.241,313.77,112.833z"
   id="path101" />
				<path
   style="fill:#AE0F0C;"
   d="M331.762,91.516c1.053-0.922,2.371-1.56,3.782-1.887c1.412-0.329,2.947-0.289,4.38,0.149      c1.427,0.453,2.735,1.247,3.801,2.257c1.093,0.987,1.973,2.157,2.714,3.382l-0.664-0.375c1.135,0.059,2.107,0.35,3.086,0.769      c0.968,0.416,1.844,1.055,2.562,1.823c0.705,0.783,1.23,1.715,1.514,2.692c0.292,0.976,0.379,1.983,0.305,2.96      c-0.216-0.957-0.523-1.872-0.949-2.701c-0.436-0.823-0.994-1.553-1.678-2.126c-0.673-0.587-1.468-1.002-2.298-1.315      c-0.82-0.303-1.763-0.47-2.566-0.51l-0.436-0.022l-0.228-0.353c-0.72-1.116-1.535-2.155-2.46-3.055      c-0.934-0.889-1.98-1.646-3.164-2.107C337.108,90.118,334.291,90.385,331.762,91.516z"
   id="path102" />
				<path
   style="fill:#FD1509;"
   d="M354.861,106.856c0.05-0.382,0.078-0.77,0.078-1.166c0-4.877-3.909-8.839-8.765-8.929      c-1.672-3.984-5.609-6.783-10.201-6.783c-4.165,0-7.791,2.304-9.677,5.706c-0.219-0.011-0.44-0.017-0.663-0.017      c-6.979,0-12.638,5.658-12.638,12.637c0,6.979,5.658,12.637,12.638,12.637c0.524,0,1.039-0.036,1.546-0.097      c2.083,2.545,5.248,4.17,8.794,4.17c4.708,0,8.747-2.864,10.47-6.945c1.331,1.746,3.432,2.873,5.797,2.873      c4.024,0,7.287-3.262,7.287-7.287C359.526,110.555,357.589,107.909,354.861,106.856z"
   id="path103" />
			</g>
		</g>
		<g
   id="g118">
			<circle
   style="fill:#C90A05;"
   cx="404.104"
   cy="125.014"
   r="2.604"
   id="circle104" />
			<path
   style="fill:#C90A05;"
   d="M300.037,66.143c0.31,1.111-0.048,2.182-0.801,2.392c-0.752,0.21-1.614-0.52-1.924-1.631     c-0.31-1.111,0.048-2.182,0.801-2.392C298.865,64.303,299.727,65.033,300.037,66.143z"
   id="path104" />
			<path
   style="fill:#C90A05;"
   d="M316.617,162.365c0,1.324-1.073,2.397-2.397,2.397s-2.397-1.073-2.397-2.397     c0-1.324,1.073-2.397,2.397-2.397S316.617,161.041,316.617,162.365z"
   id="path105" />
			<path
   style="fill:#C90A05;"
   d="M261.376,136.764c-1.523,1.231-3.204,1.676-3.756,0.994c-0.552-0.682,0.236-2.234,1.758-3.465     c1.523-1.231,3.204-1.676,3.756-0.994C263.685,133.982,262.898,135.533,261.376,136.764z"
   id="path106" />
			<path
   style="fill:#F6910B;"
   d="M270.795,174.595c0,0,12.747-25.94,17.474-21.794     C292.997,156.947,270.795,174.595,270.795,174.595z"
   id="path107" />
			<path
   style="fill:#F6910B;"
   d="M301.895,191.173c0,0,1.764-21.389,6.157-19.807C312.445,172.947,301.895,191.173,301.895,191.173     z"
   id="path108" />
			<path
   style="fill:#F73102;"
   d="M292.577,167.556c0,0,8.571-17.443,11.75-14.655C307.507,155.69,292.577,167.556,292.577,167.556z     "
   id="path109" />
			<path
   style="fill:#F6910B;"
   d="M309.117,47.314c0,0,2.986,17.915-0.946,17.528C304.239,64.455,309.117,47.314,309.117,47.314z"
   id="path110" />
			<g
   id="g112">
				<path
   style="fill:#F6910B;"
   d="M427.758,87.442c0,0-26.465,18.336-28.819,11.738C396.586,92.583,427.758,87.442,427.758,87.442z      "
   id="path111" />
				<path
   style="fill:#F73102;"
   d="M401.5,98.165c1.219-1.516,6.306-3.542,13.05-5.363C408.829,96.008,403.731,98.269,401.5,98.165z      "
   id="path112" />
			</g>
			<path
   style="fill:#F73102;"
   d="M300.202,48.567c0,0,5.272,11.016,2.66,11.5C300.249,60.55,300.202,48.567,300.202,48.567z"
   id="path113" />
			<path
   style="fill:#C90A05;"
   d="M387.103,141.174c1.22-0.826,2.304-1.788,3.185-2.869c0.891-1.072,1.521-2.288,1.85-3.54     c0.169-0.627,0.227-1.272,0.225-1.913c0.014-0.64-0.061-1.286-0.207-1.922c-0.3-1.268-0.776-2.526-1.443-3.719l-0.532-0.953     l0.958-0.651c1.554-1.056,3.134-2.28,4.577-3.565c1.462-1.284,2.821-2.676,4.011-4.189c0.607-0.749,1.148-1.544,1.626-2.372     c0.492-0.821,0.925-1.681,1.23-2.588c0.32-0.901,0.561-1.841,0.654-2.813c0.095-0.971,0.055-1.965-0.08-2.973     c0.416,0.926,0.685,1.931,0.804,2.971c0.103,1.041,0.033,2.102-0.154,3.143c-0.392,2.088-1.314,4.038-2.454,5.794     c-1.148,1.759-2.531,3.336-4.023,4.776c-1.517,1.433-3.09,2.727-4.898,3.875l0.426-1.604c0.71,1.375,1.303,2.868,1.521,4.472     c0.253,1.587,0.117,3.294-0.494,4.804c-0.582,1.523-1.616,2.798-2.798,3.771C389.89,140.073,388.54,140.801,387.103,141.174z"
   id="path114" />
			<path
   style="fill:#C90A05;"
   d="M296.454,78.013c0.23-1.831,1.171-3.552,2.488-4.932c1.324-1.385,3.088-2.386,4.968-2.876     c1.893-0.458,3.842-0.403,5.661-0.017c0.909,0.196,1.771,0.561,2.626,0.861c0.815,0.434,1.621,0.858,2.365,1.38     c-0.933-0.007-1.806-0.113-2.668-0.209c-0.873-0.017-1.723-0.096-2.558-0.109c-1.675-0.003-3.284,0.119-4.824,0.482     c-1.524,0.405-2.967,1.036-4.31,1.95C298.847,75.449,297.62,76.615,296.454,78.013z"
   id="path115" />
			<g
   id="g117">
				<path
   style="fill:#F6910B;"
   d="M254.278,69.104c0,0,21.694,11.602,18.029,15.502C268.642,88.507,254.278,69.104,254.278,69.104z      "
   id="path116" />
				<path
   style="fill:#F73102;"
   d="M270.724,83.219c-1.456-0.3-4.607-3.052-8.196-7.003      C266.702,78.988,270.017,81.666,270.724,83.219z"
   id="path117" />
			</g>
		</g>
	</g>
</g>

</svg>
