<?xml version="1.0" encoding="UTF-8" standalone="no"?>
<!-- Generator: Adobe Illustrator 27.5.0, SVG Export Plug-In . SVG Version: 6.00 Build 0)  -->

<svg
   version="1.1"
   id="Layer_1"
   x="0px"
   y="0px"
   viewBox="0 0 178.012 281.509"
   style="enable-background:new 0 0 178.012 281.509;"
   xml:space="preserve"
   sodipodi:docname="hand.svg"
   inkscape:version="1.4 (86a8ad7, 2024-10-11)"
   xmlns:inkscape="http://www.inkscape.org/namespaces/inkscape"
   xmlns:sodipodi="http://sodipodi.sourceforge.net/DTD/sodipodi-0.dtd"
   xmlns="http://www.w3.org/2000/svg"
   xmlns:svg="http://www.w3.org/2000/svg"><defs
   id="defs17" /><sodipodi:namedview
   id="namedview17"
   pagecolor="#ffffff"
   bordercolor="#000000"
   borderopacity="0.25"
   inkscape:showpageshadow="2"
   inkscape:pageopacity="0.0"
   inkscape:pagecheckerboard="0"
   inkscape:deskcolor="#d1d1d1"
   inkscape:zoom="2.8666934"
   inkscape:cx="89.127076"
   inkscape:cy="140.7545"
   inkscape:window-width="1920"
   inkscape:window-height="1009"
   inkscape:window-x="-8"
   inkscape:window-y="-8"
   inkscape:window-maximized="1"
   inkscape:current-layer="Layer_1" />
<g
   id="g17"
   transform="translate(-2.066e-4)">
	<g
   id="g11">
		<path
   style="fill:#d08973"
   d="m 174.484,120.706 c -1.396,-1.695 -3.931,-2.032 -5.988,-2.113 -2.231,-0.088 -4.525,0.193 -6.694,0.719 -6.742,1.636 -12.115,6.398 -16.988,11.074 -5.833,5.597 -11.721,11.028 -18.386,15.636 -0.374,0.258 -0.748,0.516 -1.122,0.774 -0.35,-1.799 -0.532,-3.6 -0.64,-5.445 -0.13,-2.218 -0.264,-4.437 -0.373,-6.657 -0.217,-4.417 -0.433,-8.836 -0.535,-13.257 -0.21,-9.106 0.008,-18.22 0.369,-27.319 0.182,-4.572 0.357,-9.138 0.438,-13.712 0.08,-4.532 0.208,-9.063 0.489,-13.587 0.281,-4.53 0.724,-9.045 0.914,-13.582 0.19,-4.517 0.228,-9.049 -0.025,-13.564 -0.288,-5.144 -0.659,-11.02 -3.852,-15.324 -1.304,-1.757 -3.014,-2.953 -5.277,-2.908 -1.368,0.027 -2.61,0.473 -3.851,1.008 -1.317,0.567 -2.331,1.335 -3.105,2.56 -1.501,2.378 -1.825,5.372 -2.109,8.107 -0.409,3.945 -0.92,7.88 -1.372,11.82 -0.516,4.502 -1.052,9.002 -1.557,13.505 -0.509,4.536 -0.873,9.086 -1.286,13.631 -0.785,8.635 -1.324,17.294 -1.459,25.963 -0.021,1.348 -0.061,2.695 -0.126,4.042 -0.1,2.065 -0.166,4.219 -0.617,6.243 -0.068,0.307 -0.152,0.623 -0.298,0.901 -0.002,10e-4 -0.004,0.002 -0.006,0.003 -0.251,-0.035 -0.533,0.208 -0.565,0.435 -1.258,-0.667 -1.711,-3.23 -1.925,-4.296 -0.407,-2.03 -0.549,-4.098 -0.754,-6.155 C 96.935,90.676 96.207,82.134 95.402,73.598 94.59,64.989 93.588,56.4 92.807,47.788 92.05,39.439 91.548,31.067 90.49,22.747 90.074,19.476 89.685,16.196 88.789,13.013 88.36,11.49 87.812,9.998 87.084,8.591 86.406,7.281 85.553,5.907 84.318,5.056 81.946,3.421 78.978,4.407 76.926,6.086 75.809,6.999 74.89,8.125 74.209,9.398 c -0.707,1.322 -0.942,2.699 -1.205,4.149 -0.252,1.393 -0.424,2.799 -0.524,4.212 -0.181,2.557 -0.453,5.105 -0.593,7.665 -0.233,4.284 -0.055,8.526 0.09,12.807 0.294,8.619 0.868,17.23 1.286,25.844 0.424,8.716 0.708,17.437 1.105,26.154 0.097,2.126 0.17,4.256 0.348,6.377 0.175,2.085 0.416,4.165 0.511,6.257 0.083,1.801 0.057,3.618 0.067,5.41 0.004,0.669 -0.047,1.338 -0.142,2 -0.086,0.594 -0.217,1.471 -0.646,2 -0.123,0.004 -0.255,0.05 -0.363,0.17 -0.93,1.03 -2.21,-0.787 -2.711,-1.572 -1.263,-1.979 -2.078,-4.207 -2.845,-6.412 C 66.86,99.494 65.351,94.56 64.264,89.403 63.296,84.811 62.531,80.179 61.627,75.574 60.694,70.821 59.644,66.088 58.579,61.363 c -1.06,-4.704 -2.133,-9.406 -3.3,-14.084 -1.118,-4.482 -2.005,-9.049 -3.421,-13.452 -0.672,-2.088 -1.52,-4.119 -2.573,-6.043 -0.746,-1.363 -1.616,-2.677 -2.786,-3.705 -1.511,-1.328 -3.492,-1.866 -5.397,-1.626 0.05,-0.076 0.033,-0.19 -0.092,-0.162 -1.182,0.261 -2.267,0.681 -3.225,1.432 -0.94,0.737 -1.713,1.66 -2.355,2.664 -1.335,2.09 -2.065,4.502 -2.391,6.947 -0.437,3.281 -0.077,6.701 0.274,9.974 0.412,3.84 1.052,7.651 1.653,11.464 1.375,8.724 2.847,17.412 4.593,26.076 1.355,6.722 2.704,13.446 3.91,20.197 0.803,4.497 1.787,8.974 2.51,13.485 0.163,1.017 0.316,2.037 0.465,3.057 0.114,0.784 0.29,1.617 0.181,2.411 -0.043,0.313 -0.122,0.629 -0.22,0.938 0.055,0.026 0.105,0.063 0.141,0.118 0.09,0.14 0.032,0.352 -0.113,0.431 -0.167,0.09 -0.35,0.143 -0.536,0.155 -0.02,-0.065 -0.044,-0.13 -0.063,-0.195 -0.546,-0.27 -1.07,-0.861 -1.351,-1.184 -1.854,-2.136 -2.826,-4.838 -3.886,-7.414 C 34.363,97.68 28.5,82.245 23.817,66.518 22.235,61.204 20.939,54.87 16.855,50.82 13.205,47.2 6.935,47.685 4.115,52.117 2.36,54.875 2.522,58.608 2.959,61.711 c 0.549,3.897 1.609,7.732 2.363,11.593 0.799,4.09 1.562,8.188 2.507,12.247 0.951,4.087 2.102,8.129 3.237,12.168 4.519,16.094 9.563,32.021 12.774,48.447 1.587,8.117 2.896,16.284 4.2,24.45 1.19,7.455 2.419,14.928 4.521,22.191 1.998,6.903 4.853,13.851 9.088,19.701 2.104,2.907 4.678,5.356 7.689,7.138 -0.123,1.344 -0.27,2.685 -0.394,4.03 -0.203,2.202 -0.446,4.401 -0.679,6.599 -0.463,4.375 -0.812,8.737 -1.018,13.131 -0.208,4.431 -0.477,8.858 -0.693,13.289 -0.104,2.127 -0.191,4.255 -0.245,6.384 -0.054,2.089 -0.197,4.24 -0.022,6.325 0.061,0.73 0.214,1.403 0.437,2.027 0.551,-0.49 1.31,-0.834 1.878,-1.074 0.69,-0.291 1.404,-0.534 2.129,-0.736 1.223,-0.341 3.274,-0.623 4.542,-0.691 1.689,-0.091 3.382,-0.082 5.071,-0.023 2.964,0.104 5.922,0.356 8.88,0.564 6.086,0.429 12.167,0.865 18.268,1.017 3.242,0.081 6.484,0.107 9.724,-0.073 2.337,-0.13 4.675,-0.255 7.016,-0.274 2.62,-0.021 5.093,0.114 7.456,1.232 0.59,0.28 1.153,0.618 1.678,1.002 0.208,-0.454 0.327,-0.935 0.35,-1.439 0.038,-0.801 -0.11,-1.608 -0.218,-2.399 -0.144,-1.054 -0.286,-2.109 -0.427,-3.163 -0.554,-4.16 -0.94,-8.347 -1.422,-12.517 -0.49,-4.243 -1.082,-8.474 -1.562,-12.718 -0.464,-4.107 -0.86,-8.222 -1.651,-12.284 -0.412,-2.117 -0.929,-4.212 -1.301,-6.338 -0.187,-1.07 -0.377,-2.175 -0.52,-3.284 0.231,-0.069 0.46,-0.142 0.682,-0.215 1.496,-0.496 2.955,-1.128 4.383,-1.794 3.476,-1.622 6.674,-3.722 9.362,-6.474 5.086,-5.207 7.979,-12.063 10.824,-18.646 6.158,-14.252 11.714,-28.941 20.622,-41.776 2.243,-3.233 4.662,-6.376 7.278,-9.317 2.395,-2.693 4.953,-5.332 7.812,-7.538 2.157,-1.664 4.432,-3.285 6.133,-5.441 1.424,-1.8 2.428,-4.317 0.773,-6.326 z"
   id="path1" />
		<path
   style="fill:#fad2c3"
   d="m 171.018,120.186 c -2.133,-0.774 -4.583,-0.644 -6.792,-0.351 -1.119,0.148 -2.229,0.37 -3.304,0.717 -8.399,2.708 -14.094,9.508 -20.258,15.256 -4.777,4.454 -9.837,8.566 -15.179,12.309 -0.084,0.152 -0.261,0.27 -0.427,0.3 -1.052,0.731 -2.11,1.452 -3.184,2.154 -2.861,1.869 -5.875,3.431 -8.875,5.06 -2.942,1.598 -5.814,3.394 -8.002,5.972 -0.339,0.4 -1.208,0.162 -0.803,-0.373 0.991,-1.306 2.131,-2.48 3.412,-3.503 2.689,-2.145 5.777,-3.681 8.789,-5.308 2.833,-1.53 5.526,-3.305 8.183,-5.124 -0.295,-1.77 -0.607,-3.537 -0.877,-5.31 -0.642,-4.208 -0.846,-8.479 -1.069,-12.727 -0.238,-4.512 -0.353,-9.03 -0.374,-13.549 -0.041,-9.039 0.361,-18.059 0.775,-27.085 0.416,-9.059 0.514,-18.13 1.249,-27.171 0.704,-8.65 1.092,-17.493 0.205,-26.146 -0.21,-2.05 -0.578,-4.085 -1.16,-6.062 -0.739,-2.51 -1.887,-5.017 -4.292,-6.272 -2.116,-1.104 -5.192,-0.538 -6.937,1.044 -2.065,1.872 -2.546,4.973 -2.875,7.598 -0.459,3.654 -0.881,7.308 -1.389,10.956 -0.621,4.454 -1.253,8.903 -1.676,13.381 -0.419,4.438 -0.735,8.885 -1.144,13.325 -0.415,4.499 -0.836,8.997 -1.163,13.504 -0.319,4.4 -0.568,8.802 -0.619,13.214 -0.018,1.546 -0.056,3.091 -0.124,4.635 -0.039,0.877 -0.151,8.091 -1.717,9.23 0,0 10e-4,0.001 10e-4,0.001 -0.311,0.248 -0.629,0.494 -0.967,0.686 -0.358,-0.046 -0.712,-0.149 -1.063,-0.258 -0.166,-0.135 -0.32,-0.29 -0.459,-0.464 -1.29,-1.616 -1.602,-4.098 -1.877,-6.076 C 96.657,101.095 96.449,98.41 96.172,95.746 95.289,87.233 94.522,78.71 93.667,70.195 92.815,61.718 91.884,53.251 91.263,44.752 90.674,36.684 90.201,28.594 88.986,20.589 88.497,17.368 87.867,14.125 86.631,11.097 85.637,8.66 83.825,5.115 80.678,5.528 c -1.323,0.174 -2.537,0.924 -3.5,1.817 -1.059,0.981 -2.002,2.103 -2.596,3.431 -1.543,3.45 -1.548,7.217 -1.837,10.921 -0.327,4.193 -0.477,8.4 -0.296,12.602 0.185,4.305 0.543,8.603 0.829,12.902 0.572,8.603 1.074,17.205 1.471,25.817 0.198,4.308 0.442,8.613 0.635,12.921 0.193,4.301 0.365,8.596 0.765,12.883 0.276,2.967 0.506,6.011 0.297,8.993 -0.12,1.707 -0.266,4.878 -2.28,5.536 0,0 -10e-4,0 -10e-4,0 -0.074,0.048 -0.151,0.091 -0.232,0.128 -1.446,0.657 -2.66,-0.894 -3.38,-1.926 -1.313,-1.882 -2.236,-4.036 -3.156,-6.128 C 65.373,100.822 64.138,95.761 63.126,90.862 62.174,86.254 61.447,81.603 60.602,76.975 59.683,71.941 58.623,66.93 57.566,61.924 56.572,57.217 55.49,52.529 54.374,47.85 53.338,43.507 52.403,39.12 51.062,34.861 50.402,32.765 49.6,30.713 48.606,28.754 c -0.705,-1.389 -1.54,-2.76 -2.662,-3.816 -1.294,-1.219 -3.027,-1.965 -4.825,-1.724 -0.91,0.122 -1.925,0.436 -2.797,0.938 -1.329,1.218 -2.322,2.853 -2.949,4.498 -1.125,2.951 -1.407,5.899 -1.3,9.036 0.137,3.996 0.663,7.964 1.27,11.912 0.617,4.013 1.223,8.03 1.889,12.035 1.313,7.889 2.896,15.729 4.47,23.568 0.805,4.006 1.608,8.013 2.372,12.027 0.787,4.135 1.489,8.285 2.344,12.406 0.392,1.89 0.727,3.792 1.022,5.7 0.19,1.227 0.404,2.451 0.497,3.691 0.015,0.195 0.014,0.391 -0.008,0.585 -0.099,0.9 -0.353,1.994 -0.951,2.703 -0.22,0.26 -0.461,0.412 -0.704,0.482 0.002,0.004 0.003,0.009 0.004,0.013 -0.02,0.003 -0.041,10e-4 -0.06,0.004 -0.149,0.035 -0.296,0.035 -0.438,0.003 -0.339,-0.03 -0.694,-0.132 -1.067,-0.346 -1.783,-1.022 -3.005,-3.245 -3.838,-5.047 -1.567,-3.389 -2.78,-6.987 -4.11,-10.474 C 31.271,92.54 26.039,78.051 21.624,63.274 20.765,60.399 19.825,57.497 18.355,54.868 17.037,52.511 15.19,50.208 12.45,49.538 9.867,48.906 6.962,49.849 5.356,51.997 3.227,54.846 3.754,59.205 4.349,62.465 c 0.689,3.773 1.667,7.497 2.412,11.261 0.796,4.022 1.561,8.051 2.523,12.038 1.923,7.97 4.338,15.833 6.635,23.701 2.291,7.847 4.642,15.689 6.552,23.64 1.88,7.829 3.375,15.745 4.722,23.681 2.51,14.784 3.895,30.181 9.661,44.164 2.444,5.928 5.687,12.157 10.79,16.233 0.578,0.462 1.177,0.885 1.793,1.275 0.001,-0.01 0.001,-0.02 0.002,-0.029 0.411,0.372 0.863,0.701 1.34,0.948 0.021,0.011 0.041,0.013 0.062,0.02 0.203,0.137 0.408,0.272 0.618,0.398 1.059,0.636 2.19,1.059 3.367,1.428 1.336,0.419 2.701,0.738 4.073,1.017 1.114,0.227 2.223,0.48 3.348,0.648 0.025,0.004 0.051,0.007 0.076,0.011 -2.625,-0.038 -5.292,-0.276 -7.815,-1.008 -1.646,-0.477 -3.196,-1.132 -4.647,-1.94 0.082,1.34 0.124,2.682 0.087,4.03 -0.065,2.361 -0.252,4.709 -0.451,7.062 -0.401,4.735 -0.747,9.462 -1.04,14.205 -0.263,4.263 -0.571,8.524 -0.783,12.79 -0.111,2.217 -0.199,4.435 -0.247,6.653 -0.04,1.823 -0.258,3.79 0.181,5.576 0.135,0.55 0.337,1.059 0.589,1.533 0.903,0.386 1.85,0.685 2.761,0.964 2.273,0.695 4.531,1.449 6.839,2.022 2.396,0.594 4.828,1.042 7.276,1.359 2.498,0.324 4.996,0.647 7.508,0.845 5.057,0.398 10.146,0.397 15.202,-0.02 2.391,-0.197 4.762,-0.527 7.139,-0.841 2.261,-0.299 4.522,-0.598 6.773,-0.969 3.441,-0.568 6.882,-1.307 10.17,-2.481 0.16,-0.267 0.301,-0.542 0.383,-0.809 0.224,-0.723 0.131,-1.511 0.058,-2.25 -0.228,-2.316 -0.462,-4.63 -0.728,-6.941 -0.956,-8.332 -2.081,-16.645 -3.012,-24.979 -0.439,-3.927 -0.984,-7.841 -1.715,-11.724 -0.328,-1.743 -0.603,-3.502 -0.792,-5.266 -0.081,-0.759 -0.136,-1.518 -0.154,-2.281 -0.78,0.186 -1.583,0.276 -2.359,0.119 1.536,-0.217 2.984,-0.759 4.373,-1.439 3.226,-1.375 6.393,-3.057 9.173,-5.199 2.785,-2.146 5.073,-4.868 6.971,-7.814 1.882,-2.922 3.39,-6.061 4.8,-9.232 1.506,-3.388 2.942,-6.807 4.391,-10.22 5.873,-13.833 11.87,-27.702 21.126,-39.67 4.323,-5.589 8.989,-10.822 14.636,-15.119 0.846,-0.644 1.64,-1.355 2.39,-2.108 0.905,-0.908 1.847,-1.947 2.258,-3.196 0.667,-2.027 -0.835,-3.708 -2.646,-4.365 z"
   id="path2" />
		<path
   style="fill:#fad2c3"
   d="m 112.999,155.63 c -1.847,1.003 -3.666,2.085 -5.306,3.389 -1.291,1.531 -2.395,3.215 -3.241,5.051 -1.035,2.248 -1.67,4.642 -2.017,7.081 1.517,-4.7 4.755,-8.61 8.513,-11.806 4.434,-3.772 9.492,-6.692 14.302,-9.94 6.481,-4.377 12.259,-9.682 18.123,-14.829 5.666,-4.975 11.474,-10.051 18.233,-13.502 0.88,-0.449 1.777,-0.864 2.687,-1.248 -2.539,0.335 -4.936,1.157 -7.216,2.322 -6.393,3.265 -11.238,8.833 -16.413,13.658 -4.777,4.454 -9.837,8.566 -15.179,12.309 -0.084,0.152 -0.261,0.27 -0.427,0.3 -1.052,0.731 -2.11,1.452 -3.184,2.154 -2.861,1.87 -5.875,3.432 -8.875,5.061 z"
   id="path3" />
		<path
   style="fill:#fad2c3"
   d="m 52.341,269.683 c -0.039,-4.438 -0.233,-8.872 -0.302,-13.309 -0.034,-2.191 -0.038,-4.383 0.027,-6.573 0.063,-2.142 0.203,-4.279 0.219,-6.423 0.033,-4.385 -0.181,-8.767 -0.216,-13.152 -0.024,-3.024 0.041,-6.057 0.332,-9.068 -0.876,-0.353 -1.726,-0.752 -2.54,-1.206 0.082,1.34 0.124,2.682 0.087,4.03 -0.065,2.361 -0.252,4.709 -0.451,7.062 -0.401,4.735 -0.747,9.462 -1.04,14.205 -0.263,4.263 -0.571,8.524 -0.783,12.79 -0.111,2.217 -0.199,4.435 -0.247,6.653 -0.04,1.823 -0.258,3.79 0.181,5.576 0.135,0.55 0.337,1.059 0.589,1.533 0.903,0.386 1.85,0.685 2.761,0.964 0.459,0.141 0.918,0.284 1.377,0.428 0.015,-1.171 0.017,-2.341 0.006,-3.51 z"
   id="path4" />
		<path
   style="fill:#fad2c3"
   d="m 5.04,53.013 c 1.885,-1.364 4.302,-2.018 6.618,-1.877 2.252,0.137 4.254,0.999 5.922,2.516 0.034,0.031 0.066,0.065 0.1,0.097 C 16.423,51.818 14.753,50.103 12.452,49.54 9.869,48.908 6.964,49.851 5.358,51.999 5.039,52.426 4.786,52.89 4.578,53.375 4.727,53.25 4.88,53.128 5.04,53.013 Z"
   id="path5" />
		<path
   style="fill:#fad2c3"
   d="m 39.178,25.633 c 0.99,-0.941 2.089,-1.774 3.292,-2.42 -0.441,-0.057 -0.892,-0.061 -1.348,10e-4 -0.91,0.122 -1.925,0.436 -2.797,0.938 -1.332,1.218 -2.325,2.853 -2.952,4.498 -0.452,1.187 -0.763,2.373 -0.972,3.571 1.233,-2.438 2.81,-4.718 4.777,-6.588 z"
   id="path6" />
		<path
   style="fill:#fad2c3"
   d="m 54.689,120.598 c -2.418,0.921 -4.787,1.989 -7.038,3.27 -0.861,0.49 -1.701,1.02 -2.518,1.583 1.989,0.162 4.001,0.061 5.976,-0.202 4.847,-0.647 9.554,-2.198 14.094,-3.969 3.959,-1.545 7.818,-3.319 11.688,-5.07 -2.195,-0.021 -4.393,0.146 -6.567,0.431 -5.329,0.697 -10.611,2.044 -15.635,3.957 z"
   id="path7" />
		<path
   style="opacity:0.5;fill:#f2c4b3"
   d="m 63.792,119.35 c 2.612,-0.39 5.231,-0.731 7.851,-1.055 2.667,-0.329 5.336,-0.64 8.003,-0.968 2.049,-0.252 4.093,-0.506 6.149,-0.688 4.278,-0.379 8.571,-0.637 12.823,-1.259 3.739,-0.547 7.541,-1.354 10.963,-3.011 -0.278,-0.046 -0.554,-0.099 -0.832,-0.139 -4.598,-0.665 -9.295,-0.534 -13.909,-0.105 -4.79,0.445 -9.538,1.246 -14.263,2.135 -2.206,0.415 -4.406,0.862 -6.612,1.279 -2.594,0.49 -5.178,0.975 -7.744,1.6 -2.585,0.629 -5.15,1.341 -7.696,2.11 -1.258,0.38 -2.504,0.806 -3.765,1.177 -0.922,0.271 -1.85,0.517 -2.77,0.793 -0.145,0.043 -0.291,0.088 -0.436,0.132 1.622,-0.278 3.25,-0.521 4.864,-0.78 2.461,-0.396 4.909,-0.853 7.374,-1.221 z"
   id="path8" />
		<path
   style="opacity:0.5;fill:#f2c4b3"
   d="m 62.195,156.232 c -1.351,-2.484 -2.697,-4.982 -4.225,-7.363 -2.558,-3.985 -5.578,-7.624 -8.766,-11.114 0.003,0.006 0.005,0.012 0.008,0.018 0.685,1.528 1.2,3.123 1.833,4.672 0.699,1.708 1.593,3.358 2.458,4.986 0.936,1.763 1.93,3.495 3.001,5.18 2.005,3.152 4.309,6.109 6.532,9.107 1.572,2.12 3.151,4.288 4.595,6.537 -0.443,-1.295 -0.931,-2.575 -1.46,-3.837 -1.171,-2.8 -2.527,-5.52 -3.976,-8.186 z"
   id="path9" />
		<path
   style="fill:#d08973"
   d="m 107.46,112.055 c -9.311,-0.468 -18.61,0.352 -27.817,1.733 -4.396,0.659 -8.768,1.461 -13.124,2.342 -3.907,0.791 -7.797,1.678 -11.579,2.951 -1.914,0.644 -4.934,1.967 -6.7,2.945 -1.517,0.84 -2.964,1.8 -4.144,3.084 -0.306,0.333 0.071,0.574 0.396,0.388 1.577,-0.905 3.112,-1.895 4.741,-2.711 1.693,-0.848 3.456,-1.555 5.25,-2.16 3.598,-1.213 7.289,-2.082 11.008,-2.831 8.658,-1.743 17.37,-3.228 26.167,-4.069 5.192,-0.497 10.407,-0.864 15.616,-1.125 0.29,-0.015 0.609,-0.526 0.186,-0.547 z"
   id="path10" />
		<path
   style="fill:#d08973"
   d="m 62.086,154.553 c -1.086,-2.065 -2.369,-4.012 -3.652,-5.958 -1.252,-1.899 -2.557,-3.763 -3.987,-5.534 -1.556,-1.927 -3.262,-3.742 -5.214,-5.275 -0.148,-0.116 -0.438,0.15 -0.276,0.289 3.421,2.932 5.932,6.732 8.309,10.517 1.189,1.892 2.391,3.788 3.421,5.772 1.092,2.103 1.982,4.292 2.838,6.499 0.946,2.44 1.704,4.973 2.918,7.299 0.202,0.388 0.904,-0.102 0.815,-0.459 -0.581,-2.331 -1.468,-4.577 -2.33,-6.816 -0.831,-2.159 -1.765,-4.285 -2.842,-6.334 z"
   id="path11" />
	</g>
	<path
   style="opacity:0.5;fill:#f2c4b3"
   d="m 174.484,120.706 c -1.396,-1.695 -3.931,-2.032 -5.988,-2.113 -1.248,-0.049 -2.515,0.021 -3.77,0.181 0.105,0.095 0.204,0.196 0.288,0.314 0.755,1.067 0.123,2.487 -0.464,3.472 -0.859,1.442 -2.026,2.706 -3.209,3.886 -1.019,1.016 -2.106,1.954 -3.171,2.92 -2.342,2.125 -4.63,4.313 -6.821,6.594 -4.266,4.44 -8.109,9.23 -11.324,14.487 -3.013,4.926 -5.535,10.133 -7.858,15.413 -2.341,5.321 -4.486,10.726 -6.749,16.081 -2.253,5.33 -4.625,10.62 -7.422,15.69 -2.613,4.736 -5.574,9.375 -9.128,13.466 -3.415,3.931 -7.524,7.343 -12.407,9.271 -2.528,0.998 -5.184,1.461 -7.864,1.836 -2.727,0.382 -5.478,0.624 -8.234,0.614 -1.962,-0.008 -3.941,-0.15 -5.884,-0.471 -2.167,-0.042 -4.33,-0.198 -6.47,-0.583 -6.843,-1.232 -13.033,-4.647 -17.727,-9.775 -4.772,-5.213 -7.895,-11.742 -10.007,-18.432 -1.418,-4.492 -2.404,-9.125 -3.43,-13.719 -1.187,-5.311 -2.29,-10.64 -3.386,-15.97 -2.173,-10.569 -4.321,-21.15 -7.03,-31.599 -0.021,-0.081 -0.005,-0.15 0.029,-0.205 -0.904,-3.48 -1.826,-6.955 -2.775,-10.423 C 21.594,114.003 19.292,106.435 16.941,98.874 15.765,95.094 14.592,91.313 13.467,87.517 12.458,84.114 11.592,80.666 10.564,77.27 9.002,72.108 6.893,67.119 5.802,61.819 4.986,57.85 4.67,53.37 6.517,49.713 c -0.93,0.598 -1.758,1.393 -2.401,2.404 -1.755,2.758 -1.593,6.491 -1.156,9.594 0.549,3.897 1.609,7.732 2.363,11.593 0.799,4.09 1.562,8.188 2.507,12.247 0.951,4.087 2.102,8.129 3.237,12.168 4.519,16.094 9.563,32.021 12.774,48.447 1.587,8.117 2.896,16.284 4.2,24.45 1.19,7.455 2.419,14.928 4.521,22.191 1.998,6.903 4.853,13.851 9.088,19.701 2.104,2.907 4.678,5.356 7.689,7.138 -0.054,0.588 -0.113,1.176 -0.172,1.764 1.644,0.826 3.416,1.41 5.197,1.847 3.043,0.747 6.165,1.104 9.272,1.473 3.048,0.362 6.119,0.709 9.099,1.473 2.724,0.698 5.383,1.754 7.36,3.824 1.891,1.981 3.02,4.553 3.734,7.167 0.776,2.841 1.105,5.787 1.355,8.714 0.121,1.411 0.218,2.824 0.337,4.235 0.157,1.875 0.387,3.745 0.577,5.617 0.406,3.998 0.805,7.997 1.3,11.985 0.378,3.048 0.81,6.102 1.347,9.135 2.065,-0.199 4.12,-0.477 6.177,-0.75 2.261,-0.299 4.522,-0.598 6.773,-0.969 3.441,-0.568 6.882,-1.307 10.17,-2.481 0.16,-0.267 0.301,-0.542 0.383,-0.809 0.018,-0.058 0.022,-0.118 0.036,-0.177 0.373,0.208 0.738,0.431 1.081,0.683 0.208,-0.454 0.327,-0.935 0.35,-1.439 0.038,-0.801 -0.11,-1.608 -0.218,-2.399 -0.144,-1.054 -0.286,-2.109 -0.427,-3.163 -0.554,-4.16 -0.94,-8.347 -1.422,-12.517 -0.49,-4.243 -1.082,-8.474 -1.562,-12.718 -0.464,-4.107 -0.86,-8.222 -1.651,-12.284 -0.412,-2.117 -0.929,-4.212 -1.301,-6.338 -0.187,-1.07 -0.377,-2.175 -0.52,-3.284 0.231,-0.069 0.46,-0.142 0.682,-0.215 1.496,-0.496 2.955,-1.128 4.383,-1.794 3.476,-1.622 6.674,-3.722 9.362,-6.474 5.086,-5.207 7.979,-12.063 10.824,-18.646 6.158,-14.252 11.714,-28.941 20.622,-41.776 2.243,-3.233 4.662,-6.376 7.278,-9.317 2.395,-2.693 4.953,-5.332 7.812,-7.538 2.157,-1.664 4.432,-3.285 6.133,-5.441 1.425,-1.802 2.429,-4.319 0.774,-6.328 z"
   id="path12" />
	<path
   style="opacity:0.5;fill:#f2c4b3"
   d="m 82.851,8.239 c 0.759,1.247 1.396,2.568 1.863,3.951 1.547,4.582 2.098,9.412 2.402,14.209 0.269,4.241 0.409,8.494 0.596,12.739 0.397,9.022 0.622,18.05 1.082,27.069 0.409,8.021 0.912,16.093 2.082,24.045 0.535,3.634 1.152,7.264 2.148,10.804 0.56,1.99 1.225,3.986 2.223,5.803 0.707,1.287 1.696,2.764 3.176,3.226 1.703,0.531 3.524,-0.628 4.385,-2.048 1.464,-2.414 1.595,-5.551 1.76,-8.295 0.116,-1.946 0.307,-3.888 0.421,-5.835 0.132,-2.263 0.221,-4.529 0.275,-6.795 0.108,-4.506 0.046,-9.009 0.295,-13.511 0.251,-4.539 0.664,-9.068 0.979,-13.603 0.314,-4.532 0.436,-9.048 0.402,-13.591 -0.013,-1.771 -0.05,-3.541 -0.107,-5.311 -0.154,1.28 -0.307,2.56 -0.454,3.841 -0.516,4.502 -1.052,9.002 -1.557,13.505 -0.509,4.536 -0.873,9.086 -1.286,13.631 -0.785,8.635 -1.324,17.294 -1.459,25.963 -0.021,1.348 -0.061,2.695 -0.126,4.042 -0.1,2.065 -0.166,4.219 -0.617,6.243 -0.068,0.307 -0.152,0.623 -0.298,0.901 -0.002,0.001 -0.004,0.002 -0.006,0.003 -0.251,-0.035 -0.533,0.208 -0.565,0.435 -1.258,-0.667 -1.711,-3.23 -1.925,-4.296 -0.407,-2.03 -0.549,-4.098 -0.754,-6.155 C 96.937,90.677 96.209,82.135 95.404,73.599 94.592,64.99 93.59,56.401 92.809,47.789 92.052,39.44 91.55,31.068 90.492,22.748 90.076,19.477 89.687,16.197 88.791,13.014 88.362,11.491 87.814,9.999 87.086,8.592 86.408,7.282 85.555,5.908 84.32,5.057 82.859,4.05 81.173,4.039 79.614,4.57 c 1.443,0.816 2.544,2.532 3.237,3.669 z"
   id="path13" />
	<path
   style="opacity:0.5;fill:#f2c4b3"
   d="m 73.266,64.077 c 0.424,8.716 0.708,17.437 1.105,26.154 0.097,2.126 0.17,4.256 0.348,6.377 0.175,2.085 0.416,4.165 0.511,6.257 0.081,1.773 0.058,3.562 0.066,5.328 0.004,0.721 -0.048,1.44 -0.152,2.153 -0.06,0.407 -0.145,0.925 -0.326,1.375 0.728,-1.012 1.243,-2.231 1.588,-3.304 1.206,-3.754 1.078,-7.926 0.924,-11.819 C 76.995,88.123 76.716,79.637 76.246,71.168 75.764,62.489 75.135,53.817 74.348,45.161 73.98,41.118 73.573,37.079 73.157,33.041 72.762,29.21 72.399,25.37 72.318,21.517 c -0.011,-0.505 -0.015,-1.01 -0.014,-1.515 -0.152,1.808 -0.317,3.614 -0.416,5.425 -0.233,4.284 -0.055,8.526 0.09,12.807 0.295,8.618 0.869,17.229 1.288,25.843 z"
   id="path14" />
	<path
   style="opacity:0.5;fill:#f2c4b3"
   d="m 43.359,24.675 c 2.262,2.15 3.671,5.001 4.718,7.903 1.2,3.326 1.902,6.812 2.48,10.292 0.572,3.446 1.064,6.907 1.618,10.356 1.273,7.931 2.28,15.904 3.668,23.817 1.393,7.938 3.178,15.837 5.966,23.412 1.04,2.827 2.174,5.699 3.602,8.357 1.178,2.193 3.064,5.106 5.897,5.032 1.253,-0.033 2.251,-0.652 3.041,-1.533 -0.071,0.026 -0.141,0.066 -0.202,0.134 -0.93,1.03 -2.21,-0.787 -2.711,-1.572 -1.263,-1.979 -2.078,-4.207 -2.845,-6.412 C 66.864,99.496 65.355,94.562 64.268,89.405 63.3,84.813 62.535,80.181 61.631,75.576 60.698,70.823 59.648,66.09 58.583,61.365 57.523,56.661 56.45,51.959 55.283,47.281 54.165,42.799 53.278,38.232 51.862,33.829 51.19,31.741 50.342,29.71 49.289,27.786 c -0.746,-1.363 -1.616,-2.677 -2.786,-3.705 -1.511,-1.328 -3.492,-1.866 -5.397,-1.626 0.05,-0.076 0.033,-0.19 -0.092,-0.162 -0.347,0.077 -0.685,0.169 -1.014,0.278 1.28,0.338 2.418,1.21 3.359,2.104 z"
   id="path15" />
	<path
   style="opacity:0.5;fill:#f2c4b3"
   d="m 14.987,51.091 c 2.16,2.474 3.471,5.639 4.546,8.704 1.342,3.827 2.22,7.792 3.135,11.737 0.841,3.627 1.877,7.189 2.837,10.785 1.738,6.512 3.241,13.094 5.41,19.482 2.138,6.297 4.945,12.578 9.426,17.577 0.849,0.947 1.685,1.915 2.678,2.717 0.949,0.767 2.37,1.635 3.535,0.794 0.895,-0.646 1.03,-2.002 1.103,-3.059 0.083,-1.199 0.087,-2.402 0.017,-3.602 -0.228,-3.913 -0.697,-7.782 -1.424,-11.631 -0.799,-4.233 -1.779,-8.43 -2.54,-12.67 C 42.947,87.67 42.347,83.389 41.712,79.114 41.08,74.861 40.361,70.624 39.62,66.389 38.866,62.08 38.099,57.772 37.371,53.458 36.757,49.821 36.255,46.162 35.609,42.532 c -0.792,-4.444 -1.454,-8.954 -1.42,-13.478 0,-0.078 0.003,-0.157 0.004,-0.235 -0.578,1.443 -0.945,2.972 -1.151,4.514 -0.437,3.281 -0.077,6.701 0.274,9.974 0.412,3.84 1.052,7.651 1.653,11.464 1.375,8.724 2.847,17.412 4.593,26.076 1.355,6.722 2.704,13.446 3.91,20.197 0.803,4.497 1.787,8.974 2.51,13.485 0.163,1.017 0.316,2.037 0.465,3.057 0.114,0.784 0.29,1.617 0.181,2.411 -0.043,0.313 -0.122,0.629 -0.22,0.938 0.055,0.026 0.105,0.063 0.141,0.118 0.09,0.14 0.032,0.352 -0.113,0.431 -0.167,0.09 -0.35,0.143 -0.536,0.155 -0.02,-0.065 -0.044,-0.13 -0.063,-0.195 -0.546,-0.27 -1.07,-0.861 -1.351,-1.184 C 42.632,118.124 41.66,115.422 40.6,112.846 34.363,97.68 28.5,82.245 23.817,66.518 22.235,61.204 20.939,54.87 16.855,50.82 c -1.408,-1.397 -3.206,-2.176 -5.044,-2.357 1.171,0.719 2.253,1.571 3.176,2.628 z"
   id="path16" />
	<path
   style="opacity:0.5;fill:#f2c4b3"
   d="m 112.8,22.548 c 1.796,-0.483 3.704,0.244 4.981,1.538 2.565,2.601 2.676,6.799 2.988,10.21 1.081,11.844 -0.717,23.66 -1.576,35.456 -0.864,11.874 -0.06,23.76 0.498,35.629 0.555,11.813 0.895,23.694 -0.693,35.447 -0.551,4.083 -2.753,7.367 -5.381,10.43 -2.452,2.858 -5.128,5.624 -6.63,9.11 1.691,-1.484 3.493,-2.841 5.315,-4.159 4.402,-3.185 8.975,-6.193 12.904,-9.975 10e-4,-0.002 10e-4,-0.004 0.002,-0.006 -0.282,-1.61 -0.445,-3.225 -0.542,-4.876 -0.13,-2.218 -0.264,-4.437 -0.373,-6.657 -0.217,-4.417 -0.433,-8.836 -0.535,-13.257 -0.21,-9.106 0.008,-18.22 0.369,-27.319 0.182,-4.572 0.357,-9.138 0.438,-13.712 0.08,-4.532 0.208,-9.063 0.489,-13.587 0.281,-4.53 0.724,-9.045 0.914,-13.582 0.19,-4.517 0.228,-9.049 -0.025,-13.564 -0.288,-5.144 -0.659,-11.02 -3.852,-15.324 -1.304,-1.757 -3.014,-2.953 -5.277,-2.908 -1.368,0.027 -2.61,0.473 -3.851,1.008 -0.12,0.052 -0.234,0.107 -0.349,0.162 0.063,-0.019 0.122,-0.047 0.186,-0.064 z"
   id="path17" />
</g>
</svg>
