<?xml version="1.0" encoding="utf-8"?>
<!-- Generator: Adobe Illustrator 27.5.0, SVG Export Plug-In . SVG Version: 6.00 Build 0)  -->
<svg version="1.1" id="Layer_1" xmlns="http://www.w3.org/2000/svg" xmlns:xlink="http://www.w3.org/1999/xlink" x="0px" y="0px"
	 viewBox="0 0 450 450" style="enable-background:new 0 0 450 450;" xml:space="preserve">
<rect style="fill:#FFFFFF;" width="450" height="450"/>
<g>
	<path style="fill:#E09530;" d="M39.648,78.889c-0.249,0-0.465-0.187-0.496-0.44c-0.032-0.274,0.163-0.523,0.438-0.556
		c0.29-0.035,29.182-3.619,39.675-14.766c0.19-0.201,0.505-0.211,0.707-0.021c0.201,0.189,0.21,0.506,0.022,0.707
		C69.251,75.224,40.91,78.741,39.709,78.886C39.688,78.888,39.668,78.889,39.648,78.889z"/>
	<path style="fill:#8DAEB3;" d="M110.921,62.68l-9.951-6.908v-3.393c0-0.233-0.055-0.464-0.159-0.672L95.713,41.54
		c-0.254-0.507-0.773-0.828-1.341-0.828c-0.567,0-1.086,0.32-1.341,0.828l-5.097,10.167c-0.104,0.209-0.159,0.439-0.159,0.672v3.393
		l-9.952,6.908c-0.359,0.249-0.515,0.703-0.384,1.12c0.13,0.417,0.517,0.701,0.954,0.701h9.382v3.496L79.77,86.726
		c-0.325,0.762,0.028,1.643,0.79,1.969c0.759,0.325,1.643-0.027,1.969-0.79l0.928-2.169l10.915-6.688l10.915,6.688l0.927,2.169
		c0.244,0.57,0.798,0.911,1.38,0.911c0.197,0,0.396-0.039,0.589-0.121c0.762-0.326,1.116-1.207,0.79-1.969l-8.003-18.729v-3.496
		h9.381c0.438,0,0.824-0.284,0.954-0.701C111.435,63.383,111.28,62.929,110.921,62.68z M97.631,66.163l-3.259,2.046l-3.259-2.046
		l2.59-1.662h1.338L97.631,66.163z M90.655,68.894c0.079-0.186,0.12-0.387,0.12-0.589v-0.582l2.187,1.372l-3.271,2.053
		L90.655,68.894z M88.657,73.567l5.715-3.588l5.716,3.588l0.074,0.173l-5.79,3.547l-5.789-3.547L88.657,73.567z M98.09,68.894
		l0.964,2.254l-3.271-2.054l2.188-1.373v0.583C97.97,68.507,98.011,68.707,98.09,68.894z M92.769,56.948l0.243,0.161l-2.237,1.481
		v-1.642H92.769z M94.372,58.008l3.285,2.174l-3.285,2.108l-3.285-2.108L94.372,58.008z M95.731,57.109l0.243-0.161h1.995v1.643
		L95.731,57.109z M97.832,53.92l-1.554,1.028h-3.813l-1.554-1.028l3.46-3.298L97.832,53.92z M95.459,49.586l0.631-0.601l1.155,2.304
		L95.459,49.586z M91.501,51.287l1.153-2.302l0.631,0.601L91.501,51.287z M90.775,61.765l1.148,0.737h-1.148V61.765z M97.97,61.764
		v0.738H96.82L97.97,61.764z M95.387,47.583l-1.015,0.967l-1.015-0.967l1.015-2.024L95.387,47.583z M81.588,62.501l6.188-4.295
		v4.295H81.588z M90.926,64.502l-0.15,0.096v-0.096H90.926z M84.476,83.352l3.512-8.216l4.949,3.032L84.476,83.352z M95.808,78.168
		l4.95-3.032l3.511,8.216L95.808,78.168z M97.97,64.598l-0.151-0.097h0.151V64.598z M100.97,62.501v-4.295l6.187,4.295H100.97z"/>
	<path style="opacity:0.1;" d="M94.372,77.288L94.372,77.288l-5.789-3.546l0.074-0.174l5.715-3.588v0.001v-1.771v0l-3.259-2.046
		l2.59-1.662h0.669V62.29v0l-3.285-2.108l3.285-2.174v0v-3.061h-1.906l-1.554-1.028l3.46-3.298v0v-2.073v0l-1.015-0.967l1.015-2.024
		v-4.847c-0.567,0-1.086,0.32-1.341,0.828l-5.097,10.167c-0.104,0.209-0.159,0.439-0.159,0.672v3.393l-9.952,6.908
		c-0.359,0.249-0.515,0.703-0.384,1.12c0.13,0.417,0.517,0.701,0.954,0.701h9.382v3.496L79.77,86.726
		c-0.325,0.762,0.028,1.643,0.79,1.969c0.759,0.325,1.643-0.027,1.969-0.79l0.928-2.169l10.915-6.688v0V77.288z M92.654,48.985
		l0.631,0.601l-1.784,1.701L92.654,48.985z M90.775,56.948h1.994l0.243,0.161l-2.237,1.481V56.948z M90.775,61.765l1.148,0.737
		h-1.148V61.765z M90.775,64.502h0.15l-0.15,0.096V64.502z M90.655,68.894c0.079-0.186,0.12-0.387,0.12-0.589v-0.582l2.187,1.372
		l-3.271,2.053L90.655,68.894z M81.588,62.501l6.188-4.295v4.295H81.588z M84.476,83.352l3.512-8.216l4.949,3.032L84.476,83.352z"/>
	<path style="fill:#FAA636;" d="M82.051,78.889c-0.234,0-0.443-0.166-0.49-0.404c-0.053-0.271,0.124-0.534,0.396-0.587
		c0.179-0.035,16.992-3.614,27.495-14.772c0.19-0.201,0.506-0.211,0.707-0.021c0.201,0.189,0.21,0.506,0.021,0.707
		C99.452,75.208,82.329,78.845,82.147,78.88C82.115,78.886,82.083,78.889,82.051,78.889z"/>
	<path style="fill:#8C8C8C;" d="M82.622,77.568L69.113,68.19v-4.559c0-0.233-0.055-0.463-0.159-0.672L62.191,49.47
		c-0.254-0.507-0.773-0.828-1.341-0.828c-0.567,0-1.086,0.32-1.341,0.828l-6.763,13.489c-0.104,0.209-0.159,0.439-0.159,0.672v4.56
		l-13.509,9.377c-0.359,0.249-0.515,0.703-0.384,1.12c0.13,0.417,0.517,0.701,0.954,0.701h12.938v5.065l-10.66,24.942
		c-0.325,0.762,0.028,1.643,0.79,1.969c0.192,0.082,0.393,0.121,0.589,0.121c0.582,0,1.137-0.341,1.38-0.911l1.126-2.633
		l15.038-9.213l15.038,9.213l1.125,2.633c0.326,0.762,1.208,1.115,1.969,0.79c0.762-0.326,1.116-1.207,0.79-1.969L69.113,84.454
		v-5.065h12.938c0.437,0,0.823-0.284,0.954-0.701C83.137,78.271,82.98,77.817,82.622,77.568z M55.468,85.351
		c0.079-0.186,0.12-0.387,0.12-0.589v-1.37l3.853,2.419l-5.698,3.577L55.468,85.351z M52.708,91.807l8.143-5.112l8.144,5.113
		l0.058,0.137l-8.201,5.025l-8.201-5.024L52.708,91.807z M66.234,85.351l1.725,4.037l-5.698-3.578l3.853-2.419v1.371
		C66.113,84.964,66.154,85.165,66.234,85.351z M60.851,84.924l-4.781-3.001l3.948-2.533h1.665l3.948,2.533L60.851,84.924z
		 M66.113,67.367h-0.066l0.066-0.044V67.367z M59.492,69.907l-3.904,2.584v-3.124h3.088L59.492,69.907z M60.851,70.806l4.808,3.182
		l-4.808,3.085l-4.808-3.085L60.851,70.806z M62.209,69.907l0.816-0.54h3.088v3.125L62.209,69.907z M65.832,65.71l-2.502,1.656
		h-4.959l-2.503-1.656l4.982-4.749L65.832,65.71z M61.937,59.926l1.448-1.38l2.651,5.288L61.937,59.926z M55.666,63.832l2.649-5.286
		l1.448,1.38L55.666,63.832z M55.654,67.367h-0.066v-0.044L55.654,67.367z M55.588,75.479l2.978,1.911h-2.978V75.479z
		 M66.113,75.478v1.911h-2.978L66.113,75.478z M60.851,53.489l1.832,3.654l-1.832,1.746l-1.832-1.746L60.851,53.489z M42.844,77.389
		l9.744-6.764v6.764H42.844z M57.24,79.389l-1.652,1.06v-1.06H57.24z M46.831,105.559l5.223-12.22l7.361,4.51L46.831,105.559z
		 M62.286,97.849l7.361-4.51l5.223,12.221L62.286,97.849z M66.113,80.45l-1.652-1.061h1.652V80.45z M69.113,77.389v-6.764
		l9.744,6.764H69.113z"/>
	<path style="opacity:0.1;" d="M52.649,91.945l0.059-0.138l8.143-5.112v-1.771l-4.781-3.001l3.948-2.533h0.833v-2.316l-4.808-3.085
		l4.808-3.182v-3.439h-2.479l-2.503-1.656l4.982-4.749V58.89l-1.832-1.746l1.832-3.654v-4.848c-0.567,0-1.086,0.32-1.341,0.828
		l-6.763,13.489c-0.104,0.209-0.159,0.439-0.159,0.672v4.56l-13.509,9.377c-0.359,0.249-0.515,0.703-0.384,1.12
		c0.13,0.417,0.517,0.701,0.954,0.701h12.938v5.065l-10.66,24.942c-0.325,0.762,0.028,1.643,0.79,1.969
		c0.192,0.082,0.393,0.121,0.589,0.121c0.582,0,1.137-0.341,1.38-0.911l1.126-2.633l15.038-9.213v-1.759L52.649,91.945z
		 M58.315,58.546l1.448,1.38l-4.098,3.906L58.315,58.546z M55.588,67.323l0.066,0.044h-0.066V67.323z M55.588,69.367h3.088
		l0.816,0.54l-3.904,2.584V69.367z M55.588,75.479l2.978,1.911h-2.978V75.479z M55.588,79.389h1.652l-1.652,1.06V79.389z
		 M55.468,85.351c0.079-0.186,0.12-0.387,0.12-0.589v-1.37l3.853,2.419l-5.698,3.577L55.468,85.351z M42.844,77.389l9.744-6.764
		v6.764H42.844z M46.831,105.559l5.223-12.22l7.361,4.51L46.831,105.559z"/>
</g>
<g>
	<g>
		<g>
			<polygon style="fill:#BFBFBF;" points="196.182,81.26 196.182,76.313 154.646,76.313 154.646,81.26 148.771,81.26 
				148.771,115.966 202.055,115.966 202.055,81.26 			"/>
			<rect x="161.287" y="52.087" style="fill:#D9D9D9;" width="9.401" height="24.227"/>
			<rect x="161.287" y="60.793" style="fill:#E67171;" width="9.401" height="4.353"/>
			<rect x="161.287" y="69.499" style="fill:#E67171;" width="9.401" height="4.353"/>
			<path style="fill:#E67171;" d="M170.688,52.087c0-0.202-2.104-0.365-4.7-0.365c-2.596,0-4.701,0.164-4.701,0.365h0.001h-0.001
				v4.353h9.401V52.087h-0.001H170.688z"/>
			<rect x="180.139" y="52.087" style="fill:#D9D9D9;" width="9.399" height="24.227"/>
			<rect x="180.139" y="60.793" style="fill:#E67171;" width="9.399" height="4.353"/>
			<rect x="180.139" y="69.499" style="fill:#E67171;" width="9.399" height="4.353"/>
			<path style="fill:#E67171;" d="M189.538,52.087c0-0.202-2.104-0.365-4.7-0.365c-2.596,0-4.699,0.164-4.699,0.365l0,0l0,0v4.353
				h9.399V52.087L189.538,52.087L189.538,52.087z"/>
			<g>
				<rect x="170.931" y="96.899" style="fill:#8DAEB3;" width="8.966" height="7.938"/>
				<rect x="180.808" y="96.899" style="fill:#8DAEB3;" width="8.966" height="7.938"/>
				<rect x="161.054" y="84.198" style="fill:#8DAEB3;" width="8.966" height="7.938"/>
				<rect x="170.931" y="84.198" style="fill:#8DAEB3;" width="8.966" height="7.938"/>
				<rect x="161.054" y="96.899" style="fill:#8DAEB3;" width="8.966" height="7.938"/>
				<rect x="190.685" y="84.198" style="fill:#8DAEB3;" width="8.83" height="7.938"/>
				<rect x="180.808" y="84.198" style="fill:#8DAEB3;" width="8.966" height="7.938"/>
				<rect x="190.685" y="96.899" style="fill:#8DAEB3;" width="8.83" height="7.938"/>
				<rect x="151.41" y="84.198" style="fill:#8DAEB3;" width="8.732" height="7.938"/>
				<rect x="151.41" y="96.899" style="fill:#8DAEB3;" width="8.732" height="7.938"/>
			</g>
		</g>
		<path style="fill:#A6A6A6;" d="M165.036,49.965c2.355,0,4.265-1.439,4.265-3.215c0-1.1-0.734-2.07-1.853-2.65
			c0.001-0.023,0.005-0.046,0.005-0.07c0-2.086-1.965-3.826-4.577-4.227c-0.807-1.83-3.091-3.151-5.79-3.151
			c-3.369,0-6.102,2.059-6.102,4.6c0,2.4,2.439,4.368,5.551,4.579c0.852,1.394,2.657,2.386,4.789,2.498
			C162.055,49.305,163.442,49.965,165.036,49.965z"/>
		<path style="fill:#A6A6A6;" d="M184.79,49.965c2.355,0,4.265-1.439,4.265-3.215c0-1.1-0.734-2.07-1.854-2.65
			c0.001-0.023,0.005-0.046,0.005-0.07c0-2.086-1.965-3.826-4.577-4.227c-0.806-1.83-3.091-3.151-5.789-3.151
			c-3.37,0-6.102,2.059-6.102,4.6c0,2.4,2.439,4.368,5.551,4.579c0.852,1.394,2.657,2.386,4.789,2.498
			C181.809,49.305,183.196,49.965,184.79,49.965z"/>
	</g>
	<g style="opacity:0.1;">
		<path d="M175.414,76.313h-4.725v-2.462v-4.353v-4.353v-4.353V56.44v-4.353c0-0.202-2.104-0.365-4.7-0.365
			c-2.596,0-4.701,0.164-4.701,0.365v4.353v4.353v4.353v4.353v4.353v2.462h-6.641v4.947h-5.875v34.705h26.642V76.313z"/>
		<path d="M162.875,39.803c-0.807-1.83-3.091-3.151-5.79-3.151c-3.369,0-6.102,2.059-6.102,4.6c0,2.4,2.439,4.368,5.551,4.579
			c0.852,1.394,2.657,2.386,4.789,2.498c0.731,0.977,2.119,1.637,3.713,1.637c2.355,0,4.265-1.439,4.265-3.215
			c0-1.1-0.734-2.07-1.853-2.65c0.001-0.023,0.005-0.046,0.005-0.07C167.452,41.943,165.487,40.203,162.875,39.803z"/>
	</g>
</g>
<g>
	<polygon style="fill:#BFBFBF;" points="275.34,64.146 279.779,115.966 268.353,115.966 272.793,64.146 	"/>
	<path style="fill:#AED24A;" d="M272.377,32.985l-1.254-0.529c-0.162-0.068-0.412-0.043-0.557,0.056l-1.127,0.766
		c-0.146,0.099-0.26,0.322-0.256,0.497l0.697,29.299l4.121,1.19l3.807-1.978l-5.082-28.863
		C272.695,33.249,272.539,33.053,272.377,32.985z"/>
	<path style="fill:#AED24A;" d="M270.387,61.955l-22.455,18.833c-0.135,0.113-0.226,0.346-0.205,0.52l0.17,1.352
		c0.022,0.175,0.168,0.378,0.324,0.454l1.229,0.593c0.158,0.076,0.408,0.065,0.559-0.028l25.025-15.252l-1.031-4.165L270.387,61.955
		z"/>
	<path style="fill:#AED24A;" d="M274.002,64.263l-0.192,4.286l27.539,10.03c0.164,0.061,0.412,0.023,0.553-0.082l1.086-0.824
		c0.141-0.106,0.242-0.334,0.23-0.509l-0.1-1.359c-0.014-0.175-0.148-0.385-0.305-0.469l-25.721-14.047L274.002,64.263z"/>
	<polygon style="opacity:0.1;" points="273.81,64.146 272.793,64.146 268.353,115.966 273.81,115.966 	"/>
	<g>
		<path style="fill:#8C8C8C;" d="M268.732,64.787c-0.289-2.91,1.836-5.503,4.746-5.792c2.91-0.289,5.504,1.836,5.793,4.745
			c0.289,2.91-1.836,5.503-4.746,5.792C271.615,69.821,269.023,67.697,268.732,64.787z"/>
		<path style="fill:#BFBFBF;" d="M270.834,64.578c-0.174-1.749,1.103-3.309,2.853-3.482c1.748-0.174,3.309,1.103,3.482,2.853
			c0.174,1.749-1.104,3.308-2.854,3.482C272.568,67.604,271.01,66.327,270.834,64.578z"/>
	</g>
	<path style="opacity:0.1;" d="M273.81,58.995c-0.111,0.004-0.219-0.012-0.332,0c-2.91,0.29-5.035,2.883-4.746,5.792
		c0.266,2.668,2.473,4.651,5.078,4.744V58.995z"/>
</g>
<g>
	<g>
		<g style="enable-background:new    ;">
			<g>
				<path style="fill:#BFBFBF;" d="M363.611,112.752c-0.122-0.006-0.234-0.041-0.333-0.098c-0.1-0.057-0.185-0.136-0.253-0.232
					c-0.067-0.096-0.118-0.209-0.147-0.332c-0.028-0.123-0.036-0.258-0.018-0.397l0.933-7.109l9.233,0.212l-0.943,8.389
					L363.611,112.752L363.611,112.752z M373.974,113.281l0.917-8.443l10.44,0.24l-0.766,8.744L373.974,113.281L373.974,113.281z
					 M386.617,113.927l0.734-8.803l10.23,0.234l-0.57,9.099L386.617,113.927L386.617,113.927z M399.23,114.571l0.534-9.162
					l13.11,0.301l-0.266,8.349c-0.005,0.164-0.043,0.319-0.108,0.459c-0.065,0.14-0.156,0.264-0.268,0.367
					c-0.111,0.103-0.243,0.184-0.388,0.237c-0.145,0.053-0.304,0.079-0.47,0.07L399.23,114.571L399.23,114.571z M364.051,102.624
					l1.222-9.319l9.063-0.143l-1.081,9.611L364.051,102.624L364.051,102.624z M375.112,102.804l1.051-9.67l10.228-0.162l-0.875,10
					L375.112,102.804L375.112,102.804z M387.528,103.005l0.839-10.064l10.004-0.158l-0.651,10.387L387.528,103.005L387.528,103.005z
					 M399.893,103.205l0.61-10.456l12.791-0.202l-0.346,10.869L399.893,103.205L399.893,103.205z M365.519,91.435l0.858-6.55
					c0.017-0.124,0.056-0.245,0.113-0.355c0.057-0.11,0.131-0.211,0.218-0.296c0.087-0.086,0.186-0.156,0.294-0.207
					c0.106-0.051,0.221-0.081,0.338-0.087l8.075-0.384l-0.863,7.679L365.519,91.435L365.519,91.435z M376.374,91.194l0.839-7.723
					l10.051-0.478l-0.698,7.975L376.374,91.194L376.374,91.194z M388.535,90.924l0.67-8.023l9.814-0.466l-0.518,8.269
					L388.535,90.924L388.535,90.924z M400.625,90.656l0.484-8.321l11.408-0.542c0.155-0.007,0.302,0.015,0.434,0.061
					c0.133,0.047,0.251,0.117,0.349,0.207c0.099,0.09,0.177,0.199,0.23,0.321c0.053,0.123,0.079,0.259,0.075,0.403l-0.241,7.588
					L400.625,90.656L400.625,90.656z M412.588,79.723l-45.015,2.413c-0.349,0.019-0.689,0.111-1.007,0.263
					c-0.318,0.151-0.613,0.362-0.872,0.617c-0.258,0.255-0.479,0.554-0.648,0.882c-0.17,0.328-0.287,0.687-0.337,1.061
					l-3.589,26.651c-0.057,0.416-0.037,0.816,0.046,1.185c0.084,0.369,0.232,0.707,0.432,0.994c0.201,0.289,0.455,0.528,0.75,0.701
					c0.296,0.173,0.633,0.279,1,0.301l47.947,2.787c0.499,0.029,0.98-0.044,1.422-0.202c0.442-0.158,0.845-0.4,1.186-0.709
					c0.342-0.309,0.622-0.684,0.821-1.105c0.198-0.422,0.315-0.891,0.327-1.387l0.849-31.491c0.012-0.438-0.073-0.849-0.237-1.217
					c-0.164-0.368-0.406-0.693-0.708-0.96c-0.301-0.266-0.661-0.475-1.063-0.611C413.493,79.761,413.052,79.698,412.588,79.723
					L412.588,79.723z"/>
				<polygon style="fill:#B3DCE3;" points="387.264,82.993 377.213,83.471 376.374,91.194 386.565,90.968 387.264,82.993 				"/>
				<polygon style="fill:#B3DCE3;" points="374.336,93.162 365.272,93.305 364.051,102.624 373.255,102.773 374.336,93.162 				"/>
				<polygon style="fill:#B3DCE3;" points="399.019,82.435 389.205,82.901 388.535,90.924 398.501,90.703 399.019,82.435 				"/>
				<polygon style="fill:#B3DCE3;" points="386.391,92.972 376.163,93.133 375.112,102.804 385.516,102.972 386.391,92.972 				"/>
				<path style="fill:#B3DCE3;" d="M412.518,81.794l-11.408,0.542l-0.484,8.321l12.738-0.282l0.241-7.588
					c0.004-0.144-0.022-0.28-0.075-0.403c-0.053-0.122-0.131-0.231-0.23-0.321c-0.098-0.09-0.216-0.16-0.349-0.207
					C412.819,81.808,412.673,81.786,412.518,81.794L412.518,81.794z"/>
				<polygon style="fill:#B3DCE3;" points="385.331,105.078 374.891,104.838 373.974,113.281 384.565,113.822 385.331,105.078 				
					"/>
				<path style="fill:#B3DCE3;" d="M375.415,83.556l-8.075,0.384c-0.117,0.006-0.231,0.036-0.338,0.087
					c-0.108,0.051-0.207,0.121-0.294,0.207c-0.087,0.085-0.161,0.186-0.218,0.296c-0.058,0.11-0.097,0.231-0.113,0.355l-0.858,6.55
					l9.033-0.2L375.415,83.556L375.415,83.556z"/>
				<path style="fill:#B3DCE3;" d="M412.875,105.71l-13.11-0.301l-0.534,9.162l12.146,0.62c0.166,0.008,0.324-0.017,0.47-0.07
					c0.145-0.053,0.276-0.134,0.388-0.237c0.111-0.103,0.203-0.227,0.268-0.367c0.065-0.14,0.103-0.294,0.108-0.459L412.875,105.71
					L412.875,105.71z"/>
				<path style="fill:#B3DCE3;" d="M373.027,104.795l-9.233-0.212l-0.933,7.109c-0.019,0.139-0.011,0.273,0.018,0.397
					c0.028,0.123,0.079,0.236,0.147,0.332c0.068,0.096,0.153,0.176,0.253,0.232c0.099,0.057,0.211,0.092,0.333,0.098l8.473,0.433
					L373.027,104.795L373.027,104.795z"/>
				<polygon style="fill:#B3DCE3;" points="397.582,105.358 387.352,105.124 386.617,113.927 397.012,114.457 397.582,105.358 				
					"/>
				<polygon style="fill:#B3DCE3;" points="413.294,92.547 400.503,92.749 399.893,103.205 412.948,103.416 413.294,92.547 				"/>
				<polygon style="fill:#B3DCE3;" points="398.371,92.783 388.367,92.941 387.528,103.005 397.72,103.169 398.371,92.783 				"/>
			</g>
		</g>
	</g>
	<path style="opacity:0.1;" d="M388.535,81.012l-20.962,1.124c-0.349,0.019-0.689,0.111-1.007,0.263
		c-0.318,0.151-0.613,0.362-0.872,0.617c-0.258,0.255-0.479,0.554-0.648,0.882c-0.17,0.328-0.287,0.687-0.337,1.061l-3.589,26.651
		c-0.057,0.416-0.037,0.816,0.046,1.185c0.084,0.369,0.232,0.707,0.432,0.994c0.201,0.289,0.455,0.528,0.75,0.701
		c0.296,0.173,0.633,0.279,1,0.301l25.188,1.464V81.012z"/>
	<g>
		<polygon style="fill:#FAA636;" points="360.568,64.513 364.762,54.123 365.537,65.3 370.91,60.295 370.021,67.584 379.519,61.642 
			373.578,71.142 380.867,70.252 375.863,75.624 387.041,76.401 376.648,80.593 383.07,84.157 375.863,85.563 384.449,92.761 
			373.578,90.046 376.678,96.702 370.021,93.603 372.736,104.473 365.537,95.887 364.133,103.094 360.568,96.674 356.377,107.065 
			355.6,95.887 350.227,100.891 351.117,93.603 341.617,99.544 347.559,90.046 340.271,90.936 345.277,85.563 334.098,84.786 
			344.488,80.593 338.068,77.03 345.277,75.624 336.689,68.426 347.559,71.142 344.461,64.485 351.117,67.584 348.402,56.714 
			355.6,65.3 357.004,58.094 		"/>
		<path style="fill:#FAD936;" d="M375.195,80.593c0,8.079-6.549,14.627-14.627,14.627c-8.078,0-14.625-6.548-14.625-14.627
			c0-8.077,6.547-14.626,14.625-14.626C368.646,65.967,375.195,72.516,375.195,80.593z"/>
	</g>
	<polygon style="opacity:0.1;" points="360.569,64.51 360.568,64.513 357.004,58.094 355.6,65.3 348.402,56.714 351.117,67.584 
		344.461,64.485 347.559,71.142 336.689,68.426 345.277,75.624 338.068,77.03 344.488,80.593 334.098,84.786 345.277,85.563 
		340.271,90.936 347.559,90.046 341.617,99.544 351.117,93.603 350.227,100.891 355.6,95.887 356.377,107.065 360.568,96.674 
		360.569,96.676 	"/>
</g>
<g>
	<g>
		<circle style="fill:#FAD936;" cx="75.232" cy="176.574" r="29.263"/>
		<g>
			<path style="fill:#8C8C8C;" d="M83.402,176.574h16.683c0-9.2-5-17.233-12.429-21.525l-8.344,14.455
				C81.755,170.916,83.402,173.55,83.402,176.574z"/>
			<path style="fill:#8C8C8C;" d="M75.232,184.744c-1.489,0-2.881-0.404-4.083-1.1l-8.352,14.46
				c3.66,2.113,7.908,3.328,12.435,3.328c4.526,0,8.774-1.215,12.43-3.328l-8.349-14.46
				C78.112,184.34,76.721,184.744,75.232,184.744z"/>
			<path style="fill:#8C8C8C;" d="M71.15,169.504l-8.348-14.455c-7.429,4.292-12.429,12.325-12.429,21.525h16.688
				C67.062,173.551,68.709,170.917,71.15,169.504z"/>
			<path style="fill:#8C8C8C;" d="M75.232,182.021c3.008,0,5.447-2.439,5.447-5.447c0-3.009-2.439-5.447-5.447-5.447
				s-5.446,2.438-5.446,5.447C69.786,179.582,72.225,182.021,75.232,182.021z"/>
		</g>
	</g>
	<path style="opacity:0.1;" d="M45.97,176.574c0,16.161,13.102,29.263,29.263,29.263v-58.525
		C59.071,147.311,45.97,160.413,45.97,176.574z"/>
</g>
<g>
	<g>
		<path style="fill:#737373;" d="M197.32,171.779v-4.216c0-0.957-0.776-1.732-1.732-1.732h-40.35c-0.957,0-1.732,0.775-1.732,1.732
			v4.216H197.32z"/>
		<path style="fill:#E67171;" d="M165.359,165.831v-5.91c0.463,0.079,0.926,0.148,1.389,0.217c0.963,0.122,1.925,0.239,2.888,0.31
			c0.963,0.096,1.926,0.129,2.889,0.181c0.962,0.049,1.925,0.062,2.888,0.068c0.963,0.005,1.926-0.013,2.888-0.043
			c0.963-0.062,1.926-0.082,2.889-0.178c0.963-0.074,1.925-0.187,2.888-0.314c0.463-0.073,0.926-0.145,1.389-0.226v5.895h3v-7.709
			c0-0.641-0.432-1.226-1.081-1.393l-0.419-0.107c-0.963-0.246-1.926-0.388-2.889-0.539c-0.963-0.127-1.925-0.24-2.888-0.313
			c-0.963-0.096-1.926-0.117-2.889-0.178c-0.962-0.031-1.925-0.049-2.888-0.043c-0.963,0.007-1.926,0.019-2.888,0.068
			c-0.963,0.052-1.926,0.085-2.889,0.181c-0.963,0.07-1.925,0.188-2.888,0.31c-0.963,0.143-1.926,0.285-2.889,0.515l-0.391,0.094
			c-0.636,0.151-1.109,0.724-1.109,1.406v7.709H165.359z"/>
		<path style="fill:#8C8C8C;" d="M204.973,204.137c0,0.938-0.762,1.7-1.7,1.7h-55.719c-0.939,0-1.7-0.762-1.7-1.7v-2.643
			c0-0.939,0.761-1.7,1.7-1.7h55.719c0.938,0,1.7,0.761,1.7,1.7V204.137z"/>
		<path style="fill:#7D7D7D;" d="M201.384,199.794v-25.961c0-1.134-0.92-2.054-2.054-2.054h-47.834c-1.134,0-2.054,0.92-2.054,2.054
			v25.961H201.384z"/>
		<g>
			<path style="fill:#CFCFCF;" d="M191.547,167.218h-1.385c-0.939,0-1.699,0.761-1.699,1.699v2.862h4.784v-2.862
				C193.247,167.979,192.486,167.218,191.547,167.218z"/>
			<path style="fill:#CFCFCF;" d="M160.664,167.218h-1.385c-0.939,0-1.7,0.761-1.7,1.699v2.862h4.784v-2.862
				C162.363,167.979,161.602,167.218,160.664,167.218z"/>
		</g>
		<path style="fill:#CFCFCF;" d="M193.009,176.775h-1.241v-1.24c0-0.505-0.408-0.914-0.913-0.914c-0.504,0-0.913,0.409-0.913,0.914
			v1.24h-1.24c-0.505,0-0.913,0.408-0.913,0.913c0,0.504,0.408,0.913,0.913,0.913h1.24v1.24c0,0.505,0.409,0.913,0.913,0.913
			c0.505,0,0.913-0.408,0.913-0.913v-1.24h1.241c0.504,0,0.913-0.409,0.913-0.913C193.922,177.184,193.513,176.775,193.009,176.775z
			"/>
		<path style="fill:#CFCFCF;" d="M163.038,177.689c0,0.504-0.408,0.913-0.913,0.913h-4.308c-0.504,0-0.913-0.409-0.913-0.913l0,0
			c0-0.505,0.409-0.913,0.913-0.913h4.308C162.63,176.775,163.038,177.184,163.038,177.689L163.038,177.689z"/>
	</g>
	<path style="opacity:0.1;" d="M175.414,165.831h-10.054v-5.91c0.463,0.079,0.926,0.148,1.389,0.217
		c0.963,0.122,1.925,0.239,2.888,0.31c0.963,0.096,1.926,0.129,2.889,0.181c0.962,0.049,1.925,0.062,2.888,0.068h0.001v-5.148
		h-0.001c-0.963,0.007-1.926,0.019-2.888,0.068c-0.963,0.052-1.926,0.085-2.889,0.181c-0.963,0.07-1.925,0.188-2.888,0.31
		c-0.963,0.143-1.926,0.285-2.889,0.515l-0.391,0.094c-0.636,0.151-1.109,0.724-1.109,1.406v7.709h-7.121
		c-0.957,0-1.732,0.775-1.732,1.732v4.216h-2.01c-1.134,0-2.054,0.92-2.054,2.054v25.961h-1.889c-0.939,0-1.7,0.761-1.7,1.7v2.643
		c0,0.938,0.761,1.7,1.7,1.7h27.86V165.831z"/>
</g>
<g>
	<g>
		<g>
			<g>
				<path style="fill:#FAD936;" d="M275.471,144.163c-10.654,0-19.291,8.638-19.289,19.291c0,3.471,0.916,6.726,2.522,9.538
					c2.326,4.077,6.15,8.798,6.74,11.954l1.064,5.716l17.928-0.001c0,0,0.479-2.56,1.067-5.716
					c0.588-3.156,4.412-7.877,6.738-11.954c1.604-2.813,2.522-6.067,2.522-9.538C294.762,152.8,286.125,144.162,275.471,144.163z"/>
			</g>
		</g>
		<path style="fill:#737373;" d="M279.395,204.137c0,0.938-0.76,1.7-1.699,1.7h-4.447c-0.939,0-1.701-0.762-1.701-1.7v-0.891
			c0-0.939,0.762-1.7,1.701-1.7h4.447c0.94,0,1.699,0.761,1.699,1.7V204.137z"/>
		<path style="fill:#8C8C8C;" d="M266.508,201.893c0,0.876,0.738,1.586,1.648,1.586h14.631c0.91,0,1.648-0.71,1.648-1.586v-11.231
			h-17.928V201.893z"/>
		<rect x="266.508" y="192.227" style="fill:#CFCFCF;" width="17.928" height="1.801"/>
		<rect x="266.508" y="196.169" style="fill:#CFCFCF;" width="17.928" height="1.802"/>
		<rect x="266.508" y="200.111" style="fill:#CFCFCF;" width="17.928" height="1.802"/>
		<g>
			<path style="fill:#8C8C8C;" d="M278.844,190.283c-0.006,0-0.012,0-0.016-0.001c-0.277-0.009-0.494-0.239-0.484-0.516
				c0.031-0.979,0.818-24.024,5.174-28.7c0.189-0.201,0.504-0.213,0.707-0.024c0.201,0.188,0.213,0.504,0.025,0.706
				c-4.104,4.403-4.9,27.816-4.906,28.051C279.334,190.069,279.111,190.283,278.844,190.283z"/>
			<path style="fill:#8C8C8C;" d="M272.1,190.283c-0.27,0-0.492-0.214-0.5-0.484c-0.008-0.235-0.805-23.647-4.906-28.051
				c-0.188-0.202-0.178-0.518,0.025-0.706c0.201-0.19,0.518-0.178,0.707,0.024c4.355,4.676,5.143,27.722,5.174,28.7
				c0.008,0.276-0.209,0.507-0.484,0.516C272.109,190.283,272.103,190.283,272.1,190.283z"/>
		</g>
		<path style="fill:#8C8C8C;" d="M283.883,162.749c-0.934,0-1.406-0.566-1.785-1.022c-0.35-0.422-0.57-0.66-1.014-0.66
			c-0.445,0-0.666,0.238-1.018,0.661c-0.379,0.455-0.85,1.021-1.785,1.021c-0.934,0-1.406-0.566-1.785-1.021
			c-0.352-0.423-0.572-0.661-1.018-0.661s-0.666,0.239-1.018,0.661c-0.379,0.455-0.852,1.021-1.785,1.021
			c-0.938,0-1.408-0.566-1.789-1.021c-0.352-0.422-0.574-0.661-1.02-0.661c-0.447,0-0.668,0.238-1.02,0.661
			c-0.379,0.455-0.852,1.021-1.789,1.021c-0.275,0-0.5-0.224-0.5-0.5c0-0.276,0.225-0.5,0.5-0.5c0.447,0,0.668-0.239,1.021-0.662
			c0.379-0.455,0.852-1.02,1.787-1.02c0.935,0,1.408,0.565,1.787,1.02c0.353,0.423,0.574,0.662,1.021,0.662
			c0.443,0,0.664-0.239,1.018-0.661c0.379-0.455,0.85-1.021,1.785-1.021c0.936,0,1.406,0.566,1.785,1.021
			c0.354,0.422,0.574,0.661,1.018,0.661c0.445,0,0.666-0.239,1.016-0.661c0.379-0.455,0.852-1.021,1.787-1.021
			c0.934,0,1.404,0.566,1.783,1.021c0.352,0.422,0.572,0.661,1.016,0.661c0.277,0,0.5,0.224,0.5,0.5
			C284.383,162.525,284.16,162.749,283.883,162.749z"/>
	</g>
	<path style="opacity:0.1;" d="M256.182,163.454c0,3.471,0.916,6.726,2.522,9.538c2.326,4.077,6.15,8.798,6.74,11.954l1.064,5.716
		v1.565v1.801v2.141v1.802v2.141v1.781v0.021h0.002c0.012,0.866,0.742,1.565,1.646,1.565h3.391v0.658c0,0.938,0.762,1.7,1.701,1.7
		h2.223v-61.674C264.816,144.163,256.18,152.801,256.182,163.454z"/>
</g>
<g>
	<g>
		<g>
			<path style="fill:#8C8C8C;" d="M362.107,170.992h-3.936v-0.894c0-0.73-0.594-1.324-1.324-1.324h-5.402
				c-0.73,0-1.322,0.594-1.322,1.324v0.894h-3.936c-0.732,0-1.324,0.592-1.324,1.323v32.197c0,0.731,0.592,1.324,1.324,1.324h15.92
				c0.732,0,1.324-0.593,1.324-1.324v-32.197C363.432,171.584,362.84,170.992,362.107,170.992z"/>
			<g>
				<rect x="346.187" y="200.099" style="fill:#E67171;" width="15.92" height="4.188"/>
			</g>
		</g>
		<path style="opacity:0.1;" d="M354.147,168.774h-2.702c-0.73,0-1.322,0.594-1.322,1.324v0.894h-3.936
			c-0.732,0-1.324,0.592-1.324,1.323v32.197c0,0.731,0.592,1.324,1.324,1.324h7.96V168.774z"/>
	</g>
	<g>
		<g>
			<path style="fill:#8C8C8C;" d="M382.408,170.992h-3.938v-0.894c0-0.73-0.592-1.324-1.322-1.324h-5.402
				c-0.73,0-1.324,0.594-1.324,1.324v0.894h-3.936c-0.732,0-1.324,0.592-1.324,1.323v32.197c0,0.731,0.592,1.324,1.324,1.324h15.922
				c0.73,0,1.324-0.593,1.324-1.324v-32.197C383.732,171.584,383.139,170.992,382.408,170.992z"/>
			<g>
				<rect x="366.486" y="189.076" style="fill:#E6C971;" width="15.922" height="4.188"/>
				<rect x="366.486" y="194.588" style="fill:#E6C971;" width="15.922" height="4.187"/>
				<rect x="366.486" y="200.099" style="fill:#E6C971;" width="15.922" height="4.188"/>
			</g>
		</g>
		<path style="opacity:0.1;" d="M374.447,168.774h-2.701c-0.73,0-1.324,0.594-1.324,1.324v0.894h-3.936
			c-0.732,0-1.324,0.592-1.324,1.323v32.197c0,0.731,0.592,1.324,1.324,1.324h7.961V168.774z"/>
	</g>
	<g>
		<g>
			<path style="fill:#8C8C8C;" d="M402.707,170.992h-3.936v-0.894c0-0.73-0.594-1.324-1.324-1.324h-5.402
				c-0.73,0-1.322,0.594-1.322,1.324v0.894h-3.938c-0.73,0-1.324,0.592-1.324,1.323v32.197c0,0.731,0.594,1.324,1.324,1.324h15.922
				c0.732,0,1.324-0.593,1.324-1.324v-32.197C404.031,171.584,403.439,170.992,402.707,170.992z"/>
			<g>
				<rect x="386.785" y="172.542" style="fill:#AED24A;" width="15.922" height="4.188"/>
				<rect x="386.785" y="178.054" style="fill:#AED24A;" width="15.922" height="4.188"/>
				<rect x="386.785" y="183.565" style="fill:#AED24A;" width="15.922" height="4.188"/>
				<rect x="386.785" y="189.076" style="fill:#AED24A;" width="15.922" height="4.188"/>
				<rect x="386.785" y="194.588" style="fill:#AED24A;" width="15.922" height="4.187"/>
				<rect x="386.785" y="200.099" style="fill:#AED24A;" width="15.922" height="4.188"/>
			</g>
		</g>
		<path style="opacity:0.1;" d="M394.746,168.774h-2.701c-0.73,0-1.322,0.594-1.322,1.324v0.894h-3.938
			c-0.73,0-1.324,0.592-1.324,1.323v32.197c0,0.731,0.594,1.324,1.324,1.324h7.961V168.774z"/>
	</g>
</g>
<g>
	<polygon style="fill:#FAA636;" points="94.697,254.459 69.299,254.459 57.903,281.242 65.397,281.242 55.768,308.94 
		85.439,274.121 79.013,274.121 	"/>
	<polygon style="opacity:0.1;" points="75.232,286.099 75.232,254.459 69.299,254.459 57.903,281.242 65.397,281.242 55.768,308.94 
			"/>
</g>
<g>
	<g>
		<rect x="158.918" y="275.438" style="fill:#C96363;" width="23.494" height="28.683"/>
		<rect x="155.661" y="304.12" style="fill:#E67171;" width="30.008" height="4.819"/>
		<path style="fill:#E67171;" d="M185.669,274.303c0,0.623-0.51,1.135-1.134,1.135h-27.74c-0.624,0-1.134-0.512-1.134-1.135v-18.709
			c0-0.623,0.51-1.134,1.134-1.134h27.74c0.624,0,1.134,0.511,1.134,1.134V274.303z"/>
		<rect x="158.495" y="257.295" style="fill:#E6F2F2;" width="24.34" height="15.307"/>
		<path style="fill:#8C8C8C;" d="M196.665,298.167v-1.003v-4.012v-32.09v-0.072c0-0.262-0.08-0.525-0.247-0.752l-4.78-6.498
			l-1.802,1.186l2.676,4.57h-0.074c-1.154,0-2.098,0.922-2.133,2.068l-0.562,4.886c-0.004,0.038-0.006,0.076-0.006,0.114
			c0,1.177,0.957,2.134,2.134,2.134h1.794v24.454v4.012v1.003c-0.002,0.156,0.004,0.359-0.004,0.477
			c-0.016,0.078-0.023,0.155-0.023,0.235c-0.065,0.305-0.24,0.587-0.488,0.78c-0.053,0.061-0.126,0.094-0.196,0.128l-0.1,0.061
			c-0.022,0.003-0.036,0.002-0.051,0.01c-0.029,0.011-0.013,0.057-0.238,0.065l-0.249,0.025l-0.058,0.006h-0.041h-1.003h-0.251
			h-0.126l-0.059-0.011c-0.077-0.018-0.159-0.008-0.235-0.026c-0.308-0.056-0.583-0.256-0.769-0.506
			c-0.087-0.113-0.181-0.311-0.183-0.333c-0.009-0.019-0.025-0.015-0.04-0.052l-0.025-0.25l-0.023-0.229v-0.119v-8.022v-0.502
			c-0.001-0.166,0.007-0.31-0.022-0.599c-0.023-0.509-0.163-1.007-0.357-1.479c-0.405-0.941-1.166-1.718-2.102-2.153
			c-0.215-0.122-0.556-0.209-0.837-0.287c-0.356-0.096-0.42-0.068-0.613-0.098l-0.125-0.013l-0.062-0.006l-0.216-0.011h-0.251h-0.47
			v-0.387c0-0.627-0.508-1.135-1.134-1.135h-0.903v6.041h0.903c0.626,0,1.134-0.508,1.134-1.135v-0.385h0.47h0.212l0.01,0.001
			l0.125,0.013c0.136,0.02,0.415,0.027,0.372,0.064c0.031,0.038,0.032,0,0.105,0.05c0.276,0.125,0.521,0.363,0.64,0.656
			c0.05,0.148,0.105,0.297,0.105,0.46c0.018,0.043,0.017,0.233,0.016,0.401v0.502v8.022v0.125v0.063l0.014,0.213l0.025,0.25
			l0.025,0.249c0.023,0.124,0.064,0.286,0.102,0.428c0.161,0.626,0.401,1.025,0.701,1.45c0.607,0.816,1.509,1.427,2.518,1.639
			c0.248,0.057,0.505,0.07,0.759,0.096l0.19,0.014h0.126h0.251h1.003h0.063h0.031l0.183-0.009l0.124-0.013l0.249-0.025
			c0.113,0.003,0.445-0.07,0.735-0.158c0.144-0.043,0.291-0.09,0.427-0.142l0.34-0.177c0.228-0.119,0.448-0.247,0.64-0.418
			c0.803-0.629,1.372-1.551,1.573-2.56c0.034-0.252,0.06-0.507,0.078-0.761C196.67,298.477,196.663,298.345,196.665,298.167z
			 M193.512,266.698h-1.641c-0.064,0-0.117-0.045-0.13-0.104l0.558-4.849c0.004-0.038,0.006-0.076,0.006-0.114
			c0-0.074,0.06-0.135,0.134-0.135h1.073V266.698z"/>
	</g>
	<path style="opacity:0.1;" d="M170.665,254.46h-13.87c-0.624,0-1.134,0.511-1.134,1.134v18.709c0,0.623,0.51,1.135,1.134,1.135
		h2.123v28.683h-3.257v4.819h15.004V254.46z"/>
</g>
<g>
	<path style="fill:#A6A6A6;" d="M302.906,307.143l-6.109-24.563v-12.334c0-0.551-3.863-0.996-8.633-0.996
		c-4.768,0-8.633,0.445-8.633,0.996v12.334l-6.109,24.563c-0.016,0.031-0.023,0.063-0.023,0.094c0,0.941,6.609,1.703,14.766,1.703
		c8.154,0,14.766-0.762,14.766-1.703C302.93,307.205,302.922,307.174,302.906,307.143z M288.164,270.935
		c-4.461,0-7.406-0.373-8.182-0.689c0.775-0.318,3.721-0.69,8.182-0.69c4.461,0,7.408,0.372,8.184,0.69
		C295.572,270.561,292.625,270.935,288.164,270.935z"/>
	<path style="fill:#A6A6A6;" d="M284.684,264.153c4.084,0,7.396-2.497,7.396-5.576c0-1.909-1.273-3.592-3.215-4.597
		c0.002-0.041,0.008-0.081,0.008-0.123c0-3.617-3.408-6.637-7.939-7.33c-1.397-3.174-5.359-5.467-10.041-5.467
		c-5.844,0-10.584,3.572-10.584,7.979c0,4.162,4.232,7.576,9.627,7.941c1.479,2.418,4.609,4.137,8.307,4.334
		C279.512,263.008,281.918,264.153,284.684,264.153z"/>
	<path style="opacity:0.1;" d="M288.164,270.935L288.164,270.935c-4.461,0-7.406-0.373-8.182-0.689
		c0.775-0.318,3.721-0.69,8.182-0.69l0,0v-0.306l0,0c-4.768,0-8.633,0.445-8.633,0.996v12.334l-6.109,24.563
		c-0.016,0.031-0.023,0.063-0.023,0.094c0,0.941,6.609,1.703,14.766,1.703l0,0V270.935z"/>
	<path style="fill:#8C8C8C;" d="M273.185,297.803l-4.334-17.426v-8.749c0-0.392-2.742-0.707-6.125-0.707
		c-3.383,0-6.123,0.315-6.123,0.707v8.749l-4.336,17.426c-0.01,0.021-0.016,0.044-0.016,0.066c0,0.668,4.689,1.208,10.475,1.208
		c5.785,0,10.477-0.54,10.477-1.208C273.203,297.847,273.195,297.824,273.185,297.803z M262.727,272.116
		c-3.164,0-5.254-0.265-5.805-0.488c0.551-0.227,2.641-0.49,5.805-0.49c3.166,0,5.256,0.264,5.807,0.49
		C267.982,271.852,265.891,272.116,262.727,272.116z"/>
	<path style="fill:#8C8C8C;" d="M260.258,267.306c2.898,0,5.246-1.771,5.246-3.956c0-1.355-0.902-2.548-2.279-3.261
		c0-0.029,0.006-0.058,0.006-0.088c0-2.566-2.418-4.708-5.633-5.2c-0.99-2.251-3.803-3.878-7.123-3.878
		c-4.147,0-7.508,2.534-7.508,5.66c0,2.952,3.002,5.375,6.83,5.634c1.047,1.715,3.268,2.935,5.891,3.074
		C256.588,266.492,258.295,267.306,260.258,267.306z"/>
	<path style="opacity:0.1;" d="M262.727,272.116L262.727,272.116c-3.164,0-5.254-0.265-5.805-0.488
		c0.551-0.227,2.641-0.49,5.805-0.49l0,0v-0.217l0,0c-3.383,0-6.123,0.315-6.123,0.707v8.749l-4.336,17.426
		c-0.01,0.021-0.016,0.044-0.016,0.066c0,0.668,4.689,1.208,10.475,1.208l0,0V272.116z"/>
</g>
<g>
	<g>
		<path style="fill:#FAA636;" d="M397.81,307.238c0,0.939-0.762,1.701-1.701,1.701h-43.326c-0.938,0-1.699-0.762-1.699-1.701
			v-43.325c0-0.938,0.762-1.7,1.699-1.7h43.326c0.939,0,1.701,0.762,1.701,1.7V307.238z"/>
		<path style="fill:#E6E6E6;" d="M360.076,300.536c0.715,0.689,2.154,1.19,3.148,1.19h22.445c0.992,0,2.432-0.502,3.15-1.19
			c3.928-3.775,6.375-9.082,6.375-14.96c0-5.879-2.447-11.186-6.375-14.961c-0.719-0.688-2.158-1.189-3.15-1.189h-22.445
			c-0.994,0-2.434,0.502-3.148,1.189c-3.932,3.775-6.379,9.082-6.379,14.961C353.697,291.454,356.144,296.761,360.076,300.536z"/>
		<g>
			<path style="fill:#8C8C8C;" d="M366.941,283.648c0,0.469-0.379,0.85-0.85,0.85h-1.549c-0.471,0-0.852-0.381-0.852-0.85v-7.877
				c0-0.47,0.381-0.85,0.852-0.85h1.549c0.471,0,0.85,0.38,0.85,0.85V283.648z"/>
			<path style="fill:#8C8C8C;" d="M385.201,283.648c0,0.469-0.379,0.85-0.85,0.85h-1.549c-0.471,0-0.85-0.381-0.85-0.85v-7.877
				c0-0.47,0.379-0.85,0.85-0.85h1.549c0.471,0,0.85,0.38,0.85,0.85V283.648z"/>
		</g>
		<path style="fill:#8C8C8C;" d="M368.674,296.093c-0.068,0.464,0.318,0.847,0.789,0.847h9.967c0.471,0,0.857-0.383,0.789-0.847
			c-0.41-2.821-2.838-4.986-5.771-4.986C371.514,291.106,369.084,293.272,368.674,296.093z"/>
	</g>
	<path style="opacity:0.1;" d="M374.447,262.213h-21.664c-0.938,0-1.699,0.762-1.699,1.7v43.325c0,0.939,0.762,1.701,1.699,1.701
		h21.664V262.213z"/>
</g>
<g>
	<g>
		<g>
			<path style="fill:#E67171;" d="M375.111,383.123c0-0.413-0.29-0.808-0.801-1.179v-16.3c0.826-0.515,1.301-1.109,1.301-1.785
				c0-2.728-7.702-4.155-15.311-4.155s-15.311,1.428-15.311,4.155c0,0.676,0.475,1.271,1.301,1.785v16.3
				c-0.511,0.37-0.801,0.766-0.801,1.179c0,0.412,0.29,0.808,0.801,1.178v16.906c-0.511,0.37-0.801,0.766-0.801,1.178
				c0,2.02,6.629,3.656,14.811,3.656c8.18,0,14.811-1.637,14.811-3.656c0-0.412-0.29-0.808-0.801-1.178v-16.906
				C374.821,383.931,375.111,383.535,375.111,383.123z M345.49,363.859c0-2.019,6.629-3.655,14.811-3.655
				c8.18,0,14.811,1.637,14.811,3.655c0,2.02-6.631,3.656-14.811,3.656C352.119,367.516,345.49,365.879,345.49,363.859z"/>
			<path style="fill:#FFFFFF;" d="M375.111,363.859c0,2.02-6.631,3.656-14.811,3.656c-8.182,0-14.811-1.637-14.811-3.656
				c0-2.019,6.629-3.655,14.811-3.655C368.48,360.204,375.111,361.841,375.111,363.859z"/>
			<path style="fill:#E67171;" d="M356.932,363.145c0,0.39-1.281,0.705-2.859,0.705c-1.578,0-2.859-0.315-2.859-0.705
				c0-0.391,1.281-0.706,2.859-0.706C355.65,362.439,356.932,362.754,356.932,363.145z"/>
			<path style="fill:#FFFFFF;" d="M373.539,383.123c0,0-0.086,0.063-0.246,0.18c-0.155,0.127-0.392,0.293-0.742,0.441
				c-0.339,0.182-0.765,0.342-1.255,0.52c-0.486,0.203-1.057,0.342-1.677,0.512c-1.246,0.309-2.717,0.597-4.31,0.79
				c-0.798,0.065-1.622,0.158-2.462,0.207c-0.844,0.024-1.701,0.05-2.56,0.075c-0.847-0.025-1.692-0.05-2.526-0.074
				c-0.841-0.048-1.671-0.142-2.472-0.207c-1.593-0.191-3.063-0.481-4.31-0.79c-0.62-0.171-1.19-0.309-1.677-0.512
				c-0.491-0.179-0.916-0.339-1.249-0.518c-0.346-0.146-0.592-0.314-0.748-0.443c-0.16-0.117-0.246-0.18-0.246-0.18
				s0.096,0.047,0.275,0.135c0.088,0.043,0.196,0.096,0.324,0.158c0.137,0.044,0.293,0.094,0.469,0.15
				c0.343,0.13,0.779,0.232,1.279,0.341c0.492,0.13,1.074,0.19,1.688,0.318c0.618,0.112,1.302,0.175,2.015,0.272
				c0.718,0.061,1.477,0.125,2.261,0.192c0.782,0.039,1.591,0.078,2.413,0.119c0.833,0.013,1.681,0.026,2.527,0.039
				c0.836-0.013,1.671-0.025,2.494-0.039c0.825-0.04,1.638-0.079,2.424-0.118c0.784-0.065,1.542-0.13,2.261-0.19
				c0.713-0.099,1.396-0.16,2.014-0.273c0.613-0.129,1.195-0.187,1.689-0.318c0.501-0.11,0.935-0.211,1.273-0.339
				c0.175-0.056,0.332-0.106,0.468-0.149c0.13-0.064,0.241-0.118,0.33-0.162C373.443,383.17,373.539,383.123,373.539,383.123z"/>
			<path style="fill:#FFFFFF;" d="M373.539,402.385c0,0-0.086,0.063-0.246,0.181c-0.154,0.127-0.392,0.292-0.742,0.441
				c-0.338,0.182-0.765,0.342-1.255,0.521c-0.486,0.202-1.056,0.341-1.677,0.511c-1.246,0.309-2.717,0.597-4.31,0.789
				c-0.798,0.066-1.622,0.158-2.462,0.207c-0.844,0.024-1.701,0.05-2.56,0.075c-0.847-0.025-1.692-0.05-2.526-0.074
				c-0.841-0.047-1.671-0.141-2.472-0.207c-1.593-0.19-3.063-0.48-4.31-0.789c-0.621-0.171-1.191-0.309-1.678-0.512
				c-0.491-0.179-0.915-0.339-1.249-0.519c-0.345-0.145-0.591-0.315-0.748-0.443c-0.16-0.118-0.245-0.181-0.245-0.181
				s0.096,0.047,0.275,0.135c0.088,0.043,0.196,0.096,0.324,0.158c0.137,0.044,0.293,0.095,0.469,0.151
				c0.342,0.13,0.778,0.231,1.278,0.341c0.493,0.131,1.074,0.19,1.688,0.318c0.618,0.112,1.302,0.175,2.014,0.272
				c0.719,0.061,1.477,0.125,2.261,0.19c0.783,0.039,1.592,0.078,2.414,0.119c0.833,0.013,1.681,0.026,2.527,0.039
				c0.836-0.013,1.671-0.025,2.494-0.038c0.825-0.041,1.638-0.08,2.424-0.118c0.784-0.066,1.542-0.13,2.261-0.19
				c0.713-0.099,1.397-0.16,2.015-0.272c0.613-0.13,1.195-0.188,1.688-0.318c0.502-0.11,0.936-0.212,1.273-0.34
				c0.176-0.056,0.332-0.106,0.468-0.15c0.131-0.063,0.241-0.118,0.331-0.162C373.443,402.432,373.539,402.385,373.539,402.385z"/>
		</g>
		<path style="opacity:0.1;" d="M344.99,363.859c0,0.676,0.475,1.271,1.301,1.785v16.3c-0.511,0.37-0.801,0.766-0.801,1.179
			c0,0.412,0.29,0.808,0.801,1.178v16.906c-0.511,0.37-0.801,0.766-0.801,1.178c0,2.02,6.629,3.656,14.811,3.656v-46.337
			C352.692,359.704,344.99,361.132,344.99,363.859z"/>
	</g>
	<g>
		<g>
			<path style="fill:#8DAEB3;" d="M379.858,376.109v14.527c-0.439,0.318-0.689,0.658-0.689,1.013c0,1.735,5.698,3.142,12.727,3.142
				c7.031,0,12.727-1.406,12.727-3.142c0-0.355-0.249-0.694-0.688-1.013v-14.527c0.439-0.318,0.688-0.657,0.688-1.012
				c0-0.355-0.249-0.694-0.688-1.013v-14.007c0.71-0.441,1.118-0.953,1.118-1.533c0-2.344-6.619-3.57-13.156-3.57
				s-13.156,1.227-13.156,3.57c0,0.58,0.408,1.092,1.118,1.533v14.007c-0.439,0.318-0.689,0.657-0.689,1.013
				C379.17,375.452,379.42,375.791,379.858,376.109z M391.896,361.686c-7.028,0-12.727-1.406-12.727-3.142
				c0-1.735,5.698-3.142,12.727-3.142c7.031,0,12.727,1.406,12.727,3.142C404.623,360.28,398.928,361.686,391.896,361.686z"/>
			<ellipse style="fill:#FFFFFF;" cx="391.896" cy="358.545" rx="12.727" ry="3.142"/>
			<path style="fill:#8DAEB3;" d="M394.791,357.93c0,0.336,1.102,0.607,2.458,0.607c1.355,0,2.457-0.272,2.457-0.607
				c0-0.335-1.102-0.606-2.457-0.606C395.893,357.323,394.791,357.595,394.791,357.93z"/>
			<path style="fill:#FFFFFF;" d="M380.521,375.098c0,0,0.073,0.054,0.211,0.154c0.133,0.109,0.337,0.252,0.638,0.379
				c0.291,0.156,0.657,0.294,1.079,0.446c0.417,0.176,0.907,0.294,1.44,0.441c1.07,0.265,2.334,0.513,3.703,0.679
				c0.686,0.056,1.394,0.136,2.115,0.178c0.726,0.022,1.462,0.043,2.199,0.066c0.728-0.023,1.454-0.043,2.171-0.065
				c0.723-0.041,1.436-0.122,2.124-0.178c1.369-0.164,2.632-0.414,3.703-0.679c0.533-0.147,1.023-0.265,1.44-0.44
				c0.422-0.153,0.787-0.291,1.073-0.445c0.297-0.124,0.509-0.27,0.644-0.381c0.138-0.101,0.211-0.154,0.211-0.154
				s-0.082,0.04-0.236,0.116c-0.075,0.037-0.168,0.082-0.278,0.136c-0.117,0.038-0.252,0.081-0.403,0.129
				c-0.294,0.112-0.67,0.199-1.099,0.294c-0.423,0.11-0.923,0.162-1.45,0.273c-0.531,0.096-1.118,0.149-1.731,0.233
				c-0.617,0.053-1.269,0.107-1.942,0.164c-0.673,0.033-1.367,0.067-2.074,0.103c-0.715,0.011-1.443,0.022-2.172,0.033
				c-0.718-0.011-1.436-0.021-2.143-0.033c-0.71-0.034-1.407-0.067-2.083-0.101c-0.674-0.057-1.325-0.112-1.942-0.165
				c-0.613-0.084-1.199-0.137-1.73-0.234c-0.527-0.11-1.026-0.16-1.451-0.273c-0.43-0.095-0.804-0.181-1.094-0.291
				c-0.15-0.048-0.285-0.092-0.402-0.129c-0.111-0.055-0.207-0.102-0.283-0.139C380.603,375.138,380.521,375.098,380.521,375.098z"
				/>
			<path style="fill:#FFFFFF;" d="M380.521,391.649c0,0,0.073,0.054,0.211,0.155c0.133,0.108,0.337,0.25,0.638,0.379
				c0.291,0.156,0.657,0.295,1.079,0.447c0.417,0.174,0.906,0.294,1.44,0.438c1.07,0.267,2.334,0.513,3.703,0.679
				c0.686,0.058,1.394,0.137,2.115,0.178c0.726,0.021,1.462,0.043,2.199,0.064c0.728-0.021,1.454-0.043,2.171-0.063
				c0.723-0.04,1.436-0.12,2.124-0.178c1.369-0.164,2.632-0.413,3.703-0.679c0.534-0.146,1.024-0.265,1.442-0.439
				c0.422-0.152,0.785-0.291,1.072-0.445c0.296-0.125,0.508-0.271,0.644-0.381c0.138-0.102,0.21-0.155,0.21-0.155
				s-0.082,0.04-0.236,0.115c-0.075,0.037-0.168,0.082-0.278,0.137c-0.117,0.037-0.252,0.081-0.403,0.13
				c-0.294,0.111-0.669,0.199-1.098,0.293c-0.424,0.112-0.924,0.162-1.451,0.273c-0.531,0.096-1.118,0.15-1.73,0.233
				c-0.618,0.053-1.269,0.108-1.942,0.164c-0.674,0.034-1.368,0.067-2.075,0.103c-0.715,0.011-1.443,0.022-2.172,0.034
				c-0.718-0.012-1.436-0.022-2.143-0.033c-0.71-0.035-1.407-0.068-2.083-0.102c-0.674-0.058-1.325-0.112-1.942-0.163
				c-0.613-0.086-1.2-0.138-1.73-0.235c-0.528-0.111-1.027-0.16-1.451-0.273c-0.431-0.095-0.805-0.182-1.094-0.291
				c-0.15-0.049-0.285-0.092-0.402-0.13c-0.112-0.055-0.207-0.102-0.284-0.14C380.603,391.69,380.521,391.649,380.521,391.649z"/>
		</g>
		<path style="opacity:0.1;" d="M378.74,358.545c0,0.58,0.408,1.092,1.118,1.533v14.007c-0.439,0.318-0.689,0.657-0.689,1.013
			c0,0.354,0.25,0.693,0.689,1.012v14.527c-0.439,0.318-0.689,0.658-0.689,1.013c0,1.735,5.698,3.142,12.727,3.142v-39.816
			C385.359,354.975,378.74,356.201,378.74,358.545z"/>
	</g>
</g>
<g>
	<g>
		<path style="fill:#8DAEB3;" d="M307.029,395.728c0,0-0.006,0.133-0.018,0.39c-0.006,0.227-0.123,0.939-0.348,1.471
			c-0.451,1.201-1.58,2.588-3.234,3.759c-1.65,1.195-3.803,2.238-6.326,3.167c-2.525,0.932-5.445,1.694-8.662,2.264
			c-3.215,0.589-6.736,0.959-10.463,1.046c-3.746,0.106-7.644-0.075-11.703-0.535c-4.037-0.515-8.207-1.276-12.303-2.733
			c-2.045-0.726-4.078-1.617-5.994-2.875c-0.951-0.638-1.879-1.382-2.666-2.355c-0.402-0.471-0.734-1.045-1.006-1.653
			c-0.256-0.628-0.396-1.323-0.396-2.025l0.008-0.136l0.004-0.05l0.01-0.099l0.02-0.198c0.004-0.107,0.051-0.322,0.092-0.508
			c0.076-0.401,0.213-0.69,0.336-1.004c0.293-0.589,0.643-1.137,1.057-1.582c0.813-0.919,1.754-1.604,2.715-2.186
			c1.938-1.143,3.977-1.92,6.023-2.532c4.1-1.207,8.219-1.864,12.217-2.229c3.998-0.391,7.881-0.43,11.549-0.334
			c3.674,0.117,7.139,0.382,10.328,0.811c6.359,0.891,11.652,2.373,14.998,4.576c1.672,1.073,2.838,2.383,3.33,3.55
			c0.248,0.574,0.355,1.071,0.393,1.404c0.029,0.338,0.045,0.512,0.045,0.512L307.029,395.728z M304.717,395.643
			c-0.023-0.001,0.057-0.358-0.19-1.054c-0.242-0.691-0.998-1.73-2.41-2.741c-1.393-1.021-3.369-2-5.744-2.877
			c-2.379-0.882-5.184-1.621-8.295-2.173c-6.215-1.151-13.701-1.398-21.561-0.494c-3.916,0.5-7.961,1.246-11.824,2.63
			c-1.928,0.684-3.816,1.53-5.477,2.629c-1.621,1.072-3.076,2.62-2.992,4.081c0.037,1.449,1.527,2.839,3.17,3.807
			c1.682,0.983,3.576,1.716,5.504,2.287c3.869,1.134,7.861,1.777,11.74,2.127c3.867,0.378,7.686,0.414,11.24,0.321
			c3.576-0.114,6.947-0.372,10.029-0.784c3.078-0.428,5.871-0.995,8.26-1.707c2.385-0.709,4.377-1.565,5.787-2.494
			c1.43-0.913,2.221-1.876,2.504-2.533c0.062-0.164,0.141-0.322,0.15-0.406c0.027-0.1,0.068-0.154,0.072-0.314
			c0.025-0.257,0.039-0.389,0.039-0.389L304.717,395.643z"/>
		<path style="fill:#8DAEB3;" d="M295.754,394.07c0,0-0.008,0.084-0.025,0.245c-0.039,0.186,0.022,0.317-0.193,0.873
			c-0.088,0.228-0.203,0.558-0.346,0.763c-0.146,0.206-0.305,0.432-0.477,0.676c-0.375,0.415-0.832,0.877-1.375,1.257
			c-1.084,0.795-2.467,1.499-4.08,2.125c-1.615,0.633-3.477,1.142-5.527,1.525c-2.047,0.397-4.291,0.655-6.664,0.707
			c-0.603,0.005-1.17,0.027-1.828,0.017c-0.59-0.021-1.186-0.041-1.791-0.062c-0.631-0.043-1.27-0.086-1.914-0.13
			c-0.633-0.065-1.273-0.131-1.918-0.197c-2.57-0.351-5.227-0.87-7.846-1.836c-1.307-0.501-2.615-1.07-3.865-1.914
			c-0.307-0.235-0.615-0.46-0.916-0.709c-0.287-0.3-0.59-0.543-0.848-0.898c-0.537-0.654-0.953-1.587-0.967-2.606
			c0.025-0.344,0.01-0.112,0.018-0.197l0.006-0.031l0.012-0.062l0.023-0.123l0.047-0.247c0.006-0.125,0.119-0.419,0.225-0.664
			c0.215-0.556,0.496-0.849,0.762-1.178c0.27-0.327,0.586-0.545,0.879-0.813c0.309-0.222,0.623-0.418,0.936-0.623
			c1.27-0.729,2.586-1.185,3.893-1.572c2.625-0.716,5.228-1.132,7.76-1.332c2.527-0.235,4.984-0.232,7.293-0.172
			c2.32,0.082,4.512,0.236,6.531,0.475c4.031,0.512,7.412,1.379,9.615,2.797c1.098,0.684,1.924,1.543,2.258,2.389
			c0.215,0.378,0.238,0.758,0.285,0.991c0.033,0.239,0.051,0.362,0.051,0.362L295.754,394.07z M293.451,393.904
			c0,0-0.006-0.042-0.02-0.123c-0.021-0.081,0.027-0.205-0.074-0.382c-0.076-0.348-0.5-0.952-1.338-1.57
			c-0.83-0.621-2.027-1.257-3.494-1.831c-1.465-0.584-3.213-1.069-5.156-1.435c-1.943-0.381-4.088-0.63-6.361-0.68
			c-2.287-0.071-4.688,0.068-7.148,0.36c-2.451,0.336-4.977,0.84-7.367,1.733c-1.182,0.456-2.354,0.983-3.346,1.669l-0.687,0.544
			c-0.176,0.204-0.41,0.386-0.541,0.593l-0.205,0.302c-0.092,0.109-0.045,0.148-0.092,0.211c-0.023,0.062-0.086,0.062-0.092,0.277
			l-0.025,0.25l-0.014,0.125l-0.006,0.063l-0.004,0.031c0.004-0.064-0.016,0.188,0.01-0.137c0.074,0.629,0.801,1.426,1.832,1.985
			c1.014,0.57,2.191,0.983,3.373,1.326c2.398,0.644,4.871,1.043,7.283,1.229c0.604,0.042,1.203,0.084,1.797,0.126
			c0.584,0.02,1.164,0.041,1.738,0.061c0.604,0.001,1.199,0.002,1.789,0.003c0.561-0.01,1.117-0.02,1.664-0.03
			c2.223-0.079,4.314-0.224,6.23-0.446c1.91-0.24,3.648-0.556,5.123-0.968c1.475-0.406,2.688-0.919,3.535-1.447
			c0.441-0.256,0.736-0.53,0.998-0.759c0.096-0.122,0.19-0.231,0.279-0.332c0.09-0.103,0.065-0.124,0.119-0.173
			c0.101,0.001,0.135-0.371,0.166-0.499c0.029-0.159,0.045-0.241,0.045-0.241L293.451,393.904z"/>
		<g>
			<path style="fill:#AED24A;" d="M291.373,380.382c0,8.781-7.119,15.901-15.902,15.901c-8.781,0-15.9-7.12-15.9-15.901
				c0-10.71,12.049-21.796,15.9-30.352C279.764,358.588,291.373,369.668,291.373,380.382z"/>
			<path style="fill:#FFFFFF;" d="M271.281,366.727c0,0,0.012,0.129,0.033,0.369c0.002,0.228,0.053,0.588,0.045,0.988
				c0.002,0.408,0.031,0.912,0.016,1.442c-0.008,0.537-0.037,1.118-0.07,1.733c-0.045,0.608-0.098,1.25-0.17,1.898
				c-0.076,0.646-0.156,1.309-0.258,1.96c-0.1,0.652-0.195,1.308-0.318,1.934c-0.107,0.606-0.219,1.222-0.328,1.838
				c-0.127,0.583-0.219,1.155-0.322,1.686c-0.055,0.276-0.078,0.522-0.148,0.787c-0.037,0.253-0.07,0.502-0.129,0.754
				c-0.065,0.487-0.164,0.982-0.199,1.468c-0.033,0.248-0.053,0.498-0.057,0.742c-0.018,0.253-0.027,0.508-0.014,0.754
				c-0.008,0.512,0.055,1.002,0.098,1.492c0.078,0.464,0.133,0.938,0.211,1.325c0.102,0.36,0.146,0.717,0.205,0.937
				c0.043,0.24,0.068,0.369,0.068,0.369l-0.297,0.402c0,0-0.326-0.245-0.896-0.674c-0.268-0.234-0.592-0.527-0.949-0.879
				c-0.334-0.373-0.723-0.79-1.047-1.323c-0.342-0.517-0.664-1.116-0.92-1.781c-0.272-0.66-0.457-1.393-0.598-2.155
				c-0.119-0.767-0.186-1.567-0.16-2.378c0.008-0.812,0.107-1.628,0.238-2.435c0.646-3.221,2.084-6.156,3.289-8.239
				c0.598-1.049,1.197-1.861,1.606-2.433c0.414-0.567,0.672-0.883,0.672-0.883L271.281,366.727z"/>
		</g>
	</g>
	<path style="opacity:0.1;" d="M275.471,404.223c-2.85,0.02-5.824-0.064-8.832-0.358c-3.879-0.35-7.871-0.993-11.74-2.127
		c-1.928-0.571-3.822-1.304-5.504-2.287c-1.642-0.968-3.133-2.357-3.17-3.807c-0.084-1.461,1.371-3.009,2.992-4.081
		c1.66-1.099,3.549-1.945,5.477-2.629c2.103-0.753,4.26-1.314,6.42-1.752c0.207,0.436,0.43,0.858,0.674,1.27
		c-1.246,0.376-2.496,0.819-3.707,1.515c-0.313,0.205-0.627,0.401-0.936,0.623c-0.293,0.269-0.609,0.486-0.879,0.813
		c-0.266,0.329-0.547,0.622-0.762,1.178c-0.105,0.245-0.219,0.539-0.225,0.664l-0.047,0.247l-0.023,0.123l-0.012,0.062l-0.006,0.031
		c-0.008,0.085,0.008-0.147-0.018,0.197c0.014,1.02,0.43,1.952,0.967,2.606c0.258,0.355,0.561,0.599,0.848,0.898
		c0.301,0.249,0.609,0.474,0.916,0.709c1.25,0.844,2.559,1.413,3.865,1.914c2.619,0.966,5.275,1.485,7.846,1.836
		c0.645,0.066,1.285,0.132,1.918,0.197c0.645,0.044,1.283,0.087,1.914,0.13c0.605,0.021,1.201,0.041,1.791,0.062
		c0.082,0.001,0.152-0.001,0.232-0.001v-3.626c-0.057,0.001-0.111,0.002-0.168,0.003c-0.59-0.001-1.185-0.002-1.789-0.003
		c-0.574-0.02-1.154-0.04-1.738-0.061c-0.594-0.042-1.193-0.084-1.797-0.126c-2.412-0.186-4.885-0.585-7.283-1.229
		c-1.182-0.343-2.359-0.756-3.373-1.326c-1.023-0.555-1.744-1.343-1.828-1.97l0.01-0.098l0.025-0.25
		c0.006-0.216,0.068-0.216,0.092-0.277c0.047-0.063,0-0.102,0.092-0.211l0.205-0.302c0.131-0.207,0.365-0.389,0.541-0.593
		l0.687-0.544c0.992-0.686,2.164-1.213,3.346-1.669c0.084-0.031,0.172-0.055,0.256-0.085c2.9,3.873,7.512,6.392,12.723,6.392
		v-46.251c-3.853,8.556-15.9,19.641-15.9,30.35c0,1.937,0.363,3.785,0.998,5.502c-2.125,0.366-4.262,0.84-6.395,1.468
		c-2.047,0.612-4.086,1.39-6.023,2.532c-0.961,0.581-1.902,1.267-2.715,2.186c-0.414,0.445-0.764,0.993-1.057,1.582
		c-0.123,0.314-0.26,0.603-0.336,1.004c-0.041,0.185-0.088,0.4-0.092,0.508l-0.02,0.198l-0.01,0.099l-0.004,0.05l-0.008,0.136
		c0,0.702,0.141,1.397,0.396,2.025c0.272,0.608,0.604,1.183,1.006,1.653c0.787,0.974,1.715,1.718,2.666,2.355
		c1.916,1.258,3.949,2.149,5.994,2.875c4.096,1.457,8.266,2.219,12.303,2.733c3.162,0.358,6.223,0.542,9.195,0.558V404.223z"/>
</g>
<g>
	<path style="fill:#545454;" d="M159.76,375.996c-9.124,0-16.521,1.469-16.521,3.281v26.764h33.04v-26.764
		C176.279,377.465,168.883,375.996,159.76,375.996z"/>
	<path style="fill:#737373;" d="M184.634,364.297c-12.676,0-22.952,2.041-22.952,4.56v37.185h45.905v-37.185
		C207.587,366.338,197.31,364.297,184.634,364.297z"/>
	<g>
		<path style="fill:#8DAEB3;" d="M191.788,402.797c-0.276,0-0.5-0.224-0.5-0.5v-40.363c0-0.552-0.449-1.001-1-1.001
			c-0.551,0-0.999,0.449-0.999,1.001v0.797c0,0.276-0.224,0.5-0.5,0.5c-0.276,0-0.5-0.224-0.5-0.5v-0.797
			c0-1.103,0.897-2.001,1.999-2.001c1.103,0,2,0.898,2,2.001v40.363C192.288,402.573,192.064,402.797,191.788,402.797z"/>
		<path style="fill:#8DAEB3;" d="M199.092,403.582c-0.276,0-0.5-0.224-0.5-0.5v-40.365c0-0.551-0.449-0.999-1-0.999
			s-1,0.448-1,0.999v0.799c0,0.276-0.224,0.5-0.5,0.5c-0.276,0-0.5-0.224-0.5-0.5v-0.799c0-1.103,0.897-1.999,2-1.999
			c1.103,0,2,0.896,2,1.999v40.365C199.592,403.358,199.368,403.582,199.092,403.582z"/>
		<path style="fill:#8DAEB3;" d="M199.092,366.881c-0.018,0-0.036-0.001-0.054-0.003l-7.304-0.783
			c-0.275-0.029-0.473-0.275-0.444-0.551c0.029-0.273,0.271-0.474,0.55-0.443l7.304,0.783c0.274,0.029,0.473,0.275,0.444,0.551
			C199.561,366.69,199.345,366.881,199.092,366.881z"/>
		<path style="fill:#8DAEB3;" d="M199.092,370.348c-0.018,0-0.036-0.001-0.054-0.003l-7.304-0.783
			c-0.275-0.029-0.473-0.275-0.444-0.551c0.029-0.273,0.271-0.476,0.55-0.443l7.304,0.783c0.274,0.029,0.473,0.275,0.444,0.551
			C199.561,370.157,199.345,370.348,199.092,370.348z"/>
		<path style="fill:#8DAEB3;" d="M199.092,373.815c-0.018,0-0.036-0.001-0.054-0.003l-7.304-0.784
			c-0.275-0.029-0.474-0.275-0.444-0.551c0.029-0.273,0.271-0.476,0.55-0.443l7.304,0.784c0.275,0.029,0.474,0.276,0.444,0.551
			C199.561,373.624,199.345,373.815,199.092,373.815z"/>
		<path style="fill:#8DAEB3;" d="M199.092,377.28c-0.018,0-0.036-0.001-0.054-0.003l-7.304-0.784
			c-0.275-0.029-0.474-0.276-0.444-0.551c0.029-0.273,0.271-0.477,0.55-0.443l7.304,0.784c0.275,0.029,0.474,0.275,0.444,0.551
			C199.561,377.09,199.345,377.28,199.092,377.28z"/>
		<path style="fill:#8DAEB3;" d="M199.092,380.746c-0.018,0-0.036-0.001-0.054-0.003l-7.304-0.783
			c-0.275-0.029-0.473-0.275-0.444-0.551c0.029-0.274,0.271-0.478,0.55-0.443l7.304,0.783c0.274,0.029,0.473,0.275,0.444,0.551
			C199.561,380.556,199.345,380.746,199.092,380.746z"/>
		<path style="fill:#8DAEB3;" d="M199.092,384.213c-0.018,0-0.036-0.001-0.054-0.003l-7.304-0.783
			c-0.275-0.029-0.473-0.275-0.444-0.551c0.029-0.273,0.271-0.479,0.55-0.443l7.304,0.783c0.274,0.029,0.473,0.275,0.444,0.551
			C199.561,384.022,199.345,384.213,199.092,384.213z"/>
		<path style="fill:#8DAEB3;" d="M199.092,387.68c-0.018,0-0.036-0.001-0.054-0.003l-7.304-0.783
			c-0.275-0.029-0.473-0.275-0.444-0.551c0.029-0.273,0.271-0.474,0.55-0.443l7.304,0.783c0.274,0.029,0.473,0.275,0.444,0.551
			C199.561,387.489,199.345,387.68,199.092,387.68z"/>
		<path style="fill:#8DAEB3;" d="M199.092,391.147c-0.018,0-0.036-0.001-0.054-0.003l-7.304-0.784
			c-0.275-0.029-0.474-0.275-0.444-0.551c0.029-0.273,0.271-0.475,0.55-0.443l7.304,0.784c0.275,0.029,0.474,0.276,0.444,0.551
			C199.561,390.956,199.345,391.147,199.092,391.147z"/>
		<path style="fill:#8DAEB3;" d="M199.092,394.612c-0.018,0-0.036-0.001-0.054-0.003l-7.304-0.784
			c-0.275-0.029-0.474-0.276-0.444-0.551c0.029-0.273,0.271-0.475,0.55-0.443l7.304,0.784c0.275,0.029,0.474,0.275,0.444,0.551
			C199.561,394.422,199.345,394.612,199.092,394.612z"/>
		<path style="fill:#8DAEB3;" d="M199.092,398.078c-0.018,0-0.036-0.001-0.054-0.003l-7.304-0.785
			c-0.275-0.029-0.474-0.276-0.444-0.551c0.029-0.273,0.271-0.475,0.55-0.443l7.304,0.785c0.275,0.029,0.474,0.276,0.444,0.551
			C199.561,397.888,199.345,398.078,199.092,398.078z"/>
		<path style="fill:#8DAEB3;" d="M199.092,401.545c-0.018,0-0.036-0.001-0.054-0.003l-7.304-0.785
			c-0.275-0.029-0.474-0.276-0.444-0.551c0.029-0.274,0.271-0.476,0.55-0.443l7.304,0.785c0.275,0.029,0.474,0.276,0.444,0.551
			C199.561,401.354,199.345,401.545,199.092,401.545z"/>
	</g>
	<path style="opacity:0.1;" d="M184.634,364.297c-12.676,0-22.952,2.041-22.952,4.56v37.185h22.952V364.297z"/>
	<rect x="140.413" y="406.041" style="fill:#545454;" width="69.174" height="1.811"/>
	<path style="opacity:0.1;" d="M159.76,375.996c-9.124,0-16.521,1.469-16.521,3.281v26.764h16.521V375.996z"/>
</g>
<g>
	<g>
		<g>
			<path style="fill:#8DAEB3;" d="M50.387,364.063l-1.825,6.113v-18.418h-1v19.82c-0.913,0.225-1.591,1.045-1.589,2.027
				c0.002,0.978,0.68,1.791,1.589,2.017v30.419h1v-30.419c0.913-0.226,1.591-1.046,1.589-2.026
				c-0.002-0.765-0.419-1.426-1.033-1.789l2.227-7.459L50.387,364.063z"/>
			<path style="fill:#8DAEB3;" d="M104.492,382.824h-4.21v-6.594c0-0.393-0.319-0.713-0.714-0.713h-0.261l-17.285-9.979
				l-0.484-2.543c-0.074-0.389-0.453-0.701-0.848-0.701h-4.286l-17.708-10.224l-2.5,4.33l15.173,8.76l-0.828,4.347
				c-0.891,0.315-1.673,0.698-2.298,1.139c-0.27,0.189-0.472,0.635-0.472,0.965v3.381c0,0.33,0.202,0.773,0.472,0.963
				c0.801,0.563,1.859,1.033,3.08,1.386l-5.744,28.503c-0.108,0.541,0.242,1.068,0.783,1.178c0.542,0.108,1.069-0.242,1.178-0.783
				l1.255-6.229h15.151l1.255,6.229c0.096,0.475,0.514,0.803,0.98,0.803c0.065,0,0.132-0.006,0.199-0.019
				c0.541-0.109,0.892-0.637,0.782-1.178l-5.743-28.503c1.22-0.352,2.278-0.822,3.079-1.386c0.27-0.19,0.472-0.633,0.472-0.963
				v-1.978l11.067,6.39v3.421h-3.819v4.219h0.268v18.998h1v-18.998h9.739v18.998h1v-18.998h0.268V382.824z M81.902,389.865H70.839
				l1.238-6.146h8.586L81.902,389.865z M69.198,398.01l1.238-6.145h11.869l1.238,6.145H69.198z M80.261,381.719h-7.78l0.795-3.947
				c0.975,0.156,2.011,0.248,3.095,0.248c1.084,0,2.119-0.092,3.094-0.248L80.261,381.719z"/>
		</g>
		<path style="fill:#FFFFFF;" d="M75.028,366.1c0-0.9,0.73-1.633,1.632-1.633c0.901,0,1.632,0.732,1.632,1.633
			c0,0.9-0.731,1.631-1.632,1.631C75.759,367.73,75.028,367,75.028,366.1z"/>
		<g>
			<g>
				
					<rect x="55.193" y="344.012" transform="matrix(0.5 -0.866 0.866 0.5 -273.5404 222.8136)" style="fill:#E67171;" width="2" height="8.578"/>
				
					<rect x="50.776" y="351.662" transform="matrix(0.5 -0.866 0.866 0.5 -282.3743 222.8135)" style="fill:#E67171;" width="2" height="8.578"/>
			</g>
			<path style="fill:#E67171;" d="M51.408,365.473L51.408,365.473c-0.491,0-0.951-0.216-1.295-0.609
				c-3.86-4.42-4.484-10.798-1.556-15.871c2.438-4.223,6.99-6.846,11.879-6.846c0.886,0,1.774,0.087,2.642,0.257
				c0.57,0.114,1.025,0.464,1.251,0.961c0.229,0.507,0.189,1.094-0.108,1.61l-11.312,19.592
				C52.58,365.135,52.019,365.473,51.408,365.473z M60.436,344.147c-4.177,0-8.064,2.24-10.146,5.846
				c-2.436,4.218-1.993,9.492,1.072,13.251l10.94-18.947C61.687,344.197,61.061,344.147,60.436,344.147z"/>
		</g>
		<path style="fill:#FFFFFF;" d="M97.38,377.961c0-0.43,0.35-0.779,0.779-0.779c0.431,0,0.78,0.35,0.78,0.779
			c0,0.432-0.35,0.781-0.78,0.781C97.729,378.742,97.38,378.393,97.38,377.961z"/>
	</g>
	<path style="opacity:0.1;" d="M76.66,398.01h-7.462l1.238-6.145h6.224v-2h-5.82l1.238-6.146h4.582v-2h-4.179l0.795-3.947
		c0.975,0.156,2.011,0.248,3.095,0.248c0.099,0,0.191-0.011,0.289-0.012v-15.713h-0.256l-16.638-9.606l4.454-7.714
		c0.298-0.517,0.337-1.104,0.108-1.61c-0.226-0.497-0.681-0.847-1.251-0.961c-0.867-0.17-1.756-0.257-2.642-0.257
		c-4.889,0-9.44,2.623-11.879,6.846c-2.066,3.58-2.356,7.807-0.996,11.539v11.047c-0.913,0.225-1.592,1.045-1.589,2.027
		c0.002,0.978,0.68,1.791,1.589,2.017v30.419h1v-30.419c0.913-0.226,1.591-1.045,1.589-2.026c-0.002-0.765-0.419-1.426-1.032-1.788
		l1.905-6.383c0.125,0.03,0.254,0.048,0.385,0.048c0.611,0,1.172-0.338,1.5-0.906l4.358-7.548l14.103,8.143l-0.828,4.347
		c-0.891,0.315-1.673,0.699-2.298,1.139c-0.27,0.189-0.472,0.635-0.472,0.965v3.381c0,0.33,0.202,0.773,0.472,0.963
		c0.802,0.563,1.858,1.033,3.079,1.386l-5.743,28.503c-0.108,0.541,0.242,1.068,0.783,1.178c0.542,0.108,1.069-0.242,1.178-0.783
		l1.255-6.229h7.865V398.01z M48.561,370.178v-7.505c0.441,0.767,0.953,1.505,1.552,2.19c0.008,0.01,0.018,0.017,0.027,0.025
		L48.561,370.178z M51.362,363.243c-1.849-2.267-2.735-5.084-2.621-7.889l5.382,3.107L51.362,363.243z M55.124,356.729l-6.098-3.52
		c0.256-1.109,0.674-2.194,1.264-3.217c0.588-1.017,1.33-1.911,2.171-2.691l6.08,3.511L55.124,356.729z M54.179,345.983
		c1.847-1.167,4.005-1.837,6.258-1.837c0.625,0,1.251,0.051,1.866,0.149l-2.762,4.783L54.179,345.983z"/>
</g>
</svg>
