<?xml version="1.0" encoding="UTF-8" standalone="no"?>
<!-- Generator: Adobe Illustrator 27.5.0, SVG Export Plug-In . SVG Version: 6.00 Build 0)  -->

<svg
   version="1.1"
   id="Layer_1"
   x="0px"
   y="0px"
   viewBox="0 0 450 450"
   style="enable-background:new 0 0 450 450;"
   xml:space="preserve"
   sodipodi:docname="nuclear_collage.svg"
   inkscape:version="1.4 (86a8ad7, 2024-10-11)"
   xmlns:inkscape="http://www.inkscape.org/namespaces/inkscape"
   xmlns:sodipodi="http://sodipodi.sourceforge.net/DTD/sodipodi-0.dtd"
   xmlns="http://www.w3.org/2000/svg"
   xmlns:svg="http://www.w3.org/2000/svg"><defs
   id="defs122" /><sodipodi:namedview
   id="namedview122"
   pagecolor="#ffffff"
   bordercolor="#000000"
   borderopacity="0.25"
   inkscape:showpageshadow="2"
   inkscape:pageopacity="0.0"
   inkscape:pagecheckerboard="0"
   inkscape:deskcolor="#d1d1d1"
   inkscape:zoom="1.7933333"
   inkscape:cx="225"
   inkscape:cy="225"
   inkscape:window-width="1920"
   inkscape:window-height="1009"
   inkscape:window-x="-8"
   inkscape:window-y="-8"
   inkscape:window-maximized="1"
   inkscape:current-layer="Layer_1" />

<g
   id="g1">
	<path
   style="fill:#333333;"
   d="M298.406,393.733c0,0-1.594,4.454-4.031,6.517c-4.288,3.628-6.242,2.851-6.242,2.851   s3.555-1.845,5.751-6.53c2.356-5.025,3.04-11.348,3.379-13.823c-1.31,2.803-11.326,9.403-11.326,9.403s3.661-4.276,4.738-8.248   c1.465-5.4-1.914-16.52-1.914-16.52s-0.486,6.027-2.936,10.973c-2.45,4.944-5.665,7.37-5.665,7.37s1.984-4.628,1.355-10.759   c-0.607-5.9-6.237-14.898-6.237-14.898s0.915,7.711-0.872,11.898c-3.029,7.096-2.41,13.999-2.41,13.999s-2.554-1.645-1.932-8.778   c0.443-5.085-4.563-10.625-4.563-10.625s0.512,4.672-0.817,9.875c-1.772,6.939-0.268,15.223-0.268,15.223s-0.102-5.035-2.727-9.473   c-2.331-3.94-4.5-4.375-4.5-4.375s3.39,7.489,1.129,13.527c-2.195,5.857,0.484,9.74,0.053,11.145   c-1.1-1.071-1.494-4.109-3.119-7.797c-0.644-1.461-4.355-4.69-4.355-4.69s0.183,9.81,0.794,12.123   c2.08,7.876,3.966,10.087,5.732,11.563c8.98,7.495,18.58,6.841,18.58,6.841s12.073-1.152,19.639-13.7   C300.346,399.021,298.406,393.733,298.406,393.733z M287.971,406.724c-0.007,0.019-0.032,0.028-0.043,0.045   c-0.324,0.612-2.091,4.177-4.639,5.962c-2.975,2.084-5.877,3.366-8.074,3.547c-2.684,0.219-6.871-0.801-9.618-4.846   c-2.747-4.044-1.729-7.713-1.729-7.713s1.467,0.845,3.024,3.214c0.639,0.972,2.065,2.371,2.065,2.371s-1.568-4.971-0.862-8.471   c0.494-2.45,1.873-5.32,1.873-5.32s1.445,4.038,1.802,6.801c0.455,3.529,1.522,5.924,1.522,5.924s-0.354-7.05,1.338-12.106   c0.992-2.965,1.608-6.284,1.608-6.284s1.813,6.142,2.012,8.966c0.313,4.438-2.054,9.887-2.054,9.887s2.037-4.819,4.379-7.514   c1.39-1.599,4.717-3.329,4.717-3.329s-1.011,3.491-2.211,6.393c-0.887,2.141-2.471,4.346-3.424,5.575   c0.702-0.748,1.862-1.723,3.508-2.191c2.173-0.619,4.435-0.335,4.763-0.864C287.982,406.666,288.001,406.638,287.971,406.724z"
   id="path1" />
</g>
<g
   id="g2">
	<path
   style="fill:#333333;"
   d="M92.517,41.915c0.56-0.685,0.889-1.504,0.889-2.387c0-1.882-1.491-3.469-3.561-4.067   c0.164-0.496,0.259-1.014,0.259-1.552c0-3.309-3.311-5.992-7.396-5.992c-0.585,0-1.152,0.061-1.698,0.165   c-0.848-1.485-2.691-2.521-4.844-2.521c-2.229,0-4.137,1.107-4.94,2.678c-0.931-0.604-2.109-0.968-3.395-0.968   c-3,0-5.433,1.971-5.433,4.401c0,0.114,0.011,0.225,0.021,0.337c-1.153-0.799-2.648-1.284-4.284-1.284   c-2.811,0-5.204,1.425-6.157,3.43c-0.373-0.083-0.758-0.143-1.164-0.143c-2.424,0-4.39,1.592-4.39,3.556   c0,0.208,0.033,0.409,0.076,0.607c-1.477,0.563-3.525,1.572-5.184,3.247c-1.76,1.777-3.629,5.84-3.495,6.484h2.016   c0,0,1.292-2.067,2.904-2.387c0.835-0.166,2.143,0.481,3.212,1.142c0.504,0.489,1.107,0.906,1.78,1.242l0.003,0.002v-0.001   c1.053,0.524,2.28,0.837,3.598,0.866c-0.871,0.883-1.562,1.835-1.921,2.839c-1.781,4.978-0.957,8.716-0.957,8.716h2.357   c0,0-0.763-7.254,3.538-7.565c2.142-0.155,4.134,0.205,5.89,0.33c0.339,0.391,0.722,0.754,1.144,1.085   c-0.778,3.642-0.228,6.15-0.228,6.15h2.357c0,0-0.264-2.581,0.432-4.73c1.182,0.443,2.495,0.697,3.883,0.697   c0.636,0,1.257-0.052,1.857-0.151c0.338,0.093,0.685,0.171,1.042,0.227c0.936,2.899,4.182,5.041,8.054,5.041   c2.834,0,5.334-1.148,6.84-2.899c3.892-0.503,6.87-3.228,6.87-6.523c0-0.207-0.015-0.411-0.038-0.613   C94.562,50.479,96,48.693,96,46.633C96,44.592,94.59,42.818,92.517,41.915z"
   id="path2" />
	<polygon
   style="fill:#333333;"
   points="86.924,72.355 79.58,78.056 79.58,72.355 71.515,78.615 68.897,78.615 66.874,61.233    58.087,61.233 56.064,78.615 55.831,78.615 53.808,61.233 45.021,61.233 42.999,78.615 42.797,78.615 41.67,49.757 35.9,49.757    34.774,78.615 34.572,78.615 34.572,94.251 94.269,94.251 94.269,81.639 94.269,80.193 94.269,78.615 94.269,72.355 86.924,78.057     "
   id="polygon2" />
</g>
<g
   id="g10">
	<path
   style="fill:#333333;"
   d="M391.149,415.145l-0.564-6.786c-0.02-0.234-0.08-0.464-0.179-0.678l-4.335-9.385   c-0.326-0.707-1.031-1.159-1.807-1.159h-19.655c-0.612,0-1.191,0.282-1.568,0.768l-6.071,7.792   c-0.277,0.355-0.665,0.605-1.101,0.711l-8.978,2.183c-0.793,0.192-1.39,0.853-1.505,1.664l-0.677,4.774   c-0.172,1.207,0.76,2.286,1.972,2.286h2.835c0.888-1.48,2.49-2.482,4.336-2.482c1.847,0,3.449,1.002,4.336,2.482h20.326   c0.924-1.26,2.402-2.088,4.079-2.088c1.677,0,3.155,0.828,4.079,2.088h2.2h0.292h4.797v-1.535h-2.87   C391.14,415.576,391.168,415.365,391.149,415.145z M365.133,400.222h8.075v6.564h-13.419L365.133,400.222z M376.101,406.786v-6.564   h7.479l3.048,6.564H376.101z"
   id="path3" />
	<path
   style="fill:#333333;"
   d="M413.01,403.963c-0.372-1.618-2.139-2.623-4.114-2.456c-0.012-0.091-0.007-0.183-0.029-0.274   c-0.413-1.717-2.554-2.714-4.781-2.228c-2.227,0.486-3.697,2.271-3.283,3.988c0.182,0.754,0.708,1.357,1.417,1.77   c-0.11,0.182-0.2,0.368-0.273,0.562c-0.4-0.007-0.809,0.018-1.225,0.112c-2.25,0.513-3.735,2.398-3.317,4.21   c0.186,0.807,0.728,1.449,1.46,1.884c-0.445,0.597-0.714,1.27-0.728,1.961c-0.964,0.314-1.623,1.015-1.696,1.773   c-0.205-0.045-0.425-0.063-0.657-0.015c-0.669,0.139-1.11,0.647-0.986,1.135c0.124,0.488,0.768,0.773,1.436,0.634   c0.332-0.068,0.606-0.23,0.785-0.432c0.57,0.48,1.478,0.703,2.417,0.51c0.43-0.089,0.805-0.259,1.122-0.474   c0.926,0.343,2.02,0.443,3.145,0.195c2.043-0.45,3.509-1.868,3.781-3.436c0.471,0.026,0.958,0.001,1.453-0.108   c2.318-0.515,3.849-2.403,3.418-4.22c-0.15-0.63-0.525-1.16-1.035-1.573C412.599,406.643,413.315,405.286,413.01,403.963z"
   id="path4" />
	<path
   style="fill:#333333;"
   d="M413.798,388.286c0.221-0.292,0.353-0.636,0.347-1.011c-0.014-0.913-0.797-1.696-1.844-1.955   c-0.467-0.998-1.598-1.718-2.925-1.738c-0.243-0.004-0.478,0.021-0.705,0.063c-0.339-0.111-0.7-0.184-1.082-0.189   c-0.873-0.014-1.662,0.277-2.233,0.759c-0.346-0.117-0.716-0.191-1.106-0.197c-1.741-0.027-3.151,1.156-3.149,2.644   c0.001,0.516,0.181,0.996,0.476,1.41c-1.056,0.414-1.796,1.333-1.801,2.415c-0.005,1.323,1.087,2.425,2.525,2.658   c-0.008,0.074-0.025,0.145-0.025,0.22c0.006,1.406,1.367,2.573,3.038,2.605c1.067,0.02,1.998-0.429,2.534-1.121   c0.513,0.397,1.179,0.65,1.917,0.661c1.608,0.023,2.911-1.081,2.911-2.464c0-0.435-0.141-0.842-0.368-1.201   c1.296-0.11,2.282-0.966,2.265-2.048C414.563,389.218,414.267,388.686,413.798,388.286z"
   id="path5" />
	<path
   style="fill:#333333;"
   d="M353.6,392.467c1.884,0.031,3.613-0.502,4.957-1.403c0.853,0.253,1.766,0.404,2.722,0.42   c1.311,0.022,2.552-0.21,3.666-0.628c1.333,0.828,2.981,1.337,4.78,1.366c3.098,0.051,5.813-1.317,7.217-3.371   c1.266,2.603,4.354,4.473,7.997,4.532c2.968,0.048,5.605-1.118,7.211-2.936c4.084-0.463,7.248-3.279,7.304-6.748   c0.004-0.218-0.009-0.433-0.029-0.645c2.22-0.906,3.756-2.762,3.791-4.93c0.035-2.147-1.41-4.037-3.564-5.024   c0.598-0.711,0.954-1.568,0.969-2.497c0.032-1.982-1.496-3.69-3.655-4.355c0.177-0.515,0.285-1.055,0.294-1.616   c0.056-3.482-3.365-6.362-7.643-6.433c-0.609-0.01-1.201,0.044-1.771,0.143c-0.863-1.578-2.784-2.697-5.039-2.734   c-2.334-0.037-4.352,1.094-5.22,2.733c-0.963-0.651-2.19-1.054-3.535-1.075c-3.143-0.052-5.723,1.98-5.764,4.539   c-0.002,0.119,0.007,0.237,0.017,0.355c-1.194-0.86-2.751-1.397-4.465-1.424c-3.817-0.063-6.953,2.407-7.004,5.516   c-0.003,0.178,0.007,0.353,0.024,0.528c-2.464,0.029-4.465,1.634-4.497,3.656c-0.009,0.568,0.149,1.104,0.42,1.591   c-2.819,0.866-4.84,3.063-4.882,5.672c-0.021,1.315,0.467,2.541,1.31,3.559c-1.859,1.1-3.083,2.87-3.116,4.893   C346.038,389.57,349.398,392.398,353.6,392.467z"
   id="path6" />
	<path
   style="fill:#333333;"
   d="M382.593,415.977c-2.383,0-4.321,1.939-4.321,4.324c0,2.385,1.939,4.324,4.321,4.324   c2.383,0,4.321-1.94,4.321-4.324C386.914,417.916,384.976,415.977,382.593,415.977z M382.593,423.244   c-1.622,0-2.942-1.32-2.942-2.943c0-1.623,1.32-2.943,2.942-2.943c1.622,0,2.941,1.32,2.941,2.943   C385.534,421.924,384.215,423.244,382.593,423.244z"
   id="path7" />
	<path
   style="fill:#333333;"
   d="M382.593,418.357c-1.071,0-1.942,0.872-1.942,1.943c0,1.071,0.871,1.943,1.942,1.943   c1.07,0,1.941-0.872,1.941-1.943C384.534,419.229,383.663,418.357,382.593,418.357z"
   id="path8" />
	<path
   style="fill:#333333;"
   d="M353.852,415.583c-2.383,0-4.321,1.939-4.321,4.324c0,2.385,1.938,4.324,4.321,4.324   c2.384,0,4.322-1.939,4.322-4.324C358.174,417.522,356.235,415.583,353.852,415.583z M353.852,422.852   c-1.622,0-2.942-1.321-2.942-2.944c0-1.623,1.32-2.943,2.942-2.943c1.622,0,2.942,1.32,2.942,2.943   C356.794,421.53,355.474,422.852,353.852,422.852z"
   id="path9" />
	<path
   style="fill:#333333;"
   d="M353.852,417.964c-1.071,0-1.942,0.872-1.942,1.943c0,1.072,0.871,1.944,1.942,1.944   s1.942-0.872,1.942-1.944C355.794,418.836,354.923,417.964,353.852,417.964z"
   id="path10" />
</g>
<g
   id="g11">
	<path
   style="fill:#333333;"
   d="M409.854,47.083c-1.142,1.433-3.451,2.395-6.179,2.395c-2.623,0-4.872-0.849-6.102-2.142   c-1.229,1.293-3.478,2.142-6.102,2.142c-2.174,0-4.081-0.589-5.373-1.525c0,0-0.914-1.017-1.79-2.668   c-0.739-1.393-1.319-3.314-0.939-5.683c0.904-5.629,6.882-5.473,6.882-5.473v-1.664c0,0-10.649-3.72-15.496,1.664   c-2.773,3.081-2.652,8.974-3.919,12.46c-0.564,1.549-1.399,2.624-2.888,2.763c-0.336,0.031-0.544,0.071-0.661,0.117   c-0.075,0.001-0.147,0.009-0.224,0.009c-2.623,0-4.872-0.849-6.102-2.142c-1.229,1.293-3.479,2.142-6.102,2.142   c-2.556,0-4.74-0.845-5.946-2.129v35.441v3.325v2.541h60.939v-2.807v-3.012V47.083z M373.803,57.964   c1.075,0.084,2.1,0.223,3.085,0.4c0.017-0.631,0.168-1.637,0.953-2.014c1.173-0.563,4.001-0.113,4.001-0.113l-1.802,2.869   c1.236,0.366,2.393,0.796,3.464,1.274c0.192-0.488,0.537-0.939,1.154-1.168c1.76-0.651,5.842,0.88,5.842,0.88l-2.556,2.781   l-0.007-0.001c2.645,1.829,4.502,3.8,5.661,5.245c1.298-1.398,3.657-2.178,6.236-1.869l1.505,0.181l-0.005,0.048   c-0.317,2.642-0.978,4.735-4.668,4.292c3.69,0.443,3.837,2.633,3.52,5.275l-0.006,0.048l-1.505-0.181   c-2.754-0.331-4.974-1.808-5.792-3.634c-2.085,1.697-5.559,4.017-9.995,5.258l1.526,3.845c0,0-5.041-0.046-6.598-1.096   c-0.868-0.586-1.464-1.337-1.828-1.894c-0.01,0-0.019,0.001-0.028,0c-11.371-0.416-16.435-10.515-16.435-10.515   S363.705,57.175,373.803,57.964z"
   id="path11" />
	<polygon
   style="fill:#333333;"
   points="367.655,70.37 369.863,68.635 371.598,70.844 373.17,69.608 371.435,67.399 373.644,65.663    372.407,64.09 370.199,65.826 368.465,63.617 366.893,64.853 368.628,67.062 366.419,68.798  "
   id="polygon11" />
	<rect
   x="391.258"
   y="31.158"
   style="fill:#333333;"
   width="19.087"
   height="3.73"
   id="rect11" />
</g>
<g
   id="g23">
	<path
   style="fill:#333333;"
   d="M290.366,270.999c3.642,0,7.64-3.927,7.64-7.503c0-4.366-4.309-8.582-7.648-8.663l-0.309-0.008   l-0.052-0.303c-1.099-6.335-6.526-10.591-13.506-10.591c-4.026,0-7.853,1.756-10.502,4.817l-0.14,0.162l-0.21-0.038   c-0.576-0.104-1.11-0.154-1.633-0.154c-4.413,0-7.823,3.866-8.793,7.504l-0.071,0.267l-0.275,0.012   c-3.454,0.146-6.235,4.485-6.235,7.98c0,3.594,2.922,6.518,6.514,6.518H290.366z M278.326,265.369   c-0.567,0.277-1.253,0.567-2.008,0.567c-0.853,0.001-1.618-0.341-2.223-0.68c-1.555-0.879-1.909-2.227-1.604-2.521   c0.142-0.139,0.408-0.15,0.748-0.11v0.078c0,0.138,0.112,0.25,0.25,0.25c0.138,0,0.25-0.112,0.25-0.25v-0.374   c0.001,0.001,0.003,0.001,0.004,0.001l0.724,0.186c0.086,0.021,0.141,0.085,0.145,0.105v0.729c0,0.138,0.112,0.25,0.25,0.25   c0.138,0,0.25-0.112,0.25-0.25l-0.024-0.683c0.005-0.003,0.031-0.01,0.071-0.003c0.261,0.047,0.527,0.08,0.795,0.098   c0.074,0.004,0.113,0.046,0.113,0.06v0.806c0,0.138,0.112,0.25,0.25,0.25s0.25-0.112,0.25-0.25v-0.806   c0-0.014,0.039-0.056,0.115-0.06c0.257-0.017,0.523-0.049,0.791-0.098c0.023-0.004,0.04-0.004,0.049-0.009v0.694   c0,0.138,0.112,0.25,0.25,0.25c0.138,0,0.25-0.112,0.25-0.25v-0.728c0.005-0.022,0.06-0.087,0.148-0.108l0.718-0.185   c0.003-0.001,0.005-0.001,0.007-0.001v0.373c0,0.138,0.112,0.25,0.25,0.25s0.25-0.112,0.25-0.25v-0.078   c0.34-0.039,0.606-0.028,0.748,0.11C280.469,263.038,280.053,264.514,278.326,265.369z M270.319,256.397   c-0.05-2.715,2.118-4.964,4.888-5.448c0.359-0.063,0.73-0.098,1.109-0.098c0.001,0,0.002,0,0.002,0c0.379,0,0.75,0.034,1.111,0.098   c-0.361-0.063-0.732-0.098-1.11-0.098h0.001c0.379,0,0.75,0.034,1.109,0.098c2.77,0.484,4.938,2.733,4.888,5.448   c0.001,0.034,0.003,0.067,0.003,0.101c0,0.238-0.021,0.483-0.06,0.732c-0.1,0.868-0.314,1.455-0.59,1.882   c-0.665,1.028-1.685,1.139-2.345,2.045c-0.046-0.048-0.108-0.079-0.18-0.079c-0.138,0-0.25,0.112-0.25,0.25l0.015,0.444   c-0.011,0.015-0.062,0.053-0.14,0.074l-0.421,0.107l-0.005,0.002l-0.293,0.075c-0.011,0.003-0.019,0.009-0.029,0.012v-0.689   c0-0.138-0.112-0.25-0.25-0.25c-0.138,0-0.25,0.112-0.25,0.25v0.725c-0.004,0.023-0.057,0.082-0.137,0.097   c-0.242,0.044-0.489,0.074-0.732,0.09c-0.036,0.014-0.069-0.017-0.086-0.038v-0.807c0-0.138-0.112-0.25-0.25-0.25   s-0.25,0.112-0.25,0.25l-0.01,0.821c-0.019,0.017-0.048,0.035-0.074,0.023c-0.237-0.014-0.484-0.044-0.734-0.09   c-0.079-0.015-0.132-0.074-0.137-0.092v-0.729c0-0.138-0.112-0.25-0.25-0.25c-0.138,0-0.25,0.112-0.25,0.25l-0.025,0.679   l-0.719-0.185c-0.076-0.021-0.125-0.056-0.129-0.025v-0.494c0-0.138-0.112-0.25-0.25-0.25c-0.071,0-0.134,0.031-0.18,0.079   c-0.66-0.906-1.68-1.017-2.345-2.045c-0.275-0.427-0.489-1.014-0.59-1.882c-0.038-0.248-0.06-0.493-0.06-0.732   C270.316,256.464,270.318,256.431,270.319,256.397z"
   id="path12" />
	<path
   style="fill:#333333;"
   d="M276.691,274.213c-0.007,1.827,0.094,4.238,0.424,4.888c0.449,0.878,1.586,1.256,2.475,0.804   c0.903-0.461,1.264-1.571,0.804-2.476C280.063,276.779,278.173,275.281,276.691,274.213z"
   id="path13" />
	<path
   style="fill:#333333;"
   d="M266.025,274.213c-0.007,1.827,0.094,4.238,0.424,4.888c0.448,0.878,1.586,1.256,2.475,0.804   c0.903-0.461,1.264-1.571,0.804-2.476C269.396,276.779,267.507,275.281,266.025,274.213z"
   id="path14" />
	<path
   style="fill:#333333;"
   d="M255.359,274.213c-0.007,1.827,0.094,4.238,0.424,4.888c0.448,0.878,1.587,1.256,2.475,0.804   c0.903-0.461,1.264-1.571,0.804-2.476C258.73,276.779,256.841,275.281,255.359,274.213z"
   id="path15" />
	<path
   style="fill:#333333;"
   d="M287.357,274.213c-0.007,1.827,0.094,4.238,0.424,4.888c0.448,0.878,1.586,1.256,2.475,0.804   c0.903-0.461,1.264-1.571,0.804-2.476C290.728,276.779,288.839,275.281,287.357,274.213z"
   id="path16" />
	<path
   style="fill:#333333;"
   d="M266.701,285.778c0.152-0.468,0.112-0.966-0.11-1.404c-0.331-0.649-2.221-2.147-3.702-3.216   c-0.007,1.827,0.094,4.238,0.425,4.888c0.447,0.88,1.587,1.258,2.473,0.804C266.225,286.626,266.55,286.246,266.701,285.778z"
   id="path17" />
	<path
   style="fill:#333333;"
   d="M286.51,297.397c1.767,0,3.435,0.775,4.575,2.129l0.401,0.477l0.401-0.476   c1.14-1.354,2.808-2.129,4.576-2.129c1.758,0,3.417,0.767,4.557,2.105c-0.459-4.741-4.305-9.787-9.935-12.629   c-0.299,0.494-0.726,0.918-1.277,1.199c-0.45,0.23-0.954,0.352-1.458,0.352c-1.216,0-2.313-0.673-2.865-1.757   c-0.196-0.385-0.327-1.035-0.414-1.78c-0.768-0.131-1.555-0.211-2.354-0.256v-0.749v-2.167c0-0.828-0.672-1.5-1.5-1.5   s-1.5,0.672-1.5,1.5v2.196v2.201c-0.009,0.029-0.01,0.06-0.02,0.089c-0.265,0.816-0.832,1.482-1.598,1.871   c-0.45,0.23-0.954,0.352-1.457,0.352c-1.217,0-2.315-0.673-2.866-1.757c-0.072-0.142-0.135-0.323-0.19-0.528   c-1.12,0.452-2.18,0.989-3.172,1.599c0.113,0.142,0.21,0.275,0.27,0.393c0.329,0.646,0.388,1.381,0.163,2.071   c-0.224,0.69-0.703,1.251-1.349,1.58c-0.381,0.194-0.806,0.297-1.23,0.297c-0.804,0-1.538-0.357-2.046-0.946   c-2.392,2.537-3.916,5.509-4.192,8.372c1.14-1.344,2.802-2.114,4.563-2.114c1.768,0,3.435,0.775,4.574,2.126l0.41,0.486   l0.403-0.479c1.14-1.352,2.808-2.128,4.575-2.128c1.134,0,2.224,0.322,3.162,0.907v0.906v9.788c0,1.351-1.099,2.45-2.448,2.45   c-1.351,0-2.449-1.1-2.449-2.45c0-0.828-0.672-1.5-1.5-1.5c-0.828,0-1.5,0.672-1.5,1.5c0,3.005,2.444,5.45,5.449,5.45   c3.004,0,5.448-2.445,5.448-5.45v-9.212v-1.023C283.777,297.89,285.109,297.397,286.51,297.397z"
   id="path18" />
	<path
   style="fill:#333333;"
   d="M277.242,286.85c0.438-0.224,0.763-0.604,0.914-1.071c0.152-0.468,0.112-0.966-0.11-1.404   c-0.331-0.649-2.221-2.147-3.702-3.216c-0.007,1.827,0.094,4.238,0.424,4.888C275.216,286.924,276.354,287.302,277.242,286.85z"
   id="path19" />
	<path
   style="fill:#333333;"
   d="M286.285,281.158c-0.007,1.827,0.094,4.238,0.424,4.888c0.448,0.878,1.586,1.256,2.475,0.804   c0.903-0.461,1.264-1.571,0.804-2.476C289.656,283.725,287.767,282.227,286.285,281.158z"
   id="path20" />
	<path
   style="fill:#333333;"
   d="M273.75,257.577c0.685,0,1.241-0.578,1.241-1.292c0-0.714-0.556-1.292-1.241-1.292   c-0.686,0-1.241,0.578-1.241,1.292C272.509,256.999,273.064,257.577,273.75,257.577z"
   id="path21" />
	<path
   style="fill:#333333;"
   d="M278.887,257.577c0.686,0,1.241-0.578,1.241-1.292c0-0.714-0.556-1.292-1.241-1.292   c-0.685,0-1.241,0.578-1.241,1.292C277.646,256.999,278.201,257.577,278.887,257.577z"
   id="path22" />
	<path
   style="fill:#333333;"
   d="M275.774,259.492h1.088c0.223,0,0.366-0.234,0.268-0.433l-0.545-1.089   c-0.109-0.221-0.424-0.221-0.533,0l-0.545,1.089C275.407,259.258,275.552,259.492,275.774,259.492z"
   id="path23" />
</g>
<g
   id="g27">
	<path
   style="fill:#333333;"
   d="M267.842,181.681c-0.166-0.096-0.328-0.197-0.489-0.299c-3.615-2.293-5.899-6.064-6.267-10.344   c-0.101-1.174-0.049-2.349,0.153-3.504c-0.796-0.212-1.608-0.343-2.43-0.392c-1.16,6.618,1.893,13.214,7.77,16.609   c0.766,0.442,1.574,0.822,2.411,1.135c0.364-0.718,0.656-1.472,0.873-2.251C269.162,182.373,268.485,182.053,267.842,181.681z"
   id="path24" />
	<path
   style="fill:#333333;"
   d="M290.388,167.402c-0.783,0.072-1.542,0.216-2.28,0.431c0.156,1.015,0.197,2.041,0.121,3.063   c-0.151,2.053-0.753,4.005-1.788,5.8c-1.026,1.778-2.4,3.266-4.083,4.42c-0.846,0.58-1.751,1.062-2.703,1.438   c0.192,0.763,0.459,1.506,0.797,2.224c3.358-1.324,6.174-3.744,7.987-6.886C290.275,174.707,290.956,171.013,290.388,167.402z"
   id="path25" />
	<path
   style="fill:#333333;"
   d="M268.924,157.529c1.789-0.828,3.774-1.266,5.741-1.266c2.157,0,4.312,0.526,6.233,1.521   c0.188,0.097,0.374,0.197,0.559,0.304c0.627,0.362,1.227,0.777,1.793,1.238c0.553-0.556,1.05-1.163,1.485-1.815   c-0.68-0.558-1.401-1.059-2.154-1.494c-2.432-1.405-5.192-2.147-7.982-2.147c-3.733,0-7.314,1.286-10.174,3.636   c0.459,0.685,0.975,1.312,1.548,1.881C266.87,158.645,267.859,158.022,268.924,157.529z"
   id="path26" />
	<path
   style="fill:#333333;"
   d="M302.992,167.158c-2.249-3.879-5.659-6.663-9.534-8.175c0.509-3.999-0.239-8.19-2.417-11.947   c-3.059-5.274-8.261-8.523-13.863-9.3c-0.004,0.004-0.007,0.009-0.011,0.014c3.588,0.718,6.864,2.909,8.846,6.325   c2.457,4.238,2.296,9.273,0.02,13.237c-0.072,0.126-0.145,0.251-0.221,0.374c-0.682,1.102-1.532,2.111-2.539,2.989   c-0.627,0.547-1.313,1.044-2.059,1.477c-1.261,0.732-2.593,1.228-3.945,1.509c-1.566,0.326-3.161,0.36-4.709,0.119   c-2.414-0.375-4.711-1.415-6.601-3.043c-1.077-0.927-2.024-2.043-2.781-3.338c-0.01-0.017-0.021-0.032-0.03-0.049   c-0.008-0.013-0.014-0.026-0.021-0.039c-3.632-6.312-1.48-14.379,4.82-18.037c1.317-0.765,2.712-1.273,4.128-1.547   c-0.003-0.003-0.005-0.006-0.008-0.009c-2.411,0.32-4.802,1.106-7.037,2.405c-6.801,3.948-10.244,11.462-9.34,18.806   c-0.706,0.302-1.402,0.645-2.083,1.04c-8.174,4.745-11.485,14.64-8.238,23.201c0.028,0.001,0.058,0.001,0.085,0.004   c-1.741-5.739,0.604-12.126,6.013-15.267c2.06-1.196,4.308-1.769,6.529-1.784c0.036-0.001,0.072-0.001,0.108-0.001   c1.469,0.001,2.923,0.249,4.304,0.724c2.29,0.789,4.374,2.204,5.966,4.176c0.422,0.524,0.811,1.086,1.159,1.686   c0.472,0.814,0.846,1.657,1.128,2.517c0.729,2.22,0.839,4.548,0.39,6.756c-0.26,1.274-0.704,2.508-1.324,3.658   c-0.085,0.158-0.175,0.313-0.267,0.467c-1.113,1.877-2.705,3.505-4.726,4.679c-5.552,3.223-12.474,1.949-16.556-2.7   c-0.002,0.025-0.006,0.05-0.009,0.075c5.756,7.387,16.215,9.583,24.539,4.75c0.688-0.399,1.338-0.839,1.956-1.308   c5.953,4.748,14.438,5.637,21.419,1.585c2.45-1.422,4.46-3.311,5.992-5.484c-0.016-0.04-0.032-0.079-0.047-0.119   c-1.026,1.351-2.33,2.527-3.889,3.432c-6.313,3.665-14.402,1.516-18.065-4.802c-0.038-0.064-0.071-0.13-0.107-0.195   c-0.06-0.108-0.12-0.215-0.177-0.324c-0.637-1.218-1.066-2.494-1.297-3.786c-0.412-2.301-0.196-4.651,0.578-6.809   c0.526-1.466,1.311-2.844,2.336-4.057c0.954-1.13,2.113-2.12,3.466-2.905c0.679-0.395,1.379-0.717,2.092-0.979   c1.29-0.474,2.622-0.735,3.95-0.794c0.099-0.004,0.196-0.009,0.295-0.011c4.657-0.1,9.225,2.269,11.729,6.585   c1.823,3.144,2.206,6.728,1.353,9.987c0.078-0.018,0.159-0.032,0.241-0.045C306.252,177.844,305.871,172.121,302.992,167.158z    M277.975,171.805c-1.06,1.837-3.408,2.467-5.245,1.406c-1.836-1.061-2.465-3.41-1.405-5.247c1.061-1.837,3.408-2.467,5.245-1.406   C278.405,167.619,279.034,169.968,277.975,171.805z"
   id="path27" />
</g>
<g
   id="g32">
	<path
   style="fill:#333333;"
   d="M388.286,182.364c-3.369-0.838-6.738-4.269-10.107-5.107c-0.477,0.084-0.954,0.219-1.431,0.421   c0.477,0.202,0.954,0.471,1.431,0.792c-0.477,0.085-0.954,0.221-1.431,0.423c0.477,0.203,0.954,0.472,1.431,0.793   c-0.477,0.084-0.954,0.22-1.431,0.422c0.477,0.202,0.954,0.471,1.431,0.792c-0.477,0.085-0.954,0.221-1.431,0.424   c0.477,0.204,0.954,0.474,1.431,0.795c-0.477,0.086-0.954,0.223-1.431,0.427c0.477,0.204,0.954,0.475,1.431,0.797   c3.369,0.838,6.738,4.268,10.107,5.106c0.478-0.085,0.954-0.223,1.432-0.426c-0.478-0.204-0.954-0.475-1.432-0.797   c0.478-0.085,0.954-0.222,1.432-0.425c-0.478-0.204-0.954-0.473-1.432-0.795c0.478-0.083,0.954-0.219,1.432-0.42   c-0.478-0.203-0.954-0.472-1.432-0.793c0.478-0.083,0.954-0.219,1.432-0.422c-0.478-0.203-0.954-0.473-1.432-0.794   c0.478-0.084,0.954-0.219,1.432-0.421C389.24,182.954,388.764,182.685,388.286,182.364z"
   id="path28" />
	<path
   style="fill:#333333;"
   d="M358.459,149.648c3.138,0,5.681-2.545,5.681-5.685c0-3.14-2.543-5.685-5.681-5.685   c-3.139,0-5.682,2.545-5.682,5.685C352.777,147.104,355.32,149.648,358.459,149.648z"
   id="path29" />
	<path
   style="fill:#333333;"
   d="M377.393,165.309c0,0-13.007-11.586-13.643-12.168c-1.008-0.922-2.938-2.863-4.431-2.863   c-1.965,0-3.559,1.986-3.559,4.436v6.352l-0.087,0.869l-7.24,7.893c-0.747,0.814-0.692,2.079,0.122,2.826   c0.384,0.353,0.868,0.526,1.351,0.526c0.541,0,1.08-0.218,1.475-0.648l4.38-4.774c0,0,0.06,1.215,0.243,2.99l-8.44,22.762   c-0.48,1.294,0.18,2.733,1.475,3.213c0.286,0.106,0.58,0.156,0.869,0.156c1.016,0,1.971-0.623,2.344-1.631l6.595-17.784   l1.082,7.758l8.849,10.43c0.494,0.583,1.198,0.883,1.907,0.883c0.571,0,1.146-0.195,1.616-0.594   c1.053-0.893,1.183-2.471,0.289-3.523l-7.909-9.323c0,0-1.803-13.709-1.803-13.928V157.95l11.885,10.372   c0.38,0.331,0.848,0.493,1.315,0.493c0.558,0,1.112-0.232,1.508-0.685C378.31,167.298,378.225,166.035,377.393,165.309z"
   id="path30" />
	<path
   style="fill:#333333;"
   d="M396.677,194.424h10.974l1.703-16.452h-14.38L396.677,194.424z M406.188,179.282   c0.035-0.274,0.293-0.463,0.56-0.433c0.274,0.035,0.468,0.286,0.433,0.56l-1.707,13.299c-0.032,0.252-0.248,0.437-0.495,0.437   c-0.021,0-0.043-0.001-0.064-0.004c-0.274-0.035-0.468-0.286-0.433-0.56L406.188,179.282z M401.734,179.346   c0-0.276,0.224-0.5,0.5-0.5c0.276,0,0.5,0.224,0.5,0.5v13.299c0,0.276-0.224,0.5-0.5,0.5c-0.276,0-0.5-0.224-0.5-0.5V179.346z    M397.722,178.85c0.268-0.031,0.524,0.158,0.56,0.433l1.707,13.299c0.035,0.274-0.158,0.525-0.433,0.56   c-0.022,0.003-0.043,0.004-0.065,0.004c-0.247,0-0.463-0.184-0.495-0.437l-1.707-13.299   C397.254,179.135,397.447,178.885,397.722,178.85z"
   id="path31" />
	<path
   style="fill:#333333;"
   d="M407.393,175.566h-1.985v-0.442c0-1.116-0.907-2.023-2.023-2.023h-1.873   c-1.116,0-2.023,0.908-2.023,2.023v0.442h-2.553c-1.083,0-1.961,0.878-1.961,1.962v0.02h14.38v-0.02   C409.353,176.445,408.476,175.566,407.393,175.566z M400.487,175.124c0-0.564,0.459-1.023,1.023-1.023h1.873   c0.564,0,1.023,0.459,1.023,1.023v0.442h-3.92V175.124z"
   id="path32" />
</g>
<g
   id="g42">
	<path
   style="fill:#333333;"
   d="M152.685,379.024c2.8-0.463,4.694-3.11,4.231-5.911c-0.463-2.802-3.108-4.697-5.909-4.233   c-2.8,0.463-4.694,3.109-4.231,5.911C147.239,377.593,149.884,379.488,152.685,379.024z"
   id="path33" />
	<path
   style="fill:#333333;"
   d="M159.59,370.059c-0.672-0.626-1.725-0.587-2.347,0.086c-0.624,0.672-0.587,1.724,0.086,2.349   l4.126,3.838l-5.942,3.649c-0.808-0.39-1.754-0.557-2.736-0.395c-0.982,0.163-1.825,0.625-2.464,1.255l-6.799-1.54l2.672-4.964   c0.435-0.808,0.133-1.815-0.674-2.25c-0.808-0.439-1.816-0.133-2.251,0.675l-3.708,6.89c-0.247,0.457-0.265,1.004-0.05,1.477   c0.215,0.473,0.639,0.817,1.145,0.933l8.466,1.916c0.008,0.094,0,0.186,0.015,0.279l2.745,14.403l-3.527,19.432   c-0.205,1.129,0.544,2.21,1.672,2.415c0.126,0.022,0.251,0.033,0.374,0.033c0.984,0,1.858-0.703,2.04-1.707l3.34-18.402   c0.148-0.011,0.295-0.008,0.445-0.032c0.009-0.002,0.018-0.006,0.027-0.007l-0.026,8.866l3.951,9.364   c0.183,1.004,1.056,1.707,2.041,1.707c0.124,0,0.248-0.011,0.373-0.033c1.129-0.206,1.877-1.286,1.672-2.415l-4.227-10.884   l0.309-9.575l-2.604-14.589c-0.016-0.094-0.053-0.178-0.075-0.268l7.398-4.544c0.443-0.272,0.732-0.734,0.784-1.251   c0.052-0.518-0.141-1.029-0.522-1.382L159.59,370.059z"
   id="path34" />
	<polygon
   style="fill:#333333;"
   points="199.5,363.362 197.39,363.854 188.936,360.321 192.527,376.415 198.671,369.595    200.781,369.103  "
   id="polygon34" />
	<path
   style="fill:#333333;"
   d="M162.778,363.222l25.008,0.803l-24.864-2.797c-0.026-0.003-0.054-0.005-0.08-0.006   c-0.552-0.019-1.015,0.415-1.032,0.968C161.792,362.742,162.225,363.204,162.778,363.222z"
   id="path35" />
	<path
   style="fill:#333333;"
   d="M168.241,365.019c-0.551,0.04-0.965,0.521-0.924,1.072c0.041,0.552,0.521,0.966,1.073,0.925   l19.856-1.474l-19.904-0.526C168.309,365.015,168.274,365.016,168.241,365.019z"
   id="path36" />
	<path
   style="fill:#333333;"
   d="M165.578,370.517c-0.027,0.004-0.057,0.01-0.084,0.017c-0.538,0.128-0.87,0.668-0.742,1.205   c0.128,0.538,0.668,0.87,1.206,0.742l22.746-5.422L165.578,370.517z"
   id="path37" />
	<path
   style="fill:#333333;"
   d="M173.482,372.952c0.181,0.523,0.753,0.8,1.275,0.618l14.406-4.994l-14.936,3.065   c-0.04,0.009-0.087,0.021-0.127,0.035C173.578,371.857,173.301,372.429,173.482,372.952z"
   id="path38" />
	<path
   style="fill:#333333;"
   d="M172.418,377.214l17.206-7.12l-17.871,5.234c-0.034,0.01-0.068,0.022-0.102,0.035   c-0.511,0.212-0.754,0.798-0.543,1.309C171.321,377.183,171.907,377.426,172.418,377.214z"
   id="path39" />
	<path
   style="fill:#333333;"
   d="M172.411,379.44c-0.48,0.274-0.646,0.887-0.371,1.366c0.275,0.479,0.887,0.646,1.367,0.37   l16.676-9.565l-17.58,7.781C172.473,379.405,172.441,379.422,172.411,379.44z"
   id="path40" />
	<path
   style="fill:#333333;"
   d="M175.586,382.919c0.329,0.444,0.956,0.539,1.401,0.211l13.556-10.002l-14.646,8.325   c-0.032,0.019-0.069,0.042-0.1,0.065C175.352,381.846,175.257,382.474,175.586,382.919z"
   id="path41" />
	<path
   style="fill:#333333;"
   d="M171.423,391.23c-0.393,0.389-0.396,1.022-0.006,1.415c0.389,0.393,1.023,0.395,1.415,0.007   l18.171-18.007l-19.522,16.532C171.461,391.193,171.441,391.213,171.423,391.23z"
   id="path42" />
</g>
<g
   id="g51">
	<path
   style="fill:#333333;"
   d="M192.596,190.005c-1.438-6.349-3.096-12.661-4.057-19.107c-0.552-3.703-0.716-7.287-0.716-11.009   c0-1.333,0-2.665,0-3.998c0-0.526-0.646-0.287-1.101-0.287c-2.972,0-5.944,0-8.917,0c-0.982,0-1.964,0-2.946,0   c-0.247,0-0.882-0.156-0.882,0.15c0,2.292,0,4.583,0,6.875c0,9.059-2.774,18.065-4.92,26.789   c-1.439-6.294-3.067-12.559-3.987-18.957c-0.522-3.628-0.653-7.127-0.653-10.771c0-1.29,0-2.581,0-3.872   c0-0.433-0.867-0.213-1.217-0.213c-2.993,0-5.986,0-8.979,0c-1.097,0-2.193,0-3.29,0c-0.64,0-0.359,0.625-0.359,1.198   c0,2.636,0.139,5.312-0.051,7.942c-0.468,6.497-1.943,12.869-3.503,19.176c-0.376,1.523-0.759,3.044-1.136,4.567   c-0.042,0.167-0.3,1.518-0.407,1.518c-0.186,0-0.372,0-0.558,0c-1.471,0-2.941,0-4.411,0c-0.381,0-0.762,0-1.144,0   c-0.018,0-0.008,0.689-0.008,0.737c0,1.451,0,2.902,0,4.353c0,1.276,0,2.553,0,3.83c0,0.311-0.014,0.264,0.273,0.264   c3.247,0,6.494,0,9.74,0c12.449,0,24.899,0,37.349,0c4.187,0,8.374,0,12.562,0c0.431,0,1.503,0.258,1.503-0.264   c0-2.728,0-5.455,0-8.183c0-0.34,0.168-0.737-0.215-0.737c-0.901,0-1.803,0-2.704,0   C196.106,190.005,194.351,190.005,192.596,190.005z M180.742,176.673c-0.485,0-0.485-0.753,0-0.753   C181.228,175.919,181.228,176.673,180.742,176.673z M182.624,179.558c-1.152,0.666-2.612,0.666-3.764,0   c0.283-0.49,0.565-0.98,0.848-1.47c0.173-0.3,0.346-0.601,0.52-0.901c0.229-0.398,0.1-0.327,0.514-0.327   c0.394,0,0.249-0.132,0.449,0.213c0.195,0.338,0.39,0.676,0.585,1.015C182.059,178.578,182.342,179.068,182.624,179.558z    M177.482,174.413c0.33-0.569,0.809-1.049,1.378-1.379c0.25,0.435,0.501,0.869,0.752,1.304c0.188,0.325,0.848,1.089,0.848,1.47   c-0.378,0.217-0.099,0.489-0.519,0.489c-0.388,0-0.775,0-1.163,0c-0.6,0-1.2,0-1.799,0   C176.979,175.638,177.152,174.983,177.482,174.413C177.813,173.842,177.162,174.967,177.482,174.413z M181.307,176.296   c0-0.419-0.372-0.333-0.173-0.679c0.182-0.316,0.365-0.632,0.547-0.948c0.314-0.545,0.629-1.09,0.943-1.635   c1.154,0.668,1.881,1.928,1.881,3.262C183.439,176.296,182.373,176.296,181.307,176.296z M159.219,173.034   c1.153,0.668,1.882,1.928,1.882,3.262c-0.533,0-1.066,0-1.6,0c-0.367,0-0.733,0-1.1,0c-0.473,0-0.365,0.081-0.576-0.282   c-0.196-0.342-0.24-0.15-0.04-0.495c0.195-0.338,0.39-0.677,0.585-1.015C158.654,174.014,158.936,173.524,159.219,173.034z    M159.219,179.558c-1.152,0.666-2.612,0.666-3.764,0c0.283-0.49,0.565-0.98,0.848-1.47c0.173-0.3,0.346-0.601,0.52-0.901   c0.23-0.398,0.1-0.327,0.515-0.327c0.394,0,0.249-0.132,0.448,0.213c0.195,0.338,0.39,0.676,0.585,1.015   C158.654,178.578,158.936,179.068,159.219,179.558z M157.337,175.919c0.485,0,0.485,0.753,0,0.753   C156.852,176.673,156.852,175.919,157.337,175.919z M154.077,174.413c0.33-0.569,0.809-1.049,1.378-1.379   c0.251,0.435,0.501,0.869,0.752,1.304c0.188,0.325,0.848,1.089,0.848,1.47c-0.377,0.218-0.1,0.489-0.52,0.489   c-0.388,0-0.775,0-1.163,0c-0.6,0-1.199,0-1.799,0C153.574,175.638,153.747,174.983,154.077,174.413   C154.408,173.842,153.757,174.967,154.077,174.413z"
   id="path43" />
	<path
   style="fill:#333333;"
   d="M151.142,146.622c0.328,1.158,0.836,2.255,1.087,3.436c0.199,0.939-0.021,1.786-0.296,2.675   c1.401-1.493,1.188-3.287,0.581-5.115c-0.64-1.929-1.246-3.434-0.581-5.443C150.769,143.398,150.599,145.042,151.142,146.622   C151.238,146.962,151.028,146.292,151.142,146.622z"
   id="path44" />
	<path
   style="fill:#333333;"
   d="M154.372,146.621c0.619,2.174,1.54,3.843,0.79,6.111c1.408-1.484,1.186-3.294,0.581-5.115   c-0.318-0.958-0.879-2.018-0.915-3.043c-0.102-0.866,0.082-1.584,0.333-2.4C154.001,143.412,153.836,145.029,154.372,146.621   C154.469,146.962,154.261,146.292,154.372,146.621z"
   id="path45" />
	<path
   style="fill:#333333;"
   d="M157.601,146.622c0.33,1.157,0.837,2.255,1.087,3.436c0.199,0.94-0.023,1.785-0.296,2.675   c1.4-1.493,1.188-3.287,0.581-5.115c-0.641-1.929-1.246-3.434-0.581-5.443C157.226,143.398,157.061,145.043,157.601,146.622   C157.698,146.962,157.488,146.292,157.601,146.622z"
   id="path46" />
	<path
   style="fill:#333333;"
   d="M160.831,146.621c0.616,2.175,1.541,3.842,0.79,6.111c1.41-1.482,1.186-3.296,0.581-5.115   c-0.319-0.959-0.877-2.017-0.914-3.043c-0.102-0.866,0.082-1.584,0.333-2.4C160.463,143.413,160.294,145.028,160.831,146.621   C160.928,146.962,160.72,146.292,160.831,146.621z"
   id="path47" />
	<path
   style="fill:#333333;"
   d="M174.747,147.068c0.33,1.157,0.837,2.256,1.087,3.436c0.199,0.939-0.021,1.786-0.296,2.675   c1.4-1.493,1.188-3.287,0.581-5.115c-0.641-1.93-1.245-3.433-0.581-5.443C174.375,143.848,174.205,145.487,174.747,147.068   C174.844,147.409,174.634,146.739,174.747,147.068z"
   id="path48" />
	<path
   style="fill:#333333;"
   d="M177.977,147.068c0.617,2.174,1.541,3.843,0.791,6.111c1.409-1.482,1.186-3.296,0.581-5.115   c-0.319-0.959-0.878-2.017-0.915-3.042c-0.102-0.866,0.081-1.585,0.334-2.4C177.608,143.858,177.44,145.477,177.977,147.068   C178.074,147.409,177.866,146.739,177.977,147.068z"
   id="path49" />
	<path
   style="fill:#333333;"
   d="M181.207,147.068c0.328,1.158,0.837,2.256,1.087,3.436c0.199,0.939-0.021,1.786-0.296,2.675   c1.401-1.493,1.188-3.287,0.581-5.115c-0.641-1.93-1.245-3.433-0.581-5.443C180.836,143.847,180.663,145.488,181.207,147.068   C181.304,147.409,181.094,146.739,181.207,147.068z"
   id="path50" />
	<path
   style="fill:#333333;"
   d="M184.437,147.068c0.62,2.173,1.54,3.844,0.79,6.111c1.41-1.482,1.185-3.296,0.581-5.115   c-0.318-0.959-0.878-2.017-0.915-3.042c-0.099-0.867,0.081-1.583,0.334-2.4C184.068,143.858,183.899,145.477,184.437,147.068   C184.534,147.409,184.326,146.739,184.437,147.068z"
   id="path51" />
</g>
<g
   id="g69">
	<g
   id="g53">
		<path
   style="fill:#333333;"
   d="M171.54,51.913c-0.441-0.078-0.896-0.121-1.362-0.121c-0.001,0-0.001,0-0.002,0    c0,0-0.001,0-0.002,0c-0.466,0-0.921,0.042-1.362,0.121c-3.398,0.594-6.059,3.354-5.999,6.686    c-0.001,0.042-0.003,0.083-0.003,0.125c0,0.293,0.027,0.593,0.073,0.898c0.124,1.065,0.386,1.786,0.725,2.31    c0.827,1.28,2.104,1.396,2.914,2.553c0.004,0.006,0.007,0.011,0.011,0.018c0.046-0.054,0.108-0.091,0.184-0.091    c0.138,0,0.25,0.112,0.25,0.25v0.59c0.001-0.029,0.074,0.03,0.198,0.063c0.171,0.042,0.349,0.091,0.529,0.14l0.35,0.094    c0.061,0.016,0.09,0.005,0.099,0v-0.905c0-0.138,0.112-0.25,0.25-0.25s0.25,0.112,0.25,0.25v0.912    c0,0.048,0.085,0.156,0.218,0.183c0.313,0.06,0.618,0.101,0.904,0.119c0.049,0,0.096-0.012,0.127-0.041    c0.013-0.012,0.035-0.038,0.035-0.074v-1.021c0-0.138,0.112-0.25,0.25-0.25s0.25,0.112,0.25,0.25v1.021    c0,0.036,0.022,0.061,0.035,0.073c0.032,0.03,0.075,0.044,0.127,0.042c0.287-0.019,0.592-0.059,0.907-0.12    c0.131-0.026,0.216-0.135,0.216-0.183v-0.912c0-0.138,0.112-0.249,0.25-0.249h0.001c0.138,0,0.249,0.112,0.249,0.25v0.911    c0.001,0,0.011,0.003,0.033,0.003c0.016,0,0.037-0.002,0.063-0.009l0.353-0.094c0.181-0.049,0.358-0.097,0.534-0.141    c0.119-0.032,0.19-0.088,0.204-0.108l-0.011-0.543c0-0.138,0.112-0.25,0.25-0.25c0.076,0,0.138,0.037,0.184,0.091    c0.004-0.006,0.006-0.012,0.011-0.018c0.809-1.157,2.087-1.273,2.913-2.553c0.338-0.524,0.601-1.244,0.725-2.309    c0.046-0.305,0.073-0.605,0.073-0.898c0-0.042-0.003-0.083-0.003-0.125C177.599,55.267,174.938,52.507,171.54,51.913z     M167.024,60.048c-0.841,0-1.523-0.71-1.523-1.586c0-0.876,0.682-1.586,1.523-1.586s1.523,0.71,1.523,1.586    C168.547,59.338,167.865,60.048,167.024,60.048z M169.508,62.398c-0.272,0-0.45-0.287-0.328-0.53l0.668-1.337    c0.135-0.27,0.521-0.27,0.655,0l0.668,1.337c0.122,0.244-0.055,0.53-0.328,0.53H169.508z M173.328,60.048    c-0.841,0-1.523-0.71-1.523-1.586c0-0.876,0.682-1.586,1.523-1.586c0.841,0,1.523,0.71,1.523,1.586    C174.851,59.338,174.169,60.048,173.328,60.048z"
   id="path52" />
		<path
   style="fill:#333333;"
   d="M173.636,66.53c-0.138,0-0.25-0.112-0.25-0.25v-0.491c-0.021,0.001-0.046,0.003-0.076,0.011    c-0.168,0.041-0.343,0.089-0.52,0.137l-0.354,0.095c-0.141,0.036-0.226,0.149-0.226,0.199v0.912c0,0.138-0.111,0.251-0.249,0.251    h-0.001c-0.138,0-0.25-0.112-0.25-0.25V66.23c0,0.006-0.025-0.007-0.065-0.007c-0.017,0-0.036,0.002-0.058,0.005    c-0.334,0.064-0.66,0.107-0.967,0.128c-0.106,0.007-0.195,0.072-0.195,0.143v1.021c0,0.138-0.112,0.25-0.25,0.25    s-0.25-0.112-0.25-0.25v-1.021c0-0.071-0.089-0.136-0.195-0.143h-0.001c-0.307-0.02-0.632-0.063-0.967-0.128    c-0.079-0.015-0.121,0.005-0.127,0.011l0.005,0.903c0,0.138-0.112,0.25-0.25,0.25s-0.25-0.112-0.25-0.25V66.23    c0-0.05-0.085-0.164-0.224-0.199l-0.003-0.001h-0.001l-0.351-0.094c-0.177-0.048-0.351-0.095-0.523-0.138    c-0.029-0.007-0.053-0.009-0.073-0.009v0.491c0,0.138-0.112,0.25-0.25,0.25s-0.25-0.112-0.25-0.25v-0.028    c-0.452-0.058-0.801-0.051-0.985,0.128c-0.374,0.362,0.061,2.016,1.968,3.095c0.742,0.416,1.681,0.834,2.727,0.834    c0.926,0,1.768-0.357,2.463-0.697c2.119-1.05,2.63-2.86,2.232-3.232c-0.184-0.179-0.533-0.186-0.985-0.127v0.028    C173.886,66.418,173.774,66.53,173.636,66.53z"
   id="path53" />
	</g>
	<path
   style="fill:#333333;"
   d="M169.995,40.559c-4.63,0-9.48,2.149-12.656,5.608c-2.482,2.703-3.696,5.979-3.419,9.226   c0.244,2.852,1.928,7.059,5.151,12.86c0.974,1.752,2.276,8.318,2.696,10.701l0.146,0.827h15.325h0.839l0.146-0.827   c0.42-2.382,1.723-8.949,2.696-10.701c2.296-4.134,5.154-9.279,5.154-12.945C186.073,47.451,178.56,40.559,169.995,40.559z    M179.171,67.281c-1.12,2.014-2.335,8.165-2.768,10.499h-12.815c-0.434-2.334-1.648-8.485-2.768-10.499   c-3.039-5.472-4.69-9.528-4.906-12.058c-0.294-3.437,1.415-6.086,2.899-7.703c2.81-3.06,7.095-4.961,11.183-4.961   c7.368,0,14.078,6.077,14.078,12.749C184.073,58.456,181.24,63.557,179.171,67.281z"
   id="path54" />
	<path
   style="fill:#333333;"
   d="M176.606,80.646h-13.052c-0.698,0-1.263,0.566-1.263,1.264c0,0.698,0.565,1.264,1.263,1.264h13.052   c0.698,0,1.263-0.566,1.263-1.264C177.87,81.211,177.304,80.646,176.606,80.646z"
   id="path55" />
	<path
   style="fill:#333333;"
   d="M176.606,84.227h-13.052c-0.698,0-1.263,0.566-1.263,1.264c0,0.698,0.565,1.264,1.263,1.264h13.052   c0.698,0,1.263-0.566,1.263-1.264C177.87,84.793,177.304,84.227,176.606,84.227z"
   id="path56" />
	<path
   style="fill:#333333;"
   d="M175.239,87.808h-10.318c-0.551,0-0.999,0.566-0.999,1.264c0,0.698,0.447,1.264,0.999,1.264h10.318   c0.551,0,0.999-0.565,0.999-1.264C176.238,88.373,175.79,87.808,175.239,87.808z"
   id="path57" />
	<path
   style="fill:#333333;"
   d="M151.022,54.889c0-0.552-0.448-1-1-1H138.78c-0.552,0-1,0.448-1,1c0,0.552,0.448,1,1,1h11.242   C150.574,55.889,151.022,55.441,151.022,54.889z"
   id="path58" />
	<path
   style="fill:#333333;"
   d="M141.397,42.677l10.163,4.806c0.138,0.065,0.284,0.096,0.427,0.096c0.375,0,0.734-0.211,0.904-0.573   c0.236-0.499,0.023-1.095-0.476-1.331l-10.163-4.806c-0.5-0.237-1.096-0.023-1.332,0.477   C140.684,41.845,140.897,42.441,141.397,42.677z"
   id="path59" />
	<path
   style="fill:#333333;"
   d="M156.541,40.542c0.198,0.241,0.484,0.365,0.773,0.365c0.223,0,0.448-0.074,0.634-0.227   c0.427-0.351,0.489-0.981,0.138-1.408l-7.137-8.691c-0.35-0.426-0.98-0.489-1.408-0.138c-0.427,0.351-0.489,0.981-0.138,1.408   L156.541,40.542z"
   id="path60" />
	<path
   style="fill:#333333;"
   d="M164.009,36.396c0.114,0.454,0.521,0.756,0.969,0.756c0.081,0,0.163-0.01,0.245-0.03   c0.536-0.134,0.861-0.678,0.726-1.213L163.207,25c-0.134-0.536-0.681-0.859-1.213-0.726c-0.536,0.134-0.861,0.678-0.726,1.213   L164.009,36.396z"
   id="path61" />
	<path
   style="fill:#333333;"
   d="M173.317,37.016c0.065,0.013,0.131,0.019,0.195,0.019c0.468,0,0.886-0.33,0.98-0.806l2.18-11.035   c0.107-0.542-0.245-1.068-0.787-1.175c-0.542-0.107-1.067,0.246-1.175,0.787l-2.18,11.035   C172.423,36.383,172.775,36.909,173.317,37.016z"
   id="path62" />
	<path
   style="fill:#333333;"
   d="M181.275,40.576c0.307,0,0.609-0.14,0.805-0.406l6.684-9.044c0.328-0.444,0.234-1.07-0.21-1.398   c-0.445-0.329-1.071-0.234-1.398,0.21l-6.684,9.044c-0.328,0.444-0.234,1.07,0.21,1.399   C180.861,40.513,181.069,40.576,181.275,40.576z"
   id="path63" />
	<path
   style="fill:#333333;"
   d="M185.904,46.571c0.18,0.336,0.525,0.527,0.882,0.527c0.16,0,0.322-0.038,0.472-0.119l9.905-5.32   c0.486-0.261,0.669-0.868,0.408-1.354c-0.261-0.487-0.869-0.67-1.354-0.408l-9.905,5.32   C185.826,45.478,185.643,46.084,185.904,46.571z"
   id="path64" />
	<path
   style="fill:#333333;"
   d="M200.156,52.776l-11.228,0.575c-0.551,0.028-0.976,0.498-0.947,1.05   c0.027,0.534,0.469,0.949,0.998,0.949c0.018,0,0.035,0,0.052-0.001l11.227-0.575c0.551-0.028,0.976-0.498,0.947-1.05   C201.178,53.171,200.706,52.756,200.156,52.776z"
   id="path65" />
	<path
   style="fill:#333333;"
   d="M198.218,66.104l-10.396-4.28c-0.509-0.209-1.095,0.034-1.306,0.544   c-0.21,0.511,0.033,1.095,0.544,1.306l10.396,4.28c0.125,0.051,0.254,0.076,0.38,0.076c0.393,0,0.766-0.234,0.925-0.62   C198.972,66.898,198.729,66.314,198.218,66.104z"
   id="path66" />
	<path
   style="fill:#333333;"
   d="M183.202,69.01c-0.371-0.408-1.003-0.439-1.413-0.066c-0.408,0.372-0.438,1.004-0.066,1.413   l7.571,8.314c0.197,0.217,0.468,0.327,0.74,0.327c0.24,0,0.481-0.086,0.673-0.261c0.408-0.372,0.438-1.004,0.066-1.413   L183.202,69.01z"
   id="path67" />
	<path
   style="fill:#333333;"
   d="M159.101,70.407c-0.461-0.307-1.082-0.179-1.386,0.281l-6.212,9.374   c-0.305,0.46-0.179,1.081,0.281,1.386c0.17,0.113,0.362,0.167,0.551,0.167c0.324,0,0.642-0.157,0.834-0.448l6.212-9.374   C159.687,71.332,159.561,70.712,159.101,70.407z"
   id="path68" />
	<path
   style="fill:#333333;"
   d="M153.57,64.491c-0.286-0.473-0.901-0.624-1.373-0.338l-9.621,5.819   c-0.473,0.286-0.624,0.9-0.338,1.373c0.188,0.311,0.518,0.482,0.856,0.482c0.176,0,0.355-0.046,0.517-0.145l9.621-5.819   C153.705,65.579,153.856,64.964,153.57,64.491z"
   id="path69" />
</g>
<g
   id="g76">
	<path
   style="fill:#333333;"
   d="M261.771,49.562c1.171,6.6,0.384,12.318-1.81,15.27l10.426-1.852   c0.254-0.425,0.585-0.831,0.963-1.221V36.593c-0.886-1.067-1.343-2.221-1.391-3.434l-15.113,2.684   C258.191,38.049,260.753,43.825,261.771,49.562z"
   id="path70" />
	<path
   style="fill:#333333;"
   d="M249.303,51.776c1.274,7.184,4.627,12.189,6.839,12.189c0.076,0,0.152-0.006,0.227-0.02   c1.987-0.353,3.88-5.796,2.449-13.859c-1.274-7.184-4.627-12.189-6.839-12.189c-0.076,0-0.152,0.006-0.227,0.02   C249.765,38.269,247.872,43.712,249.303,51.776z"
   id="path71" />
	<path
   style="fill:#333333;"
   d="M256.204,66.901c0.227,0,0.454-0.02,0.679-0.06c4.222-0.749,6.191-8.154,4.583-17.226   c-1.592-8.972-6.025-15.342-10.229-14.596c-4.222,0.75-6.191,8.155-4.583,17.226C248.161,60.738,252.178,66.901,256.204,66.901z    M251.916,36.96c2.536,0,6.155,4.972,7.581,13.005c1.457,8.216-0.393,14.451-2.964,14.907c-0.109,0.019-0.219,0.029-0.329,0.029   c-2.536,0-6.155-4.972-7.581-13.005c-1.457-8.216,0.393-14.451,2.964-14.907C251.695,36.97,251.806,36.96,251.916,36.96z"
   id="path72" />
	<path
   style="fill:#333333;"
   d="M301.77,37.253c-2.917,2.404-8.283,3.956-14.71,3.956c-6.427,0-11.793-1.552-14.71-3.956v24.788   c-1.08,1.026-1.699,2.184-1.699,3.424c0,4.287,7.208,7.645,16.409,7.645c9.201,0,16.408-3.358,16.408-7.645   c0-1.24-0.618-2.398-1.698-3.423V37.253z M272.1,65.465c0-0.32,0.091-0.644,0.25-0.966v0.896h0.009   c-0.001,0.023-0.011,0.047-0.011,0.07c0,2.249,5.597,5.384,14.712,5.384c9.115,0,14.712-3.136,14.712-5.384   c0-0.023-0.01-0.047-0.011-0.07h0.009v-0.895c0.158,0.322,0.249,0.646,0.249,0.964c0,2.763-6.143,5.841-14.959,5.841   C278.242,71.307,272.1,68.228,272.1,65.465z M291.78,61.243c-1.37,0.793-2.96,1.248-4.656,1.248c-1.697,0-3.287-0.454-4.657-1.248   l3.959-6.86c0.205,0.119,0.443,0.188,0.698,0.188c0.254,0,0.492-0.069,0.697-0.188L291.78,61.243z M291.78,45.103   c1.413,0.818,2.592,1.997,3.409,3.411c0.792,1.371,1.246,2.962,1.246,4.66h-7.915c0-0.255-0.069-0.493-0.189-0.699   c-0.122-0.212-0.299-0.388-0.511-0.511L291.78,45.103z M288.055,53.173c0,0.514-0.417,0.932-0.931,0.932   c-0.515,0-0.932-0.417-0.932-0.932c0-0.515,0.417-0.932,0.932-0.932C287.638,52.241,288.055,52.659,288.055,53.173z    M282.467,45.103l3.959,6.861c-0.212,0.122-0.389,0.299-0.511,0.511c-0.119,0.206-0.188,0.443-0.188,0.698h-7.915   c0-1.698,0.454-3.289,1.246-4.66C279.876,47.1,281.054,45.921,282.467,45.103z"
   id="path73" />
	<path
   style="fill:#333333;"
   d="M287.06,38.049c8.622,0,13.916-2.966,13.916-5.093c0-2.127-5.294-5.094-13.916-5.094   c-8.622,0-13.916,2.967-13.916,5.094C273.144,35.083,278.438,38.049,287.06,38.049z"
   id="path74" />
	<path
   style="fill:#333333;"
   d="M287.06,40.481c9.057,0,16.15-3.306,16.15-7.525c0-4.22-7.094-7.525-16.15-7.525   c-9.057,0-16.151,3.306-16.151,7.525C270.908,37.176,278.003,40.481,287.06,40.481z M287.06,27.431   c8.339,0,14.15,2.912,14.15,5.525c0,2.613-5.812,5.525-14.15,5.525c-8.34,0-14.151-2.912-14.151-5.525   C272.908,30.343,278.72,27.431,287.06,27.431z"
   id="path75" />
	<path
   style="fill:#333333;"
   d="M297.432,82.927c-4.043-0.427-8.131-0.35-12.234-0.35c-1.26,0-5.167,0.619-6.14-0.26   c-1.609-1.455,1.092-1.499,0.199-3.133c-0.615-1.125-4.151-1.251-5.209-1.313c-2.622-0.152-5.404,0.265-8.007-0.069   c-2.845-0.365-0.56-0.012-0.56-2.378c0-0.947-0.699-1.684-3.673-2.109c-2.009-0.288-3.989,0.45-5.844-0.502   c-2.064-1.061-1.927-4.033-3.037-6.282l-1.438-1.157c-0.57,5.541-4.409,8.499-4.942,12.997c-0.593,4.998,8.442,1.968,9.659,6.18   c0.643,2.231-2.069,2.757-0.261,4.751c1.566,1.727,4.702,1.131,6.758,1.131c2.775,0,5.551,0.006,8.325,0   c1.814-0.004,3.335-0.333,4.451,1.11c0.631,0.815-0.67,1.489,0.43,2.485c0.773,0.701,2.783,0.322,3.723,0.332   c3.766,0.038,9.011,0.462,12.743,0.094c3.745-0.37,6.639-0.39,8.862-3.719C304.515,85.826,302.764,83.49,297.432,82.927z"
   id="path76" />
</g>
<g
   id="g81">
	<path
   style="fill:#333333;"
   d="M92.467,193.399l-16.463-6.215v-6.748c3.38-3.25,5.652-8.02,5.967-13.439l0.426-7.343   c0.34-5.854-1.607-11.482-5.342-15.44c-3.043-3.225-6.995-5.001-11.126-5.001h-1.285c-4.191,0-8.184,1.82-11.243,5.125   c-3.763,4.065-5.657,9.803-5.197,15.743l0.569,7.343c0.406,5.248,2.579,9.8,5.795,12.941v6.818l-16.463,6.215   c-2.711,1.023-4.533,3.659-4.533,6.6v1H96l1-0.042v-1C97,197.059,95.178,194.423,92.467,193.399z M53.852,175.285   c0.05,0.537,0.175,1.088,0.366,1.628c-0.745-1.023-1.396-2.148-1.921-3.368L53.852,175.285z M50.179,159.252   c-0.042-0.934-0.023-1.86,0.061-2.772c1.759-0.799,6-2.795,11.416-5.83c3.604-2.019,6.262-4.091,7.999-5.628   c0.276,1.603,1.212,3.548,3.53,5.66c3.114,2.837,5.841,3.908,6.942,4.253c0.2,1.169,0.295,2.368,0.284,3.587l-5.192,2.114   c-0.276-0.04-0.565-0.042-0.872,0.031c-5.794,1.525-11.859,1.525-17.654,0c-0.43-0.104-0.833-0.082-1.197,0.033L50.179,159.252z    M71.503,181.293c-1.837,0.996-3.866,1.567-6.001,1.567h-0.289c-2.44,0-4.736-0.709-6.756-1.958   C62.72,182.586,67.206,182.717,71.503,181.293z M77.223,174.79l1.209-1.351c-0.39,0.907-0.843,1.768-1.357,2.573   C77.163,175.598,77.223,175.185,77.223,174.79z M79.974,166.881c-0.083,1.426-0.328,2.795-0.688,4.102l-2.062,2.306   c0-3.247,0-6.493,0-9.739c0.001-0.998-0.311-1.803-0.816-2.32l3.989-1.624L79.974,166.881z M54.455,161.454   c-0.396,0.514-0.641,1.227-0.64,2.097c0,3.398,0,6.796,0,10.194l-2.365-2.646c-0.338-1.22-0.579-2.496-0.682-3.829l-0.54-6.968   L54.455,161.454z M65.213,184.86h0.289c3.098,0,6.007-1.02,8.501-2.771v6.357c-2.612,9.61-14.822,9.61-17.435,0v-6.394   C59.084,183.835,62.042,184.86,65.213,184.86z"
   id="path77" />
	<path
   style="fill:#333333;"
   d="M59.092,156.928c-0.807,0-1.461,0.655-1.461,1.462c0,0.808,0.654,1.463,1.461,1.463   c0.808,0,1.462-0.655,1.462-1.463C60.554,157.583,59.9,156.928,59.092,156.928z"
   id="path78" />
	<path
   style="fill:#333333;"
   d="M71.716,156.928c-0.808,0-1.462,0.655-1.462,1.462c0,0.808,0.654,1.463,1.462,1.463   c0.807,0,1.461-0.655,1.461-1.463C73.177,157.583,72.523,156.928,71.716,156.928z"
   id="path79" />
	<path
   style="fill:#333333;"
   d="M56.112,156.114c1.644-1.644,4.318-1.643,5.961,0c0.098,0.098,0.226,0.146,0.354,0.146   c0.128,0,0.256-0.049,0.354-0.146c0.195-0.195,0.195-0.512,0-0.707c-2.033-2.033-5.342-2.034-7.375,0   c-0.195,0.195-0.195,0.512,0,0.707C55.6,156.31,55.917,156.31,56.112,156.114z"
   id="path80" />
	<path
   style="fill:#333333;"
   d="M68.735,156.114c1.644-1.644,4.318-1.643,5.961,0c0.098,0.098,0.226,0.146,0.354,0.146   s0.256-0.049,0.354-0.146c0.195-0.195,0.195-0.512,0-0.707c-2.033-2.033-5.342-2.034-7.375,0c-0.195,0.195-0.195,0.512,0,0.707   C68.223,156.31,68.54,156.31,68.735,156.114z"
   id="path81" />
</g>
<g
   id="g86">
	<path
   style="fill:#333333;"
   d="M372.407,283.968c-8.143,1.041-15.979,3.829-22.99,8.23v15.6h59.639   c0.278-5.345,0.538-10.548,0.775-15.608c-8.322-5.223-17.805-8.175-27.587-8.623l0.246-0.988l1.985-7.96l0.13,0.176l9.56-8.535   l8.684,1.242l2.408,2.845l-1.921-3.393l-0.051-0.091l-0.163-0.056l-9.063-3.097l-0.44-0.15l-0.601,0.361l-9.961,5.994l-4.444-6.793   l8.525-12.96l12.177,3.061l-13.001-5.017l-5.293,6.562l-4.209-6.303l-0.229-0.344l-0.316,0.095l-7.606,2.26l7.411-1.23l3.152,7.751   l-4.304,5.336l-5.299-6.646l-0.588-0.737l-0.724,0.25l-9.053,3.13l-0.192,0.066l-0.06,0.126l-2.551,5.349l3.14-4.784l8.399-1.341   l6.637,10.685l-7.011-1.173l-0.523-0.087l-0.228,0.338l-4.098,6.086l4.88-4.755l8.923,2.718l1.566,2.523l-5.104,8.799   L372.407,283.968z M384.529,295.126c0.001,0.031,0.003,0.063,0.003,0.094c0,0.22-0.021,0.445-0.055,0.674   c-0.093,0.799-0.29,1.339-0.543,1.731c-0.62,0.96-1.578,1.047-2.186,1.915c-0.018,0.025-0.029,0.049-0.046,0.074   c0.011,0.019,0.024,0.036,0.024,0.06v0.44c0,0.065-0.033,0.121-0.078,0.172c0.047,0.042,0.078,0.095,0.078,0.156v0.43   c0.372-0.054,0.656-0.054,0.803,0.089c0.299,0.278-0.086,1.637-1.675,2.423c-0.521,0.256-1.153,0.523-1.848,0.523   c-0.783,0.001-1.489-0.314-2.046-0.625c-1.431-0.81-1.757-2.05-1.476-2.32c0.146-0.143,0.43-0.143,0.802-0.09v-0.429   c0-0.062,0.031-0.114,0.078-0.157c-0.045-0.05-0.078-0.105-0.078-0.171v-0.44c0-0.023,0.014-0.041,0.024-0.06   c-0.017-0.025-0.028-0.049-0.046-0.074c-0.606-0.868-1.565-0.955-2.185-1.915c-0.254-0.393-0.45-0.933-0.543-1.731   c-0.035-0.229-0.056-0.454-0.056-0.674c0-0.031,0.002-0.063,0.003-0.094c-0.045-2.498,1.95-4.568,4.499-5.014   c0.331-0.059,0.672-0.091,1.021-0.091h0.001c0.349,0,0.69,0.032,1.023,0.091c-0.333-0.059-0.675-0.091-1.022-0.091c0,0,0,0,0.001,0   c0.35,0,0.69,0.032,1.021,0.091C382.58,290.558,384.575,292.628,384.529,295.126z"
   id="path82" />
	<path
   style="fill:#333333;"
   d="M376.645,293.834c-0.631,0-1.142,0.533-1.142,1.189c0,0.657,0.512,1.189,1.142,1.189   c0.631,0,1.143-0.532,1.143-1.189C377.787,294.367,377.275,293.834,376.645,293.834z"
   id="path83" />
	<path
   style="fill:#333333;"
   d="M381.372,293.834c-0.631,0-1.143,0.533-1.143,1.189c0,0.657,0.512,1.189,1.143,1.189   c0.631,0,1.142-0.532,1.142-1.189C382.514,294.367,382.003,293.834,381.372,293.834z"
   id="path84" />
	<path
   d="M381.602,299.549c-0.069,0-0.125,0.056-0.125,0.125l0.001,0.434c-0.006,0.018-0.066,0.079-0.194,0.113   c-0.131,0.033-0.264,0.069-0.399,0.105l-0.127,0.034l-0.134,0.036c-0.064,0.019-0.11,0.006-0.133-0.011   c-0.014-0.011-0.02-0.025-0.02-0.045v-0.684c0-0.069-0.056-0.125-0.125-0.125s-0.125,0.056-0.125,0.125v0.684   c0,0.073-0.093,0.176-0.213,0.198c-0.242,0.049-0.467,0.078-0.685,0.092c-0.058,0.01-0.108-0.014-0.144-0.048   c-0.029-0.027-0.046-0.064-0.046-0.101v-0.766c0-0.069-0.056-0.125-0.125-0.125s-0.125,0.056-0.125,0.125v0.766   c0,0.037-0.017,0.073-0.046,0.101c-0.036,0.033-0.077,0.061-0.143,0.048c-0.216-0.014-0.447-0.044-0.688-0.092   c-0.119-0.022-0.212-0.125-0.212-0.198v-0.684c0-0.069-0.056-0.125-0.125-0.125c-0.069,0-0.125,0.056-0.125,0.125v0.684   c0,0.021-0.007,0.034-0.021,0.045c-0.021,0.016-0.067,0.029-0.133,0.011l-0.261-0.07c-0.136-0.036-0.269-0.072-0.397-0.105   c-0.13-0.034-0.19-0.096-0.195-0.106v-0.44c0-0.069-0.056-0.125-0.125-0.125c-0.046,0-0.079,0.028-0.101,0.065   c-0.011,0.019-0.024,0.036-0.024,0.06v0.44c0,0.065,0.033,0.121,0.078,0.171c-0.047,0.043-0.078,0.096-0.078,0.157v0.429v0.014   c0,0.069,0.056,0.125,0.125,0.125s0.125-0.056,0.125-0.125l-0.01-0.416c0.007-0.006,0.057-0.023,0.143-0.006   c0.134,0.033,0.27,0.07,0.407,0.108l0.067,0.019l0.182,0.049c0.001,0,0.002,0,0.003,0c0.123,0.031,0.215,0.136,0.215,0.209v0.686   c0,0.069,0.056,0.125,0.125,0.125c0.069,0,0.125-0.056,0.125-0.125v-0.686c0-0.018,0.006-0.03,0.019-0.041   c0.023-0.02,0.078-0.037,0.146-0.021c0.251,0.049,0.493,0.081,0.72,0.096c0.112,0.007,0.204,0.083,0.204,0.169v0.768   c0,0.069,0.056,0.125,0.125,0.125s0.125-0.056,0.125-0.125v-0.768c0-0.086,0.092-0.162,0.205-0.169   c0.228-0.015,0.469-0.047,0.717-0.096c0.072-0.015,0.124,0.001,0.147,0.021c0.013,0.011,0.019,0.023,0.019,0.041v0.686   c0,0.069,0.056,0.125,0.125,0.125s0.125-0.056,0.125-0.125v-0.686c0-0.073,0.092-0.179,0.218-0.209l0.263-0.071   c0.133-0.036,0.265-0.072,0.392-0.104c0.084-0.02,0.132-0.003,0.135-0.019v0.439c0,0.069,0.056,0.125,0.125,0.125   c0.069,0,0.125-0.056,0.125-0.125v-0.013v-0.43c0-0.062-0.031-0.114-0.078-0.156c0.045-0.051,0.078-0.106,0.078-0.172v-0.44   c0-0.023-0.014-0.041-0.024-0.06C381.682,299.577,381.648,299.549,381.602,299.549z M379.008,300.766c0,0,0.001,0,0.001,0.001   c0,0-0.001,0-0.001,0.001C379.008,300.767,379.008,300.767,379.008,300.766L379.008,300.766z"
   id="path85" />
	<path
   style="fill:#333333;"
   d="M379.755,297.577l-0.501-1.002c-0.102-0.203-0.391-0.203-0.491,0l-0.501,1.002   c-0.092,0.183,0.041,0.398,0.245,0.398h1.002C379.713,297.976,379.846,297.76,379.755,297.577z"
   id="path86" />
</g>
<g
   id="g93">
	<path
   style="fill:#333333;"
   d="M180.242,294.667c-0.003-0.01-0.006-0.02-0.009-0.03l-2.493-8.719   c-0.002-0.008-0.004-0.016-0.007-0.024l-1.969-6.888c-0.005-0.02-0.01-0.038-0.017-0.058l-4.41-15.427   c1.2-0.44,2.045-1.483,2.045-2.704c0-1.308-0.977-2.402-2.316-2.779v-7.043c0-0.553-0.448-1-1-1c-0.552,0-1,0.447-1,1v7.043   c-1.339,0.377-2.315,1.472-2.315,2.779c0,1.22,0.845,2.264,2.045,2.704l-4.414,15.438c-0.003,0.012-0.007,0.022-0.01,0.034   l-8.778,30.707c-0.115,0.402,0.033,0.834,0.371,1.081c0.337,0.248,0.794,0.257,1.143,0.027l12.958-8.584l12.959,8.584   c0.167,0.11,0.36,0.166,0.552,0.166c0.208,0,0.415-0.064,0.591-0.193c0.338-0.247,0.486-0.679,0.371-1.081L180.242,294.667z    M176.159,287.661l1.497,5.233l-5.511-3.027L176.159,287.661z M174.776,286.139l-4.709,2.587l-4.708-2.587l4.709-2.854   L174.776,286.139z M167.145,279.176l2.923-2.125l2.923,2.125l-2.923,1.771L167.145,279.176z M175.114,284.004l-3.116-1.888   l2.196-1.33L175.114,284.004z M173.036,276.735l-1.268-0.922l0.831-0.604L173.036,276.735z M170.067,266.353l1.946,6.809   l-1.946,1.415l-1.946-1.415L170.067,266.353z M167.536,275.209l0.832,0.605l-1.268,0.922L167.536,275.209z M165.941,280.786   l2.196,1.33l-3.116,1.889L165.941,280.786z M163.976,287.66l4.015,2.207l-5.512,3.028L163.976,287.66z M158.263,307.647   l3.182-11.132l6.812,4.512L158.263,307.647z M162.79,295.007l7.277-3.999l7.278,3.999l-7.277,4.82L162.79,295.007z    M171.878,301.026l6.811-4.512l3.183,11.132L171.878,301.026z"
   id="path87" />
	<path
   style="fill:#333333;"
   d="M163.836,267.304c0.256,0,0.512-0.098,0.707-0.293c0.391-0.391,0.391-1.023,0-1.414   c-2.221-2.222-2.221-5.835,0-8.057c0.391-0.391,0.391-1.023,0-1.414c-0.391-0.391-1.023-0.391-1.414,0   c-3.001,3.001-3.001,7.884,0,10.885C163.325,267.206,163.581,267.304,163.836,267.304z"
   id="path88" />
	<path
   style="fill:#333333;"
   d="M157.852,272.082c0.195,0.195,0.451,0.293,0.707,0.293c0.256,0,0.512-0.098,0.707-0.293   c0.391-0.391,0.391-1.023,0-1.414c-5.017-5.018-5.017-13.182,0-18.199c0.391-0.391,0.391-1.023,0-1.414   c-0.391-0.391-1.023-0.391-1.414,0C152.055,256.853,152.055,266.285,157.852,272.082z"
   id="path89" />
	<path
   style="fill:#333333;"
   d="M153.989,247.247c0.391-0.391,0.391-1.023,0-1.414c-0.391-0.391-1.024-0.391-1.414,0   c-8.676,8.677-8.676,22.795,0,31.471c0.195,0.195,0.451,0.293,0.707,0.293c0.256,0,0.512-0.098,0.707-0.293   c0.391-0.391,0.391-1.023,0-1.414C146.093,267.993,146.093,255.145,153.989,247.247z"
   id="path90" />
	<path
   style="fill:#333333;"
   d="M175.592,267.011c0.195,0.195,0.451,0.293,0.707,0.293c0.256,0,0.512-0.098,0.707-0.293   c3.001-3.001,3.001-7.884,0-10.885c-0.391-0.391-1.023-0.391-1.414,0c-0.391,0.391-0.391,1.023,0,1.414   c2.221,2.222,2.221,5.835,0,8.057C175.201,265.987,175.201,266.62,175.592,267.011z"
   id="path91" />
	<path
   style="fill:#333333;"
   d="M180.869,272.082c0.195,0.195,0.451,0.293,0.707,0.293c0.256,0,0.512-0.098,0.707-0.293   c5.797-5.797,5.797-15.229,0-21.027c-0.391-0.391-1.023-0.391-1.414,0c-0.391,0.391-0.391,1.023,0,1.414   c5.017,5.018,5.017,13.182,0,18.199C180.478,271.059,180.478,271.691,180.869,272.082z"
   id="path92" />
	<path
   style="fill:#333333;"
   d="M187.56,245.833c-0.391-0.391-1.023-0.391-1.414,0c-0.391,0.391-0.391,1.023,0,1.414   c7.896,7.897,7.896,20.746,0,28.642c-0.391,0.391-0.391,1.023,0,1.414c0.195,0.195,0.451,0.293,0.707,0.293   c0.256,0,0.512-0.098,0.707-0.293C196.236,268.628,196.236,254.51,187.56,245.833z"
   id="path93" />
</g>
<g
   id="g120">
	<path
   style="fill:#333333;"
   d="M75.343,265.304c1.764,0,3.445,0.589,4.976,1.652c3.824,0.984,7.201,3.066,9.786,5.899   c0.224-0.108,0.437-0.217,0.632-0.329l0.5,0.865c-0.138,0.079-0.288,0.155-0.438,0.232c1.584,1.926,2.809,4.154,3.59,6.58   c0.26-0.217,0.418-0.356,0.418-0.356s2.725,7.779-0.062,13.141c-0.927,1.782-2.12,3.968-3.691,6.075   c0.06,0.032,0.125,0.064,0.182,0.097l-0.5,0.865c-0.092-0.053-0.197-0.103-0.295-0.156c-2.781,3.458-6.687,6.512-12.297,6.957   c-0.903,0.333-1.837,0.522-2.8,0.522c11.585,0,21.011-9.431,21.011-21.022S86.929,265.304,75.343,265.304z"
   id="path94" />
	<path
   style="fill:#333333;"
   d="M87.983,283.103c-0.272-2.878-0.896-5.56-1.804-7.929c-0.314,0.07-0.635,0.137-0.964,0.201   c0.829,2.142,1.422,4.565,1.717,7.17C87.301,282.77,87.652,282.959,87.983,283.103z"
   id="path95" />
	<path
   style="fill:#333333;"
   d="M75.863,306.875c-0.131-0.006-0.263-0.019-0.394-0.026h-0.126v0.5c0.963,0,1.897-0.189,2.8-0.522   C77.41,306.885,76.656,306.911,75.863,306.875z"
   id="path96" />
	<path
   style="fill:#333333;"
   d="M75.843,265.804v0.543c3.674,0.263,6.913,3.377,8.973,8.079c0.335-0.063,0.663-0.129,0.982-0.199   c-1.373-3.187-3.264-5.732-5.479-7.271c-1.53-1.063-3.212-1.652-4.976-1.652v0.5H75.843z"
   id="path97" />
	<path
   style="fill:#333333;"
   d="M74.843,266.329c-0.903,0.022-1.789,0.11-2.659,0.249v0.475c0.852-0.402,1.742-0.641,2.659-0.706   V266.329z"
   id="path98" />
	<path
   style="fill:#333333;"
   d="M65.325,275.347v0.435c0.049-0.135,0.095-0.274,0.146-0.407   C65.423,275.365,65.373,275.356,65.325,275.347z"
   id="path99" />
	<path
   style="fill:#333333;"
   d="M65.323,273.272c0,0.008,0.002,0.015,0.002,0.022v1.027c0.178,0.036,0.363,0.069,0.545,0.104   c0.788-1.8,1.741-3.379,2.834-4.645v-1.398C67.409,269.68,66.263,271.332,65.323,273.272z"
   id="path100" />
	<path
   style="fill:#333333;"
   d="M63.983,269.862c1.446-1.002,3.034-1.806,4.721-2.402v-1.063c-1.971,0.659-3.81,1.601-5.473,2.781   C63.505,269.381,63.755,269.61,63.983,269.862z"
   id="path101" />
	<path
   style="fill:#333333;"
   d="M60.582,272.855c0.238-0.262,0.472-0.527,0.724-0.776c-0.263-0.241-0.603-0.396-0.979-0.427   c-0.144,0.147-0.276,0.306-0.416,0.457v0.484l0.039-0.067C60.145,272.639,60.357,272.748,60.582,272.855z"
   id="path102" />
	<path
   style="fill:#333333;"
   d="M74.843,306.849v-0.042c-5.298-0.463-10.844-2.665-14.698-6.884   c-0.064,0.034-0.135,0.068-0.196,0.103l-0.039-0.067v0.584c3.842,4.172,9.329,6.806,15.433,6.806v-0.5H74.843z"
   id="path103" />
	<path
   style="fill:#333333;"
   d="M72.185,266.578c0.87-0.139,1.755-0.227,2.659-0.249v-0.525h0.5v-0.5   c-1.076,0-2.126,0.107-3.159,0.264V266.578z"
   id="path104" />
	<path
   style="fill:#333333;"
   d="M74.843,275.24c0.167,0.001,0.332,0.005,0.5,0.005c0.167,0,0.333-0.004,0.5-0.005v-8.893v-0.543   h-0.5h-0.5v0.525v0.018V275.24z"
   id="path105" />
	<path
   style="fill:#333333;"
   d="M75.843,280.124v-3.884c-0.167,0.001-0.332,0.005-0.5,0.005c-0.168,0-0.333-0.004-0.5-0.005v4.612   C75.157,280.592,75.488,280.347,75.843,280.124z"
   id="path106" />
	<path
   style="fill:#333333;"
   d="M74.843,306.807v0.042h0.5h0.126C75.26,306.836,75.052,306.825,74.843,306.807z"
   id="path107" />
	<path
   style="fill:#333333;"
   d="M90.736,300.025l0.5-0.865c-0.057-0.033-0.122-0.064-0.182-0.097   c-0.201,0.27-0.399,0.54-0.613,0.806C90.54,299.922,90.644,299.973,90.736,300.025z"
   id="path108" />
	<path
   style="fill:#333333;"
   d="M59.91,299.959l0.039,0.067c0.062-0.035,0.132-0.069,0.196-0.103   c-0.079-0.087-0.157-0.175-0.235-0.264V299.959z"
   id="path109" />
	<path
   style="fill:#333333;"
   d="M61.845,273.379c-0.459-0.166-0.881-0.341-1.264-0.523c-0.224-0.108-0.437-0.217-0.632-0.329   l-0.039,0.067v1.043c0.564,0.287,1.214,0.554,1.935,0.8V273.379z"
   id="path110" />
	<path
   style="fill:#333333;"
   d="M84.816,274.426c-2.634,0.496-5.736,0.787-8.973,0.814c-0.167,0.001-0.333,0.005-0.5,0.005   c-0.168,0-0.333-0.004-0.5-0.005c-0.899-0.008-1.787-0.035-2.659-0.083v1.004c0.87,0.045,1.757,0.071,2.659,0.079   c0.167,0.001,0.332,0.005,0.5,0.005c0.168,0,0.333-0.004,0.5-0.005c3.417-0.027,6.642-0.334,9.372-0.865   c0.329-0.065,0.65-0.131,0.964-0.201c1.847-0.415,3.423-0.938,4.62-1.55c0.149-0.077,0.3-0.153,0.438-0.232l-0.5-0.865   c-0.195,0.112-0.408,0.222-0.632,0.329c-1.121,0.536-2.595,0.998-4.306,1.371C85.479,274.297,85.151,274.363,84.816,274.426z"
   id="path111" />
	<path
   style="fill:#333333;"
   d="M65.325,274.322v1.024c0.048,0.01,0.098,0.018,0.146,0.028c1.015,0.197,2.097,0.363,3.233,0.496   v-1.013c-0.991-0.119-1.939-0.264-2.834-0.433C65.688,274.392,65.503,274.358,65.325,274.322z"
   id="path112" />
	<path
   style="fill:#333333;"
   d="M65.325,292.007c0,0.914,0.743,1.657,1.655,1.657c0.967,0,1.724-0.728,1.724-1.657v-7.794   c-1.096,0.005-2.214-0.333-3.379-1.142V292.007z"
   id="path113" />
	<path
   style="fill:#333333;"
   d="M87.983,283.103c-0.331-0.143-0.682-0.333-1.051-0.558c-1.966-1.195-4.451-3.265-7.346-3.381   c-1.598-0.064-2.768,0.352-3.743,0.96c-0.355,0.223-0.687,0.468-1,0.729c-0.925,0.768-1.719,1.639-2.659,2.269v8.886   c0,2.833-2.304,5.139-5.135,5.139c-2.87,0-5.204-2.306-5.204-5.139v-12.132c-0.638-0.408-1.296-0.607-1.935-0.678v20.462   c0.078,0.089,0.156,0.177,0.235,0.264c3.854,4.219,9.399,6.421,14.698,6.884c0.209,0.019,0.417,0.029,0.626,0.042   c0.131,0.008,0.264,0.021,0.394,0.026c0.793,0.036,1.547,0.01,2.28-0.049c5.61-0.445,9.517-3.499,12.297-6.957   c0.214-0.266,0.413-0.536,0.613-0.806c1.571-2.107,2.764-4.293,3.691-6.075c2.787-5.361,0.062-13.141,0.062-13.141   s-0.159,0.14-0.418,0.356c-0.926,0.774-3.215,2.594-4.87,3.111C89.067,283.457,88.551,283.349,87.983,283.103z"
   id="path114" />
	<path
   style="fill:#333333;"
   d="M87.236,265.769c0,1.457,1.181,2.639,2.637,2.639c1.456,0,2.637-1.182,2.637-2.639   c0-1.457-2.637-5.9-2.637-5.9S87.236,264.311,87.236,265.769z"
   id="path115" />
	<path
   style="fill:#333333;"
   d="M62.845,273.295v18.712c0,2.282,1.886,4.139,4.204,4.139c2.28,0,4.135-1.856,4.135-4.139V257.85   c0-1.298,0.937-2.377,2.169-2.607l-1.057-0.57l0.927-0.898c-1.986,0.301-3.519,2.006-3.519,4.076v34.157   c0,1.49-1.197,2.657-2.724,2.657c-1.464,0-2.655-1.192-2.655-2.657v-18.712c0-2.281-1.855-4.138-4.135-4.138h-0.28v1.482h0.28   C61.654,270.639,62.845,271.83,62.845,273.295z"
   id="path116" />
	<path
   style="fill:#333333;"
   d="M73.223,253.773l-0.927,0.898l1.057,0.57l1.761,0.951l2.267,1.224   c0.533,0.288,1.267,0.089,1.885-0.511l3.274-3.15l6.967,3.761l0.586-1.649l-6.268-3.383l-4.907-2.649l-0.178-0.096   c-0.533-0.288-1.267-0.089-1.885,0.511l-2.536,2.459L73.223,253.773z"
   id="path117" />
	<path
   style="fill:#333333;"
   d="M58.91,266.052c0-0.741-0.489-1.345-1.09-1.345H37.848c-0.601,0-1.089,0.603-1.089,1.345v36.184   H58.91V266.052z M41.149,278.886c-1.25,0-2.267-1.144-2.267-2.55v-5.846c0-1.405,1.017-2.549,2.267-2.549h12.744   c1.25,0,2.267,1.144,2.267,2.549v5.846c0,1.406-1.017,2.55-2.267,2.55H41.149z"
   id="path118" />
	<path
   style="fill:#333333;"
   d="M55.16,270.49c0-0.854-0.568-1.549-1.267-1.549H41.149c-0.698,0-1.267,0.694-1.267,1.549v5.846   c0,0.854,0.568,1.55,1.267,1.55h12.744c0.698,0,1.267-0.695,1.267-1.55V270.49z"
   id="path119" />
	<path
   style="fill:#333333;"
   d="M59.795,303.235H35.873c-0.379,0-0.8,0.553-0.8,1.345c0,0.829,0.422,1.382,0.8,1.382h23.923   c0.378,0,0.8-0.553,0.8-1.345C60.596,303.788,60.174,303.235,59.795,303.235z"
   id="path120" />
</g>
<g
   id="g122">
	<path
   style="fill:#333333;"
   d="M92.538,385.557L96,375.161l-10.394,3.468l2.021,2.021l-2.073,2.074   c-4.228-7.455-12.229-12.499-21.39-12.499c-5.989,0-11.482,2.156-15.75,5.731v-2.9c0-3.286-2.447-5.96-5.455-5.96   c-3.007,0-5.454,2.674-5.454,5.96v30.248c-4.177,2.57-6.004,7.765-4.263,12.613c0.979,2.726,3.083,4.871,5.774,5.886   c1.293,0.488,2.62,0.736,3.943,0.736c4.206,0,7.829-2.519,9.461-6.123c3.491,1.908,7.493,2.994,11.744,2.994   c13.553,0,24.58-11.032,24.58-24.593c0-2.847-0.491-5.579-1.384-8.124l3.156-3.157L92.538,385.557z M81.815,380.751   c0.857,1.074,1.604,2.236,2.257,3.456l-5.142,5.146c-0.354-2.518-0.943-4.892-1.734-7.052   C78.998,381.871,80.563,381.35,81.815,380.751z M65.165,405.056l0.849,0.849c-0.285-0.008-0.562-0.024-0.849-0.028V405.056z    M77.253,396.806c-0.187,3.653-0.876,7.063-1.957,10.013c-2.182-0.408-4.626-0.691-7.213-0.837l0.763-0.764l2.134-2.135   l3.311-3.314L77.253,396.806z M80.438,379.179c-1.105,0.474-2.46,0.892-4.003,1.243c-1.247-2.794-2.846-5.146-4.691-6.884   C75.071,374.728,78.037,376.679,80.438,379.179z M65.165,372.297c3.766,0.489,7.092,3.714,9.308,8.521   c-2.769,0.486-5.969,0.776-9.308,0.826V372.297z M65.165,383.644c3.653-0.052,7.111-0.38,10.091-0.935   c0.935,2.519,1.583,5.379,1.876,8.442l-2.665,2.666h-9.303V383.644z M72.469,395.817l-1.066,1.066l-2.713,2.714l-0.878,0.879   l-0.439,0.439c-0.146,0.128-0.293,0.405-0.439,0.132l-1.768-1.769v-3.462H72.469z M48.415,381.515   c0.83,0.287,1.735,0.551,2.719,0.785c-1.244,3.4-1.997,7.325-2.101,11.518h-0.619V381.515z M59.706,393.817l-1.105-1.107   c-0.054-0.029-0.108-0.164-0.163-0.106l-0.163,0.163l-0.325,0.325l-0.65,0.65l-0.074,0.074h-6.194   c0.104-4.074,0.84-7.87,2.042-11.108c2.98,0.555,6.438,0.883,10.091,0.935v10.174H59.706z M49.033,395.817   c0.048,1.949,0.242,3.837,0.555,5.643l-1.173,1.174v-6.817H49.033z M51.032,395.817h4.195l-0.528,0.528l-3.363,3.365   C51.174,398.448,51.066,397.149,51.032,395.817z M63.165,395.817v1.461l-1.46-1.461H63.165z M63.165,372.297v9.347   c-3.338-0.05-6.539-0.341-9.308-0.826C56.073,376.01,59.399,372.786,63.165,372.297z M56.586,373.538   c-1.845,1.738-3.444,4.089-4.691,6.883c-1.313-0.299-2.478-0.649-3.481-1.038v-0.718C50.719,376.414,53.494,374.644,56.586,373.538   z M42.96,420.539c-1.045,0-2.135-0.191-3.237-0.607c-2.161-0.815-3.816-2.516-4.598-4.69c-1.667-4.644,0.62-9.035,4.38-10.74   v-31.445c0-2.191,1.546-3.96,3.454-3.96c1.909,0,3.455,1.769,3.455,3.96v31.445c2.907,1.317,4.933,4.241,4.933,7.646   C51.348,416.786,47.59,420.539,42.96,420.539z M53.074,414.482c0.174-0.752,0.274-1.531,0.274-2.336   c0-0.055-0.01-0.107-0.011-0.162c0.961,1.597,2.052,2.984,3.249,4.112C55.363,415.659,54.189,415.116,53.074,414.482z    M63.165,417.338c-3.793-0.493-7.141-3.761-9.356-8.626c2.78-0.491,5.998-0.786,9.356-0.836V417.338z M53.034,406.818   c-0.27-0.737-0.513-1.506-0.733-2.296l1.279-1.28l3.335-3.337l1.071-1.072l0.268-0.268l0.134-0.134l0.067-0.067   c0.022-0.023,0.044,0.032,0.067,0.044l0.536,0.536l4.107,4.109v2.822C59.495,405.928,56.022,406.259,53.034,406.818z    M65.165,417.338v-9.462c3.358,0.05,6.576,0.344,9.356,0.836C72.306,413.577,68.958,416.845,65.165,417.338z M71.744,416.097   c1.868-1.76,3.483-4.148,4.737-6.988c1.561,0.358,2.925,0.785,4.034,1.268C78.1,412.914,75.106,414.895,71.744,416.097z    M81.881,408.8c-1.253-0.608-2.83-1.137-4.646-1.572c1.221-3.376,1.959-7.261,2.063-11.41h7.422   C86.505,400.707,84.729,405.194,81.881,408.8z M86.719,393.817H80.24l0.075-0.075l5.456-5.458   C86.305,390.048,86.635,391.9,86.719,393.817z"
   id="path121" />
	<path
   style="fill:#333333;"
   d="M42.96,418.539c3.522,0,6.388-2.867,6.388-6.393c0-2.503-1.475-4.788-3.759-5.823l-1.174-0.532   v-1.29v-31.445h-2.909v31.445v1.29l-1.174,0.532c-2.686,1.217-4.689,4.438-3.323,8.242c0.59,1.645,1.805,2.886,3.421,3.495   C41.27,418.378,42.122,418.539,42.96,418.539z"
   id="path122" />
</g>
</svg>
