<?xml version="1.0" encoding="UTF-8" standalone="no"?>
<!-- Generator: Adobe Illustrator 27.5.0, SVG Export Plug-In . SVG Version: 6.00 Build 0)  -->

<svg
   version="1.1"
   x="0px"
   y="0px"
   viewBox="0 0 750 500"
   style="enable-background:new 0 0 750 500;"
   xml:space="preserve"
   id="svg162"
   sodipodi:docname="Nukem.svg"
   inkscape:version="1.4 (86a8ad7, 2024-10-11)"
   xmlns:inkscape="http://www.inkscape.org/namespaces/inkscape"
   xmlns:sodipodi="http://sodipodi.sourceforge.net/DTD/sodipodi-0.dtd"
   xmlns:xlink="http://www.w3.org/1999/xlink"
   xmlns="http://www.w3.org/2000/svg"
   xmlns:svg="http://www.w3.org/2000/svg"><defs
   id="defs162" /><sodipodi:namedview
   id="namedview162"
   pagecolor="#ffffff"
   bordercolor="#000000"
   borderopacity="0.25"
   inkscape:showpageshadow="2"
   inkscape:pageopacity="0.0"
   inkscape:pagecheckerboard="0"
   inkscape:deskcolor="#d1d1d1"
   inkscape:zoom="1.614"
   inkscape:cx="375.15489"
   inkscape:cy="250"
   inkscape:window-width="1920"
   inkscape:window-height="1009"
   inkscape:window-x="-8"
   inkscape:window-y="-8"
   inkscape:window-maximized="1"
   inkscape:current-layer="svg162" />
<g
   id="BACKGROUND">
	<rect
   style="fill:#1D364A;"
   width="750"
   height="500"
   id="rect1" />
</g>
<g
   id="OBJECTS">
	<g
   id="g19">
		<g
   id="g15">
			<path
   style="fill:#F2BA20;"
   d="M427.056,461.871c-6.113-16.264-10.669-29.433-13.664-53.677c1.809-2.875,2.86-6.275,2.86-9.922     c0-4.317-1.47-8.288-3.931-11.449c-0.326-1.204-0.794-2.349-1.388-3.415c-0.031-0.401-0.064-0.8-0.094-1.202     c3.715-2.783,6.119-7.22,6.119-12.219c0-5.586-3.004-10.469-7.483-13.128c-0.009-0.278-0.021-0.555-0.03-0.833     c4.496-2.655,7.513-7.546,7.513-13.145c0-4.827-2.244-9.127-5.743-11.923c3.468-2.797,5.689-7.078,5.689-11.881     c0-3.471-1.161-6.67-3.114-9.234c4.818-2.565,8.1-7.636,8.1-13.475c0-4.922-2.333-9.296-5.95-12.086     c1.989-2.841,3.16-6.298,3.16-10.03c0-4.29-1.544-8.217-4.105-11.262c5.451-2.968,9.15-8.748,9.15-15.391     c0-3.029-0.769-5.878-2.123-8.363c2.108-2.892,3.355-6.452,3.355-10.304c0-9.673-7.841-17.514-17.513-17.514     c-7.524,0-13.937,4.745-16.417,11.405h-0.72c-2.76-6.046-8.855-10.251-15.936-10.251c-6.209,0-11.659,3.234-14.769,8.107     c-3.125-4.795-8.53-7.967-14.68-7.967c-9.673,0-17.514,7.841-17.514,17.514c0,5.885,2.906,11.088,7.357,14.263     c-0.01,0.241-0.018,0.482-0.018,0.725c0,4.62,1.792,8.819,4.714,11.948c-3.776,3.212-6.174,7.996-6.174,13.342     c0,5.015,2.111,9.534,5.49,12.727c-1.131,2.131-1.774,4.56-1.774,7.14c0,3.355,1.086,6.455,2.921,8.974     c-2.639,2.743-4.264,6.468-4.264,10.574c0,4.667,2.097,8.841,5.398,11.64c-2.516,2.72-4.055,6.357-4.055,10.354     c0,2.853,0.785,5.522,2.148,7.807c-2.558,2.729-4.128,6.395-4.128,10.431c0,5.337,2.742,10.031,6.893,12.758     c-2.892,3.412-4.639,7.826-4.639,12.649c0,5.642,2.39,10.724,6.208,14.297c-2.025,2.984-3.209,6.585-3.209,10.463     c0,2.942,0.683,5.724,1.896,8.199c-2.995,24.114-7.537,37.162-13.623,53.354H427.056z"
   id="path1" />
			<path
   style="fill:#E8761F;"
   d="M423.758,461.871c-5.707-15.183-9.96-35.514-12.756-58.147c1.689-2.684,2.67-5.858,2.67-9.263     c0-4.03-1.372-7.737-3.67-10.688c-0.304-1.124-0.742-2.193-1.296-3.188c-0.029-0.375-0.06-0.747-0.088-1.122     c3.468-2.598,5.712-6.74,5.712-11.407c0-5.215-2.804-9.773-6.986-12.255c-0.009-0.259-0.019-0.518-0.028-0.778     c4.197-2.478,7.013-7.044,7.013-12.271c0-4.506-2.095-8.521-5.361-11.131c3.238-2.611,5.311-6.608,5.311-11.091     c0-3.241-1.084-6.227-2.907-8.62c4.498-2.394,7.561-7.128,7.561-12.579c0-4.594-2.178-8.678-5.555-11.283     c1.857-2.653,2.95-5.879,2.95-9.363c0-4.004-1.442-7.671-3.832-10.513c5.089-2.771,8.542-8.166,8.542-14.368     c0-2.828-0.718-5.487-1.981-7.807c1.968-2.7,3.132-6.023,3.132-9.619c0-9.029-7.32-16.349-16.349-16.349     c-7.023,0-13.011,4.429-15.325,10.647h-0.672c-2.577-5.644-8.266-9.569-14.876-9.569c-5.796,0-10.884,3.019-13.788,7.568     c-2.917-4.476-7.963-7.437-13.704-7.437c-9.03,0-16.349,7.32-16.349,16.349c0,5.494,2.712,10.351,6.868,13.315     c-0.009,0.225-0.017,0.45-0.017,0.677c0,4.313,1.673,8.233,4.401,11.154c-3.525,2.999-5.764,7.464-5.764,12.455     c0,4.682,1.971,8.901,5.125,11.881c-1.055,1.989-1.656,4.257-1.656,6.666c0,3.132,1.013,6.026,2.727,8.377     c-2.463,2.561-3.981,6.038-3.981,9.871c0,4.356,1.958,8.254,5.039,10.866c-2.348,2.54-3.785,5.934-3.785,9.666     c0,2.664,0.733,5.155,2.006,7.288c-2.388,2.547-3.853,5.97-3.853,9.737c0,4.982,2.56,9.365,6.434,11.91     c-2.7,3.186-4.331,7.305-4.331,11.808c0,5.267,2.231,10.011,5.796,13.346c-1.89,2.786-2.995,6.147-2.995,9.767     c0,2.747,0.638,5.344,1.77,7.654c-2.796,22.511-7.036,42.73-12.718,57.846H423.758z"
   id="path2" />
			<g
   id="g3">
				<path
   style="fill:#DB431D;"
   d="M420.348,461.871c-5.287-14.065-9.227-41.803-11.816-62.769c1.565-2.486,2.473-5.426,2.473-8.581      c0-3.733-1.271-7.167-3.4-9.901c-0.282-1.041-0.687-2.031-1.2-2.953c-0.027-0.347-0.055-0.692-0.081-1.04      c3.213-2.407,5.292-6.244,5.292-10.567c0-4.831-2.598-9.054-6.471-11.353c-0.008-0.24-0.018-0.48-0.026-0.72      c3.888-2.296,6.497-6.526,6.497-11.367c0-4.174-1.94-7.893-4.966-10.311c2.999-2.419,4.919-6.121,4.919-10.274      c0-3.002-1.004-5.769-2.693-7.986c4.167-2.218,7.005-6.603,7.005-11.653c0-4.256-2.017-8.039-5.146-10.452      c1.72-2.457,2.733-5.446,2.733-8.674c0-3.71-1.336-7.106-3.55-9.739c4.714-2.567,7.913-7.565,7.913-13.31      c0-2.619-0.665-5.083-1.836-7.233c1.823-2.501,2.902-5.579,2.902-8.911c0-8.365-6.781-15.146-15.146-15.146      c-6.506,0-12.053,4.103-14.197,9.863h-0.622c-2.387-5.229-7.658-8.865-13.781-8.865c-5.37,0-10.083,2.797-12.773,7.011      c-2.702-4.147-7.377-6.89-12.695-6.89c-8.365,0-15.146,6.781-15.146,15.146c0,5.089,2.513,9.589,6.362,12.335      c-0.008,0.208-0.016,0.417-0.016,0.627c0,3.995,1.549,7.627,4.077,10.333c-3.266,2.778-5.34,6.915-5.34,11.538      c0,4.337,1.826,8.245,4.747,11.006c-0.978,1.843-1.534,3.943-1.534,6.175c0,2.901,0.939,5.582,2.526,7.76      c-2.282,2.372-3.688,5.593-3.688,9.145c0,4.036,1.814,7.646,4.668,10.066c-2.175,2.353-3.506,5.497-3.506,8.954      c0,2.468,0.679,4.776,1.858,6.751c-2.212,2.36-3.569,5.531-3.569,9.021c0,4.615,2.372,8.675,5.961,11.033      c-2.501,2.951-4.012,6.768-4.012,10.939c0,4.879,2.067,9.274,5.369,12.364c-1.751,2.581-2.775,5.695-2.775,9.048      c0,2.544,0.591,4.95,1.64,7.091c-2.59,20.854-5.751,48.487-11.014,62.49H420.348z"
   id="path3" />
				
					<ellipse
   transform="matrix(0.1608 -0.987 0.987 0.1608 95.3345 586.5114)"
   style="fill:#DB431D;"
   cx="392.583"
   cy="237.191"
   rx="13.238"
   ry="13.238"
   id="ellipse3" />
			</g>
			<path
   style="fill:#DB431D;"
   d="M557.398,139.747c0-8.108-3.762-15.412-9.777-20.561c0.783-2.48,1.211-5.097,1.211-7.807     c0-15.592-13.893-28.233-31.03-28.233c-2.956,0-5.811,0.384-8.519,1.086c-0.973-0.904-2.034-1.728-3.169-2.465     c0.591-1.883,0.914-3.87,0.914-5.926c0-11.902-10.605-21.551-23.686-21.551c-1.285,0-2.545,0.096-3.775,0.276     c0.045-0.62,0.076-1.243,0.076-1.873c0-15.592-13.893-28.233-31.03-28.233c-2.797,0-5.506,0.342-8.084,0.974     c-5.027-9.423-15.644-15.92-27.929-15.92c-6.737,0-12.968,1.96-18.055,5.278c-5.087-3.319-11.318-5.278-18.055-5.278     c-12.873,0-23.914,7.133-28.612,17.291c-5.677-6.656-14.547-10.945-24.524-10.945c-14.898,0-27.338,9.554-30.336,22.293     c-0.701-0.057-1.409-0.091-2.127-0.091c-11.689,0-21.394,7.706-23.329,17.838c-0.169,0.038-0.335,0.081-0.502,0.123     c-4.458-4.044-10.609-6.545-17.402-6.545c-13.614,0-24.649,10.041-24.649,22.427c0,1.46,0.159,2.887,0.452,4.269     c-4.454,2.959-7.727,7.296-9.066,12.323c-13.225,3.232-22.963,14.21-22.963,27.263c0,5.001,1.435,9.695,3.942,13.769     c-3.017,4.354-4.77,9.506-4.77,15.033c0,15.592,13.893,28.233,31.03,28.233c1.328,0,2.633-0.085,3.916-0.232     c-0.001,0.078-0.006,0.154-0.006,0.232c0,15.592,13.893,28.232,31.03,28.232c3.945,0,7.714-0.677,11.185-1.898     c-2.231,3.373-3.517,7.323-3.517,11.547c0,12.386,11.036,22.427,24.65,22.427c5.443,0,10.47-1.608,14.548-4.326     c3.623,8.284,12.509,14.143,22.906,14.143c6.917,0,13.165-2.596,17.641-6.771c4.477,4.175,10.724,6.771,17.641,6.771     c13.614,0,24.65-10.041,24.65-22.427c0-4.093-1.211-7.927-3.316-11.23c3.052,0.913,6.309,1.414,9.697,1.414     c1.541,0,3.054-0.106,4.534-0.303c-1.694,3.041-2.654,6.477-2.654,10.12c0,12.386,11.036,22.427,24.649,22.427     c8.919,0,16.73-4.31,21.058-10.765c3.559,1.815,7.66,2.854,12.03,2.854c13.613,0,24.65-10.041,24.65-22.427     c0-3.633-0.956-7.061-2.641-10.097c2.25-0.755,4.375-1.744,6.346-2.929c4.9,2.946,10.769,4.666,17.082,4.666     c17.137,0,31.03-12.64,31.03-28.232c0-2.834-0.464-5.569-1.318-8.15C545.126,166.445,557.398,154.401,557.398,139.747z      M327.285,197.912c0.055,0.06,0.113,0.117,0.168,0.177c-0.144,0.005-0.289,0.006-0.433,0.012     C327.108,198.038,327.197,197.977,327.285,197.912z"
   id="path4" />
			<g
   id="g13">
				<g
   id="g12">
					<path
   style="fill:#E8761F;"
   d="M535.001,141.353c0-6.552-3.3-12.455-8.577-16.616c0.687-2.005,1.063-4.119,1.063-6.309       c0-12.601-12.187-22.816-27.22-22.816c-2.592,0-5.097,0.31-7.473,0.878c-0.854-0.73-1.785-1.397-2.78-1.993       c0.518-1.522,0.802-3.127,0.802-4.789c0-9.619-9.303-17.416-20.778-17.416c-1.127,0-2.233,0.078-3.311,0.223       c0.039-0.501,0.066-1.005,0.066-1.514c0-12.601-12.187-22.816-27.22-22.816c-2.454,0-4.83,0.277-7.092,0.787       c-4.41-7.615-13.723-12.866-24.5-12.866c-5.91,0-11.376,1.584-15.838,4.266c-4.463-2.682-9.928-4.266-15.838-4.266       c-11.292,0-20.978,5.764-25.099,13.974c-4.979-5.379-12.761-8.845-21.512-8.845c-13.068,0-23.981,7.721-26.611,18.016       c-0.615-0.046-1.236-0.073-1.866-0.073c-10.254,0-18.767,6.228-20.464,14.416c-0.148,0.031-0.294,0.066-0.441,0.1       c-3.911-3.268-9.306-5.289-15.265-5.289c-11.942,0-21.623,8.115-21.623,18.124c0,1.18,0.139,2.333,0.396,3.45       c-3.907,2.391-6.778,5.896-7.952,9.959c-11.601,2.612-20.143,11.484-20.143,22.033c0,4.042,1.259,7.835,3.458,11.127       c-2.647,3.519-4.184,7.682-4.184,12.149c0,12.601,12.187,22.816,27.22,22.816c1.165,0,2.309-0.068,3.436-0.187       c-0.001,0.063-0.006,0.124-0.006,0.187c0,12.601,12.187,22.816,27.22,22.816c3.46,0,6.767-0.547,9.811-1.534       c-1.957,2.726-3.085,5.918-3.085,9.332c0,10.01,9.681,18.124,21.623,18.124c4.774,0,9.185-1.3,12.762-3.496       c3.178,6.695,10.973,11.43,20.093,11.43c6.068,0,11.548-2.098,15.475-5.472c3.927,3.374,9.408,5.472,15.475,5.472       c11.942,0,21.623-8.115,21.623-18.124c0-3.308-1.063-6.406-2.909-9.076c2.677,0.738,5.535,1.143,8.506,1.143       c1.352,0,2.679-0.086,3.978-0.245c-1.486,2.458-2.328,5.235-2.328,8.178c0,10.01,9.681,18.124,21.623,18.124       c7.824,0,14.676-3.483,18.472-8.7c3.122,1.467,6.72,2.306,10.553,2.306c11.942,0,21.623-8.115,21.623-18.125       c0-2.936-0.838-5.707-2.317-8.16c1.974-0.61,3.838-1.409,5.567-2.367c4.298,2.381,9.447,3.77,14.984,3.77       c15.033,0,27.22-10.215,27.22-22.816c0-2.291-0.407-4.501-1.157-6.587C524.236,162.929,535.001,153.196,535.001,141.353z        M333.143,188.359c0.048,0.049,0.099,0.095,0.147,0.143c-0.126,0.004-0.254,0.005-0.38,0.01       C332.988,188.461,333.067,188.411,333.143,188.359z"
   id="path5" />
					<g
   id="g11">
						<path
   style="fill:#F5A360;"
   d="M236.454,104.847c1.174-4.063,4.046-7.568,7.952-9.959c-0.257-1.117-0.396-2.27-0.396-3.45        c0-10.01,9.681-18.125,21.623-18.125c5.959,0,11.354,2.021,15.265,5.289c0.147-0.034,0.293-0.068,0.441-0.099        c1.697-8.188,10.21-14.416,20.464-14.416c0.629,0,1.251,0.028,1.866,0.074c2.63-10.296,13.543-18.016,26.611-18.016        c8.752,0,16.533,3.466,21.512,8.845c4.121-8.209,13.807-13.974,25.099-13.974c5.91,0,11.376,1.584,15.838,4.266        c4.463-2.682,9.928-4.266,15.838-4.266c10.777,0,20.09,5.251,24.5,12.866c2.262-0.51,4.638-0.787,7.092-0.787        c13.047,0,23.945,7.696,26.598,17.967c0.021-0.346,0.036-0.692,0.036-1.042c0-12.601-12.187-22.816-27.22-22.816        c-2.454,0-4.83,0.277-7.092,0.787c-4.41-7.615-13.723-12.866-24.5-12.866c-5.91,0-11.376,1.584-15.838,4.266        c-4.463-2.682-9.928-4.266-15.838-4.266c-11.292,0-20.978,5.764-25.099,13.974c-4.979-5.379-12.761-8.845-21.512-8.845        c-13.068,0-23.981,7.721-26.611,18.016c-0.615-0.046-1.236-0.073-1.866-0.073c-10.254,0-18.767,6.228-20.464,14.416        c-0.148,0.031-0.294,0.066-0.441,0.1c-3.911-3.268-9.306-5.289-15.265-5.289c-11.942,0-21.623,8.115-21.623,18.124        c0,1.18,0.139,2.333,0.396,3.45c-3.907,2.391-6.778,5.896-7.952,9.959c-11.601,2.612-20.143,11.484-20.143,22.033        c0,1.65,0.22,3.256,0.618,4.806C216.906,115.727,225.253,107.368,236.454,104.847z"
   id="path6" />
						<path
   style="fill:#F5A360;"
   d="M467.38,75.91c0,0.509-0.027,1.013-0.066,1.514c1.079-0.145,2.184-0.223,3.311-0.223        c9.661,0,17.781,5.528,20.107,13.015c0.051-0.492,0.085-0.987,0.085-1.49c0-9.619-9.303-17.416-20.778-17.416        c-1.078,0-2.135,0.073-3.169,0.206C467.201,72.938,467.38,74.406,467.38,75.91z"
   id="path7" />
						<path
   style="fill:#F5A360;"
   d="M396.806,203.341c-0.91,0.112-1.834,0.185-2.771,0.22c-0.092,0.678-0.143,1.368-0.143,2.067        c0,1.538,0.231,3.032,0.661,4.458C394.78,207.674,395.564,205.395,396.806,203.341z"
   id="path8" />
						<path
   style="fill:#F5A360;"
   d="M386.569,207.093c0.046-0.484,0.077-0.972,0.077-1.465c0-0.914-0.089-1.81-0.245-2.688        c-0.704-0.143-1.397-0.309-2.078-0.497C385.316,203.88,386.073,205.443,386.569,207.093z"
   id="path9" />
						<path
   style="fill:#F5A360;"
   d="M333.497,193.421c0.126-0.006,0.253-0.006,0.38-0.01c-0.048-0.048-0.099-0.094-0.147-0.143        C333.653,193.32,333.574,193.37,333.497,193.421z"
   id="path10" />
						<path
   style="fill:#F5A360;"
   d="M219.768,138.007c-0.797-1.193-1.465-2.453-2-3.766c-1.771,3.026-2.77,6.426-2.77,10.023        c0,1.659,0.217,3.275,0.618,4.834C215.839,145.033,217.331,141.246,219.768,138.007z"
   id="path11" />
					</g>
				</g>
				
					<ellipse
   transform="matrix(0.2283 -0.9736 0.9736 0.2283 98.2322 545.2869)"
   style="fill:#E8761F;"
   cx="393.098"
   cy="210.676"
   rx="14.573"
   ry="14.573"
   id="ellipse12" />
			</g>
			<path
   style="fill:#F2BA20;"
   d="M502.274,141.461c0-4.779-2.625-9.085-6.822-12.121c0.546-1.462,0.845-3.005,0.845-4.602     c0-9.192-9.694-16.643-21.652-16.643c-2.062,0-4.055,0.226-5.944,0.64c-0.679-0.533-1.419-1.019-2.211-1.453     c0.412-1.11,0.638-2.281,0.638-3.493c0-7.016-7.4-12.704-16.528-12.704c-0.897,0-1.776,0.057-2.634,0.162     c0.031-0.365,0.053-0.733,0.053-1.104c0-9.192-9.694-16.643-21.652-16.643c-1.952,0-3.842,0.202-5.641,0.574     c-3.508-5.555-10.916-9.385-19.489-9.385c-4.701,0-9.049,1.155-12.599,3.112c-3.55-1.956-7.897-3.112-12.599-3.112     c-8.983,0-16.687,4.205-19.965,10.193c-3.961-3.924-10.151-6.452-17.112-6.452c-10.395,0-19.076,5.632-21.168,13.142     c-0.489-0.034-0.983-0.054-1.484-0.054c-8.156,0-14.928,4.543-16.278,10.515c-0.118,0.023-0.234,0.048-0.35,0.073     c-3.111-2.384-7.403-3.858-12.143-3.858c-9.499,0-17.2,5.919-17.2,13.221c0,0.861,0.111,1.702,0.315,2.517     c-3.108,1.744-5.392,4.301-6.326,7.265c-9.228,1.905-16.023,8.377-16.023,16.071c0,2.948,1.001,5.715,2.751,8.117     c-2.105,2.567-3.328,5.604-3.328,8.862c0,9.192,9.694,16.643,21.652,16.643c0.926,0,1.837-0.05,2.733-0.137     c-0.001,0.046-0.005,0.091-0.005,0.137c0,9.192,9.694,16.643,21.652,16.643c2.753,0,5.382-0.399,7.804-1.119     c-1.557,1.989-2.454,4.317-2.454,6.807c0,7.301,7.701,13.221,17.2,13.221c3.798,0,7.306-0.948,10.152-2.55     c2.528,4.883,8.729,8.337,15.983,8.337c4.827,0,9.186-1.53,12.31-3.991c3.124,2.461,7.483,3.991,12.31,3.991     c3.761,0,7.238-0.931,10.068-2.505c3.303,2.482,7.819,4.014,12.803,4.014c3.926,0,7.56-0.952,10.541-2.568     c2.073,0.681,4.355,1.059,6.752,1.059c6.223,0,11.674-2.541,14.694-6.346c2.483,1.07,5.345,1.682,8.395,1.682     c9.499,0,17.2-5.919,17.2-13.221c0-2.142-0.667-4.163-1.843-5.952c1.57-0.445,3.053-1.028,4.428-1.726     c3.419,1.737,7.514,2.75,11.919,2.75c11.958,0,21.652-7.451,21.652-16.643c0-1.671-0.324-3.283-0.92-4.804     C493.71,157.2,502.274,150.1,502.274,141.461z M341.52,175.861c0.061-0.037,0.124-0.074,0.185-0.111     c0.038,0.035,0.079,0.069,0.117,0.104C341.722,175.856,341.621,175.857,341.52,175.861z"
   id="path13" />
			<path
   style="fill:#FFDC4F;"
   d="M484.604,147.671c0-3.663-2.261-6.964-5.875-9.291c0.471-1.121,0.728-2.303,0.728-3.528     c0-7.046-8.348-12.757-18.646-12.757c-1.776,0-3.492,0.174-5.119,0.491c-0.585-0.408-1.222-0.781-1.904-1.114     c0.355-0.851,0.549-1.749,0.549-2.678c0-5.378-6.372-9.738-14.233-9.738c-0.772,0-1.529,0.044-2.268,0.125     c0.027-0.28,0.045-0.562,0.045-0.846c0-7.046-8.348-12.757-18.646-12.757c-1.681,0-3.309,0.155-4.858,0.44     c-3.021-4.258-9.4-7.194-16.783-7.194c-4.048,0-7.793,0.886-10.85,2.385c-3.057-1.5-6.801-2.385-10.849-2.385     c-7.736,0-14.37,3.223-17.193,7.813c-3.411-3.008-8.741-4.945-14.736-4.945c-8.952,0-16.427,4.317-18.229,10.073     c-0.421-0.026-0.847-0.041-1.278-0.041c-7.024,0-12.856,3.482-14.018,8.06c-0.101,0.017-0.201,0.037-0.302,0.056     c-2.679-1.827-6.375-2.957-10.457-2.957c-8.181,0-14.812,4.537-14.812,10.134c0,0.66,0.095,1.304,0.271,1.929     c-2.676,1.337-4.643,3.297-5.448,5.569c-7.947,1.46-13.799,6.421-13.799,12.319c0,2.26,0.862,4.381,2.369,6.222     c-1.813,1.967-2.866,4.295-2.866,6.793c0,7.046,8.348,12.757,18.646,12.757c0.798,0,1.582-0.038,2.354-0.105     c0,0.035-0.004,0.07-0.004,0.105c0,7.046,8.348,12.757,18.646,12.757c2.37,0,4.635-0.306,6.721-0.858     c-1.341,1.524-2.113,3.309-2.113,5.218c0,5.597,6.632,10.134,14.812,10.134c3.271,0,6.292-0.727,8.742-1.955     c2.177,3.743,7.517,6.391,13.764,6.391c4.156,0,7.911-1.173,10.601-3.059c2.69,1.887,6.444,3.059,10.601,3.059     c3.239,0,6.233-0.713,8.671-1.92c2.844,1.903,6.733,3.077,11.026,3.077c3.38,0,6.51-0.73,9.077-1.969     c1.785,0.522,3.75,0.812,5.815,0.812c5.359,0,10.053-1.948,12.654-4.864c2.139,0.82,4.603,1.29,7.229,1.29     c8.18,0,14.812-4.537,14.812-10.134c0-1.642-0.574-3.191-1.587-4.562c1.352-0.341,2.629-0.788,3.813-1.323     c2.944,1.331,6.471,2.108,10.264,2.108c10.298,0,18.646-5.712,18.646-12.757c0-1.281-0.279-2.516-0.792-3.683     C477.229,159.735,484.604,154.293,484.604,147.671z M346.168,174.039c0.053-0.029,0.107-0.056,0.159-0.085     c0.033,0.027,0.068,0.053,0.101,0.08C346.342,174.036,346.255,174.036,346.168,174.039z"
   id="path14" />
			<path
   style="fill:#FAE58A;"
   d="M427.48,129.743c5.166-4.642-7.352-3.558-9.658-3.26c-4.497,0.581-12.443,1.67-14.795-2.669     c-1.989-3.671-1.039-11.304-1.502-15.19c-0.248-2.077-2.26,0.167-4.109,1.607c-3.06,2.383-7.547,7.454-11.723,4.626     c-3.302-2.236-4.66-6.624-6.551-9.614c-3.249-5.135-14.497,11.457-18.087,10.757c-0.012-0.002-18.97-3.741-18.97-3.741     c-2.229-0.44-4.236,1.206-3.693,3.027l2.564,8.604c0.403,1.353-0.621,2.715-2.28,3.032l-15.025,2.867     c-2.291,0.437-3.149,2.736-1.546,4.145l10.963,9.634c0.752,0.661,1.011,1.602,0.677,2.462l-11.013,12.111     c-0.607,1.567,11.763-0.88,13.77-0.801c0,0,6.213,0,6.215,0c2.649,0-1.051,12.439,0,13.805c1.659,2.155,13.236-5.28,15.578-3.658     c2.147,1.488,3.929,3.386,5.074,5.748c0.908,1.874,0.849,3.936,0.714,5.961c-0.143,2.155,0.104,4.147,0.12,6.292     c0.02,2.717,0.041,5.434,0.061,8.151c0.044,5.929,0.089,11.857,0.134,17.786c0.099,13.13,0.198,26.261,0.297,39.391     c0.102,13.484,0.204,26.968,0.306,40.451c0.093,12.224,0.186,24.449,0.28,36.673c0.072,9.352,0.144,18.703,0.218,28.055     c0.039,4.866,0.067,9.732,0.12,14.598c0.003,0.309,0.015,0.775,0.013,1.022c0.021-2.325,3.286-117.674,3.286-117.674     l2.804,114.003l2.331-74.468c0.152,29.595,0.266,51.315,0.271,50.615c0.006-0.926,0.386-21.317,0.817-44.193     c0.899,27.941,2.425,74.414,2.542,71.716c0.074-1.706,1.271-44.581,2.581-91.753c0.562,25.967,1.462,66.659,1.532,64.23     c0.12-4.133,0.165-8.269,0.244-12.403c0.187-9.824,0.371-19.648,0.556-29.472c0.247-13.18,0.493-26.359,0.739-39.539     c0.265-14.202,0.529-28.404,0.793-42.606c0.24-12.888,0.479-25.776,0.718-38.677c0.018-0.879,0.211-1.73,0.449-2.573     c0.37-1.305,0.012-2.69,1.181-3.666c0.973-0.813,2.477-0.798,3.648-1.111c2.288-0.611,4.71-0.485,7.053-0.456     c1.885,0.023,6.764,0.439,4.412-2.688c-7.726-10.266,5.648-16.258,17.005-16.881c7.909-0.434-10.611-6.751-5.816-11.067     C412.78,142.952,427.479,129.744,427.48,129.743z"
   id="path15" />
		</g>
		<g
   id="g18">
			<path
   style="fill:#F2BA20;"
   d="M633.181,206.804c0-7.969-41.347-15.034-105.075-19.428c-1.563,3.223-3.762,6.132-6.464,8.588     c8.643,0.562,16.96,1.174,24.879,1.837c36.233,3.036,56.144,6.42,66.95,9.003c-10.807,2.583-30.717,5.967-66.95,9.003     c-20.659,1.731-43.961,3.121-68.962,4.136c-1.371,3.593-3.714,6.772-6.748,9.272     C565.959,225.659,633.181,216.965,633.181,206.804z"
   id="path16" />
			<path
   style="fill:#F2BA20;"
   d="M268.357,219.772c-23.455-0.999-45.351-2.329-64.879-3.965c-36.233-3.035-56.144-6.42-66.95-9.003     c10.807-2.583,30.717-5.967,66.95-9.003c11.354-0.951,23.513-1.798,36.306-2.538c-3.323-2.304-6.115-5.204-8.192-8.525     c-69.203,4.328-114.774,11.699-114.774,20.065c0,10.079,66.136,18.713,160.057,22.323     C273.171,226.792,270.206,223.559,268.357,219.772z"
   id="path17" />
			<path
   style="fill:#F2BA20;"
   d="M477.559,219.943c-32.056,1.302-66.906,1.989-102.559,1.989c-37.175,0-73.471-0.747-106.643-2.16     c1.849,3.787,4.814,7.02,8.519,9.354c8.616,0.331,17.462,0.621,26.517,0.865c0.702-0.377,1.39-0.774,2.045-1.211     c0.19,0.435,0.403,0.859,0.622,1.28c21.948,0.567,45.062,0.871,68.94,0.871c33.856,0,66.185-0.61,95.811-1.717     C473.846,226.715,476.188,223.536,477.559,219.943z"
   id="path18" />
		</g>
	</g>
	<g
   id="g150">
		<defs
   id="defs19">
			<rect
   id="SVGID_1_"
   width="750"
   height="500" />
		</defs>
		<clipPath
   id="SVGID_00000000932136520265244610000003149285234795525517_">
			<use
   xlink:href="#SVGID_1_"
   style="overflow:visible;"
   id="use19" />
		</clipPath>
		<g
   style="clip-path:url(#SVGID_00000000932136520265244610000003149285234795525517_);"
   clip-path="url(#SVGID_00000000932136520265244610000003149285234795525517_)"
   id="g36">
			
				<radialGradient
   id="SVGID_00000124149775663344449620000006490718098111967392_"
   cx="630.4232"
   cy="62.7318"
   r="211.1075"
   gradientTransform="matrix(1 0 0 0.233 0 48.117)"
   gradientUnits="userSpaceOnUse">
				<stop
   offset="0"
   style="stop-color:#1D36C5;stop-opacity:0.4"
   id="stop19" />
				<stop
   offset="0.2503"
   style="stop-color:#1D36A5;stop-opacity:0.2999"
   id="stop20" />
				<stop
   offset="1"
   style="stop-color:#1D364A;stop-opacity:0"
   id="stop21" />
			</radialGradient>
			
				<ellipse
   style="fill:url(#SVGID_00000124149775663344449620000006490718098111967392_);"
   cx="630.423"
   cy="62.732"
   rx="211.756"
   ry="35.804"
   id="ellipse21" />
			
				<radialGradient
   id="SVGID_00000117647574397328352420000004623220108346101176_"
   cx="128.8186"
   cy="62.7318"
   r="211.1075"
   gradientTransform="matrix(1 0 0 0.233 0 48.117)"
   gradientUnits="userSpaceOnUse">
				<stop
   offset="0"
   style="stop-color:#1D36C5;stop-opacity:0.4"
   id="stop22" />
				<stop
   offset="0.2503"
   style="stop-color:#1D36A5;stop-opacity:0.2999"
   id="stop23" />
				<stop
   offset="1"
   style="stop-color:#1D364A;stop-opacity:0"
   id="stop24" />
			</radialGradient>
			
				<ellipse
   style="fill:url(#SVGID_00000117647574397328352420000004623220108346101176_);"
   cx="128.819"
   cy="62.732"
   rx="211.756"
   ry="35.804"
   id="ellipse24" />
			
				<radialGradient
   id="SVGID_00000149378556588491927250000011795034483609212039_"
   cx="615.6038"
   cy="232.0562"
   r="211.1075"
   gradientTransform="matrix(1 0 0 0.233 0 177.9933)"
   gradientUnits="userSpaceOnUse">
				<stop
   offset="0"
   style="stop-color:#1D36C5;stop-opacity:0.4"
   id="stop25" />
				<stop
   offset="0.2503"
   style="stop-color:#1D36A5;stop-opacity:0.2999"
   id="stop26" />
				<stop
   offset="1"
   style="stop-color:#1D364A;stop-opacity:0"
   id="stop27" />
			</radialGradient>
			
				<ellipse
   style="fill:url(#SVGID_00000149378556588491927250000011795034483609212039_);"
   cx="615.604"
   cy="232.056"
   rx="211.756"
   ry="35.804"
   id="ellipse27" />
			
				<radialGradient
   id="SVGID_00000023251556857476928210000013406818512894956177_"
   cx="84.6303"
   cy="203.5576"
   r="211.1075"
   gradientTransform="matrix(1 0 0 0.233 0 156.1342)"
   gradientUnits="userSpaceOnUse">
				<stop
   offset="0"
   style="stop-color:#1D36C5;stop-opacity:0.4"
   id="stop28" />
				<stop
   offset="0.2503"
   style="stop-color:#1D36A5;stop-opacity:0.2999"
   id="stop29" />
				<stop
   offset="1"
   style="stop-color:#1D364A;stop-opacity:0"
   id="stop30" />
			</radialGradient>
			
				<ellipse
   style="fill:url(#SVGID_00000023251556857476928210000013406818512894956177_);"
   cx="84.63"
   cy="203.558"
   rx="211.756"
   ry="35.804"
   id="ellipse30" />
			
				<radialGradient
   id="SVGID_00000021827810839014024630000004251645277330699944_"
   cx="621.58"
   cy="344.5888"
   r="211.1075"
   gradientTransform="matrix(1 0 0 0.233 0 264.3089)"
   gradientUnits="userSpaceOnUse">
				<stop
   offset="0"
   style="stop-color:#1D36C5;stop-opacity:0.4"
   id="stop31" />
				<stop
   offset="0.2503"
   style="stop-color:#1D36A5;stop-opacity:0.2999"
   id="stop32" />
				<stop
   offset="1"
   style="stop-color:#1D364A;stop-opacity:0"
   id="stop33" />
			</radialGradient>
			
				<ellipse
   style="fill:url(#SVGID_00000021827810839014024630000004251645277330699944_);"
   cx="621.58"
   cy="344.589"
   rx="211.756"
   ry="35.804"
   id="ellipse33" />
			
				<radialGradient
   id="SVGID_00000158001823602050565080000015513298776651234970_"
   cx="103.6177"
   cy="336.1081"
   r="211.1075"
   gradientTransform="matrix(1 0 0 0.233 0 257.804)"
   gradientUnits="userSpaceOnUse">
				<stop
   offset="0"
   style="stop-color:#1D36C5;stop-opacity:0.4"
   id="stop34" />
				<stop
   offset="0.2503"
   style="stop-color:#1D36A5;stop-opacity:0.2999"
   id="stop35" />
				<stop
   offset="1"
   style="stop-color:#1D364A;stop-opacity:0"
   id="stop36" />
			</radialGradient>
			
				<ellipse
   style="fill:url(#SVGID_00000158001823602050565080000015513298776651234970_);"
   cx="103.618"
   cy="336.108"
   rx="211.756"
   ry="35.804"
   id="ellipse36" />
		</g>
		<g
   style="clip-path:url(#SVGID_00000000932136520265244610000003149285234795525517_);"
   clip-path="url(#SVGID_00000000932136520265244610000003149285234795525517_)"
   id="g39">
			<path
   style="fill:#E8761F;"
   d="M31.277,378.962c0-7.256,6.072-13.337,14.282-15.078c0.672-8.056,8.811-14.43,18.813-14.514     c2.445-5.722,8.84-9.916,16.523-10.397c2.127-5.303,7.631-9.35,14.439-10.439c0.634-7.698,8.085-13.857,17.469-14.472     c1.249-7.624,9.218-13.51,18.887-13.51c1.844,0,3.621,0.225,5.308,0.624c0.401-8.323,8.758-14.975,19.038-14.975     c5.937,0,11.24,2.218,14.738,5.694c2.369-0.863,4.987-1.352,7.748-1.352c1.523,0,2.997,0.161,4.417,0.437     c3.499-3.433,8.766-5.62,14.66-5.62c5.774,0,10.938,2.106,14.436,5.419c2.81-1.332,6.063-2.107,9.545-2.107     c10.357,0,18.767,6.751,19.05,15.162c2.623-1.11,5.593-1.747,8.751-1.747c8.567,0,15.815,4.617,18.224,10.973     c0.285-0.01,0.565-0.035,0.853-0.035c9.399,0,17.192,5.561,18.768,12.875c2.143,0.273,4.172,0.822,6.017,1.627     c2.96-1.544,6.466-2.45,10.237-2.45c2.572,0,5.022,0.422,7.262,1.176c0.732-0.591,1.529-1.127,2.37-1.615     c-1.947-2.445-3.089-5.357-3.089-8.491c0-8.612,8.541-15.594,19.077-15.594c3.522,0,6.81,0.794,9.642,2.155     c2.626-1.113,5.6-1.752,8.762-1.752c3.007,0,5.84,0.584,8.369,1.597c-0.354-1.187-0.562-2.421-0.562-3.697     c0-8.612,8.541-15.594,19.077-15.594c3.057,0,5.936,0.603,8.497,1.648c3.265-4.762,9.491-7.985,16.644-7.985     c9.25,0,16.958,5.382,18.703,12.523c2.507-0.99,5.308-1.561,8.278-1.561c9.834,0,17.925,6.084,18.959,13.899     c3.278-4.723,9.474-7.916,16.592-7.916c10.127,0,18.388,6.456,19.016,14.604c1.308-0.232,2.662-0.361,4.055-0.361     c9.594,0,17.511,5.795,18.854,13.333c3.076-5.238,9.605-8.863,17.188-8.863c5.246,0,9.996,1.733,13.445,4.535     c3.324-4.577,9.414-7.655,16.398-7.655c2.623,0,5.122,0.434,7.398,1.217c2.712-5.912,9.669-10.127,17.848-10.127     c8.629,0,15.912,4.686,18.268,11.113c2.737,2.633,4.413,6.015,4.519,9.72c1.407-0.27,2.866-0.428,4.374-0.428     c10.536,0,19.077,6.982,19.077,15.594c0,0.286-0.034,0.566-0.052,0.848c0.91,1.201,1.629,2.506,2.115,3.895     c1.761-0.439,3.628-0.678,5.565-0.678c9.364,0,17.136,5.519,18.753,12.792c3.366-2.438,7.781-3.93,12.632-3.93     c6.483,0,12.202,2.65,15.65,6.69c2.806-1.327,6.053-2.098,9.527-2.098c9.71,0,17.708,5.935,18.905,13.607     c3.022-1.643,6.647-2.605,10.549-2.605c9.803,0,17.87,6.047,18.946,13.825c3.487-3.708,8.953-6.109,15.117-6.109     c8.556,0,15.796,4.604,18.215,10.947c2.35-0.846,4.943-1.324,7.676-1.324c5.562,0,10.553,1.958,14.04,5.062     c10.018,0.471,17.97,7.241,17.97,15.548c0,4.595-2.446,8.713-6.315,11.567v104.639h-1.265H34.001h-1.265V384.941     C31.799,383.099,31.277,381.081,31.277,378.962z"
   id="path36" />
			<path
   style="fill:#F2BA20;"
   d="M765.859,396.448c0-7.256-6.072-13.337-14.283-15.078c-0.672-8.056-8.811-14.43-18.813-14.514     c-2.445-5.722-8.84-9.916-16.523-10.397c-2.128-5.303-7.631-9.35-14.439-10.438c-0.634-7.698-8.085-13.857-17.469-14.472     c-1.249-7.624-9.218-13.51-18.887-13.51c-1.844,0-3.621,0.225-5.308,0.625c-0.401-8.323-8.759-14.975-19.039-14.975     c-5.937,0-11.24,2.218-14.739,5.694c-2.369-0.863-4.987-1.352-7.748-1.352c-1.523,0-2.997,0.161-4.417,0.437     c-3.499-3.433-8.766-5.62-14.659-5.62c-5.774,0-10.938,2.106-14.436,5.419c-2.81-1.332-6.063-2.107-9.545-2.107     c-10.357,0-18.767,6.751-19.05,15.161c-2.623-1.11-5.593-1.747-8.75-1.747c-8.567,0-15.815,4.617-18.224,10.973     c-0.285-0.01-0.565-0.035-0.853-0.035c-9.399,0-17.192,5.561-18.768,12.875c-2.143,0.272-4.173,0.822-6.017,1.627     c-2.96-1.544-6.466-2.45-10.237-2.45c-2.572,0-5.022,0.422-7.262,1.176c-0.732-0.591-1.529-1.127-2.37-1.616     c1.947-2.444,3.089-5.357,3.089-8.491c0-8.612-8.541-15.594-19.077-15.594c-3.522,0-6.81,0.794-9.642,2.155     c-2.625-1.113-5.6-1.752-8.762-1.752c-3.007,0-5.84,0.584-8.37,1.597c0.354-1.187,0.562-2.421,0.562-3.697     c0-8.612-8.541-15.594-19.077-15.594c-3.057,0-5.936,0.603-8.497,1.648c-3.265-4.762-9.49-7.985-16.644-7.985     c-9.25,0-16.958,5.382-18.703,12.523c-2.507-0.99-5.308-1.561-8.278-1.561c-9.834,0-17.925,6.084-18.96,13.899     c-3.278-4.723-9.474-7.916-16.592-7.916c-10.127,0-18.388,6.455-19.016,14.604c-1.308-0.232-2.662-0.361-4.055-0.361     c-9.594,0-17.511,5.795-18.854,13.333c-3.076-5.238-9.606-8.863-17.188-8.863c-5.246,0-9.996,1.733-13.445,4.535     c-3.324-4.577-9.414-7.655-16.398-7.655c-2.623,0-5.122,0.434-7.397,1.217c-2.712-5.911-9.669-10.127-17.848-10.127     c-8.629,0-15.912,4.686-18.268,11.113c-2.737,2.633-4.413,6.015-4.519,9.72c-1.407-0.27-2.866-0.428-4.374-0.428     c-10.536,0-19.077,6.982-19.077,15.594c0,0.286,0.034,0.566,0.052,0.848c-0.91,1.201-1.629,2.506-2.116,3.895     c-1.761-0.439-3.628-0.678-5.565-0.678c-9.364,0-17.136,5.519-18.753,12.792c-3.366-2.438-7.781-3.93-12.632-3.93     c-6.483,0-12.202,2.65-15.649,6.69c-2.806-1.327-6.053-2.098-9.527-2.098c-9.71,0-17.708,5.935-18.905,13.607     c-3.022-1.644-6.647-2.605-10.549-2.605c-9.803,0-17.87,6.047-18.946,13.825c-3.487-3.708-8.953-6.109-15.117-6.109     c-8.556,0-15.796,4.604-18.215,10.947c-2.35-0.846-4.943-1.324-7.676-1.324c-5.562,0-10.553,1.958-14.04,5.062     c-10.018,0.471-17.97,7.241-17.97,15.548c0,4.595,2.446,8.713,6.315,11.567v104.639h1.265h766.528h1.265V402.427     C765.337,400.586,765.859,398.567,765.859,396.448z"
   id="path37" />
			<g
   id="g38">
				<path
   style="fill:#DB431D;"
   d="M779.726,425.721c0-7.266-6.459-13.354-15.193-15.097c-0.715-8.067-9.373-14.449-20.012-14.533      c-2.601-5.729-9.403-9.929-17.576-10.411c-2.263-5.31-8.117-9.362-15.36-10.452c-0.674-7.708-8.6-13.875-18.583-14.491      c-1.328-7.635-9.805-13.528-20.091-13.528c-1.962,0-3.852,0.226-5.646,0.625c-0.427-8.334-9.317-14.994-20.252-14.994      c-6.315,0-11.956,2.221-15.678,5.702c-2.521-0.864-5.305-1.354-8.242-1.354c-1.62,0-3.188,0.162-4.699,0.438      c-3.722-3.437-9.325-5.627-15.594-5.627c-6.142,0-11.635,2.108-15.357,5.426c-2.989-1.334-6.45-2.11-10.154-2.11      c-11.018,0-19.964,6.76-20.265,15.182c-2.79-1.111-5.95-1.749-9.308-1.749c-9.113,0-16.823,4.623-19.386,10.987      c-0.303-0.01-0.601-0.035-0.907-0.035c-9.998,0-18.288,5.569-19.965,12.892c-2.28,0.273-4.439,0.823-6.4,1.629      c-3.149-1.546-6.878-2.453-10.89-2.453c-2.736,0-5.343,0.422-7.725,1.178c-0.779-0.592-1.626-1.128-2.521-1.618      c2.071-2.448,3.286-5.364,3.286-8.503c0-8.624-9.086-15.615-20.293-15.615c-3.747,0-7.244,0.795-10.257,2.158      c-2.793-1.114-5.957-1.754-9.321-1.754c-3.198,0-6.212,0.585-8.903,1.599c0.376-1.189,0.598-2.424,0.598-3.702      c0-8.624-9.086-15.615-20.293-15.615c-3.252,0-6.315,0.603-9.039,1.65c-3.474-4.768-10.095-7.996-17.705-7.996      c-9.839,0-18.039,5.389-19.895,12.54c-2.667-0.991-5.646-1.563-8.806-1.563c-10.461,0-19.068,6.092-20.168,13.917      c-3.487-4.729-10.078-7.926-17.65-7.926c-10.773,0-19.561,6.464-20.228,14.624c-1.391-0.232-2.832-0.361-4.313-0.361      c-10.206,0-18.627,5.803-20.056,13.351c-3.272-5.244-10.218-8.874-18.284-8.874c-5.581,0-10.634,1.735-14.302,4.541      c-3.536-4.583-10.014-7.664-17.443-7.664c-2.791,0-5.449,0.434-7.869,1.219c-2.885-5.919-10.285-10.14-18.985-10.14      c-9.179,0-16.926,4.692-19.433,11.128c-2.911,2.636-4.695,6.023-4.807,9.733c-1.496-0.271-3.049-0.429-4.652-0.429      c-11.208,0-20.293,6.991-20.293,15.615c0,0.287,0.036,0.566,0.056,0.849c-0.968,1.203-1.733,2.509-2.25,3.9      c-1.873-0.439-3.86-0.679-5.92-0.679c-9.96,0-18.228,5.526-19.948,12.809c-3.581-2.441-8.277-3.935-13.437-3.935      c-6.897,0-12.98,2.653-16.647,6.699c-2.985-1.328-6.439-2.1-10.135-2.1c-10.329,0-18.837,5.943-20.11,13.625      c-3.215-1.646-7.071-2.609-11.222-2.609c-10.428,0-19.009,6.055-20.154,13.843c-3.71-3.713-9.524-6.117-16.081-6.117      c-9.101,0-16.803,4.611-19.376,10.962c-2.5-0.847-5.258-1.326-8.166-1.326c-5.917,0-11.225,1.96-14.935,5.069      c-10.657,0.472-19.116,7.251-19.116,15.569c0,4.601,2.602,8.725,6.718,11.582v104.778h1.346h815.395h1.346V431.708      C779.171,429.864,779.726,427.843,779.726,425.721z"
   id="path38" />
			</g>
			<path
   style="fill:#F77F60;"
   d="M711.907,469.643c0,0-1.924-19.281-22.218-23.903c-20.293-4.622-27.986,0-27.986,0     s-5.668-11.71-17.814-12.634c-12.146-0.924-17.051,5.547-17.051,5.547s1.087-22.187-30.001-26.039     c-31.088-3.852-48.756,16.178-48.756,16.178s-4.301-2.465-10.726-1.232c-6.425,1.232-8.449,5.547-8.449,5.547     s-15.385-28.35-45.75-24.036c-30.365,4.314-35.628,17.873-35.628,17.873s-9.075-10.785-23.364-12.943     c-14.289-2.157-20.767,1.675-20.767,1.675s-6.971-42.66-63.001-50.364c-56.03-7.704-92.063,22.804-92.063,22.804     s-14.75-2.157-28.833,2.773c-14.083,4.931-17.735,11.402-17.735,11.402s-14.28-4.906-26.772,2.323     c-12.492,7.229-2.346,25.103-2.346,25.103s-11.766-5.547-23.102,1.233c-11.336,6.78-5.668,12.634-5.668,12.634     s-12.956-2.533-23.887,6.745c-10.931,9.279-4.101,23.279-4.101,23.279s-25.05-13.223-42.864-6.216     c-17.814,7.007-17.846,17.679-17.846,17.679s-16.567-3.294-25.879,2.878c-9.312,6.172-7.287,13.134-7.287,13.134     s-3.239-2.283-10.122,0c-3.374,1.119-0.798,52.273-5.693,55.865l767.097,1.543v-68.698     C754.508,474.872,723.573,461.445,711.907,469.643z"
   id="path39" />
		</g>
		<g
   style="clip-path:url(#SVGID_00000000932136520265244610000003149285234795525517_);"
   clip-path="url(#SVGID_00000000932136520265244610000003149285234795525517_)"
   id="g149">
			<g
   id="g42">
				<g
   id="g41">
					<g
   id="g40">
						<polygon
   style="fill:#FFD633;"
   points="594.137,349.272 586.31,341.582 586.31,343.582 594.137,351.272       "
   id="polygon39" />
						<rect
   x="594.137"
   y="372.661"
   style="fill:#FFD633;"
   width="12.948"
   height="2"
   id="rect39" />
						<rect
   x="458.398"
   y="372.661"
   style="fill:#FFD633;"
   width="127.912"
   height="2"
   id="rect40" />
					</g>
				</g>
				<polygon
   style="fill:#346285;"
   points="594.137,374.661 594.137,351.272 586.31,343.582 586.31,374.661 458.398,374.661       458.398,377.002 458.398,378.465 458.398,500.138 532.741,500.138 607.085,500.138 607.085,378.465 607.085,377.002       607.085,374.661     "
   id="polygon41" />
			</g>
			<g
   id="g43">
				<rect
   x="0.115"
   y="282.925"
   style="fill:#FFD633;"
   width="49.48"
   height="1.932"
   id="rect42" />
				<rect
   x="0.115"
   y="284.203"
   style="fill:#346285;"
   width="49.48"
   height="216.21"
   id="rect43" />
			</g>
			<g
   id="g64">
				<rect
   x="278.071"
   y="351.918"
   style="fill:#346285;"
   width="31.642"
   height="20.57"
   id="rect44" />
				<rect
   x="284.632"
   y="346.633"
   style="fill:#346285;"
   width="18.52"
   height="7.078"
   id="rect45" />
				<g
   id="g63">
					<g
   id="g47">
						<rect
   x="269.582"
   y="365.702"
   style="fill:#346285;"
   width="48.621"
   height="134.535"
   id="rect46" />
						<rect
   x="269.582"
   y="361.123"
   style="fill:#346285;"
   width="48.621"
   height="3.991"
   id="rect47" />
					</g>
					<g
   id="g62">
						<g
   id="g48">
							<rect
   x="293.11"
   y="317.327"
   style="fill:#356387;"
   width="1.563"
   height="26.167"
   id="rect48" />
							<circle
   style="fill:#356387;"
   cx="293.892"
   cy="315.085"
   r="2.62"
   id="circle48" />
						</g>
						<rect
   x="287.821"
   y="341.879"
   style="fill:#346285;"
   width="11.575"
   height="6.173"
   id="rect49" />
						<rect
   x="289.466"
   y="337.612"
   style="fill:#346285;"
   width="8.284"
   height="4.418"
   id="rect50" />
						<g
   id="g61">
							<rect
   x="297.75"
   y="340.597"
   style="fill:#FFD633;"
   width="1.645"
   height="1.282"
   id="rect51" />
							<rect
   x="299.396"
   y="345.351"
   style="fill:#FFD633;"
   width="3.757"
   height="1.282"
   id="rect52" />
							<rect
   x="309.713"
   y="359.841"
   style="fill:#FFD633;"
   width="8.489"
   height="1.282"
   id="rect53" />
							<rect
   x="303.152"
   y="350.636"
   style="fill:#FFD633;"
   width="6.561"
   height="1.282"
   id="rect54" />
							<path
   style="fill:#FFD633;"
   d="M293.892,313.175c1.224,0,2.244,0.844,2.532,1.979c0.052-0.206,0.089-0.418,0.089-0.64         c0-1.447-1.173-2.62-2.62-2.62c-1.447,0-2.62,1.173-2.62,2.62c0,0.222,0.036,0.435,0.088,0.64         C291.648,314.019,292.668,313.175,293.892,313.175z"
   id="path54" />
							<rect
   x="294.674"
   y="336.33"
   style="fill:#FFD633;"
   width="3.076"
   height="1.282"
   id="rect55" />
							<rect
   x="269.582"
   y="359.841"
   style="fill:#FFD633;"
   width="8.489"
   height="1.282"
   id="rect56" />
							<rect
   x="318.202"
   y="493.039"
   style="fill:#FFD633;"
   width="0"
   height="1.282"
   id="rect57" />
							<rect
   x="284.632"
   y="345.351"
   style="fill:#FFD633;"
   width="3.189"
   height="1.282"
   id="rect58" />
							<rect
   x="287.821"
   y="340.597"
   style="fill:#FFD633;"
   width="1.645"
   height="1.282"
   id="rect59" />
							<rect
   x="289.466"
   y="336.33"
   style="fill:#FFD633;"
   width="3.644"
   height="1.282"
   id="rect60" />
							<rect
   x="278.071"
   y="350.636"
   style="fill:#FFD633;"
   width="6.561"
   height="1.282"
   id="rect61" />
						</g>
					</g>
				</g>
			</g>
			<g
   id="g73">
				<g
   id="g65">
					<polygon
   style="fill:#F2BA20;"
   points="711.464,329.944 699.409,318.101 699.409,321.055 711.464,332.899      "
   id="polygon64" />
					<polygon
   style="fill:#284B66;"
   points="711.464,332.266 699.409,320.422 699.409,365.331 711.464,365.331      "
   id="polygon65" />
				</g>
				<g
   id="g72">
					<g
   id="g69">
						<g
   id="g68">
							<g
   id="g66">
								<polygon
   style="fill:#284B66;"
   points="649.504,359.03 649.504,499.813 761.094,499.813 761.094,368.472         "
   id="polygon66" />
							</g>
							<g
   id="g67">
								<rect
   x="605.726"
   y="359.03"
   style="fill:#284B66;"
   width="43.778"
   height="140.783"
   id="rect66" />
							</g>
						</g>
					</g>
					<g
   id="g71">
						<g
   id="g70">
							<rect
   x="605.726"
   y="349.536"
   style="fill:#284B66;"
   width="44.053"
   height="10.056"
   id="rect69" />
							<polygon
   style="fill:#284B66;"
   points="761.094,358.549 649.779,349.536 649.779,359.592 761.094,368.605        "
   id="polygon69" />
						</g>
					</g>
					<polygon
   style="fill:#FFD633;"
   points="649.779,348.254 605.726,348.254 605.726,349.536 649.779,349.536 761.094,358.549        761.094,357.267      "
   id="polygon71" />
				</g>
			</g>
			<g
   id="g80">
				<g
   id="g76">
					<polygon
   style="fill:#284B66;"
   points="331.197,405.521 289.169,405.521 289.169,500.211 331.197,500.211 373.224,500.211        373.224,405.521      "
   id="polygon73" />
					<g
   id="g75">
						<g
   id="g74">
							<path
   style="fill:#284B66;"
   d="M328.696,385.195l2.611,12.732c0.066,0.321,0.538,0.273,0.538-0.055v-33.647         c0-0.018-0.002-0.037-0.006-0.055l-1.603-7.815c-0.189-0.922-1.546-0.784-1.546,0.157v28.627         C328.691,385.159,328.692,385.177,328.696,385.195z"
   id="path73" />
						</g>
						
							<rect
   x="286.093"
   y="398.824"
   transform="matrix(-1 -1.224647e-16 1.224647e-16 -1 662.3931 806.3744)"
   style="fill:#284B66;"
   width="90.207"
   height="8.726"
   id="rect74" />
						
							<rect
   x="314.255"
   y="383.749"
   transform="matrix(-1 -1.224647e-16 1.224647e-16 -1 659.5531 782.7465)"
   style="fill:#284B66;"
   width="31.043"
   height="15.248"
   id="rect75" />
					</g>
				</g>
				<g
   id="g79">
					<path
   style="fill:#FFD633;"
   d="M330.237,356.356c-0.189-0.922-1.546-0.784-1.546,0.157v-1.341c0-0.941,1.357-1.079,1.546-0.157       l1.603,7.815c0.004,0.018,0.006,0.036,0.006,0.055v1.341c0-0.018-0.002-0.037-0.006-0.055L330.237,356.356z"
   id="path76" />
					<rect
   x="331.845"
   y="382.408"
   style="fill:#FFD633;"
   width="13.453"
   height="1.341"
   id="rect76" />
					<rect
   x="314.255"
   y="382.408"
   style="fill:#FFD633;"
   width="14.436"
   height="1.341"
   id="rect77" />
					<rect
   x="286.093"
   y="397.483"
   style="fill:#FFD633;"
   width="28.162"
   height="1.341"
   id="rect78" />
					<rect
   x="345.298"
   y="397.483"
   style="fill:#FFD633;"
   width="31.002"
   height="1.341"
   id="rect79" />
				</g>
			</g>
			<g
   id="g84">
				<rect
   x="162.15"
   y="332.315"
   style="fill:#346285;"
   width="47.883"
   height="167.248"
   id="rect80" />
				<path
   style="fill:#346285;"
   d="M195.723,316.848c-0.009-0.019-0.033-0.038-0.046-0.06c0,0,0,0-0.007,0      c-0.015-0.019-0.029-0.035-0.042-0.051c-0.029-0.028-0.048-0.058-0.086-0.087c-0.029-0.022-0.059-0.043-0.095-0.062      c-0.057-0.044-0.123-0.085-0.2-0.122c-0.037-0.022-0.075-0.041-0.117-0.055c-0.086-0.042-0.176-0.083-0.286-0.119      c-0.031-0.016-0.079-0.03-0.123-0.043c-0.119-0.045-0.247-0.083-0.383-0.12c-0.035-0.009-0.077-0.02-0.114-0.03      c-0.154-0.043-0.315-0.08-0.488-0.119c-0.029-0.006-0.062-0.012-0.092-0.018c-0.189-0.038-0.392-0.076-0.605-0.113      c-0.015-0.003-0.029-0.003-0.048-0.006c-0.227-0.038-0.469-0.076-0.719-0.11h-0.009c-1.512-0.201-3.366-0.31-5.26-0.337      c-2.244-0.032-4.547,0.054-6.43,0.269v-0.006c-0.053,0.008-0.105,0.015-0.163,0.023c-0.169,0.017-0.341,0.042-0.51,0.063      c-0.097,0.013-0.189,0.026-0.282,0.038c-0.189,0.03-0.37,0.06-0.546,0.092c-0.062,0.007-0.128,0.019-0.189,0.031      c-0.227,0.044-0.445,0.088-0.649,0.137c-0.033,0.01-0.062,0.014-0.095,0.026c-0.167,0.039-0.323,0.084-0.471,0.131      c-0.051,0.016-0.099,0.033-0.15,0.051c-0.114,0.04-0.22,0.077-0.315,0.117c-0.046,0.022-0.095,0.043-0.143,0.067      c-0.009,0.005-0.022,0.008-0.033,0.013c-0.004,0.003-0.009,0.007-0.02,0.011c-0.059,0.03-0.112,0.068-0.167,0.098      c-0.036,0.024-0.075,0.048-0.101,0.07c-0.037,0.03-0.075,0.065-0.106,0.095c-0.018,0.017-0.026,0.032-0.035,0.046      c-0.004,0-0.011,0.003-0.011,0.003c-0.015,0.024-0.038,0.043-0.053,0.067c-0.046,0.071-0.075,0.146-0.075,0.225      c0,0-0.024-0.012-0.064-0.02v8.421h2.108h2.069h2.98h1.769h1.681h0.571h2.007h2.683h1.701h1.827v-8.401      C195.789,316.992,195.76,316.92,195.723,316.848z"
   id="path80" />
				<path
   style="fill:#346285;"
   d="M199.482,320.598c-0.017-0.03-0.046-0.058-0.075-0.088c-0.077-0.089-0.181-0.17-0.304-0.25      c-0.04-0.02-0.062-0.045-0.106-0.063c-0.172-0.1-0.37-0.196-0.605-0.285c-0.037-0.013-0.077-0.027-0.117-0.043      c-0.216-0.074-0.453-0.145-0.709-0.214c-0.068-0.02-0.134-0.038-0.211-0.054c-0.625-0.16-1.369-0.299-2.201-0.419      c-0.057-0.008-0.123-0.016-0.189-0.024c-0.378-0.053-0.775-0.103-1.193-0.146c-0.049-0.007-0.108-0.012-0.158-0.02      c-1.936-0.202-4.172-0.315-6.447-0.342c-5.054-0.058-10.299,0.316-12.876,1.126c-0.04,0.01-0.075,0.023-0.106,0.036      c-0.194,0.064-0.37,0.128-0.526,0.194c-0.053,0.024-0.099,0.044-0.147,0.068c-0.009,0.007-0.029,0.013-0.04,0.019      c-0.101,0.047-0.194,0.098-0.273,0.152c-0.029,0.015-0.057,0.027-0.086,0.048c-0.02,0.017-0.048,0.034-0.068,0.051      c-0.044,0.035-0.093,0.071-0.132,0.104c-0.035,0.042-0.07,0.079-0.099,0.119c-0.024,0.022-0.042,0.044-0.051,0.064      c-0.02,0.019-0.031,0.037-0.039,0.053c-0.044,0.082-0.075,0.167-0.075,0.254c0-0.005-0.029-0.012-0.086-0.018v0.836v10.688      h3.141h2.614h3.165h2.192h3.492h0.282h2.254h2.436h3.286h4.192v-10.668v-0.837C199.618,320.822,199.563,320.71,199.482,320.598z      "
   id="path81" />
				
					<line
   style="fill:none;stroke:#FFD633;stroke-width:0.9593;stroke-miterlimit:10;"
   x1="186.796"
   y1="302.584"
   x2="186.857"
   y2="315.271"
   id="line81" />
				<path
   style="fill:#346285;"
   d="M189.036,314.285c-0.016-0.01-0.04-0.018-0.053-0.029c-0.004,0-0.009-0.002-0.009-0.007      c-0.016-0.007-0.035-0.018-0.053-0.03c-0.035-0.011-0.062-0.03-0.101-0.041c-0.026-0.013-0.066-0.022-0.101-0.032      c-0.068-0.02-0.139-0.044-0.225-0.059c-0.048-0.011-0.101-0.02-0.145-0.03c-0.092-0.014-0.176-0.028-0.273-0.044      c-0.022-0.004-0.042-0.006-0.062-0.007v0.001c-0.469-0.061-1.04-0.093-1.628-0.101c-0.03,0-0.058-0.003-0.088-0.003      c-0.031-0.003-0.057-0.005-0.086-0.005c-0.299,0-0.598,0.005-0.882,0.016c-0.009,0-0.018,0-0.026,0      c-0.339,0.016-0.647,0.04-0.942,0.07v-0.003c-0.062,0.008-0.112,0.019-0.172,0.026c-0.083,0.008-0.161,0.022-0.236,0.033      c-0.068,0.012-0.134,0.023-0.191,0.036c-0.013,0.001-0.026,0.003-0.039,0.007c-0.005,0-0.005,0-0.005,0      c-0.068,0.017-0.13,0.032-0.187,0.05c-0.042,0.008-0.086,0.023-0.119,0.033c-0.046,0.015-0.086,0.03-0.123,0.049      c-0.015,0.011-0.033,0.017-0.046,0.027v0.003c-0.027,0.011-0.053,0.021-0.066,0.037c-0.057,0.035-0.097,0.079-0.097,0.128      c0,0-0.005-0.003-0.013-0.003v0.524v2.051h0.048h0.607h0.097h0.541h0.079h0.845h0.018h0.515h0.026h0.541h0.163h0.621h0.845      h0.533h0.568v-2.044v-0.528C189.115,314.366,189.089,314.328,189.036,314.285z"
   id="path82" />
				<g
   id="g83">
					<path
   style="fill:#FFD633;"
   d="M188.015,314.008v-0.001c0.02,0.001,0.04,0.004,0.062,0.007c0.097,0.016,0.18,0.03,0.273,0.044       c0.044,0.01,0.097,0.019,0.145,0.03c0.086,0.016,0.156,0.039,0.225,0.059c0.035,0.009,0.075,0.019,0.101,0.032       c0.04,0.011,0.066,0.03,0.101,0.041c0.018,0.012,0.037,0.022,0.053,0.03c0,0.005,0.004,0.007,0.009,0.007       c0.013,0.01,0.037,0.019,0.053,0.029c0.053,0.043,0.079,0.081,0.079,0.125v0.528v0.531c1.13,0.057,2.207,0.142,3.146,0.267       h0.009c0.251,0.034,0.493,0.072,0.719,0.11c0.02,0.003,0.033,0.003,0.048,0.006c0.214,0.037,0.416,0.075,0.605,0.113       c0.031,0.006,0.064,0.012,0.092,0.018c0.174,0.039,0.334,0.076,0.488,0.119c0.037,0.01,0.079,0.021,0.114,0.03       c0.137,0.037,0.264,0.076,0.383,0.12c0.044,0.013,0.092,0.027,0.123,0.043c0.11,0.036,0.2,0.077,0.286,0.119       c0.042,0.014,0.079,0.033,0.117,0.055c0.077,0.037,0.143,0.078,0.2,0.122c0.035,0.02,0.066,0.04,0.095,0.062       c0.037,0.029,0.057,0.059,0.086,0.086c0.013,0.016,0.027,0.033,0.042,0.051c0.007,0,0.007,0,0.007,0       c0.013,0.021,0.037,0.041,0.046,0.06c0.037,0.072,0.066,0.143,0.066,0.217v2.216c0.578,0.096,1.105,0.202,1.567,0.321       c0.077,0.016,0.143,0.034,0.211,0.054c0.255,0.069,0.493,0.14,0.709,0.214c0.04,0.016,0.079,0.03,0.117,0.043       c0.236,0.088,0.434,0.185,0.605,0.285c0.044,0.019,0.066,0.043,0.106,0.063c0.123,0.08,0.227,0.161,0.304,0.25       c0.029,0.03,0.057,0.058,0.075,0.088c0.081,0.112,0.136,0.223,0.136,0.343v0.837v10.536h1.923v-10.536v-0.837       c0-0.12-0.055-0.232-0.136-0.343c-0.018-0.03-0.046-0.058-0.075-0.088c-0.077-0.089-0.18-0.17-0.304-0.25       c-0.04-0.02-0.062-0.045-0.106-0.063c-0.172-0.1-0.37-0.196-0.605-0.285c-0.037-0.013-0.077-0.027-0.117-0.043       c-0.216-0.073-0.453-0.145-0.709-0.214c-0.068-0.02-0.134-0.038-0.211-0.054c-0.461-0.118-0.988-0.225-1.567-0.321v-2.216       c0-0.073-0.029-0.145-0.066-0.217c-0.009-0.019-0.033-0.038-0.046-0.06c0,0,0,0-0.007,0c-0.015-0.019-0.029-0.035-0.042-0.051       c-0.029-0.028-0.048-0.057-0.086-0.086c-0.029-0.022-0.059-0.043-0.095-0.062c-0.057-0.044-0.123-0.085-0.2-0.122       c-0.038-0.022-0.075-0.041-0.117-0.055c-0.086-0.042-0.176-0.083-0.286-0.119c-0.031-0.016-0.079-0.03-0.123-0.043       c-0.119-0.045-0.246-0.083-0.383-0.12c-0.035-0.009-0.077-0.02-0.114-0.03c-0.154-0.043-0.315-0.08-0.489-0.119       c-0.029-0.006-0.062-0.012-0.093-0.018c-0.189-0.038-0.392-0.076-0.605-0.113c-0.015-0.003-0.029-0.003-0.049-0.006       c-0.227-0.038-0.469-0.076-0.719-0.11h-0.009c-0.939-0.124-2.016-0.21-3.146-0.267v-0.531v-0.528       c0-0.044-0.027-0.082-0.079-0.125c-0.015-0.01-0.04-0.018-0.053-0.029c-0.004,0-0.009-0.002-0.009-0.007       c-0.016-0.007-0.035-0.018-0.053-0.03c-0.035-0.011-0.062-0.03-0.101-0.041c-0.027-0.013-0.066-0.022-0.101-0.032       c-0.068-0.02-0.139-0.044-0.225-0.059c-0.048-0.011-0.101-0.02-0.145-0.03c-0.092-0.014-0.176-0.028-0.273-0.044       c-0.022-0.004-0.042-0.006-0.062-0.007v0.001c-0.469-0.061-1.04-0.093-1.628-0.101c-0.03,0-0.058-0.003-0.088-0.003       c-0.031-0.003-0.057-0.005-0.086-0.005c-0.299,0-0.599,0.005-0.883,0.016c-0.009,0-0.018,0-0.026,0       c-0.069,0.003-0.133,0.008-0.199,0.012C187.382,313.944,187.72,313.969,188.015,314.008z"
   id="path83" />
					<rect
   x="210.033"
   y="332.315"
   style="fill:#FFD633;"
   width="1.923"
   height="167.248"
   id="rect83" />
				</g>
				
					<line
   style="fill:none;stroke:#346285;stroke-width:1.211;stroke-miterlimit:10;"
   x1="186.541"
   y1="302.688"
   x2="186.541"
   y2="315.691"
   id="line83" />
			</g>
			<g
   id="g114">
				<rect
   x="138.161"
   y="253.085"
   style="fill:#FFD633;"
   width="3.207"
   height="0.918"
   id="rect84" />
				<g
   id="g94">
					<path
   style="fill:#284B66;"
   d="M138.161,309.206v-56.122h3.208v56.122H138.161z"
   id="path84" />
					<g
   id="g85">
						<polygon
   style="fill:#346285;"
   points="125.779,287.286 102.111,287.286 102.111,417.792 125.779,417.792 149.448,417.792         149.448,287.286       "
   id="polygon84" />
						<rect
   x="102.111"
   y="284.805"
   style="fill:#346285;"
   width="47.338"
   height="4.031"
   id="rect85" />
						<polygon
   style="fill:#FFD633;"
   points="102.111,284.203 102.111,285.443 102.111,285.537 149.448,285.537 149.448,285.443         149.448,284.203       "
   id="polygon85" />
					</g>
					<rect
   x="97.719"
   y="295.437"
   style="fill:#346285;"
   width="56.121"
   height="6.415"
   id="rect86" />
					<rect
   x="97.719"
   y="309.206"
   style="fill:#346285;"
   width="56.121"
   height="6.415"
   id="rect87" />
					<rect
   x="97.719"
   y="322.975"
   style="fill:#346285;"
   width="56.121"
   height="6.415"
   id="rect88" />
					<rect
   x="97.719"
   y="336.745"
   style="fill:#346285;"
   width="56.121"
   height="6.415"
   id="rect89" />
					<rect
   x="97.719"
   y="350.514"
   style="fill:#346285;"
   width="56.121"
   height="6.415"
   id="rect90" />
					<rect
   x="97.719"
   y="364.284"
   style="fill:#346285;"
   width="56.121"
   height="6.415"
   id="rect91" />
					<rect
   x="97.719"
   y="378.053"
   style="fill:#346285;"
   width="56.121"
   height="6.415"
   id="rect92" />
					<rect
   x="97.719"
   y="391.822"
   style="fill:#346285;"
   width="56.121"
   height="6.415"
   id="rect93" />
					<rect
   x="97.719"
   y="405.591"
   style="fill:#346285;"
   width="56.121"
   height="6.415"
   id="rect94" />
				</g>
				<g
   id="g113">
					<rect
   x="149.448"
   y="370.699"
   style="fill:#FFD633;"
   width="1.836"
   height="7.354"
   id="rect95" />
					<rect
   x="149.448"
   y="356.929"
   style="fill:#FFD633;"
   width="1.836"
   height="7.354"
   id="rect96" />
					<rect
   x="149.448"
   y="384.468"
   style="fill:#FFD633;"
   width="1.836"
   height="7.354"
   id="rect97" />
					<rect
   x="149.448"
   y="398.237"
   style="fill:#FFD633;"
   width="1.836"
   height="7.354"
   id="rect98" />
					<rect
   x="141.369"
   y="253.085"
   style="fill:#FFD633;"
   width="1.836"
   height="31.118"
   id="rect99" />
					<rect
   x="149.448"
   y="343.16"
   style="fill:#FFD633;"
   width="1.836"
   height="7.354"
   id="rect100" />
					<rect
   x="149.448"
   y="329.391"
   style="fill:#FFD633;"
   width="1.836"
   height="7.354"
   id="rect101" />
					<polygon
   style="fill:#FFD633;"
   points="149.448,285.443 149.448,285.537 149.448,287.286 149.448,288.836 149.448,295.437        151.284,295.437 151.284,288.836 151.284,287.286 151.284,285.537 151.284,285.443 151.284,284.805 151.284,284.203        149.448,284.203 149.448,284.805      "
   id="polygon101" />
					<rect
   x="149.448"
   y="301.852"
   style="fill:#FFD633;"
   width="1.836"
   height="7.354"
   id="rect102" />
					<rect
   x="149.448"
   y="315.621"
   style="fill:#FFD633;"
   width="1.836"
   height="7.354"
   id="rect103" />
					<rect
   x="153.84"
   y="295.437"
   style="fill:#FFD633;"
   width="1.836"
   height="6.415"
   id="rect104" />
					<rect
   x="153.84"
   y="322.975"
   style="fill:#FFD633;"
   width="1.836"
   height="6.415"
   id="rect105" />
					<rect
   x="153.84"
   y="336.745"
   style="fill:#FFD633;"
   width="1.836"
   height="6.415"
   id="rect106" />
					<rect
   x="153.84"
   y="309.206"
   style="fill:#FFD633;"
   width="1.836"
   height="6.415"
   id="rect107" />
					<rect
   x="153.84"
   y="350.514"
   style="fill:#FFD633;"
   width="1.836"
   height="6.415"
   id="rect108" />
					<rect
   x="153.84"
   y="364.284"
   style="fill:#FFD633;"
   width="1.836"
   height="6.415"
   id="rect109" />
					<rect
   x="153.84"
   y="405.591"
   style="fill:#FFD633;"
   width="1.836"
   height="6.415"
   id="rect110" />
					<rect
   x="153.84"
   y="391.822"
   style="fill:#FFD633;"
   width="1.836"
   height="6.415"
   id="rect111" />
					<rect
   x="153.84"
   y="378.053"
   style="fill:#FFD633;"
   width="1.836"
   height="6.415"
   id="rect112" />
					<rect
   x="149.448"
   y="412.007"
   style="fill:#FFD633;"
   width="1.836"
   height="5.785"
   id="rect113" />
				</g>
			</g>
			<g
   id="g117">
				<g
   id="g115">
					<polygon
   style="fill:#FFD633;"
   points="99.009,322.279 84.827,297.716 71.513,274.654 71.513,257.114 69.565,257.114        69.565,274.654 69.432,274.884 69.432,276.735 82.747,299.797 96.928,324.359 99.947,324.359 99.947,327.66 99.947,329.723        99.947,499.205 102.028,499.205 102.028,327.642 102.028,325.579 102.028,322.279      "
   id="polygon114" />
				</g>
				<g
   id="g116">
					<polygon
   style="fill:#284B66;"
   points="38.009,323.319 38.009,326.62 38.009,328.682 38.009,500.246 69.498,500.246        100.988,500.246 100.988,328.682 100.988,326.62 100.988,323.319      "
   id="polygon115" />
					<polygon
   style="fill:#284B66;"
   points="83.787,298.756 70.472,275.695 70.472,258.154 68.524,258.154 68.524,275.695        55.21,298.756 40.921,323.505 69.498,352.386 98.076,323.505      "
   id="polygon116" />
				</g>
			</g>
			<g
   id="g120">
				<polygon
   style="fill:#FFD633;"
   points="460.816,293.336 460.816,295.598 422.494,337.324 422.494,335.062     "
   id="polygon117" />
				<g
   id="g119">
					<rect
   x="460.243"
   y="264.196"
   style="fill:#FFD633;"
   width="3.926"
   height="4.328"
   id="rect117" />
					<g
   id="g118">
						<path
   style="fill:#346285;"
   d="M464.17,268.524h-3.926v27.574L422.494,337.2v162.646c13.892,0,27.784,0.079,41.675,0.079        V268.524z"
   id="path117" />
					</g>
				</g>
			</g>
			<g
   id="g131">
				<rect
   x="400.236"
   y="368.009"
   style="fill:#284B66;"
   width="30.03"
   height="132.089"
   id="rect120" />
				<g
   id="g130">
					<rect
   x="370.207"
   y="368.009"
   style="fill:#284B66;"
   width="30.03"
   height="132.089"
   id="rect121" />
					
						<rect
   x="368.516"
   y="363.224"
   transform="matrix(-1 -1.224647e-16 1.224647e-16 -1 801.4873 732.6825)"
   style="fill:#284B66;"
   width="64.456"
   height="6.235"
   id="rect122" />
					<g
   id="g129">
						
							<rect
   x="388.638"
   y="352.452"
   transform="matrix(-1 -1.224647e-16 1.224647e-16 -1 799.4581 715.7996)"
   style="fill:#284B66;"
   width="22.181"
   height="10.895"
   id="rect123" />
						<g
   id="g127">
							<rect
   x="401.207"
   y="351.494"
   style="fill:#FFD633;"
   width="9.613"
   height="0.958"
   id="rect124" />
							<rect
   x="388.638"
   y="351.494"
   style="fill:#FFD633;"
   width="10.315"
   height="0.958"
   id="rect125" />
							<rect
   x="368.516"
   y="362.266"
   style="fill:#FFD633;"
   width="20.123"
   height="0.958"
   id="rect126" />
							<rect
   x="410.82"
   y="362.266"
   style="fill:#FFD633;"
   width="22.152"
   height="0.958"
   id="rect127" />
						</g>
						<g
   id="g128">
							<path
   style="fill:#284B66;"
   d="M399.729,362.781L399.729,362.781c-1.045,0-1.892-0.847-1.892-1.892v-31.232         c0-1.045,0.847-1.892,1.892-1.892l0,0c1.045,0,1.892,0.847,1.892,1.892v31.232         C401.621,361.934,400.774,362.781,399.729,362.781z"
   id="path127" />
							<path
   style="fill:#FFD633;"
   d="M399.729,327.765c-1.045,0-1.892,0.847-1.892,1.892v0.879c0-1.045,0.847-1.892,1.892-1.892         c1.045,0,1.892,0.847,1.892,1.892v-0.879C401.621,328.612,400.774,327.765,399.729,327.765z"
   id="path128" />
						</g>
					</g>
				</g>
			</g>
			<g
   id="g132">
				<polygon
   style="fill:#FFD633;"
   points="519.969,319.673 519.969,321.545 566.482,357.537 566.482,355.665     "
   id="polygon131" />
				<polygon
   style="fill:#284B66;"
   points="519.263,319.127 519.969,319.673 519.969,297.399 515.132,297.399 515.132,499.945       519.969,499.987 519.995,499.987 566.482,499.963 566.482,357.646 519.263,321.107     "
   id="polygon132" />
				<rect
   x="515.132"
   y="293.609"
   style="fill:#FFD633;"
   width="4.838"
   height="3.79"
   id="rect132" />
			</g>
			<g
   id="g134">
				<g
   id="g133">
					<polygon
   style="fill:#2A4F6B;"
   points="504.659,330.442 504.659,333.593 504.659,335.562 504.659,499.337 483.074,499.337        461.488,499.337 461.488,335.562 461.488,333.593 461.488,330.442      "
   id="polygon133" />
					<rect
   x="461.488"
   y="328.885"
   style="fill:#FFD633;"
   width="43.171"
   height="1.558"
   id="rect133" />
				</g>
				<polygon
   style="fill:none;stroke:#2A4F6B;stroke-width:0.9653;stroke-miterlimit:10;"
   points="469.735,337.462 456.912,337.462       456.912,498.979 475.031,498.979 475.031,337.462     "
   id="polygon134" />
			</g>
			<g
   id="g141">
				<g
   id="g135">
					<path
   style="fill:#284B66;"
   d="M238.281,412.561v-37.386h-16.302v37.386h-15.386c0-6.811-5.521-12.332-12.332-12.332       s-12.332,5.521-12.332,12.332h-22.688c0-6.811-5.521-12.332-12.332-12.332c-6.811,0-12.332,5.521-12.332,12.332h-31.705v87.627       h135.426v-87.627H238.281z"
   id="path134" />
				</g>
				<g
   id="g140">
					<g
   id="g139">
						<g
   id="g136">
							<rect
   x="221.978"
   y="375.175"
   style="fill:#FFD633;"
   width="16.302"
   height="1.918"
   id="rect135" />
						</g>
						<g
   id="g137">
							<path
   style="fill:#FFD633;"
   d="M146.909,402.148c6.811,0,12.332,5.521,12.332,12.332h22.688         c0-6.811,5.521-12.332,12.332-12.332s12.332,5.521,12.332,12.332h15.386v-1.919h-15.386c0-6.811-5.521-12.332-12.332-12.332         s-12.332,5.521-12.332,12.332h-22.688c0-6.811-5.521-12.332-12.332-12.332c-6.811,0-12.332,5.521-12.332,12.332h-31.705         v1.919h31.705C134.577,407.669,140.098,402.148,146.909,402.148z"
   id="path136" />
						</g>
						<g
   id="g138">
							<rect
   x="238.281"
   y="412.561"
   style="fill:#FFD633;"
   width="0.017"
   height="1.919"
   id="rect137" />
						</g>
					</g>
				</g>
			</g>
			<g
   id="g148">
				<rect
   x="245.692"
   y="351.816"
   style="fill:#284B66;"
   width="24.028"
   height="11.663"
   id="rect141" />
				<g
   id="g144">
					<rect
   x="256.652"
   y="328.343"
   style="fill:#284B66;"
   width="1.951"
   height="32.647"
   id="rect142" />
					<rect
   x="251.065"
   y="344.741"
   style="fill:#284B66;"
   width="13.283"
   height="8.416"
   id="rect143" />
					<path
   style="fill:#284B66;"
   d="M262.711,344.704c0,1.65-2.276,2.988-5.083,2.988c-2.808,0-5.083-1.338-5.083-2.988       c0-1.65,2.276-2.988,5.083-2.988C260.435,341.716,262.711,343.054,262.711,344.704z"
   id="path143" />
					<path
   style="fill:#284B66;"
   d="M260.975,325.545c0,1.805-1.464,3.269-3.269,3.269c-1.805,0-3.269-1.464-3.269-3.269       c0-1.805,1.464-3.269,3.269-3.269C259.511,322.276,260.975,323.74,260.975,325.545z"
   id="path144" />
				</g>
				<g
   id="g145">
					<rect
   x="237.154"
   y="362.978"
   style="fill:#284B66;"
   width="23.607"
   height="137.425"
   id="rect144" />
					<rect
   x="260.76"
   y="362.978"
   style="fill:#284B66;"
   width="16.019"
   height="137.425"
   id="rect145" />
				</g>
				<g
   id="g147">
					<rect
   x="264.347"
   y="344.741"
   style="fill:#FFD633;"
   width="1.282"
   height="7.075"
   id="rect146" />
					<rect
   x="269.72"
   y="351.816"
   style="fill:#FFD633;"
   width="1.282"
   height="11.162"
   id="rect147" />
					<path
   style="fill:#FFD633;"
   d="M260.975,325.545c0,1.492-1.006,2.737-2.372,3.129v13.098c2.341,0.267,4.108,1.478,4.108,2.932       c0,0.012-0.003,0.025-0.003,0.037h1.282c0-0.012,0.003-0.025,0.003-0.037c0-1.454-1.768-2.664-4.108-2.932v-13.098       c1.366-0.392,2.372-1.637,2.372-3.129c0-1.805-1.464-3.269-3.269-3.269c-0.219,0-0.434,0.023-0.641,0.065       C259.845,322.639,260.975,323.96,260.975,325.545z"
   id="path147" />
					<polygon
   style="fill:#FFD633;"
   points="276.779,362.978 276.779,367.826 276.779,369.091 276.779,375.414 276.779,376.679        276.779,383.002 276.779,384.266 276.779,390.59 276.779,391.854 276.779,398.178 276.779,399.442 276.779,405.765        276.779,407.03 276.779,413.353 276.779,414.618 276.779,420.941 276.779,422.206 276.779,428.529 276.779,429.794        276.779,436.117 276.779,437.382 276.779,443.705 276.779,444.969 276.779,451.293 276.779,452.557 276.779,458.88        276.779,460.145 276.779,466.468 276.779,467.733 276.779,474.056 276.779,475.321 276.779,481.644 276.779,482.909        276.779,489.232 276.779,490.497 276.779,496.82 276.779,498.084 276.779,500.403 278.061,500.403 278.061,498.084        278.061,496.82 278.061,490.497 278.061,489.232 278.061,482.909 278.061,481.644 278.061,475.321 278.061,474.056        278.061,467.733 278.061,466.468 278.061,460.145 278.061,458.88 278.061,452.557 278.061,451.293 278.061,444.969        278.061,443.705 278.061,437.382 278.061,436.117 278.061,429.794 278.061,428.529 278.061,422.206 278.061,420.941        278.061,414.618 278.061,413.353 278.061,407.03 278.061,405.765 278.061,399.442 278.061,398.178 278.061,391.854        278.061,390.59 278.061,384.266 278.061,383.002 278.061,376.679 278.061,375.414 278.061,369.091 278.061,367.826        278.061,362.978      "
   id="polygon147" />
				</g>
			</g>
		</g>
	</g>
	
		<radialGradient
   id="SVGID_00000101105022706184909640000015518496974203619737_"
   cx="375"
   cy="215.5684"
   r="343.8956"
   gradientTransform="matrix(1 0 0 0.6054 0 87.498)"
   gradientUnits="userSpaceOnUse">
		<stop
   offset="0"
   style="stop-color:#FFFFFF;stop-opacity:0.3"
   id="stop150" />
		<stop
   offset="0.5326"
   style="stop-color:#000000;stop-opacity:0"
   id="stop151" />
		<stop
   offset="1"
   style="stop-color:#1B3368;stop-opacity:0.5"
   id="stop152" />
	</radialGradient>
	
		<ellipse
   style="fill:url(#SVGID_00000101105022706184909640000015518496974203619737_);"
   cx="375"
   cy="218"
   rx="348.775"
   ry="210.487"
   id="ellipse152" />
</g>

</svg>
