<?xml version="1.0" encoding="UTF-8" standalone="no"?>
<!-- Generator: Adobe Illustrator 27.5.0, SVG Export Plug-In . SVG Version: 6.00 Build 0)  -->

<svg
   version="1.1"
   x="0px"
   y="0px"
   viewBox="0 0 2200 2200"
   style="enable-background:new 0 0 2200 2200;"
   xml:space="preserve"
   id="svg6"
   sodipodi:docname="radioactive.svg"
   inkscape:version="1.4 (86a8ad7, 2024-10-11)"
   xmlns:inkscape="http://www.inkscape.org/namespaces/inkscape"
   xmlns:sodipodi="http://sodipodi.sourceforge.net/DTD/sodipodi-0.dtd"
   xmlns="http://www.w3.org/2000/svg"
   xmlns:svg="http://www.w3.org/2000/svg"><defs
   id="defs6" /><sodipodi:namedview
   id="namedview6"
   pagecolor="#ffffff"
   bordercolor="#000000"
   borderopacity="0.25"
   inkscape:showpageshadow="2"
   inkscape:pageopacity="0.0"
   inkscape:pagecheckerboard="0"
   inkscape:deskcolor="#d1d1d1"
   inkscape:zoom="0.365"
   inkscape:cx="1100"
   inkscape:cy="1100"
   inkscape:window-width="1920"
   inkscape:window-height="1005"
   inkscape:window-x="-8"
   inkscape:window-y="-8"
   inkscape:window-maximized="1"
   inkscape:current-layer="g6" />

<g
   id="Objects">
	<g
   id="g6">
		<g
   id="g5">
			<path
   d="M1100,1891.63c-115.832,0-228.251-22.705-334.134-67.485c-102.212-43.227-194.002-105.11-272.821-183.93     c-78.82-78.82-140.703-170.61-183.93-272.822c-44.78-105.861-67.485-218.28-67.485-334.134     c0-115.833,22.705-228.252,67.484-334.134c43.227-102.21,105.11-194,183.931-272.821     c78.821-78.821,170.611-140.704,272.821-183.93c105.882-44.78,218.3-67.485,334.134-67.485     c115.854,0,228.274,22.706,334.138,67.486c102.207,43.225,193.997,105.109,272.818,183.929     c78.82,78.819,140.703,170.61,183.93,272.821c44.78,105.883,67.485,218.302,67.485,334.134     c0,115.853-22.706,228.272-67.486,334.137c-43.226,102.21-105.11,194-183.929,272.819     c-78.819,78.819-170.609,140.703-272.821,183.93C1328.272,1868.924,1215.853,1891.63,1100,1891.63z M1100,268.699     c-103.211,0-203.336,20.212-297.592,60.076c-91.027,38.496-172.794,93.627-243.028,163.862     c-70.235,70.235-125.366,152.001-163.864,243.028c-39.863,94.258-60.075,194.382-60.075,297.593     c0,103.23,20.212,203.353,60.074,297.59c38.499,91.031,93.631,172.797,163.865,243.031     c70.233,70.235,152,125.365,243.027,163.863c94.258,39.863,194.383,60.076,297.593,60.076     c103.229,0,203.352-20.211,297.59-60.075c91.032-38.499,172.798-93.63,243.031-163.864     c70.234-70.233,125.365-151.999,163.863-243.027c39.864-94.242,60.076-194.365,60.076-297.593     c0-103.21-20.213-203.335-60.076-297.593c-38.498-91.028-93.63-172.795-163.863-243.028     c-70.235-70.235-152-125.365-243.027-163.862C1303.354,288.911,1203.23,268.699,1100,268.699z"
   id="path1" />
			<g
   id="g4">
				<path
   d="M1499.186,1605.356l-296.714-422.795c-28.989,20.385-64.339,32.351-102.472,32.351s-73.483-11.966-102.472-32.351      l-296.714,422.795c112.949,79.412,250.623,126.032,399.186,126.032S1386.238,1684.768,1499.186,1605.356z"
   id="path2" />
				<path
   d="M1024.773,874.773L806.951,406.348c-237.305,110.538-401.793,351.155-401.793,630.199      c0,20.659,0.902,41.103,2.666,61.301l514.496-45.562c-0.451-5.184-0.686-10.437-0.686-15.739      C921.634,964.916,963.854,903.145,1024.773,874.773z"
   id="path3" />
				<path
   d="M1794.842,1036.547c0-279.044-164.488-519.661-401.793-630.199l-217.822,468.425      c60.919,28.372,103.138,90.143,103.138,161.774c0,5.302-0.235,10.555-0.686,15.739l514.496,45.562      C1793.94,1077.649,1794.842,1057.206,1794.842,1036.547z"
   id="path4" />
				<circle
   cx="1100"
   cy="1036.547"
   r="96.043"
   id="circle4" />
			</g>
		</g>
		
	</g>
</g>
</svg>
