<svg id="Layer_1" data-name="Layer 1" xmlns="http://www.w3.org/2000/svg" viewBox="0 0 761 761">
  <defs>
    <style>
      .cls-1, .cls-10, .cls-2, .cls-3, .cls-4, .cls-5, .cls-6, .cls-7, .cls-8, .cls-9 {
        stroke: #1d1d1b;
        stroke-miterlimit: 10;
      }

      .cls-2 {
        fill: #2b2b2b;
      }

      .cls-3 {
        fill: #565656;
      }

      .cls-4 {
        fill: #fff;
      }

      .cls-5 {
        fill: #7f8080;
      }

      .cls-6 {
        fill: blue;
      }

      .cls-7 {
        fill: lime;
      }

      .cls-8 {
        fill: red;
      }

      .cls-9 {
        fill: #7f7f7f;
      }

      .cls-10 {
        fill: #ff0;
      }
    </style>
  </defs>
  <circle class="cls-1" cx="380.5" cy="380.5" r="380"/>
  <circle class="cls-2" cx="380.5" cy="380.5" r="337.5"/>
  <circle class="cls-3" cx="380.5" cy="380.5" r="325"/>
  <polygon class="cls-4" points="86.051 330.5 103.372 340.5 103.372 360.5 86.051 370.5 68.731 360.5 68.731 340.5 86.051 330.5"/>
  <polygon class="cls-4" points="120.692 330.5 138.013 340.5 138.013 360.5 120.692 370.5 103.372 360.5 103.372 340.5 120.692 330.5"/>
  <polygon class="cls-4" points="155.333 330.5 172.654 340.5 172.654 360.5 155.333 370.5 138.013 360.5 138.013 340.5 155.333 330.5"/>
  <polygon class="cls-5" points="189.974 330.5 207.295 340.5 207.295 360.5 189.974 370.5 172.654 360.5 172.654 340.5 189.974 330.5"/>
  <polygon class="cls-5" points="224.615 330.5 241.936 340.5 241.936 360.5 224.615 370.5 207.295 360.5 207.295 340.5 224.615 330.5"/>
  <polygon class="cls-5" points="259.256 330.5 276.577 340.5 276.577 360.5 259.256 370.5 241.936 360.5 241.936 340.5 259.256 330.5"/>
  <polygon class="cls-5" points="293.897 330.5 311.218 340.5 311.218 360.5 293.897 370.5 276.577 360.5 276.577 340.5 293.897 330.5"/>
  <polygon class="cls-6" points="328.538 330.5 345.859 340.5 345.859 360.5 328.538 370.5 311.218 360.5 311.218 340.5 328.538 330.5"/>
  <polygon class="cls-5" points="363.179 330.5 380.5 340.5 380.5 360.5 363.179 370.5 345.859 360.5 345.859 340.5 363.179 330.5"/>
  <polygon class="cls-5" points="397.821 330.5 415.141 340.5 415.141 360.5 397.821 370.5 380.5 360.5 380.5 340.5 397.821 330.5"/>
  <polygon class="cls-6" points="432.462 330.5 449.782 340.5 449.782 360.5 432.462 370.5 415.141 360.5 415.141 340.5 432.462 330.5"/>
  <polygon class="cls-5" points="467.103 330.5 484.423 340.5 484.423 360.5 467.103 370.5 449.782 360.5 449.782 340.5 467.103 330.5"/>
  <polygon class="cls-5" points="501.744 330.5 519.064 340.5 519.064 360.5 501.744 370.5 484.423 360.5 484.423 340.5 501.744 330.5"/>
  <polygon class="cls-7" points="536.385 330.5 553.705 340.5 553.705 360.5 536.385 370.5 519.064 360.5 519.064 340.5 536.385 330.5"/>
  <polygon class="cls-5" points="571.026 330.5 588.346 340.5 588.346 360.5 571.026 370.5 553.705 360.5 553.705 340.5 571.026 330.5"/>
  <polygon class="cls-4" points="605.667 330.5 622.987 340.5 622.987 360.5 605.667 370.5 588.346 360.5 588.346 340.5 605.667 330.5"/>
  <polygon class="cls-4" points="640.308 330.5 657.628 340.5 657.628 360.5 640.308 370.5 622.987 360.5 622.987 340.5 640.308 330.5"/>
  <polygon class="cls-5" points="415.141 360.5 432.462 370.5 432.462 390.5 415.141 400.5 397.821 390.5 397.821 370.5 415.141 360.5"/>
  <polygon class="cls-7" points="449.782 360.5 467.103 370.5 467.103 390.5 449.782 400.5 432.462 390.5 432.462 370.5 449.782 360.5"/>
  <polygon class="cls-5" points="484.423 360.5 501.744 370.5 501.744 390.5 484.423 400.5 467.103 390.5 467.103 370.5 484.423 360.5"/>
  <polygon class="cls-5" points="519.064 360.5 536.385 370.5 536.385 390.5 519.064 400.5 501.744 390.5 501.744 370.5 519.064 360.5"/>
  <polygon class="cls-5" points="553.705 360.5 571.026 370.5 571.026 390.5 553.705 400.5 536.385 390.5 536.385 370.5 553.705 360.5"/>
  <polygon class="cls-4" points="588.346 360.5 605.667 370.5 605.667 390.5 588.346 400.5 571.026 390.5 571.026 370.5 588.346 360.5"/>
  <polygon class="cls-4" points="622.987 360.5 640.308 370.5 640.308 390.5 622.987 400.5 605.667 390.5 605.667 370.5 622.987 360.5"/>
  <polygon class="cls-4" points="103.372 360.5 120.692 370.5 120.692 390.5 103.372 400.5 86.051 390.5 86.051 370.5 103.372 360.5"/>
  <polygon class="cls-4" points="138.013 360.5 155.333 370.5 155.333 390.5 138.013 400.5 120.692 390.5 120.692 370.5 138.013 360.5"/>
  <polygon class="cls-4" points="172.654 360.5 189.974 370.5 189.974 390.5 172.654 400.5 155.333 390.5 155.333 370.5 172.654 360.5"/>
  <polygon class="cls-7" points="207.295 360.5 224.615 370.5 224.615 390.5 207.295 400.5 189.974 390.5 189.974 370.5 207.295 360.5"/>
  <polygon class="cls-5" points="241.936 360.5 259.256 370.5 259.256 390.5 241.936 400.5 224.615 390.5 224.615 370.5 241.936 360.5"/>
  <polygon class="cls-8" points="276.577 360.5 293.897 370.5 293.897 390.5 276.577 400.5 259.256 390.5 259.256 370.5 276.577 360.5"/>
  <polygon class="cls-5" points="311.218 360.5 328.538 370.5 328.538 390.5 311.218 400.5 293.897 390.5 293.897 370.5 311.218 360.5"/>
  <polygon class="cls-5" points="345.859 360.5 363.179 370.5 363.179 390.5 345.859 400.5 328.538 390.5 328.538 370.5 345.859 360.5"/>
  <polygon class="cls-4" points="86.051 390.5 103.372 400.5 103.372 420.5 86.051 430.5 68.731 420.5 68.731 400.5 86.051 390.5"/>
  <polygon class="cls-4" points="120.692 390.5 138.013 400.5 138.013 420.5 120.692 430.5 103.372 420.5 103.372 400.5 120.692 390.5"/>
  <polygon class="cls-4" points="155.333 390.5 172.654 400.5 172.654 420.5 155.333 430.5 138.013 420.5 138.013 400.5 155.333 390.5"/>
  <polygon class="cls-5" points="189.974 390.5 207.295 400.5 207.295 420.5 189.974 430.5 172.654 420.5 172.654 400.5 189.974 390.5"/>
  <polygon class="cls-5" points="224.615 390.5 241.936 400.5 241.936 420.5 224.615 430.5 207.295 420.5 207.295 400.5 224.615 390.5"/>
  <polygon class="cls-5" points="259.256 390.5 276.577 400.5 276.577 420.5 259.256 430.5 241.936 420.5 241.936 400.5 259.256 390.5"/>
  <polygon class="cls-5" points="293.897 390.5 311.218 400.5 311.218 420.5 293.897 430.5 276.577 420.5 276.577 400.5 293.897 390.5"/>
  <polygon class="cls-7" points="328.538 390.5 345.859 400.5 345.859 420.5 328.538 430.5 311.218 420.5 311.218 400.5 328.538 390.5"/>
  <polygon class="cls-5" points="363.179 390.5 380.5 400.5 380.5 420.5 363.179 430.5 345.859 420.5 345.859 400.5 363.179 390.5"/>
  <polygon class="cls-5" points="397.821 390.5 415.141 400.5 415.141 420.5 397.821 430.5 380.5 420.5 380.5 400.5 397.821 390.5"/>
  <polygon class="cls-7" points="432.462 390.5 449.782 400.5 449.782 420.5 432.462 430.5 415.141 420.5 415.141 400.5 432.462 390.5"/>
  <polygon class="cls-5" points="467.103 390.5 484.423 400.5 484.423 420.5 467.103 430.5 449.782 420.5 449.782 400.5 467.103 390.5"/>
  <polygon class="cls-5" points="501.744 390.5 519.064 400.5 519.064 420.5 501.744 430.5 484.423 420.5 484.423 400.5 501.744 390.5"/>
  <polygon class="cls-7" points="536.385 390.5 553.705 400.5 553.705 420.5 536.385 430.5 519.064 420.5 519.064 400.5 536.385 390.5"/>
  <polygon class="cls-5" points="571.026 390.5 588.346 400.5 588.346 420.5 571.026 430.5 553.705 420.5 553.705 400.5 571.026 390.5"/>
  <polygon class="cls-6" points="605.667 390.5 622.987 400.5 622.987 420.5 605.667 430.5 588.346 420.5 588.346 400.5 605.667 390.5"/>
  <polygon class="cls-4" points="640.308 390.5 657.628 400.5 657.628 420.5 640.308 430.5 622.987 420.5 622.987 400.5 640.308 390.5"/>
  <polygon class="cls-7" points="380.5 300.5 397.821 310.5 397.821 330.5 380.5 340.5 363.179 330.5 363.179 310.5 380.5 300.5"/>
  <polygon class="cls-5" points="415.141 300.5 432.462 310.5 432.462 330.5 415.141 340.5 397.821 330.5 397.821 310.5 415.141 300.5"/>
  <polygon class="cls-5" points="449.782 300.5 467.103 310.5 467.103 330.5 449.782 340.5 432.462 330.5 432.462 310.5 449.782 300.5"/>
  <polygon class="cls-5" points="484.423 300.5 501.744 310.5 501.744 330.5 484.423 340.5 467.103 330.5 467.103 310.5 484.423 300.5"/>
  <polygon class="cls-5" points="519.064 300.5 536.385 310.5 536.385 330.5 519.064 340.5 501.744 330.5 501.744 310.5 519.064 300.5"/>
  <polygon class="cls-5" points="553.705 300.5 571.026 310.5 571.026 330.5 553.705 340.5 536.385 330.5 536.385 310.5 553.705 300.5"/>
  <polygon class="cls-5" points="588.346 300.5 605.667 310.5 605.667 330.5 588.346 340.5 571.026 330.5 571.026 310.5 588.346 300.5"/>
  <polygon class="cls-4" points="622.987 300.5 640.308 310.5 640.308 330.5 622.987 340.5 605.667 330.5 605.667 310.5 622.987 300.5"/>
  <polygon class="cls-4" points="657.628 300.5 674.949 310.5 674.949 330.5 657.628 340.5 640.308 330.5 640.308 310.5 657.628 300.5"/>
  <polygon class="cls-4" points="103.372 300.5 120.692 310.5 120.692 330.5 103.372 340.5 86.051 330.5 86.051 310.5 103.372 300.5"/>
  <polygon class="cls-4" points="138.013 300.5 155.333 310.5 155.333 330.5 138.013 340.5 120.692 330.5 120.692 310.5 138.013 300.5"/>
  <polygon class="cls-5" points="172.654 300.5 189.974 310.5 189.974 330.5 172.654 340.5 155.333 330.5 155.333 310.5 172.654 300.5"/>
  <polygon class="cls-5" points="207.295 300.5 224.615 310.5 224.615 330.5 207.295 340.5 189.974 330.5 189.974 310.5 207.295 300.5"/>
  <polygon class="cls-7" points="241.936 300.5 259.256 310.5 259.256 330.5 241.936 340.5 224.615 330.5 224.615 310.5 241.936 300.5"/>
  <polygon class="cls-5" points="276.577 300.5 293.897 310.5 293.897 330.5 276.577 340.5 259.256 330.5 259.256 310.5 276.577 300.5"/>
  <polygon class="cls-5" points="311.218 300.5 328.538 310.5 328.538 330.5 311.218 340.5 293.897 330.5 293.897 310.5 311.218 300.5"/>
  <polygon class="cls-5" points="345.859 300.5 363.179 310.5 363.179 330.5 345.859 340.5 328.538 330.5 328.538 310.5 345.859 300.5"/>
  <polygon class="cls-4" points="120.692 270.5 138.013 280.5 138.013 300.5 120.692 310.5 103.372 300.5 103.372 280.5 120.692 270.5"/>
  <polygon class="cls-4" points="155.333 270.5 172.654 280.5 172.654 300.5 155.333 310.5 138.013 300.5 138.013 280.5 155.333 270.5"/>
  <polygon class="cls-5" points="189.974 270.5 207.295 280.5 207.295 300.5 189.974 310.5 172.654 300.5 172.654 280.5 189.974 270.5"/>
  <polygon class="cls-5" points="224.615 270.5 241.936 280.5 241.936 300.5 224.615 310.5 207.295 300.5 207.295 280.5 224.615 270.5"/>
  <polygon class="cls-5" points="259.256 270.5 276.577 280.5 276.577 300.5 259.256 310.5 241.936 300.5 241.936 280.5 259.256 270.5"/>
  <polygon class="cls-8" points="293.897 270.5 311.218 280.5 311.218 300.5 293.897 310.5 276.577 300.5 276.577 280.5 293.897 270.5"/>
  <polygon class="cls-5" points="328.538 270.5 345.859 280.5 345.859 300.5 328.538 310.5 311.218 300.5 311.218 280.5 328.538 270.5"/>
  <polygon class="cls-5" points="363.179 270.5 380.5 280.5 380.5 300.5 363.179 310.5 345.859 300.5 345.859 280.5 363.179 270.5"/>
  <polygon class="cls-8" points="397.821 270.5 415.141 280.5 415.141 300.5 397.821 310.5 380.5 300.5 380.5 280.5 397.821 270.5"/>
  <polygon class="cls-6" points="432.462 270.5 449.782 280.5 449.782 300.5 432.462 310.5 415.141 300.5 415.141 280.5 432.462 270.5"/>
  <polygon class="cls-5" points="467.103 270.5 484.423 280.5 484.423 300.5 467.103 310.5 449.782 300.5 449.782 280.5 467.103 270.5"/>
  <polygon class="cls-6" points="501.744 270.5 519.064 280.5 519.064 300.5 501.744 310.5 484.423 300.5 484.423 280.5 501.744 270.5"/>
  <polygon class="cls-5" points="536.385 270.5 553.705 280.5 553.705 300.5 536.385 310.5 519.064 300.5 519.064 280.5 536.385 270.5"/>
  <polygon class="cls-5" points="571.026 270.5 588.346 280.5 588.346 300.5 571.026 310.5 553.705 300.5 553.705 280.5 571.026 270.5"/>
  <polygon class="cls-4" points="605.667 270.5 622.987 280.5 622.987 300.5 605.667 310.5 588.346 300.5 588.346 280.5 605.667 270.5"/>
  <polygon class="cls-4" points="640.308 270.5 657.628 280.5 657.628 300.5 640.308 310.5 622.987 300.5 622.987 280.5 640.308 270.5"/>
  <polygon class="cls-4" points="657.628 360.5 674.949 370.5 674.949 390.5 657.628 400.5 640.308 390.5 640.308 370.5 657.628 360.5"/>
  <polygon class="cls-5" points="380.5 240.5 397.821 250.5 397.821 270.5 380.5 280.5 363.179 270.5 363.179 250.5 380.5 240.5"/>
  <polygon class="cls-5" points="415.141 240.5 432.462 250.5 432.462 270.5 415.141 280.5 397.821 270.5 397.821 250.5 415.141 240.5"/>
  <polygon class="cls-5" points="449.782 240.5 467.103 250.5 467.103 270.5 449.782 280.5 432.462 270.5 432.462 250.5 449.782 240.5"/>
  <polygon class="cls-5" points="484.423 240.5 501.744 250.5 501.744 270.5 484.423 280.5 467.103 270.5 467.103 250.5 484.423 240.5"/>
  <polygon class="cls-5" points="519.064 240.5 536.385 250.5 536.385 270.5 519.064 280.5 501.744 270.5 501.744 250.5 519.064 240.5"/>
  <polygon class="cls-5" points="553.705 240.5 571.026 250.5 571.026 270.5 553.705 280.5 536.385 270.5 536.385 250.5 553.705 240.5"/>
  <polygon class="cls-4" points="588.346 240.5 605.667 250.5 605.667 270.5 588.346 280.5 571.026 270.5 571.026 250.5 588.346 240.5"/>
  <polygon class="cls-4" points="622.987 240.5 640.308 250.5 640.308 270.5 622.987 280.5 605.667 270.5 605.667 250.5 622.987 240.5"/>
  <polygon class="cls-4" points="138.013 240.5 155.333 250.5 155.333 270.5 138.013 280.5 120.692 270.5 120.692 250.5 138.013 240.5"/>
  <polygon class="cls-4" points="172.654 240.5 189.974 250.5 189.974 270.5 172.654 280.5 155.333 270.5 155.333 250.5 172.654 240.5"/>
  <polygon class="cls-5" points="207.295 240.5 224.615 250.5 224.615 270.5 207.295 280.5 189.974 270.5 189.974 250.5 207.295 240.5"/>
  <polygon class="cls-5" points="241.936 240.5 259.256 250.5 259.256 270.5 241.936 280.5 224.615 270.5 224.615 250.5 241.936 240.5"/>
  <polygon class="cls-5" points="276.577 240.5 293.897 250.5 293.897 270.5 276.577 280.5 259.256 270.5 259.256 250.5 276.577 240.5"/>
  <polygon class="cls-5" points="311.218 240.5 328.538 250.5 328.538 270.5 311.218 280.5 293.897 270.5 293.897 250.5 311.218 240.5"/>
  <polygon class="cls-7" points="345.859 240.5 363.179 250.5 363.179 270.5 345.859 280.5 328.538 270.5 328.538 250.5 345.859 240.5"/>
  <polygon class="cls-4" points="155.333 510.5 172.654 520.5 172.654 540.5 155.333 550.5 138.013 540.5 138.013 520.5 155.333 510.5"/>
  <polygon class="cls-4" points="189.974 510.5 207.295 520.5 207.295 540.5 189.974 550.5 172.654 540.5 172.654 520.5 189.974 510.5"/>
  <polygon class="cls-5" points="224.615 510.5 241.936 520.5 241.936 540.5 224.615 550.5 207.295 540.5 207.295 520.5 224.615 510.5"/>
  <polygon class="cls-5" points="259.256 510.5 276.577 520.5 276.577 540.5 259.256 550.5 241.936 540.5 241.936 520.5 259.256 510.5"/>
  <polygon class="cls-5" points="293.897 510.5 311.218 520.5 311.218 540.5 293.897 550.5 276.577 540.5 276.577 520.5 293.897 510.5"/>
  <polygon class="cls-5" points="328.538 510.5 345.859 520.5 345.859 540.5 328.538 550.5 311.218 540.5 311.218 520.5 328.538 510.5"/>
  <polygon class="cls-5" points="363.179 510.5 380.5 520.5 380.5 540.5 363.179 550.5 345.859 540.5 345.859 520.5 363.179 510.5"/>
  <polygon class="cls-5" points="397.821 510.5 415.141 520.5 415.141 540.5 397.821 550.5 380.5 540.5 380.5 520.5 397.821 510.5"/>
  <polygon class="cls-5" points="432.462 510.5 449.782 520.5 449.782 540.5 432.462 550.5 415.141 540.5 415.141 520.5 432.462 510.5"/>
  <polygon class="cls-5" points="467.103 510.5 484.423 520.5 484.423 540.5 467.103 550.5 449.782 540.5 449.782 520.5 467.103 510.5"/>
  <polygon class="cls-5" points="501.744 510.5 519.064 520.5 519.064 540.5 501.744 550.5 484.423 540.5 484.423 520.5 501.744 510.5"/>
  <polygon class="cls-4" points="536.385 510.5 553.705 520.5 553.705 540.5 536.385 550.5 519.064 540.5 519.064 520.5 536.385 510.5"/>
  <polygon class="cls-4" points="571.026 510.5 588.346 520.5 588.346 540.5 571.026 550.5 553.705 540.5 553.705 520.5 571.026 510.5"/>
  <polygon class="cls-4" points="605.667 510.5 622.987 520.5 622.987 540.5 605.667 550.5 588.346 540.5 588.346 520.5 605.667 510.5"/>
  <polygon class="cls-6" points="380.5 480.5 397.821 490.5 397.821 510.5 380.5 520.5 363.179 510.5 363.179 490.5 380.5 480.5"/>
  <polygon class="cls-5" points="415.141 480.5 432.462 490.5 432.462 510.5 415.141 520.5 397.821 510.5 397.821 490.5 415.141 480.5"/>
  <polygon class="cls-8" points="449.782 480.5 467.103 490.5 467.103 510.5 449.782 520.5 432.462 510.5 432.462 490.5 449.782 480.5"/>
  <polygon class="cls-5" points="484.423 480.5 501.744 490.5 501.744 510.5 484.423 520.5 467.103 510.5 467.103 490.5 484.423 480.5"/>
  <polygon class="cls-5" points="519.064 480.5 536.385 490.5 536.385 510.5 519.064 520.5 501.744 510.5 501.744 490.5 519.064 480.5"/>
  <polygon class="cls-5" points="553.705 480.5 571.026 490.5 571.026 510.5 553.705 520.5 536.385 510.5 536.385 490.5 553.705 480.5"/>
  <polygon class="cls-4" points="588.346 480.5 605.667 490.5 605.667 510.5 588.346 520.5 571.026 510.5 571.026 490.5 588.346 480.5"/>
  <polygon class="cls-4" points="622.987 480.5 640.308 490.5 640.308 510.5 622.987 520.5 605.667 510.5 605.667 490.5 622.987 480.5"/>
  <polygon class="cls-4" points="138.013 480.5 155.333 490.5 155.333 510.5 138.013 520.5 120.692 510.5 120.692 490.5 138.013 480.5"/>
  <polygon class="cls-4" points="172.654 480.5 189.974 490.5 189.974 510.5 172.654 520.5 155.333 510.5 155.333 490.5 172.654 480.5"/>
  <polygon class="cls-5" points="207.295 480.5 224.615 490.5 224.615 510.5 207.295 520.5 189.974 510.5 189.974 490.5 207.295 480.5"/>
  <polygon class="cls-5" points="241.936 480.5 259.256 490.5 259.256 510.5 241.936 520.5 224.615 510.5 224.615 490.5 241.936 480.5"/>
  <polygon class="cls-5" points="276.577 480.5 293.897 490.5 293.897 510.5 276.577 520.5 259.256 510.5 259.256 490.5 276.577 480.5"/>
  <polygon class="cls-5" points="311.218 480.5 328.538 490.5 328.538 510.5 311.218 520.5 293.897 510.5 293.897 490.5 311.218 480.5"/>
  <polygon class="cls-5" points="345.859 480.5 363.179 490.5 363.179 510.5 345.859 520.5 328.538 510.5 328.538 490.5 345.859 480.5"/>
  <polygon class="cls-4" points="120.692 450.5 138.013 460.5 138.013 480.5 120.692 490.5 103.372 480.5 103.372 460.5 120.692 450.5"/>
  <polygon class="cls-4" points="155.333 450.5 172.654 460.5 172.654 480.5 155.333 490.5 138.013 480.5 138.013 460.5 155.333 450.5"/>
  <polygon class="cls-5" points="189.974 450.5 207.295 460.5 207.295 480.5 189.974 490.5 172.654 480.5 172.654 460.5 189.974 450.5"/>
  <polygon class="cls-5" points="224.615 450.5 241.936 460.5 241.936 480.5 224.615 490.5 207.295 480.5 207.295 460.5 224.615 450.5"/>
  <polygon class="cls-7" points="259.256 450.5 276.577 460.5 276.577 480.5 259.256 490.5 241.936 480.5 241.936 460.5 259.256 450.5"/>
  <polygon class="cls-5" points="293.897 450.5 311.218 460.5 311.218 480.5 293.897 490.5 276.577 480.5 276.577 460.5 293.897 450.5"/>
  <polygon class="cls-6" points="328.538 450.5 345.859 460.5 345.859 480.5 328.538 490.5 311.218 480.5 311.218 460.5 328.538 450.5"/>
  <polygon class="cls-5" points="363.179 450.5 380.5 460.5 380.5 480.5 363.179 490.5 345.859 480.5 345.859 460.5 363.179 450.5"/>
  <polygon class="cls-5" points="397.821 450.5 415.141 460.5 415.141 480.5 397.821 490.5 380.5 480.5 380.5 460.5 397.821 450.5"/>
  <polygon class="cls-5" points="432.462 450.5 449.782 460.5 449.782 480.5 432.462 490.5 415.141 480.5 415.141 460.5 432.462 450.5"/>
  <polygon class="cls-5" points="467.103 450.5 484.423 460.5 484.423 480.5 467.103 490.5 449.782 480.5 449.782 460.5 467.103 450.5"/>
  <polygon class="cls-5" points="501.744 450.5 519.064 460.5 519.064 480.5 501.744 490.5 484.423 480.5 484.423 460.5 501.744 450.5"/>
  <polygon class="cls-5" points="536.385 450.5 553.705 460.5 553.705 480.5 536.385 490.5 519.064 480.5 519.064 460.5 536.385 450.5"/>
  <polygon class="cls-5" points="571.026 450.5 588.346 460.5 588.346 480.5 571.026 490.5 553.705 480.5 553.705 460.5 571.026 450.5"/>
  <polygon class="cls-4" points="605.667 450.5 622.987 460.5 622.987 480.5 605.667 490.5 588.346 480.5 588.346 460.5 605.667 450.5"/>
  <polygon class="cls-4" points="640.308 450.5 657.628 460.5 657.628 480.5 640.308 490.5 622.987 480.5 622.987 460.5 640.308 450.5"/>
  <polygon class="cls-7" points="380.5 420.5 397.821 430.5 397.821 450.5 380.5 460.5 363.179 450.5 363.179 430.5 380.5 420.5"/>
  <polygon class="cls-5" points="415.141 420.5 432.462 430.5 432.462 450.5 415.141 460.5 397.821 450.5 397.821 430.5 415.141 420.5"/>
  <polygon class="cls-5" points="449.782 420.5 467.103 430.5 467.103 450.5 449.782 460.5 432.462 450.5 432.462 430.5 449.782 420.5"/>
  <polygon class="cls-6" points="484.423 420.5 501.744 430.5 501.744 450.5 484.423 460.5 467.103 450.5 467.103 430.5 484.423 420.5"/>
  <polygon class="cls-5" points="519.064 420.5 536.385 430.5 536.385 450.5 519.064 460.5 501.744 450.5 501.744 430.5 519.064 420.5"/>
  <polygon class="cls-5" points="553.705 420.5 571.026 430.5 571.026 450.5 553.705 460.5 536.385 450.5 536.385 430.5 553.705 420.5"/>
  <polygon class="cls-5" points="588.346 420.5 605.667 430.5 605.667 450.5 588.346 460.5 571.026 450.5 571.026 430.5 588.346 420.5"/>
  <polygon class="cls-4" points="622.987 420.5 640.308 430.5 640.308 450.5 622.987 460.5 605.667 450.5 605.667 430.5 622.987 420.5"/>
  <polygon class="cls-4" points="657.628 420.5 674.949 430.5 674.949 450.5 657.628 460.5 640.308 450.5 640.308 430.5 657.628 420.5"/>
  <polygon class="cls-4" points="103.372 420.5 120.692 430.5 120.692 450.5 103.372 460.5 86.051 450.5 86.051 430.5 103.372 420.5"/>
  <polygon class="cls-4" points="138.013 420.5 155.333 430.5 155.333 450.5 138.013 460.5 120.692 450.5 120.692 430.5 138.013 420.5"/>
  <polygon class="cls-4" points="172.654 420.5 189.974 430.5 189.974 450.5 172.654 460.5 155.333 450.5 155.333 430.5 172.654 420.5"/>
  <polygon class="cls-5" points="207.295 420.5 224.615 430.5 224.615 450.5 207.295 460.5 189.974 450.5 189.974 430.5 207.295 420.5"/>
  <polygon class="cls-5" points="241.936 420.5 259.256 430.5 259.256 450.5 241.936 460.5 224.615 450.5 224.615 430.5 241.936 420.5"/>
  <polygon class="cls-5" points="276.577 420.5 293.897 430.5 293.897 450.5 276.577 460.5 259.256 450.5 259.256 430.5 276.577 420.5"/>
  <polygon class="cls-5" points="311.218 420.5 328.538 430.5 328.538 450.5 311.218 460.5 293.897 450.5 293.897 430.5 311.218 420.5"/>
  <polygon class="cls-5" points="345.859 420.5 363.179 430.5 363.179 450.5 345.859 460.5 328.538 450.5 328.538 430.5 345.859 420.5"/>
  <polygon class="cls-4" points="155.333 210.5 172.654 220.5 172.654 240.5 155.333 250.5 138.013 240.5 138.013 220.5 155.333 210.5"/>
  <polygon class="cls-4" points="189.974 210.5 207.295 220.5 207.295 240.5 189.974 250.5 172.654 240.5 172.654 220.5 189.974 210.5"/>
  <polygon class="cls-4" points="224.615 210.5 241.936 220.5 241.936 240.5 224.615 250.5 207.295 240.5 207.295 220.5 224.615 210.5"/>
  <polygon class="cls-5" points="259.256 210.5 276.577 220.5 276.577 240.5 259.256 250.5 241.936 240.5 241.936 220.5 259.256 210.5"/>
  <polygon class="cls-5" points="293.897 210.5 311.218 220.5 311.218 240.5 293.897 250.5 276.577 240.5 276.577 220.5 293.897 210.5"/>
  <polygon class="cls-5" points="328.538 210.5 345.859 220.5 345.859 240.5 328.538 250.5 311.218 240.5 311.218 220.5 328.538 210.5"/>
  <polygon class="cls-5" points="363.179 210.5 380.5 220.5 380.5 240.5 363.179 250.5 345.859 240.5 345.859 220.5 363.179 210.5"/>
  <polygon class="cls-5" points="397.821 210.5 415.141 220.5 415.141 240.5 397.821 250.5 380.5 240.5 380.5 220.5 397.821 210.5"/>
  <polygon class="cls-5" points="432.462 210.5 449.782 220.5 449.782 240.5 432.462 250.5 415.141 240.5 415.141 220.5 432.462 210.5"/>
  <polygon class="cls-5" points="467.103 210.5 484.423 220.5 484.423 240.5 467.103 250.5 449.782 240.5 449.782 220.5 467.103 210.5"/>
  <polygon class="cls-5" points="501.744 210.5 519.064 220.5 519.064 240.5 501.744 250.5 484.423 240.5 484.423 220.5 501.744 210.5"/>
  <polygon class="cls-4" points="536.385 210.5 553.705 220.5 553.705 240.5 536.385 250.5 519.064 240.5 519.064 220.5 536.385 210.5"/>
  <polygon class="cls-4" points="571.026 210.5 588.346 220.5 588.346 240.5 571.026 250.5 553.705 240.5 553.705 220.5 571.026 210.5"/>
  <polygon class="cls-4" points="605.667 210.5 622.987 220.5 622.987 240.5 605.667 250.5 588.346 240.5 588.346 220.5 605.667 210.5"/>
  <polygon class="cls-4" points="674.949 330.5 692.269 340.5 692.269 360.5 674.949 370.5 657.628 360.5 657.628 340.5 674.949 330.5"/>
  <polygon class="cls-5" points="380.5 180.5 397.821 190.5 397.821 210.5 380.5 220.5 363.179 210.5 363.179 190.5 380.5 180.5"/>
  <polygon class="cls-5" points="415.141 180.5 432.462 190.5 432.462 210.5 415.141 220.5 397.821 210.5 397.821 190.5 415.141 180.5"/>
  <polygon class="cls-8" points="449.782 180.5 467.103 190.5 467.103 210.5 449.782 220.5 432.462 210.5 432.462 190.5 449.782 180.5"/>
  <polygon class="cls-4" points="484.423 180.5 501.744 190.5 501.744 210.5 484.423 220.5 467.103 210.5 467.103 190.5 484.423 180.5"/>
  <polygon class="cls-4" points="519.064 180.5 536.385 190.5 536.385 210.5 519.064 220.5 501.744 210.5 501.744 190.5 519.064 180.5"/>
  <polygon class="cls-4" points="553.705 180.5 571.026 190.5 571.026 210.5 553.705 220.5 536.385 210.5 536.385 190.5 553.705 180.5"/>
  <polygon class="cls-4" points="588.346 180.5 605.667 190.5 605.667 210.5 588.346 220.5 571.026 210.5 571.026 190.5 588.346 180.5"/>
  <polygon class="cls-4" points="172.654 180.5 189.974 190.5 189.974 210.5 172.654 220.5 155.333 210.5 155.333 190.5 172.654 180.5"/>
  <polygon class="cls-4" points="207.295 180.5 224.615 190.5 224.615 210.5 207.295 220.5 189.974 210.5 189.974 190.5 207.295 180.5"/>
  <polygon class="cls-4" points="241.936 180.5 259.256 190.5 259.256 210.5 241.936 220.5 224.615 210.5 224.615 190.5 241.936 180.5"/>
  <polygon class="cls-4" points="276.577 180.5 293.897 190.5 293.897 210.5 276.577 220.5 259.256 210.5 259.256 190.5 276.577 180.5"/>
  <polygon class="cls-5" points="311.218 180.5 328.538 190.5 328.538 210.5 311.218 220.5 293.897 210.5 293.897 190.5 311.218 180.5"/>
  <polygon class="cls-5" points="345.859 180.5 363.179 190.5 363.179 210.5 345.859 220.5 328.538 210.5 328.538 190.5 345.859 180.5"/>
  <polygon class="cls-4" points="189.974 150.5 207.295 160.5 207.295 180.5 189.974 190.5 172.654 180.5 172.654 160.5 189.974 150.5"/>
  <polygon class="cls-6" points="224.615 150.5 241.936 160.5 241.936 180.5 224.615 190.5 207.295 180.5 207.295 160.5 224.615 150.5"/>
  <polygon class="cls-4" points="259.256 150.5 276.577 160.5 276.577 180.5 259.256 190.5 241.936 180.5 241.936 160.5 259.256 150.5"/>
  <polygon class="cls-4" points="293.897 150.5 311.218 160.5 311.218 180.5 293.897 190.5 276.577 180.5 276.577 160.5 293.897 150.5"/>
  <polygon class="cls-4" points="328.538 150.5 345.859 160.5 345.859 180.5 328.538 190.5 311.218 180.5 311.218 160.5 328.538 150.5"/>
  <polygon class="cls-9" points="363.179 150.5 380.5 160.5 380.5 180.5 363.179 190.5 345.859 180.5 345.859 160.5 363.179 150.5"/>
  <polygon class="cls-5" points="397.821 150.5 415.141 160.5 415.141 180.5 397.821 190.5 380.5 180.5 380.5 160.5 397.821 150.5"/>
  <polygon class="cls-4" points="432.462 150.5 449.782 160.5 449.782 180.5 432.462 190.5 415.141 180.5 415.141 160.5 432.462 150.5"/>
  <polygon class="cls-6" points="467.103 150.5 484.423 160.5 484.423 180.5 467.103 190.5 449.782 180.5 449.782 160.5 467.103 150.5"/>
  <polygon class="cls-4" points="501.744 150.5 519.064 160.5 519.064 180.5 501.744 190.5 484.423 180.5 484.423 160.5 501.744 150.5"/>
  <polygon class="cls-4" points="536.385 150.5 553.705 160.5 553.705 180.5 536.385 190.5 519.064 180.5 519.064 160.5 536.385 150.5"/>
  <polygon class="cls-4" points="571.026 150.5 588.346 160.5 588.346 180.5 571.026 190.5 553.705 180.5 553.705 160.5 571.026 150.5"/>
  <polygon class="cls-4" points="674.949 390.5 692.269 400.5 692.269 420.5 674.949 430.5 657.628 420.5 657.628 400.5 674.949 390.5"/>
  <polygon class="cls-6" points="380.5 120.5 397.821 130.5 397.821 150.5 380.5 160.5 363.179 150.5 363.179 130.5 380.5 120.5"/>
  <polygon class="cls-4" points="415.141 120.5 432.462 130.5 432.462 150.5 415.141 160.5 397.821 150.5 397.821 130.5 415.141 120.5"/>
  <polygon class="cls-4" points="449.782 120.5 467.103 130.5 467.103 150.5 449.782 160.5 432.462 150.5 432.462 130.5 449.782 120.5"/>
  <polygon class="cls-6" points="484.423 120.5 501.744 130.5 501.744 150.5 484.423 160.5 467.103 150.5 467.103 130.5 484.423 120.5"/>
  <polygon class="cls-4" points="519.064 120.5 536.385 130.5 536.385 150.5 519.064 160.5 501.744 150.5 501.744 130.5 519.064 120.5"/>
  <polygon class="cls-4" points="553.705 120.5 571.026 130.5 571.026 150.5 553.705 160.5 536.385 150.5 536.385 130.5 553.705 120.5"/>
  <polygon class="cls-4" points="207.295 120.5 224.615 130.5 224.615 150.5 207.295 160.5 189.974 150.5 189.974 130.5 207.295 120.5"/>
  <polygon class="cls-4" points="241.936 120.5 259.256 130.5 259.256 150.5 241.936 160.5 224.615 150.5 224.615 130.5 241.936 120.5"/>
  <polygon class="cls-4" points="276.577 120.5 293.897 130.5 293.897 150.5 276.577 160.5 259.256 150.5 259.256 130.5 276.577 120.5"/>
  <polygon class="cls-4" points="311.218 120.5 328.538 130.5 328.538 150.5 311.218 160.5 293.897 150.5 293.897 130.5 311.218 120.5"/>
  <polygon class="cls-4" points="345.859 120.5 363.179 130.5 363.179 150.5 345.859 160.5 328.538 150.5 328.538 130.5 345.859 120.5"/>
  <polygon class="cls-4" points="259.256 630.5 276.577 640.5 276.577 660.5 259.256 670.5 241.936 660.5 241.936 640.5 259.256 630.5"/>
  <polygon class="cls-4" points="293.897 630.5 311.218 640.5 311.218 660.5 293.897 670.5 276.577 660.5 276.577 640.5 293.897 630.5"/>
  <polygon class="cls-4" points="328.538 630.5 345.859 640.5 345.859 660.5 328.538 670.5 311.218 660.5 311.218 640.5 328.538 630.5"/>
  <polygon class="cls-4" points="363.179 630.5 380.5 640.5 380.5 660.5 363.179 670.5 345.859 660.5 345.859 640.5 363.179 630.5"/>
  <polygon class="cls-4" points="397.821 630.5 415.141 640.5 415.141 660.5 397.821 670.5 380.5 660.5 380.5 640.5 397.821 630.5"/>
  <polygon class="cls-4" points="432.462 630.5 449.782 640.5 449.782 660.5 432.462 670.5 415.141 660.5 415.141 640.5 432.462 630.5"/>
  <polygon class="cls-4" points="467.103 630.5 484.423 640.5 484.423 660.5 467.103 670.5 449.782 660.5 449.782 640.5 467.103 630.5"/>
  <polygon class="cls-4" points="501.744 630.5 519.064 640.5 519.064 660.5 501.744 670.5 484.423 660.5 484.423 640.5 501.744 630.5"/>
  <polygon class="cls-4" points="380.5 600.5 397.821 610.5 397.821 630.5 380.5 640.5 363.179 630.5 363.179 610.5 380.5 600.5"/>
  <polygon class="cls-4" points="415.141 600.5 432.462 610.5 432.462 630.5 415.141 640.5 397.821 630.5 397.821 610.5 415.141 600.5"/>
  <polygon class="cls-4" points="449.782 600.5 467.103 610.5 467.103 630.5 449.782 640.5 432.462 630.5 432.462 610.5 449.782 600.5"/>
  <polygon class="cls-4" points="484.423 600.5 501.744 610.5 501.744 630.5 484.423 640.5 467.103 630.5 467.103 610.5 484.423 600.5"/>
  <polygon class="cls-4" points="519.064 600.5 536.385 610.5 536.385 630.5 519.064 640.5 501.744 630.5 501.744 610.5 519.064 600.5"/>
  <polygon class="cls-4" points="553.705 600.5 571.026 610.5 571.026 630.5 553.705 640.5 536.385 630.5 536.385 610.5 553.705 600.5"/>
  <polygon class="cls-4" points="207.295 600.5 224.615 610.5 224.615 630.5 207.295 640.5 189.974 630.5 189.974 610.5 207.295 600.5"/>
  <polygon class="cls-4" points="241.936 600.5 259.256 610.5 259.256 630.5 241.936 640.5 224.615 630.5 224.615 610.5 241.936 600.5"/>
  <polygon class="cls-4" points="276.577 600.5 293.897 610.5 293.897 630.5 276.577 640.5 259.256 630.5 259.256 610.5 276.577 600.5"/>
  <polygon class="cls-4" points="311.218 600.5 328.538 610.5 328.538 630.5 311.218 640.5 293.897 630.5 293.897 610.5 311.218 600.5"/>
  <polygon class="cls-4" points="345.859 600.5 363.179 610.5 363.179 630.5 345.859 640.5 328.538 630.5 328.538 610.5 345.859 600.5"/>
  <polygon class="cls-4" points="189.974 570.5 207.295 580.5 207.295 600.5 189.974 610.5 172.654 600.5 172.654 580.5 189.974 570.5"/>
  <polygon class="cls-4" points="224.615 570.5 241.936 580.5 241.936 600.5 224.615 610.5 207.295 600.5 207.295 580.5 224.615 570.5"/>
  <polygon class="cls-4" points="259.256 570.5 276.577 580.5 276.577 600.5 259.256 610.5 241.936 600.5 241.936 580.5 259.256 570.5"/>
  <polygon class="cls-4" points="293.897 570.5 311.218 580.5 311.218 600.5 293.897 610.5 276.577 600.5 276.577 580.5 293.897 570.5"/>
  <polygon class="cls-4" points="328.538 570.5 345.859 580.5 345.859 600.5 328.538 610.5 311.218 600.5 311.218 580.5 328.538 570.5"/>
  <polygon class="cls-5" points="363.179 570.5 380.5 580.5 380.5 600.5 363.179 610.5 345.859 600.5 345.859 580.5 363.179 570.5"/>
  <polygon class="cls-5" points="397.821 570.5 415.141 580.5 415.141 600.5 397.821 610.5 380.5 600.5 380.5 580.5 397.821 570.5"/>
  <polygon class="cls-5" points="432.462 570.5 449.782 580.5 449.782 600.5 432.462 610.5 415.141 600.5 415.141 580.5 432.462 570.5"/>
  <polygon class="cls-6" points="467.103 570.5 484.423 580.5 484.423 600.5 467.103 610.5 449.782 600.5 449.782 580.5 467.103 570.5"/>
  <polygon class="cls-4" points="501.744 570.5 519.064 580.5 519.064 600.5 501.744 610.5 484.423 600.5 484.423 580.5 501.744 570.5"/>
  <polygon class="cls-4" points="536.385 570.5 553.705 580.5 553.705 600.5 536.385 610.5 519.064 600.5 519.064 580.5 536.385 570.5"/>
  <polygon class="cls-4" points="571.026 570.5 588.346 580.5 588.346 600.5 571.026 610.5 553.705 600.5 553.705 580.5 571.026 570.5"/>
  <polygon class="cls-8" points="380.5 540.5 397.821 550.5 397.821 570.5 380.5 580.5 363.179 570.5 363.179 550.5 380.5 540.5"/>
  <polygon class="cls-5" points="415.141 540.5 432.462 550.5 432.462 570.5 415.141 580.5 397.821 570.5 397.821 550.5 415.141 540.5"/>
  <polygon class="cls-5" points="449.782 540.5 467.103 550.5 467.103 570.5 449.782 580.5 432.462 570.5 432.462 550.5 449.782 540.5"/>
  <polygon class="cls-4" points="484.423 540.5 501.744 550.5 501.744 570.5 484.423 580.5 467.103 570.5 467.103 550.5 484.423 540.5"/>
  <polygon class="cls-6" points="519.064 540.5 536.385 550.5 536.385 570.5 519.064 580.5 501.744 570.5 501.744 550.5 519.064 540.5"/>
  <polygon class="cls-4" points="553.705 540.5 571.026 550.5 571.026 570.5 553.705 580.5 536.385 570.5 536.385 550.5 553.705 540.5"/>
  <polygon class="cls-4" points="588.346 540.5 605.667 550.5 605.667 570.5 588.346 580.5 571.026 570.5 571.026 550.5 588.346 540.5"/>
  <polygon class="cls-4" points="172.654 540.5 189.974 550.5 189.974 570.5 172.654 580.5 155.333 570.5 155.333 550.5 172.654 540.5"/>
  <polygon class="cls-4" points="207.295 540.5 224.615 550.5 224.615 570.5 207.295 580.5 189.974 570.5 189.974 550.5 207.295 540.5"/>
  <polygon class="cls-4" points="241.936 540.5 259.256 550.5 259.256 570.5 241.936 580.5 224.615 570.5 224.615 550.5 241.936 540.5"/>
  <polygon class="cls-4" points="276.577 540.5 293.897 550.5 293.897 570.5 276.577 580.5 259.256 570.5 259.256 550.5 276.577 540.5"/>
  <polygon class="cls-5" points="311.218 540.5 328.538 550.5 328.538 570.5 311.218 580.5 293.897 570.5 293.897 550.5 311.218 540.5"/>
  <polygon class="cls-5" points="345.859 540.5 363.179 550.5 363.179 570.5 345.859 580.5 328.538 570.5 328.538 550.5 345.859 540.5"/>
  <polygon class="cls-4" points="259.256 90.5 276.577 100.5 276.577 120.5 259.256 130.5 241.936 120.5 241.936 100.5 259.256 90.5"/>
  <polygon class="cls-4" points="293.897 90.5 311.218 100.5 311.218 120.5 293.897 130.5 276.577 120.5 276.577 100.5 293.897 90.5"/>
  <polygon class="cls-4" points="328.538 90.5 345.859 100.5 345.859 120.5 328.538 130.5 311.218 120.5 311.218 100.5 328.538 90.5"/>
  <polygon class="cls-4" points="363.179 90.5 380.5 100.5 380.5 120.5 363.179 130.5 345.859 120.5 345.859 100.5 363.179 90.5"/>
  <polygon class="cls-4" points="397.821 90.5 415.141 100.5 415.141 120.5 397.821 130.5 380.5 120.5 380.5 100.5 397.821 90.5"/>
  <polygon class="cls-4" points="432.462 90.5 449.782 100.5 449.782 120.5 432.462 130.5 415.141 120.5 415.141 100.5 432.462 90.5"/>
  <polygon class="cls-4" points="467.103 90.5 484.423 100.5 484.423 120.5 467.103 130.5 449.782 120.5 449.782 100.5 467.103 90.5"/>
  <polygon class="cls-4" points="501.744 90.5 519.064 100.5 519.064 120.5 501.744 130.5 484.423 120.5 484.423 100.5 501.744 90.5"/>
  <polygon class="cls-8" points="380.5 360.5 397.821 370.5 397.821 390.5 380.5 400.5 363.179 390.5 363.179 370.5 380.5 360.5"/>
  <circle class="cls-10" cx="380.5" cy="23" r="10"/>
  <circle class="cls-10" cx="23" cy="380.5" r="10"/>
  <circle class="cls-10" cx="738" cy="380.5" r="10"/>
  <circle class="cls-10" cx="380.5" cy="738" r="10"/>
  <circle class="cls-10" cx="349.34171" cy="24.36041" r="10"/>
  <circle class="cls-10" cx="24.36041" cy="411.65829" r="10"/>
  <circle class="cls-10" cx="736.63959" cy="349.34171" r="10"/>
  <circle class="cls-10" cx="411.65829" cy="736.63959" r="10"/>
  <circle class="cls-10" cx="318.42061" cy="28.43126" r="10"/>
  <circle class="cls-10" cx="28.43126" cy="442.57939" r="10"/>
  <circle class="cls-10" cx="732.56874" cy="318.42061" r="10"/>
  <circle class="cls-10" cx="442.57939" cy="732.56874" r="10"/>
  <circle class="cls-10" cx="287.97192" cy="35.18159" r="10"/>
  <circle class="cls-10" cx="35.18159" cy="473.02808" r="10"/>
  <circle class="cls-10" cx="725.81841" cy="287.97192" r="10"/>
  <circle class="cls-10" cx="473.02808" cy="725.81841" r="10"/>
  <circle class="cls-10" cx="44.55989" cy="258.2278" r="10"/>
  <circle class="cls-10" cx="258.2278" cy="716.44011" r="10"/>
  <circle class="cls-10" cx="502.7722" cy="44.55989" r="10"/>
  <circle class="cls-10" cx="716.44011" cy="502.7722" r="10"/>
  <circle class="cls-10" cx="35.18149" cy="287.9723" r="10"/>
  <circle class="cls-10" cx="287.9723" cy="725.81851" r="10"/>
  <circle class="cls-10" cx="473.0277" cy="35.18149" r="10"/>
  <circle class="cls-10" cx="725.81851" cy="473.0277" r="10"/>
  <circle class="cls-10" cx="28.4312" cy="318.42094" r="10"/>
  <circle class="cls-10" cx="318.42094" cy="732.5688" r="10"/>
  <circle class="cls-10" cx="442.57906" cy="28.4312" r="10"/>
  <circle class="cls-10" cx="732.5688" cy="442.57906" r="10"/>
  <circle class="cls-10" cx="24.36037" cy="349.3421" r="10"/>
  <circle class="cls-10" cx="349.3421" cy="736.63963" r="10"/>
  <circle class="cls-10" cx="411.6579" cy="24.36037" r="10"/>
  <circle class="cls-10" cx="736.63963" cy="411.6579" r="10"/>
  <circle class="cls-10" cx="106.63911" cy="150.70343" r="10"/>
  <circle class="cls-10" cx="150.70343" cy="654.36089" r="10"/>
  <circle class="cls-10" cx="610.29657" cy="106.63911" r="10"/>
  <circle class="cls-10" cx="654.36089" cy="610.29657" r="10"/>
  <circle class="cls-10" cx="87.65308" cy="175.44652" r="10"/>
  <circle class="cls-10" cx="175.44652" cy="673.34692" r="10"/>
  <circle class="cls-10" cx="585.55348" cy="87.65308" r="10"/>
  <circle class="cls-10" cx="673.34692" cy="585.55348" r="10"/>
  <circle class="cls-10" cx="70.89584" cy="201.75014" r="10"/>
  <circle class="cls-10" cx="201.75014" cy="690.10416" r="10"/>
  <circle class="cls-10" cx="559.24986" cy="70.89584" r="10"/>
  <circle class="cls-10" cx="690.10416" cy="559.24986" r="10"/>
  <circle class="cls-10" cx="56.49485" cy="229.41422" r="10"/>
  <circle class="cls-10" cx="229.41422" cy="704.50515" r="10"/>
  <circle class="cls-10" cx="531.58578" cy="56.49485" r="10"/>
  <circle class="cls-10" cx="704.50515" cy="531.58578" r="10"/>
  <circle class="cls-10" cx="70.89592" cy="559.25" r="10"/>
  <circle class="cls-10" cx="559.25" cy="690.10408" r="10"/>
  <circle class="cls-10" cx="201.75" cy="70.89592" r="10"/>
  <circle class="cls-10" cx="690.10408" cy="201.75" r="10"/>
  <circle class="cls-10" cx="87.65321" cy="585.55367" r="10"/>
  <circle class="cls-10" cx="585.55367" cy="673.34679" r="10"/>
  <circle class="cls-10" cx="175.44633" cy="87.65321" r="10"/>
  <circle class="cls-10" cx="673.34679" cy="175.44633" r="10"/>
  <circle class="cls-10" cx="106.63922" cy="610.2967" r="10"/>
  <circle class="cls-10" cx="610.2967" cy="654.36078" r="10"/>
  <circle class="cls-10" cx="150.7033" cy="106.63922" r="10"/>
  <circle class="cls-10" cx="654.36078" cy="150.7033" r="10"/>
  <circle class="cls-10" cx="127.70952" cy="633.29087" r="10"/>
  <circle class="cls-10" cx="633.29087" cy="633.29048" r="10"/>
  <circle class="cls-10" cx="127.70913" cy="127.70952" r="10"/>
  <circle class="cls-10" cx="633.29048" cy="127.70913" r="10"/>
  <circle class="cls-10" cx="258.22764" cy="44.55994" r="10"/>
  <circle class="cls-10" cx="44.55994" cy="502.77236" r="10"/>
  <circle class="cls-10" cx="716.44006" cy="258.22764" r="10"/>
  <circle class="cls-10" cx="502.77236" cy="716.44006" r="10"/>
  <circle class="cls-10" cx="229.41372" cy="56.49508" r="10"/>
  <circle class="cls-10" cx="56.49508" cy="531.58628" r="10"/>
  <circle class="cls-10" cx="704.50492" cy="229.41372" r="10"/>
  <circle class="cls-10" cx="531.58628" cy="704.50492" r="10"/>
</svg>
